<svg width="32" height="32" viewBox="0 0 32 32" fill="none" xmlns="http://www.w3.org/2000/svg">
<path d="M16.0003 6.66699C15.4729 6.66699 14.9573 6.82339 14.5188 7.11641C14.0803 7.40942 13.7385 7.8259 13.5366 8.31317C13.3348 8.80044 13.282 9.33662 13.3849 9.8539C13.4878 10.3712 13.7418 10.8463 14.1147 11.2193C14.4876 11.5922 14.9628 11.8462 15.4801 11.9491C15.9974 12.052 16.5335 11.9992 17.0208 11.7973C17.5081 11.5955 17.9246 11.2537 18.2176 10.8152C18.5106 10.3766 18.667 9.86108 18.667 9.33366C18.667 8.62642 18.386 7.94814 17.8859 7.44804C17.3858 6.94794 16.7076 6.66699 16.0003 6.66699ZM6.66699 21.4937V25.3337H25.3337V21.4937L16.2137 19.2003C16.1398 19.1818 16.0682 19.1549 16.0003 19.1203C15.9324 19.1549 15.8609 19.1818 15.787 19.2003L6.66699 21.4937Z" fill="#BBDDF1"/>
<path d="M16 14.6667C14.9452 14.6667 13.914 14.3539 13.037 13.7678C12.1599 13.1818 11.4763 12.3489 11.0726 11.3743C10.669 10.3998 10.5634 9.32742 10.7691 8.29285C10.9749 7.25829 11.4829 6.30798 12.2288 5.5621C12.9746 4.81622 13.925 4.30827 14.9595 4.10248C15.9941 3.89669 17.0664 4.00231 18.041 4.40598C19.0155 4.80965 19.8485 5.49323 20.4345 6.37029C21.0205 7.24736 21.3333 8.2785 21.3333 9.33334C21.3333 10.7478 20.7714 12.1044 19.7712 13.1046C18.771 14.1048 17.4145 14.6667 16 14.6667ZM16 6.66667C15.4726 6.66667 14.957 6.82307 14.5185 7.11608C14.0799 7.4091 13.7382 7.82558 13.5363 8.31285C13.3345 8.80012 13.2817 9.33629 13.3846 9.85358C13.4875 10.3709 13.7414 10.846 14.1144 11.219C14.4873 11.5919 14.9625 11.8459 15.4798 11.9488C15.997 12.0517 16.5332 11.9988 17.0205 11.797C17.5078 11.5952 17.9242 11.2534 18.2173 10.8149C18.5103 10.3763 18.6667 9.86075 18.6667 9.33334C18.6667 8.62609 18.3857 7.94781 17.8856 7.44772C17.3855 6.94762 16.7072 6.66667 16 6.66667ZM25.3333 28H6.66667C5.95942 28 5.28115 27.719 4.78105 27.219C4.28095 26.7189 4 26.0406 4 25.3333V21.48C3.99965 20.9633 4.14942 20.4576 4.4311 20.0244C4.71278 19.5913 5.11424 19.2493 5.58667 19.04L5.8 18.96L15.04 16.64C15.6578 16.4016 16.3422 16.4016 16.96 16.64L26.2 18.96L26.4133 19.04C26.8837 19.2483 27.2838 19.5883 27.5653 20.0189C27.8468 20.4494 27.9978 20.9522 28 21.4667V25.3333C28 26.0406 27.719 26.7189 27.219 27.219C26.7189 27.719 26.0406 28 25.3333 28ZM6.66667 21.4933V25.3333H25.3333V21.4933L16.2133 19.2C16.1394 19.1814 16.0679 19.1546 16 19.12C15.9321 19.1546 15.8606 19.1814 15.7867 19.2L6.66667 21.4933Z" fill="#4E83A0"/>
</svg>
