<svg width="24" height="24" viewBox="0 0 24 24" fill="none" xmlns="http://www.w3.org/2000/svg">
<path d="M12 11C11.4067 11 10.8266 10.8241 10.3333 10.4944C9.83994 10.1648 9.45542 9.69623 9.22836 9.14805C9.0013 8.59987 8.94189 7.99667 9.05764 7.41473C9.1734 6.83279 9.45912 6.29824 9.87868 5.87868C10.2982 5.45912 10.8328 5.1734 11.4147 5.05764C11.9967 4.94189 12.5999 5.0013 13.1481 5.22836C13.6962 5.45542 14.1648 5.83994 14.4944 6.33329C14.8241 6.82664 15 7.40666 15 8C15 8.79565 14.6839 9.55871 14.1213 10.1213C13.5587 10.6839 12.7956 11 12 11ZM12 7C11.8022 7 11.6089 7.05865 11.4444 7.16853C11.28 7.27841 11.1518 7.43459 11.0761 7.61732C11.0004 7.80004 10.9806 8.00111 11.0192 8.19509C11.0578 8.38907 11.153 8.56725 11.2929 8.70711C11.4327 8.84696 11.6109 8.9422 11.8049 8.98078C11.9989 9.01937 12.2 8.99957 12.3827 8.92388C12.5654 8.84819 12.7216 8.72002 12.8315 8.55557C12.9414 8.39112 13 8.19778 13 8C13 7.73478 12.8946 7.48043 12.7071 7.29289C12.5196 7.10536 12.2652 7 12 7ZM12 14.05L17 15.72C17 15.9852 17.1054 16.2396 17.2929 16.4271C17.4804 16.6146 17.7348 16.72 18 16.72C18.2652 16.72 18.5196 16.6146 18.7071 16.4271C18.8946 16.2396 19 15.9852 19 15.72C19.0004 15.2995 18.8682 14.8895 18.6223 14.5484C18.3763 14.2074 18.0291 13.9525 17.63 13.82L12.63 12.16C12.2217 12.0198 11.7783 12.0198 11.37 12.16L6.37 13.82C5.97089 13.9525 5.62369 14.2074 5.37774 14.5484C5.13179 14.8895 4.99962 15.2995 5 15.72C5 15.9852 5.10536 16.2396 5.29289 16.4271C5.48043 16.6146 5.73478 16.72 6 16.72C6.26522 16.72 6.51957 16.6146 6.70711 16.4271C6.89464 16.2396 7 15.9852 7 15.72L12 14.05ZM12 22.91C11.7201 22.9101 11.4435 22.8486 11.19 22.73L2.19 18.73C1.83723 18.5737 1.53719 18.3188 1.32604 17.9959C1.1149 17.6729 1.00167 17.2958 1 16.91V7.09C1.00167 6.70418 1.1149 6.32707 1.32604 6.00414C1.53719 5.68122 1.83723 5.42626 2.19 5.27L11.19 1.27C11.4451 1.15701 11.721 1.09863 12 1.09863C12.279 1.09863 12.5549 1.15701 12.81 1.27L21.81 5.27C22.1628 5.42626 22.4628 5.68122 22.674 6.00414C22.8851 6.32707 22.9983 6.70418 23 7.09V16.91C22.9983 17.2958 22.8851 17.6729 22.674 17.9959C22.4628 18.3188 22.1628 18.5737 21.81 18.73L12.81 22.73C12.5565 22.8486 12.2799 22.9101 12 22.91ZM3 7.09V16.91L12 20.91L21 16.91V7.09L12 3.09L3 7.09Z" fill="#2D323B"/>
</svg>
