<svg width="24" height="24" viewBox="0 0 24 24" fill="none" xmlns="http://www.w3.org/2000/svg">
<path fill-rule="evenodd" clip-rule="evenodd" d="M15.8846 13.4184C15.7422 13.5606 15.5555 13.6319 15.369 13.6319C15.1825 13.6319 14.9956 13.5606 14.8532 13.4179C14.5684 13.1328 14.5686 12.6708 14.8531 12.3855C15.6158 11.6222 16.0354 10.6079 16.0354 9.52792C16.0354 8.44794 15.6159 7.43372 14.8534 6.67021C14.5689 6.38491 14.5687 5.92283 14.8534 5.63767C15.1384 5.3523 15.6003 5.35282 15.885 5.63758C16.9225 6.67656 17.4942 8.05869 17.4942 9.52792C17.4942 10.9972 16.9224 12.3794 15.8846 13.4184Z" fill="#2D323B"/>
<path fill-rule="evenodd" clip-rule="evenodd" d="M17.4733 3.01375C17.7582 2.72849 18.2201 2.72849 18.5049 3.01375C20.2423 4.75357 21.1996 7.0676 21.1996 9.52796C21.1996 11.9883 20.2423 14.3024 18.5049 16.0419C18.3625 16.1846 18.1756 16.2559 17.9891 16.2559C17.8026 16.2559 17.6158 16.1846 17.4733 16.0419C17.1887 15.7569 17.1885 15.2945 17.4733 15.0096M17.4733 15.0096C18.9356 13.5453 19.7408 11.5993 19.7408 9.52796C19.7408 7.4569 18.9357 5.51067 17.4733 4.04602M17.4733 3.01375C17.1886 3.29885 17.1886 3.76092 17.4733 4.04602V3.01375Z" fill="#2D323B"/>
<path fill-rule="evenodd" clip-rule="evenodd" d="M8.11537 13.4184C8.25778 13.5606 8.4445 13.6319 8.63101 13.6319C8.81755 13.6319 9.00436 13.5606 9.14682 13.4179C9.43158 13.1328 9.43145 12.6708 9.14691 12.3855C8.38424 11.6222 7.96462 10.6079 7.96462 9.52792C7.96462 8.44794 8.3841 7.43372 9.14655 6.67021C9.43109 6.38491 9.43131 5.92283 9.14655 5.63767C8.86158 5.3523 8.39975 5.35282 8.11502 5.63758C7.07748 6.67656 6.5058 8.05869 6.5058 9.52792C6.5058 10.9972 7.07755 12.3794 8.11537 13.4184Z" fill="#2D323B"/>
<path fill-rule="evenodd" clip-rule="evenodd" d="M6.52573 3.01375C6.24086 2.72849 5.77896 2.72849 5.4941 3.01375C3.75669 4.75357 2.79941 7.0676 2.79941 9.52796C2.79941 11.9883 3.75668 14.3024 5.49411 16.0419C5.63657 16.1846 5.82338 16.2559 6.00991 16.2559C6.19645 16.2559 6.38327 16.1846 6.52573 16.0419C6.81036 15.7569 6.81052 15.2945 6.52573 15.0096M6.52573 15.0096C5.0634 13.5453 4.25824 11.5993 4.25824 9.52796C4.25824 7.4569 5.06337 5.51067 6.52573 4.04602M6.52573 3.01375C6.81043 3.29885 6.81042 3.76092 6.52573 4.04602V3.01375Z" fill="#2D323B"/>
<path d="M12.7296 20.4704C12.7296 20.8732 12.403 21.1998 12.0001 21.1998C11.5973 21.1998 11.2707 20.8732 11.2707 20.4704V11.1609C10.6474 10.8817 10.2119 10.2565 10.2119 9.52774C10.2119 8.5391 11.0122 7.7373 12.0001 7.7373C12.9881 7.7373 13.7884 8.5391 13.7884 9.52774C13.7884 10.2566 13.3528 10.8815 12.7296 11.1608V20.4704Z" fill="#2D323B"/>
</svg>
