<svg width="24" height="24" viewBox="0 0 24 24" fill="none" xmlns="http://www.w3.org/2000/svg">
<path d="M19.24 13H10C9.73478 13 9.48043 12.8947 9.29289 12.7071C9.10536 12.5196 9 12.2652 9 12C9 11.7348 9.10536 11.4805 9.29289 11.2929C9.48043 11.1054 9.73478 11 10 11H19.24L16.36 8.60003C16.2486 8.51969 16.1549 8.41724 16.0848 8.29908C16.0147 8.18093 15.9697 8.0496 15.9526 7.91328C15.9355 7.77697 15.9467 7.63859 15.9854 7.50679C16.0242 7.37498 16.0897 7.25258 16.1778 7.14721C16.266 7.04184 16.3749 6.95576 16.4978 6.89435C16.6207 6.83293 16.7549 6.7975 16.8921 6.79026C17.0293 6.78302 17.1665 6.80412 17.2952 6.85226C17.4239 6.90039 17.5412 6.97453 17.64 7.07003L22.64 11.23C22.7532 11.3239 22.8444 11.4415 22.907 11.5746C22.9695 11.7077 23.002 11.853 23.002 12C23.002 12.1471 22.9695 12.2924 22.907 12.4254C22.8444 12.5585 22.7532 12.6762 22.64 12.77L17.64 16.93C17.4615 17.0827 17.2349 17.1677 17 17.17C16.8531 17.1703 16.7079 17.1381 16.5748 17.0759C16.4418 17.0137 16.324 16.9229 16.23 16.81C16.1458 16.709 16.0824 16.5923 16.0433 16.4667C16.0043 16.3411 15.9904 16.209 16.0025 16.0781C16.0145 15.9471 16.0523 15.8198 16.1137 15.7034C16.175 15.5871 16.2587 15.484 16.36 15.4L19.24 13ZM17.56 20.31C17.7776 20.1619 17.928 19.9339 17.9785 19.6755C18.0291 19.4171 17.9757 19.1493 17.83 18.93C17.7574 18.8201 17.6637 18.7256 17.5544 18.652C17.4451 18.5784 17.3224 18.5271 17.1932 18.5011C17.064 18.4751 16.931 18.4748 16.8017 18.5004C16.6725 18.526 16.5495 18.5768 16.44 18.65C15.2355 19.4555 13.8349 19.9188 12.3877 19.9903C10.9405 20.0618 9.50105 19.7389 8.22303 19.0561C6.94501 18.3734 5.87643 17.3563 5.13139 16.1135C4.38634 14.8708 3.99281 13.449 3.99281 12C3.99281 10.5511 4.38634 9.12928 5.13139 7.88653C5.87643 6.64378 6.94501 5.62671 8.22303 4.94392C9.50105 4.26113 10.9405 3.93826 12.3877 4.00978C13.8349 4.08131 15.2355 4.54455 16.44 5.35003C16.5495 5.42326 16.6725 5.47411 16.8017 5.49967C16.931 5.52523 17.064 5.525 17.1932 5.49898C17.3224 5.47296 17.4451 5.42167 17.5544 5.34806C17.6637 5.27444 17.7574 5.17996 17.83 5.07003C17.9757 4.85078 18.0291 4.58291 17.9785 4.32456C17.928 4.06621 17.7776 3.83821 17.56 3.69003C15.9172 2.58375 13.9806 1.99511 12 2.00003C9.34784 2.00003 6.8043 3.0536 4.92893 4.92896C3.05357 6.80433 2 9.34787 2 12C2 14.6522 3.05357 17.1957 4.92893 19.0711C6.8043 20.9465 9.34784 22 12 22C13.9806 22.005 15.9172 21.4163 17.56 20.31Z" fill="#2D323B"/>
</svg>
