<svg width="24" height="24" viewBox="0 0 24 24" fill="none" xmlns="http://www.w3.org/2000/svg">
<path d="M10 17.6C10 17.8209 10.1791 18 10.4 18H13.6C13.8209 18 14 17.8209 14 17.6V16.4C14 16.1791 13.8209 16 13.6 16H10.4C10.1791 16 10 16.1791 10 16.4V17.6ZM3.4 6C3.17909 6 3 6.17909 3 6.4V7.6C3 7.82091 3.17909 8 3.4 8H20.6C20.8209 8 21 7.82091 21 7.6V6.4C21 6.17909 20.8209 6 20.6 6H3.4ZM6 12.6C6 12.8209 6.17909 13 6.4 13H17.6C17.8209 13 18 12.8209 18 12.6V11.4C18 11.1791 17.8209 11 17.6 11H6.4C6.17909 11 6 11.1791 6 11.4V12.6Z" fill="#2D323B"/>
</svg>
