<svg width="24" height="24" viewBox="0 0 24 24" fill="none" xmlns="http://www.w3.org/2000/svg">
<path d="M7.75176 20.9993C7.60485 20.9995 7.45969 20.9674 7.32661 20.9052C7.19352 20.843 7.07578 20.7522 6.98176 20.6393C6.89756 20.5382 6.83412 20.4216 6.79507 20.296C6.75603 20.1704 6.74215 20.0383 6.75422 19.9073C6.7663 19.7763 6.8041 19.649 6.86545 19.5327C6.9268 19.4163 7.0105 19.3132 7.11176 19.2293L14.692 11.9993L7.11176 4.7693C6.90754 4.59956 6.77912 4.35565 6.75474 4.09122C6.73036 3.8268 6.81202 3.56352 6.98176 3.3593C7.1515 3.15508 7.39541 3.02666 7.65984 3.00228C7.92426 2.9779 8.18754 3.05956 8.39176 3.2293L16.892 11.2293C17.0052 11.3231 17.0994 11.4408 17.162 11.5739C17.2245 11.707 17.252 11.8522 17.252 11.9993C17.252 12.1464 17.2245 12.2916 17.162 12.4247C17.0994 12.5578 17.0052 12.6755 16.892 12.7693L8.39176 20.7693C8.21185 20.9184 7.98541 20.9998 7.75176 20.9993Z" fill="#2D323B"/>
</svg>
