<svg width="24" height="24" viewBox="0 0 24 24" fill="none" xmlns="http://www.w3.org/2000/svg">
<path fill-rule="evenodd" clip-rule="evenodd" d="M4.69 6.5502L2.01 3.8702L3.42 2.4502L21.15 20.1902L19.74 21.6002L16.32 18.1802C14.98 18.7102 13.52 19.0002 12 19.0002C7 19.0002 2.73 15.8902 1 11.5002C1.77 9.5302 3.06 7.8302 4.69 6.5502ZM12.12 13.9802L9.51 11.3702C9.51 11.3952 9.5075 11.4152 9.505 11.4352C9.5025 11.4552 9.5 11.4752 9.5 11.5002C9.5 12.8802 10.62 14.0002 12 14.0002C12.04 14.0002 12.08 13.9902 12.12 13.9802ZM7.86 9.7202L6.11 7.97019C4.9 8.89019 3.88 10.0702 3.18 11.5002C4.83 14.8702 8.21 17.0002 12 17.0002C12.95 17.0002 13.87 16.8602 14.75 16.6202L13.77 15.6402C13.23 15.8702 12.63 16.0002 12 16.0002C9.52 16.0002 7.5 13.9802 7.5 11.5002C7.5 10.8702 7.63 10.2702 7.86 9.7202ZM12 6C15.79 6 19.17 8.13 20.82 11.5C20.23 12.72 19.4 13.77 18.41 14.62L19.82 16.03C21.21 14.8 22.31 13.26 23 11.5C21.27 7.11 17 4 12 4C10.73 4 9.50998 4.2 8.35999 4.57L10.01 6.22C10.66 6.09 11.32 6 12 6ZM10.93 7.14L13 9.21C13.57 9.46 14.03 9.92 14.28 10.49L16.35 12.56C16.43 12.22 16.49 11.86 16.49 11.49C16.5 9.01 14.48 7 12 7C11.63 7 11.28 7.05 10.93 7.14Z" fill="#2D323B"/>
</svg>
