<svg width="24" height="24" viewBox="0 0 24 24" fill="none" xmlns="http://www.w3.org/2000/svg">
<path d="M14 15C14 15.3956 13.8827 15.7822 13.6629 16.1111C13.4432 16.44 13.1308 16.6964 12.7654 16.8478C12.3999 16.9991 11.9978 17.0387 11.6098 16.9616C11.2219 16.8844 10.8655 16.6939 10.5858 16.4142C10.3061 16.1345 10.1156 15.7781 10.0384 15.3902C9.96126 15.0022 10.0009 14.6001 10.1522 14.2346C10.3036 13.8692 10.56 13.5568 10.8889 13.3371C11.2178 13.1173 11.6044 13 12 13C12.5304 13 13.0391 13.2107 13.4142 13.5858C13.7893 13.9609 14 14.4696 14 15ZM16 6C16 4.93913 15.5786 3.92172 14.8284 3.17157C14.0783 2.42143 13.0609 2 12 2C10.9391 2 9.92172 2.42143 9.17157 3.17157C8.42143 3.92172 8 4.93913 8 6V9.26C6.77702 10.1116 5.85772 11.3312 5.37592 12.7415C4.89412 14.1517 4.87496 15.6789 5.32123 17.1008C5.7675 18.5226 6.6559 19.765 7.85714 20.647C9.05837 21.529 10.5097 22.0046 12 22.0046C13.4903 22.0046 14.9416 21.529 16.1429 20.647C17.3441 19.765 18.2325 18.5226 18.6788 17.1008C19.125 15.6789 19.1059 14.1517 18.6241 12.7415C18.1423 11.3312 17.223 10.1116 16 9.26V6ZM14 8.29C12.695 7.90094 11.305 7.90094 10 8.29V6C10 5.46957 10.2107 4.96086 10.5858 4.58579C10.9609 4.21071 11.4696 4 12 4C12.5304 4 13.0391 4.21071 13.4142 4.58579C13.7893 4.96086 14 5.46957 14 6V8.29ZM17 15C17 15.9889 16.7068 16.9556 16.1573 17.7779C15.6079 18.6001 14.827 19.241 13.9134 19.6194C12.9998 19.9978 11.9945 20.0969 11.0245 19.9039C10.0546 19.711 9.16373 19.2348 8.46447 18.5355C7.7652 17.8363 7.289 16.9454 7.09607 15.9755C6.90315 15.0055 7.00216 14.0002 7.3806 13.0866C7.75904 12.173 8.3999 11.3921 9.22215 10.8427C10.0444 10.2932 11.0111 10 12 10C13.3261 10 14.5979 10.5268 15.5355 11.4645C16.4732 12.4021 17 13.6739 17 15Z" fill="#2D323B"/>
</svg>
