<svg width="24" height="24" viewBox="0 0 24 24" fill="none" xmlns="http://www.w3.org/2000/svg">
<path d="M6 18.9998C6 19.1975 5.94135 19.3909 5.83147 19.5553C5.72159 19.7198 5.56541 19.848 5.38268 19.9236C5.19996 19.9993 4.99889 20.0191 4.80491 19.9806C4.61093 19.942 4.43275 19.8467 4.29289 19.7069C4.15304 19.567 4.0578 19.3888 4.01922 19.1949C3.98063 19.0009 4.00043 18.7998 4.07612 18.6171C4.15181 18.4344 4.27998 18.2782 4.44443 18.1683C4.60888 18.0584 4.80222 17.9998 5 17.9998C5.26522 17.9998 5.51957 18.1051 5.70711 18.2927C5.89464 18.4802 6 18.7346 6 18.9998ZM6.29 16.2898C5.8876 16.0964 5.44644 15.9972 5 15.9998C4.40666 15.9998 3.82664 16.1757 3.33329 16.5054C2.83994 16.835 2.45543 17.3035 2.22836 17.8517C2.0013 18.3999 1.94189 19.0031 2.05765 19.585C2.1734 20.167 2.45912 20.7015 2.87868 21.1211C3.29824 21.5406 3.83279 21.8264 4.41473 21.9421C4.99667 22.0579 5.59987 21.9985 6.14805 21.7714C6.69623 21.5443 7.16477 21.1598 7.49441 20.6665C7.82405 20.1731 8 19.5931 8 18.9998C8.00253 18.5533 7.90336 18.1122 7.71 17.7098L11 14.4098L11.29 14.7098C11.383 14.8035 11.4936 14.8779 11.6154 14.9287C11.7373 14.9794 11.868 15.0056 12 15.0056C12.132 15.0056 12.2627 14.9794 12.3846 14.9287C12.5064 14.8779 12.617 14.8035 12.71 14.7098C12.8037 14.6168 12.8781 14.5062 12.9289 14.3843C12.9797 14.2625 13.0058 14.1318 13.0058 13.9998C13.0058 13.8678 12.9797 13.7371 12.9289 13.6152C12.8781 13.4933 12.8037 13.3827 12.71 13.2898L12.41 12.9998L13.5 11.9098L14.29 12.7098C14.4783 12.8981 14.7337 13.0039 15 13.0039C15.2663 13.0039 15.5217 12.8981 15.71 12.7098C15.8983 12.5215 16.0041 12.2661 16.0041 11.9998C16.0041 11.7335 15.8983 11.4781 15.71 11.2898L14.21 9.78977C14.117 9.69604 14.0064 9.62164 13.8846 9.57088C13.7627 9.52011 13.632 9.49397 13.5 9.49397C13.368 9.49397 13.2373 9.52011 13.1154 9.57088C12.9936 9.62164 12.883 9.69604 12.79 9.78977L6.29 16.2898ZM14.35 21.9398C14.66 21.8198 22 19.0698 22 14.2298V6.80977C21.9982 6.42785 21.887 6.05444 21.6797 5.73369C21.4723 5.41294 21.1775 5.15826 20.83 4.99977L15.24 2.45977C14.8495 2.28668 14.4271 2.19727 14 2.19727C13.5729 2.19727 13.1505 2.28668 12.76 2.45977L7.76 4.72977C7.23552 4.96784 6.79066 5.35187 6.47857 5.83597C6.16647 6.32007 6.00034 6.88378 6 7.45977V12.9198C6 13.185 6.10536 13.4393 6.29289 13.6269C6.48043 13.8144 6.73479 13.9198 7 13.9198C7.26522 13.9198 7.51957 13.8144 7.70711 13.6269C7.89464 13.4393 8 13.185 8 12.9198V7.45977C8.0004 7.26741 8.05628 7.07924 8.16092 6.91784C8.26557 6.75643 8.41455 6.62863 8.59 6.54977L13.59 4.28977C13.7189 4.23182 13.8587 4.20185 14 4.20185C14.1413 4.20185 14.2811 4.23182 14.41 4.28977L20 6.80977V14.2298C20 16.9198 16 19.1298 14 19.9298C12.7889 19.4151 11.6385 18.7678 10.57 17.9998C10.4651 17.9123 10.3434 17.8473 10.2124 17.8087C10.0814 17.7701 9.94387 17.7588 9.80832 17.7754C9.67277 17.792 9.54205 17.8361 9.42422 17.9052C9.30639 17.9742 9.20396 18.0667 9.12323 18.1768C9.0425 18.287 8.98519 18.4125 8.95482 18.5456C8.92446 18.6788 8.92169 18.8167 8.94669 18.951C8.97168 19.0853 9.02391 19.213 9.10015 19.3263C9.1764 19.4396 9.27504 19.5361 9.39 19.6098C10.7079 20.5547 12.1391 21.3307 13.65 21.9198C13.8765 21.9998 14.1235 21.9998 14.35 21.9198V21.9398Z" fill="#2D323B"/>
</svg>
