<svg width="24" height="24" viewBox="0 0 24 24" fill="none" xmlns="http://www.w3.org/2000/svg">
<path d="M8.36 8.59977C8.24856 8.51943 8.15487 8.41698 8.08478 8.29882C8.01468 8.18067 7.96969 8.04934 7.95259 7.91302C7.9355 7.77671 7.94668 7.63833 7.98544 7.50653C8.02419 7.37472 8.08968 7.25232 8.17784 7.14695C8.26599 7.04158 8.37491 6.9555 8.4978 6.89409C8.62069 6.83267 8.75492 6.79724 8.89211 6.79C9.02931 6.78276 9.16652 6.80386 9.29519 6.852C9.42387 6.90013 9.54124 6.97427 9.64 7.06977L14.64 11.2298C14.7532 11.3236 14.8444 11.4413 14.907 11.5744C14.9695 11.7074 15.002 11.8527 15.002 11.9998C15.002 12.1468 14.9695 12.2921 14.907 12.4252C14.8444 12.5583 14.7532 12.6759 14.64 12.7698L9.64 16.9298C9.46148 17.0825 9.2349 17.1674 9 17.1698C8.85309 17.17 8.70793 17.1379 8.57485 17.0757C8.44176 17.0134 8.32402 16.9227 8.23 16.8098C8.1458 16.7087 8.08236 16.5921 8.04331 16.4665C8.00427 16.3408 7.99039 16.2088 8.00246 16.0778C8.01454 15.9468 8.05234 15.8195 8.11369 15.7032C8.17504 15.5868 8.25874 15.4837 8.36 15.3998L11.24 12.9998H2C1.73478 12.9998 1.48043 12.8944 1.29289 12.7069C1.10536 12.5193 1 12.265 1 11.9998C1 11.7346 1.10536 11.4802 1.29289 11.2927C1.48043 11.1051 1.73478 10.9998 2 10.9998H11.24L8.36 8.59977ZM22 11.9998C22.0186 9.72925 21.2639 7.52001 19.8601 5.73538C18.4563 3.95076 16.4869 2.697 14.2759 2.18032C12.0648 1.66364 9.74381 1.91479 7.69448 2.89248C5.64516 3.87016 3.98957 5.51616 3 7.55977C2.93045 7.67838 2.88612 7.81007 2.86976 7.94659C2.8534 8.08311 2.86537 8.22154 2.90492 8.35323C2.94448 8.48491 3.01076 8.60703 3.09964 8.71194C3.18852 8.81686 3.29807 8.90232 3.42147 8.96298C3.54486 9.02364 3.67944 9.05821 3.81679 9.06451C3.95415 9.07082 4.09133 9.04873 4.21976 8.99963C4.34819 8.95053 4.46512 8.87547 4.56324 8.77914C4.66135 8.68281 4.73855 8.56728 4.79 8.43977C5.59271 6.82436 6.91781 5.52766 8.55022 4.76011C10.1826 3.99257 12.0265 3.79924 13.7826 4.21151C15.5387 4.62378 17.104 5.61745 18.2243 7.03123C19.3446 8.44501 19.9542 10.1959 19.9542 11.9998C19.9542 13.8036 19.3446 15.5545 18.2243 16.9683C17.104 18.3821 15.5387 19.3758 13.7826 19.788C12.0265 20.2003 10.1826 20.007 8.55022 19.2394C6.91781 18.4719 5.59271 17.1752 4.79 15.5598C4.7341 15.4381 4.65433 15.3289 4.55542 15.2386C4.45651 15.1483 4.34048 15.0788 4.2142 15.0342C4.08792 14.9896 3.95398 14.9709 3.82031 14.979C3.68664 14.9872 3.55598 15.0221 3.43607 15.0817C3.31615 15.1414 3.20944 15.2245 3.12225 15.3261C3.03506 15.4278 2.96918 15.5459 2.92851 15.6735C2.88784 15.8011 2.87321 15.9355 2.88549 16.0689C2.89777 16.2022 2.93671 16.3318 3 16.4498C3.98992 18.4942 5.64637 20.1407 7.69673 21.1183C9.7471 22.0958 12.0692 22.3463 14.2808 21.8283C16.4925 21.3103 18.4618 20.0548 19.8649 18.2684C21.2679 16.482 22.0209 14.2712 22 11.9998Z" fill="#2D323B"/>
</svg>
