<svg width="24" height="24" viewBox="0 0 24 24" fill="none" xmlns="http://www.w3.org/2000/svg">
<path fill-rule="evenodd" clip-rule="evenodd" d="M10.182 2H2.90911C2.668 2 2.43676 2.09578 2.26627 2.26627C2.09578 2.43676 2 2.66799 2 2.9091V10.1819C2 10.423 2.09578 10.6543 2.26627 10.8247C2.43676 10.9952 2.668 11.091 2.90911 11.091H10.182C10.4231 11.091 10.6543 10.9952 10.8248 10.8247C10.9953 10.6543 11.0911 10.423 11.0911 10.1819V2.9091C11.0911 2.66799 10.9953 2.43676 10.8248 2.26627C10.6543 2.09578 10.4231 2 10.182 2ZM9.27289 9.27281H3.81822V3.8182H9.27289V9.27281ZM8 5H5V8H8V5ZM21.0914 12.9087C21.3325 12.9087 21.5637 13.0045 21.7342 13.175C21.9047 13.3455 22.0005 13.5767 22.0005 13.8178V15.636C22.0005 15.8771 21.9047 16.1083 21.7342 16.2788C21.5637 16.4493 21.3325 16.5451 21.0914 16.5451H19.2731V18.3633H21.0914C21.3325 18.3633 21.5637 18.4591 21.7342 18.6296C21.9047 18.8001 22.0005 19.0313 22.0005 19.2724V21.0906C22.0005 21.3317 21.9047 21.5629 21.7342 21.7334C21.5637 21.9039 21.3325 21.9997 21.0914 21.9997H19.2731C19.032 21.9997 18.8008 21.9039 18.6303 21.7334C18.4598 21.5629 18.364 21.3317 18.364 21.0906V19.2724H16.5458V21.0906C16.5458 21.3317 16.45 21.5629 16.2795 21.7334C16.109 21.9039 15.8778 21.9997 15.6367 21.9997H13.8185C13.5774 21.9997 13.3461 21.9039 13.1756 21.7334C13.0051 21.5629 12.9094 21.3317 12.9094 21.0906V19.2724C12.9094 19.0313 13.0051 18.8001 13.1756 18.6296C13.3461 18.4591 13.5774 18.3633 13.8185 18.3633H15.6367V16.5451H13.8185C13.5774 16.5451 13.3461 16.4493 13.1756 16.2788C13.0051 16.1083 12.9094 15.8771 12.9094 15.636V13.8178C12.9094 13.5767 13.0051 13.3455 13.1756 13.175C13.3461 13.0045 13.5774 12.9087 13.8185 12.9087H15.6367C15.8778 12.9087 16.109 13.0045 16.2795 13.175C16.45 13.3455 16.5458 13.5767 16.5458 13.8178V15.636H18.364V13.8178C18.364 13.5767 18.4598 13.3455 18.6303 13.175C18.8008 13.0045 19.032 12.9087 19.2731 12.9087H21.0914ZM21.0914 2H13.8185C13.5774 2 13.3461 2.09578 13.1756 2.26627C13.0051 2.43676 12.9094 2.66799 12.9094 2.9091V10.1819C12.9094 10.423 13.0051 10.6543 13.1756 10.8247C13.3461 10.9952 13.5774 11.091 13.8185 11.091H21.0914C21.3325 11.091 21.5637 10.9952 21.7342 10.8247C21.9047 10.6543 22.0005 10.423 22.0005 10.1819V2.9091C22.0005 2.66799 21.9047 2.43676 21.7342 2.26627C21.5637 2.09578 21.3325 2 21.0914 2ZM20.1823 9.27281H14.7276V3.8182H20.1823V9.27281ZM2.90911 12.9087H10.182C10.4231 12.9087 10.6543 13.0045 10.8248 13.175C10.9953 13.3455 11.0911 13.5767 11.0911 13.8178V21.0906C11.0911 21.3317 10.9953 21.5629 10.8248 21.7334C10.6543 21.9039 10.4231 21.9997 10.182 21.9997H2.90911C2.668 21.9997 2.43676 21.9039 2.26627 21.7334C2.09578 21.5629 2 21.3317 2 21.0906V13.8178C2 13.5767 2.09578 13.3455 2.26627 13.175C2.43676 13.0045 2.668 12.9087 2.90911 12.9087ZM3.81822 20.1815H9.27289V14.7269H3.81822V20.1815Z" fill="#2D323B"/>
</svg>
