<svg width="24" height="24" viewBox="0 0 24 24" fill="none" xmlns="http://www.w3.org/2000/svg">
<path fill-rule="evenodd" clip-rule="evenodd" d="M18.7172 10.7172C18.8734 10.8734 18.8734 11.1266 18.7172 11.2828L12.2829 17.7172C12.1267 17.8734 11.8734 17.8734 11.7172 17.7172L5.28287 11.2828C5.12666 11.1266 5.12666 10.8734 5.28287 10.7172L6.13688 9.86315C6.29321 9.70682 6.54671 9.70696 6.70287 9.86346L11 14.17V2.4C11 2.17909 11.1791 2 11.4 2H12.6C12.8209 2 13 2.17909 13 2.4V14.17L17.3072 9.87223C17.4634 9.71631 17.7165 9.71645 17.8726 9.87253L18.7172 10.7172ZM18.6 21.9998C18.8209 21.9998 19 21.8207 19 21.5998V20.3998C19 20.1789 18.8209 19.9998 18.6 19.9998H5.4C5.17909 19.9998 5 20.1789 5 20.3998V21.5998C5 21.8207 5.17909 21.9998 5.4 21.9998H12H18.6Z" fill="#2D323B"/>
</svg>
