<svg width="24" height="24" viewBox="0 0 24 24" fill="none" xmlns="http://www.w3.org/2000/svg">
<path fill-rule="evenodd" clip-rule="evenodd" d="M12.2022 19.8946C12.0813 19.981 11.9187 19.981 11.7978 19.8946L11.7684 19.8737C10.2704 18.8072 8.88328 17.8145 7.80192 16.7678C6.22038 15.235 5.75 14.0623 5.75 12.9546V6.65066C5.75 6.23267 6.00997 5.85878 6.4018 5.71324L11.6518 3.76313C11.8764 3.67969 12.1236 3.67969 12.3482 3.76313L17.5982 5.71323C17.99 5.85878 18.25 6.23267 18.25 6.65065V12.9546C18.25 14.0616 17.7803 15.2336 16.198 16.7654C15.1021 17.8217 13.7076 18.8228 12.205 19.8926L12.2022 19.8946ZM5.05359 4.08051C4.26994 4.37159 3.75 5.11937 3.75 5.95535V12.9546C3.75 14.7872 4.595 16.4449 6.41 18.204C7.6202 19.3755 9.13915 20.4569 10.6084 21.5029L10.635 21.5219L11.4225 22.0846C11.7675 22.3329 12.2325 22.3329 12.5775 22.0846L13.365 21.5219C14.8425 20.47 16.365 19.3826 17.5875 18.204C19.405 16.4449 20.25 14.7872 20.25 12.9546V5.95534C20.25 5.11937 19.7301 4.37159 18.9464 4.08051L12.6964 1.75895C12.2471 1.59207 11.7529 1.59207 11.3036 1.75895L5.05359 4.08051ZM11.0141 17.3724L11.4732 17.6818C11.7221 17.7897 12 17.6073 12 17.3361V5.9581C12 5.61281 11.6583 5.37145 11.3329 5.48686L7.58288 6.81677C7.38334 6.88753 7.25 7.0763 7.25 7.28801V12.5088C7.25 13.5162 7.49265 14.4274 8.55084 15.3944C9.26067 16.0423 10.1527 16.7942 11.0141 17.3724Z" fill="#2D323B"/>
</svg>
