<svg width="24" height="24" viewBox="0 0 24 24" fill="none" xmlns="http://www.w3.org/2000/svg">
<path fill-rule="evenodd" clip-rule="evenodd" d="M14.98 7.94L14.06 7.02L5 16.08V17H5.92L14.98 7.94ZM16.96 1.29C17.15 1.1 17.41 1 17.66 1C17.92 1 18.17 1.09 18.37 1.29L20.71 3.63C21.1 4.02 21.1 4.65 20.71 5.04L18.88 6.87L15.13 3.12L16.96 1.29ZM3 15.25L14.06 4.19L17.81 7.94L6.75 19H3V15.25ZM22.6 23C22.8209 23 23 22.8209 23 22.6V21.4C23 21.1791 22.8209 21 22.6 21H1.4C1.17909 21 1 21.1791 1 21.4V22.6C1 22.8209 1.17909 23 1.4 23H22.6Z" fill="#2D323B"/>
</svg>
