<svg width="24" height="24" viewBox="0 0 24 24" fill="none" xmlns="http://www.w3.org/2000/svg">
<path fill-rule="evenodd" clip-rule="evenodd" d="M14.598 2.75C13.4433 0.75 10.5565 0.75 9.4018 2.75L1.60757 16.25C0.452871 18.25 1.89625 20.75 4.20565 20.75H19.7941C22.1035 20.75 23.5469 18.25 22.3922 16.25L14.598 2.75ZM11.1339 3.75C11.5188 3.08333 12.481 3.08333 12.8659 3.75L20.6601 17.25C21.045 17.9167 20.5639 18.75 19.7941 18.75H4.20565C3.43585 18.75 2.95472 17.9167 3.33962 17.25L11.1339 3.75ZM11.1684 15.6944C11.0585 15.8589 10.9999 16.0522 10.9999 16.25C10.9999 16.5152 11.1052 16.7696 11.2928 16.9571C11.4803 17.1446 11.7347 17.25 11.9999 17.25C12.1977 17.25 12.391 17.1914 12.5554 17.0815C12.7199 16.9716 12.8481 16.8154 12.9238 16.6327C12.9994 16.45 13.0192 16.2489 12.9807 16.0549C12.9421 15.8609 12.8468 15.6827 12.707 15.5429C12.5671 15.403 12.3889 15.3078 12.195 15.2692C12.001 15.2306 11.7999 15.2504 11.6172 15.3261C11.4345 15.4018 11.2783 15.53 11.1684 15.6944ZM10.9999 12.25V8.25C10.9999 7.98478 11.1052 7.73043 11.2928 7.54289C11.4803 7.35536 11.7347 7.25 11.9999 7.25C12.2651 7.25 12.5194 7.35536 12.707 7.54289C12.8945 7.73043 12.9999 7.98478 12.9999 8.25V12.25C12.9999 12.5152 12.8945 12.7696 12.707 12.9571C12.5194 13.1446 12.2651 13.25 11.9999 13.25C11.7347 13.25 11.4803 13.1446 11.2928 12.9571C11.1052 12.7696 10.9999 12.5152 10.9999 12.25Z" fill="#2D323B"/>
</svg>
