<svg width="24" height="24" viewBox="0 0 24 24" fill="none" xmlns="http://www.w3.org/2000/svg">
<path d="M12.0002 8C11.308 8 10.6313 7.79473 10.0557 7.41015C9.48012 7.02556 9.03152 6.47894 8.76661 5.83939C8.50171 5.19985 8.43239 4.49612 8.56744 3.81719C8.70249 3.13825 9.03583 2.51461 9.52532 2.02513C10.0148 1.53564 10.6384 1.2023 11.3174 1.06725C11.9963 0.932205 12.7 1.00152 13.3396 1.26642C13.9791 1.53133 14.5258 1.97993 14.9103 2.55551C15.2949 3.13108 15.5002 3.80777 15.5002 4.5C15.5002 5.42826 15.1314 6.3185 14.4751 6.97487C13.8187 7.63125 12.9284 8 12.0002 8ZM12.0002 3C11.7035 3 11.4135 3.08798 11.1668 3.2528C10.9202 3.41762 10.7279 3.65189 10.6144 3.92598C10.5008 4.20007 10.4711 4.50167 10.529 4.79264C10.5869 5.08361 10.7298 5.35088 10.9395 5.56066C11.1493 5.77044 11.4166 5.9133 11.7076 5.97118C11.9985 6.02906 12.3001 5.99935 12.5742 5.88582C12.8483 5.77229 13.0826 5.58003 13.2474 5.33336C13.4122 5.08668 13.5002 4.79667 13.5002 4.5C13.5002 4.10218 13.3422 3.72065 13.0609 3.43934C12.7795 3.15804 12.398 3 12.0002 3ZM20.0002 14V12.75C19.9996 12.316 19.8578 11.8939 19.5962 11.5476C19.3346 11.2012 18.9675 10.9494 18.5502 10.83L12.5502 9.12C12.1904 9.01979 11.81 9.01979 11.4502 9.12L5.45019 10.83C5.0329 10.9494 4.66576 11.2012 4.40419 11.5476C4.14262 11.8939 4.00082 12.316 4.00019 12.75V14C4.00019 14.2652 4.10555 14.5196 4.29309 14.7071C4.48062 14.8946 4.73498 15 5.00019 15C5.26541 15 5.51976 14.8946 5.7073 14.7071C5.89483 14.5196 6.00019 14.2652 6.00019 14V12.75L12.0002 11L18.0002 12.71V14C18.0002 14.2652 18.1055 14.5196 18.2931 14.7071C18.4806 14.8946 18.735 15 19.0002 15C19.2654 15 19.5198 14.8946 19.7073 14.7071C19.8948 14.5196 20.0002 14.2652 20.0002 14ZM18.0002 23H6.00019C5.79991 23.0002 5.60419 22.9402 5.43838 22.8279C5.27256 22.7156 5.1443 22.5561 5.07019 22.37L3.07019 17.37C3.00979 17.2186 2.98733 17.0547 3.00476 16.8926C3.02218 16.7305 3.07898 16.5751 3.17019 16.44C3.26192 16.3043 3.38558 16.1932 3.53031 16.1165C3.67503 16.0398 3.83639 15.9998 4.00019 16H20.0002C20.164 15.9998 20.3254 16.0398 20.4701 16.1165C20.6148 16.1932 20.7385 16.3043 20.8302 16.44C20.9214 16.5751 20.9782 16.7305 20.9956 16.8926C21.0131 17.0547 20.9906 17.2186 20.9302 17.37L18.9302 22.37C18.8561 22.5561 18.7278 22.7156 18.562 22.8279C18.3962 22.9402 18.2005 23.0002 18.0002 23ZM6.68019 21H17.3202L18.5202 18H5.52019L6.68019 21Z" fill="#2D323B"/>
</svg>
