<svg width="24" height="24" viewBox="0 0 24 24" fill="none" xmlns="http://www.w3.org/2000/svg">
<path d="M17 6.00055C17.2652 6.00055 17.5196 6.10591 17.7071 6.29345C17.8946 6.48098 18 6.73534 18 7.00055V19.0006C18 19.2658 17.8946 19.5201 17.7071 19.7077C17.5196 19.8952 17.2652 20.0006 17 20.0006H7C6.73478 20.0006 6.48043 19.8952 6.29289 19.7077C6.10536 19.5201 6 19.2658 6 19.0006V7.00055C6 6.73534 6.10536 6.48098 6.29289 6.29345C6.48043 6.10591 6.73478 6.00055 7 6.00055H8V7.00055C8 7.26577 8.10536 7.52012 8.29289 7.70766C8.48043 7.8952 8.73478 8.00055 9 8.00055H15C15.2652 8.00055 15.5196 7.8952 15.7071 7.70766C15.8946 7.52012 16 7.26577 16 7.00055V6.00055H17ZM7 4.00055C6.20435 4.00055 5.44129 4.31662 4.87868 4.87923C4.31607 5.44184 4 6.2049 4 7.00055V19.0006C4 19.7962 4.31607 20.5593 4.87868 21.1219C5.44129 21.6845 6.20435 22.0006 7 22.0006H17C17.7956 22.0006 18.5587 21.6845 19.1213 21.1219C19.6839 20.5593 20 19.7962 20 19.0006V7.00055C20 6.2049 19.6839 5.44184 19.1213 4.87923C18.5587 4.31662 17.7956 4.00055 17 4.00055H14.83C14.6239 3.41456 14.2409 2.90701 13.734 2.54797C13.2271 2.18893 12.6212 1.99609 12 1.99609C11.3788 1.99609 10.7729 2.18893 10.266 2.54797C9.7591 2.90701 9.37614 3.41456 9.17 4.00055H7ZM13 5.00055C13 5.19833 12.9414 5.39167 12.8315 5.55612C12.7216 5.72057 12.5654 5.84875 12.3827 5.92443C12.2 6.00012 11.9989 6.01992 11.8049 5.98134C11.6109 5.94275 11.4327 5.84751 11.2929 5.70766C11.153 5.56781 11.0578 5.38962 11.0192 5.19564C10.9806 5.00166 11.0004 4.8006 11.0761 4.61787C11.1518 4.43514 11.28 4.27897 11.4444 4.16908C11.6089 4.0592 11.8022 4.00055 12 4.00055C12.2652 4.00055 12.5196 4.10591 12.7071 4.29345C12.8946 4.48098 13 4.73534 13 5.00055Z" fill="#2D323B"/>
</svg>
