<svg width="24" height="24" viewBox="0 0 24 24" fill="none" xmlns="http://www.w3.org/2000/svg">
<path d="M17.94 20.3114C18.0065 20.4639 18.034 20.6305 18.0199 20.7963C18.0058 20.962 17.9505 21.1216 17.8592 21.2606C17.7678 21.3996 17.6433 21.5137 17.4967 21.5924C17.3502 21.6711 17.1863 21.712 17.02 21.7114C16.9272 21.7261 16.8328 21.7261 16.74 21.7114L12.74 20.5614C12.5987 20.5209 12.4681 20.4497 12.3575 20.3529C12.2469 20.2561 12.159 20.1361 12.1 20.0014C12.0376 19.8685 12.0052 19.7234 12.0052 19.5764C12.0052 19.4295 12.0376 19.2844 12.1 19.1514L14 15.4114C14.0853 15.2419 14.2172 15.1002 14.3801 15.0028C14.543 14.9054 14.7303 14.8564 14.92 14.8614C15.11 14.8665 15.2947 14.9257 15.4523 15.0319C15.61 15.1382 15.734 15.2872 15.81 15.4614L16.44 16.9214L19 15.7814V8.20145L15.6 6.69145C15.4798 6.63833 15.3712 6.56203 15.2805 6.46693C15.1898 6.37182 15.1187 6.25976 15.0714 6.13717C15.024 6.01457 15.0013 5.88384 15.0045 5.75245C15.0077 5.62107 15.0367 5.4916 15.09 5.37145C15.1431 5.25124 15.2194 5.14267 15.3145 5.05197C15.4096 4.96126 15.5217 4.89019 15.6443 4.84283C15.7669 4.79546 15.8976 4.77272 16.029 4.77592C16.1604 4.77912 16.2899 4.80818 16.41 4.86145L19.88 6.40145C20.2125 6.54979 20.4951 6.79103 20.6938 7.09617C20.8925 7.4013 20.9988 7.75733 21 8.12145V15.8614C20.9988 16.2256 20.8925 16.5816 20.6938 16.8867C20.4951 17.1919 20.2125 17.4331 19.88 17.5814L17.25 18.7514L17.94 20.3114ZM8.18 8.53145C8.25597 8.70571 8.38005 8.85471 8.53768 8.96098C8.69531 9.06724 8.87996 9.12638 9.07 9.13145C9.26141 9.13847 9.45081 9.09036 9.61567 8.99286C9.78054 8.89536 9.91394 8.75256 10 8.58145L11.85 4.89145C11.9124 4.75847 11.9448 4.61336 11.9448 4.46645C11.9448 4.31954 11.9124 4.17443 11.85 4.04145C11.791 3.90681 11.7031 3.78682 11.5925 3.69003C11.4819 3.59323 11.3513 3.52202 11.21 3.48145L7.21 2.32145C7.02727 2.26732 6.83288 2.26654 6.64972 2.3192C6.46655 2.37185 6.30225 2.47575 6.17616 2.61865C6.05007 2.76155 5.96744 2.93751 5.938 3.1258C5.90857 3.3141 5.93354 3.50688 6.01 3.68145L6.69 5.23145L4.12 6.40145C3.78747 6.54979 3.50486 6.79103 3.30617 7.09617C3.10748 7.4013 3.00116 7.75733 3 8.12145V15.8614C3.00116 16.2256 3.10748 16.5816 3.30617 16.8867C3.50486 17.1919 3.78747 17.4331 4.12 17.5814L7.58 19.1214C7.70876 19.1801 7.84851 19.2108 7.99 19.2114C8.18347 19.2102 8.37241 19.1528 8.53393 19.0463C8.69546 18.9398 8.82262 18.7888 8.9 18.6115C9.00822 18.37 9.01636 18.0956 8.92265 17.8482C8.82893 17.6008 8.641 17.4006 8.4 17.2914L5 15.7814V8.20145L7.54 7.07145L8.18 8.53145Z" fill="#2D323B"/>
</svg>
