<svg width="24" height="24" viewBox="0 0 24 24" fill="none" xmlns="http://www.w3.org/2000/svg">
<path d="M4 14.6C4 14.8209 4.17909 15 4.4 15H19.6C19.8209 15 20 14.8209 20 14.6V13.4C20 13.1791 19.8209 13 19.6 13H4.4C4.17909 13 4 13.1791 4 13.4V14.6ZM4 18.6C4 18.8209 4.17909 19 4.4 19H13.6C13.8209 19 14 18.8209 14 18.6V17.4C14 17.1791 13.8209 17 13.6 17H4.4C4.17909 17 4 17.1791 4 17.4V18.6ZM4 10.6C4 10.8209 4.17909 11 4.4 11H19.6C19.8209 11 20 10.8209 20 10.6V9.4C20 9.17909 19.8209 9 19.6 9H4.4C4.17909 9 4 9.17909 4 9.4V10.6ZM4.4 5C4.17909 5 4 5.17909 4 5.4V6.6C4 6.82091 4.17909 7 4.4 7H19.6C19.8209 7 20 6.82091 20 6.6V5.4C20 5.17909 19.8209 5 19.6 5H4.4Z" fill="#2D323B"/>
</svg>
