<svg width="24" height="24" viewBox="0 0 24 24" fill="none" xmlns="http://www.w3.org/2000/svg">
<path fill-rule="evenodd" clip-rule="evenodd" d="M8.9 5C8.95523 5 9 5.04477 9 5.1V8.9C9 8.95523 8.95523 9 8.9 9H5.1C5.04477 9 5 8.95523 5 8.9V5.1C5 5.04477 5.04477 5 5.1 5H8.9ZM3.4 11C3.17909 11 3 10.8209 3 10.6V3.4C3 3.17909 3.17909 3 3.4 3H10.6C10.8209 3 11 3.17909 11 3.4V10.6C11 10.8209 10.8209 11 10.6 11H3.4ZM18.9 5C18.9552 5 19 5.04477 19 5.1V8.9C19 8.95523 18.9552 9 18.9 9H15.1C15.0448 9 15 8.95523 15 8.9V5.1C15 5.04477 15.0448 5 15.1 5H18.9ZM13.4 11C13.1791 11 13 10.8209 13 10.6V3.4C13 3.17909 13.1791 3 13.4 3H20.6C20.8209 3 21 3.17909 21 3.4V10.6C21 10.8209 20.8209 11 20.6 11H13.4ZM19 15.1C19 15.0448 18.9552 15 18.9 15H15.1C15.0448 15 15 15.0448 15 15.1V18.9C15 18.9552 15.0448 19 15.1 19H18.9C18.9552 19 19 18.9552 19 18.9V15.1ZM13.4 13C13.1791 13 13 13.1791 13 13.4V20.6C13 20.8209 13.1791 21 13.4 21H20.6C20.8209 21 21 20.8209 21 20.6V13.4C21 13.1791 20.8209 13 20.6 13H13.4ZM8.9 15C8.95523 15 9 15.0448 9 15.1V18.9C9 18.9552 8.95523 19 8.9 19H5.1C5.04477 19 5 18.9552 5 18.9V15.1C5 15.0448 5.04477 15 5.1 15H8.9ZM3.4 21C3.17909 21 3 20.8209 3 20.6V13.4C3 13.1791 3.17909 13 3.4 13H10.6C10.8209 13 11 13.1791 11 13.4V20.6C11 20.8209 10.8209 21 10.6 21H3.4Z" fill="#2D323B"/>
</svg>
