<svg width="24" height="24" viewBox="0 0 24 24" fill="none" xmlns="http://www.w3.org/2000/svg">
<path d="M5.99972 14.9992C5.99949 15.1461 6.03162 15.2913 6.09384 15.4244C6.15606 15.5575 6.24684 15.6752 6.35973 15.7692C6.46077 15.8534 6.57744 15.9169 6.70304 15.9559C6.82865 15.9949 6.96072 16.0088 7.0917 15.9968C7.22267 15.9847 7.34998 15.9469 7.46633 15.8855C7.58267 15.8242 7.68578 15.7405 7.76972 15.6392L11.9997 10.5592L16.2297 15.6392C16.3995 15.8434 16.6434 15.9719 16.9078 15.9962C17.1722 16.0206 17.4355 15.939 17.6397 15.7692C17.8439 15.5995 17.9724 15.3556 17.9967 15.0911C18.0211 14.8267 17.9395 14.5634 17.7697 14.3592L12.7697 8.35922C12.6759 8.24598 12.5582 8.15483 12.4251 8.09226C12.292 8.0297 12.1468 7.99726 11.9997 7.99726C11.8527 7.99726 11.7074 8.0297 11.5743 8.09226C11.4412 8.15483 11.3236 8.24598 11.2297 8.35922L6.22972 14.3592C6.08064 14.5391 5.99927 14.7656 5.99972 14.9992Z" fill="#2D323B"/>
</svg>
