<svg width="24" height="24" viewBox="0 0 24 24" fill="none" xmlns="http://www.w3.org/2000/svg">
<path d="M9.25176 17.9993C9.10485 17.9995 8.95969 17.9674 8.82661 17.9052C8.69352 17.843 8.57578 17.7522 8.48176 17.6393C8.39756 17.5382 8.33412 17.4216 8.29507 17.296C8.25603 17.1704 8.24215 17.0383 8.25422 16.9073C8.2663 16.7764 8.3041 16.649 8.36545 16.5327C8.4268 16.4163 8.5105 16.3132 8.61176 16.2293L13.1918 11.9993L8.61176 7.7693C8.40754 7.59956 8.27912 7.35565 8.25474 7.09122C8.23036 6.8268 8.31202 6.56352 8.48176 6.3593C8.6515 6.15508 8.89541 6.02666 9.15984 6.00228C9.42426 5.9779 9.68754 6.05956 9.89176 6.2293L15.3918 11.2293C15.505 11.3231 15.5992 11.4408 15.6618 11.5739C15.7243 11.707 15.7518 11.8522 15.7518 11.9993C15.7518 12.1464 15.7243 12.2916 15.6618 12.4247C15.5992 12.5578 15.505 12.6755 15.3918 12.7693L9.89176 17.7693C9.71185 17.9184 9.48541 17.9998 9.25176 17.9993Z" fill="#2D323B"/>
</svg>
