<svg width="24" height="24" viewBox="0 0 24 24" fill="none" xmlns="http://www.w3.org/2000/svg">
<path d="M12 10C11.2089 10 10.4355 9.76541 9.77772 9.32588C9.11992 8.88635 8.60723 8.26164 8.30448 7.53074C8.00173 6.79983 7.92252 5.99556 8.07686 5.21964C8.2312 4.44372 8.61216 3.73098 9.17157 3.17157C9.73098 2.61216 10.4437 2.2312 11.2196 2.07686C11.9956 1.92252 12.7998 2.00173 13.5307 2.30448C14.2616 2.60723 14.8864 3.11992 15.3259 3.77772C15.7654 4.43552 16 5.20888 16 6C16 7.06087 15.5786 8.07828 14.8284 8.82843C14.0783 9.57857 13.0609 10 12 10ZM12 4C11.6044 4 11.2178 4.1173 10.8889 4.33706C10.56 4.55683 10.3036 4.86918 10.1522 5.23463C10.0009 5.60009 9.96126 6.00222 10.0384 6.39018C10.1156 6.77814 10.3061 7.13451 10.5858 7.41422C10.8655 7.69392 11.2219 7.8844 11.6098 7.96157C11.9978 8.03874 12.3999 7.99914 12.7654 7.84776C13.1308 7.69639 13.4432 7.44004 13.6629 7.11114C13.8827 6.78224 14 6.39556 14 6C14 5.46957 13.7893 4.96086 13.4142 4.58579C13.0391 4.21072 12.5304 4 12 4ZM10 19C10 18.7348 9.89464 18.4804 9.70711 18.2929C9.51957 18.1054 9.26522 18 9 18H5V15.12L11.84 13.4C11.8954 13.3861 11.9491 13.366 12 13.34C12.0509 13.366 12.1046 13.3861 12.16 13.4L17.27 14.69C17.5232 14.7578 17.7929 14.7236 18.0211 14.5945C18.2493 14.4655 18.4177 14.252 18.49 14C18.5534 13.7428 18.5122 13.4708 18.3753 13.244C18.2385 13.0171 18.0172 12.8538 17.76 12.79L12.76 11.52C12.2966 11.3412 11.7833 11.3412 11.32 11.52L4.35 13.22L4.19 13.28C3.83568 13.437 3.53458 13.6935 3.32332 14.0183C3.11206 14.3432 2.99974 14.7225 3 15.11V18C3 18.5304 3.21071 19.0391 3.58579 19.4142C3.96086 19.7893 4.46957 20 5 20H9C9.26522 20 9.51957 19.8946 9.70711 19.7071C9.89464 19.5196 10 19.2652 10 19ZM15.21 21.71L21.71 15.21C21.8032 15.1168 21.8772 15.0061 21.9277 14.8843C21.9781 14.7624 22.0041 14.6319 22.0041 14.5C22.0041 14.3681 21.9781 14.2376 21.9277 14.1158C21.8772 13.9939 21.8032 13.8832 21.71 13.79C21.6168 13.6968 21.5061 13.6228 21.3842 13.5723C21.2624 13.5219 21.1319 13.4959 21 13.4959C20.8681 13.4959 20.7376 13.5219 20.6158 13.5723C20.4939 13.6228 20.3832 13.6968 20.29 13.79L14.5 19.59L12.71 17.79C12.6168 17.6968 12.5061 17.6228 12.3842 17.5723C12.2624 17.5219 12.1319 17.4959 12 17.4959C11.8681 17.4959 11.7376 17.5219 11.6158 17.5723C11.4939 17.6228 11.3832 17.6968 11.29 17.79C11.1968 17.8832 11.1228 17.9939 11.0723 18.1158C11.0219 18.2376 10.9959 18.3681 10.9959 18.5C10.9959 18.6319 11.0219 18.7624 11.0723 18.8843C11.1228 19.0061 11.1968 19.1168 11.29 19.21L13.79 21.71C13.883 21.8037 13.9936 21.8781 14.1154 21.9289C14.2373 21.9797 14.368 22.0058 14.5 22.0058C14.632 22.0058 14.7627 21.9797 14.8846 21.9289C15.0064 21.8781 15.117 21.8037 15.21 21.71Z" fill="#2D323B"/>
</svg>
