<svg width="24" height="24" viewBox="0 0 24 24" fill="none" xmlns="http://www.w3.org/2000/svg">
<path fill-rule="evenodd" clip-rule="evenodd" d="M9.38021 4.76921C9.45884 4.95407 9.37336 5.1669 9.19359 5.25656C8.26415 5.72015 7.44713 6.38182 6.80062 7.19548C6.07903 8.10364 5.59164 9.17366 5.37984 10.3117C5.16805 11.4497 5.23804 12.6223 5.58391 13.7274C5.9298 14.8325 6.54141 15.8375 7.3666 16.6538C8.19186 17.4702 9.20559 18.073 10.3197 18.4082C11.4339 18.7434 12.6135 18.8004 13.7551 18.5742C14.8967 18.348 15.9643 17.8456 16.8649 17.1122C17.6695 16.4569 18.3188 15.6353 18.7696 14.7066C18.8585 14.5234 19.0747 14.436 19.2615 14.5171L20.6672 15.1269C20.8515 15.2069 20.9377 15.4208 20.8524 15.6027C20.2535 16.88 19.3747 18.0063 18.2808 18.8971C17.0933 19.8641 15.6883 20.5244 14.189 20.8216C12.6896 21.1187 11.1404 21.0439 9.67636 20.6034C8.21227 20.1629 6.87695 19.3699 5.78768 18.2923C4.69833 17.2147 3.88822 15.8852 3.42951 14.4196C2.97077 12.9539 2.87776 11.3977 3.15884 9.88739C3.43991 8.37711 4.08624 6.95992 5.0401 5.75945C5.91696 4.65588 7.029 3.76649 8.29186 3.1546C8.4751 3.06582 8.6927 3.15285 8.7724 3.34022L9.38021 4.76921Z" fill="#2D323B"/>
</svg>
