<svg width="24" height="24" viewBox="0 0 24 24" fill="none" xmlns="http://www.w3.org/2000/svg">
<path d="M8.5 12C7.80777 12 7.13108 11.7947 6.5555 11.4101C5.97993 11.0256 5.53133 10.4789 5.26642 9.83939C5.00151 9.19985 4.9322 8.49612 5.06725 7.81718C5.2023 7.13825 5.53564 6.51461 6.02513 6.02513C6.51461 5.53564 7.13825 5.2023 7.81718 5.06725C8.49612 4.9322 9.19985 5.00152 9.83939 5.26642C10.4789 5.53133 11.0256 5.97993 11.4101 6.5555C11.7947 7.13108 12 7.80777 12 8.5C12 9.42826 11.6313 10.3185 10.9749 10.9749C10.3185 11.6313 9.42826 12 8.5 12ZM8.5 7C8.20333 7 7.91332 7.08797 7.66664 7.2528C7.41997 7.41762 7.22771 7.65189 7.11418 7.92597C7.00065 8.20006 6.97094 8.50166 7.02882 8.79264C7.0867 9.08361 7.22956 9.35088 7.43934 9.56066C7.64912 9.77044 7.91639 9.9133 8.20736 9.97118C8.49834 10.0291 8.79994 9.99935 9.07403 9.88582C9.34811 9.77229 9.58238 9.58003 9.7472 9.33335C9.91203 9.08668 10 8.79667 10 8.5C10 8.10218 9.84196 7.72064 9.56066 7.43934C9.27936 7.15804 8.89782 7 8.5 7ZM14 21H3C2.46957 21 1.96086 20.7893 1.58579 20.4142C1.21071 20.0391 1 19.5304 1 19V16.74C1.00021 16.3128 1.13722 15.8969 1.39095 15.5532C1.64468 15.2095 2.0018 14.956 2.41 14.83L7.91 13.13C8.29564 13.0199 8.70436 13.0199 9.09 13.13L14.59 14.83C14.9982 14.956 15.3553 15.2095 15.6091 15.5532C15.8628 15.8969 15.9998 16.3128 16 16.74V19C16 19.5304 15.7893 20.0391 15.4142 20.4142C15.0391 20.7893 14.5304 21 14 21ZM8.5 15.05L3 16.74V19H14V16.74L8.5 15.05ZM23 16V13.74C22.9998 13.3128 22.8628 12.8969 22.6091 12.5532C22.3553 12.2095 21.9982 11.956 21.59 11.83L16.09 10.13C15.7077 10.0203 15.3023 10.0203 14.92 10.13L12.55 10.85C12.2972 10.9264 12.0849 11.0996 11.9594 11.3319C11.8339 11.5642 11.8053 11.8367 11.88 12.09C11.9178 12.2163 11.9801 12.3338 12.0634 12.4359C12.1468 12.538 12.2495 12.6227 12.3657 12.6849C12.4818 12.7472 12.6092 12.7859 12.7403 12.7988C12.8715 12.8116 13.0039 12.7985 13.13 12.76L15.5 12.05L21 13.74V16H18C17.7348 16 17.4804 16.1054 17.2929 16.2929C17.1054 16.4804 17 16.7348 17 17C17 17.2652 17.1054 17.5196 17.2929 17.7071C17.4804 17.8946 17.7348 18 18 18H21C21.5304 18 22.0391 17.7893 22.4142 17.4142C22.7893 17.0391 23 16.5304 23 16ZM12.5 6C12.5 6.59334 12.6759 7.17336 13.0056 7.66671C13.3352 8.16006 13.8038 8.54458 14.3519 8.77164C14.9001 8.9987 15.5033 9.05811 16.0853 8.94236C16.6672 8.8266 17.2018 8.54088 17.6213 8.12132C18.0409 7.70176 18.3266 7.16721 18.4424 6.58527C18.5581 6.00333 18.4987 5.40013 18.2716 4.85195C18.0446 4.30377 17.6601 3.83524 17.1667 3.50559C16.6734 3.17595 16.0933 3 15.5 3C14.7044 3 13.9413 3.31607 13.3787 3.87868C12.8161 4.44129 12.5 5.20435 12.5 6Z" fill="#2D323B"/>
</svg>
