<svg width="24" height="24" viewBox="0 0 24 24" fill="none" xmlns="http://www.w3.org/2000/svg">
<path d="M21.9421 8.66661C21.7571 8.13777 21.1753 7.86454 20.6465 8.04963L19.0512 8.61372V6.01361C19.0512 5.44951 18.6017 5 18.0376 5C17.4735 5 17.024 5.44951 17.024 6.01361V9.32765L15.173 9.97989V6.01361C15.173 5.44951 14.7235 5 14.1594 5C13.5953 5 13.1458 5.44951 13.1458 6.01361V10.7026L11.2949 11.3549V6.01361C11.2949 5.44951 10.8454 5 10.2813 5C9.71719 5 9.26767 5.44951 9.26767 6.01361V12.0776L7.41674 12.7298V6.01361C7.41674 5.44951 6.96723 5 6.40314 5C5.83904 5 5.38953 5.44951 5.38953 6.01361V13.4438L2.67483 14.4045C2.14599 14.5896 1.87276 15.1713 2.05785 15.7001C2.20769 16.1144 2.59551 16.3788 3.00976 16.3788C3.12434 16.3788 3.23892 16.3612 3.34469 16.3171L5.38072 15.5944V18.3531C5.38072 18.9172 5.83023 19.3668 6.39432 19.3668C6.95842 19.3668 7.41674 18.9172 7.41674 18.3531V14.8805L9.26767 14.2282V18.3531C9.26767 18.9172 9.71719 19.3668 10.2813 19.3668C10.8454 19.3668 11.2949 18.9172 11.2949 18.3531V13.5055L13.1458 12.8532V18.3531C13.1458 18.9172 13.5953 19.3668 14.1594 19.3668C14.7235 19.3668 15.173 18.9172 15.173 18.3531V12.1393L17.024 11.4871V18.362C17.024 18.9261 17.4735 19.3756 18.0376 19.3756C18.6017 19.3756 19.0512 18.9172 19.0512 18.3531V10.7643L21.3252 9.96226C21.854 9.77717 22.1272 9.19545 21.9421 8.66661Z" fill="#2D323B"/>
</svg>
