<svg width="24" height="24" viewBox="0 0 24 24" fill="none" xmlns="http://www.w3.org/2000/svg">
<path fill-rule="evenodd" clip-rule="evenodd" d="M10.2377 3.70593C9.51936 3.70593 8.93702 4.28827 8.93702 5.00662C8.93702 5.72496 9.51936 6.3073 10.2377 6.3073C10.9561 6.3073 11.5384 5.72496 11.5384 5.00662C11.5384 4.28827 10.9561 3.70593 10.2377 3.70593ZM7.20277 5.00662C7.20277 3.33047 8.56156 1.97168 10.2377 1.97168C11.9139 1.97168 13.2726 3.33047 13.2726 5.00662C13.2726 6.68276 11.9139 8.04155 10.2377 8.04155C8.56156 8.04155 7.20277 6.68276 7.20277 5.00662ZM17.1747 8.90884C16.4563 8.90884 15.874 9.49117 15.874 10.2095C15.874 10.9279 16.4563 11.5102 17.1747 11.5102C17.893 11.5102 18.4754 10.9279 18.4754 10.2095C18.4754 9.49117 17.893 8.90884 17.1747 8.90884ZM14.1398 10.2095C14.1398 8.53337 15.4985 7.17459 17.1747 7.17459C18.8508 7.17459 20.2096 8.53337 20.2096 10.2095C20.2096 11.8857 18.8508 13.2445 17.1747 13.2445C15.4985 13.2445 14.1398 11.8857 14.1398 10.2095ZM3.73425 11.51H2V18.9829L8.38965 22.1777C9.26092 22.6134 10.2762 22.6632 11.1866 22.3128L22 18.1538L21.9403 17.5008L21.9401 17.4996L21.94 17.4984L21.9398 17.4958L21.9392 17.49L21.9377 17.4765C21.9372 17.4718 21.9366 17.4667 21.9359 17.4613C21.9351 17.4551 21.9343 17.4485 21.9333 17.4415C21.9296 17.4147 21.9243 17.3812 21.9167 17.3417C21.9016 17.2631 21.8772 17.1598 21.8381 17.0399C21.7603 16.8013 21.6206 16.487 21.3706 16.1728C20.8428 15.5095 19.9301 14.9785 18.4754 14.9785H14.14C13.349 13.9254 12.0896 13.2442 10.6712 13.2442H8.47906C7.83696 12.5597 6.9429 12.152 6.1643 11.9087C5.23269 11.6175 4.29858 11.51 3.73425 11.51ZM18.4754 16.7127C19.2566 16.7127 19.6627 16.9229 19.8786 17.1116L10.5635 20.6944C10.109 20.8693 9.6015 20.8447 9.16523 20.6266L3.73425 17.9111V13.2442C4.12809 13.2442 4.88748 13.3266 5.64698 13.564C6.42843 13.8082 7.04993 14.1666 7.35962 14.6088L7.61854 14.9785H10.6712C11.8038 14.9785 12.7674 15.7024 13.1246 16.7127H8.06987V18.447H15.0069V17.5799C15.0069 17.2829 14.977 16.9929 14.9201 16.7127H18.4754Z" fill="#2D323B"/>
</svg>
