<svg width="24" height="24" viewBox="0 0 24 24" fill="none" xmlns="http://www.w3.org/2000/svg">
<path d="M19 5.50002H5C4.73478 5.50002 4.48043 5.39466 4.29289 5.20712C4.10536 5.01959 4 4.76523 4 4.50002C4 4.2348 4.10536 3.98045 4.29289 3.79291C4.48043 3.60537 4.73478 3.50002 5 3.50002H8.59L9.29 2.79002C9.38344 2.69734 9.49426 2.62401 9.61609 2.57425C9.73793 2.52448 9.86839 2.49926 10 2.50002H14C14.1316 2.49926 14.2621 2.52448 14.3839 2.57425C14.5057 2.62401 14.6166 2.69734 14.71 2.79002L15.41 3.50002H19C19.2652 3.50002 19.5196 3.60537 19.7071 3.79291C19.8946 3.98045 20 4.2348 20 4.50002C20 4.76523 19.8946 5.01959 19.7071 5.20712C19.5196 5.39466 19.2652 5.50002 19 5.50002ZM19 18.5V7.50002C19 7.2348 18.8946 6.98045 18.7071 6.79291C18.5196 6.60537 18.2652 6.50002 18 6.50002C17.7348 6.50002 17.4804 6.60537 17.2929 6.79291C17.1054 6.98045 17 7.2348 17 7.50002V18.5C17 18.7652 16.8946 19.0196 16.7071 19.2071C16.5196 19.3947 16.2652 19.5 16 19.5H8C7.73478 19.5 7.48043 19.3947 7.29289 19.2071C7.10536 19.0196 7 18.7652 7 18.5V7.50002C7 7.2348 6.89464 6.98045 6.70711 6.79291C6.51957 6.60537 6.26522 6.50002 6 6.50002C5.73478 6.50002 5.48043 6.60537 5.29289 6.79291C5.10536 6.98045 5 7.2348 5 7.50002V18.5C5 19.2957 5.31607 20.0587 5.87868 20.6213C6.44129 21.1839 7.20435 21.5 8 21.5H16C16.7956 21.5 17.5587 21.1839 18.1213 20.6213C18.6839 20.0587 19 19.2957 19 18.5ZM11 17.5V8.50002C11 8.2348 10.8946 7.98045 10.7071 7.79291C10.5196 7.60537 10.2652 7.50002 10 7.50002C9.73478 7.50002 9.48043 7.60537 9.29289 7.79291C9.10536 7.98045 9 8.2348 9 8.50002V17.5C9 17.7652 9.10536 18.0196 9.29289 18.2071C9.48043 18.3947 9.73478 18.5 10 18.5C10.2652 18.5 10.5196 18.3947 10.7071 18.2071C10.8946 18.0196 11 17.7652 11 17.5ZM15 17.5V8.50002C15 8.2348 14.8946 7.98045 14.7071 7.79291C14.5196 7.60537 14.2652 7.50002 14 7.50002C13.7348 7.50002 13.4804 7.60537 13.2929 7.79291C13.1054 7.98045 13 8.2348 13 8.50002V17.5C13 17.7652 13.1054 18.0196 13.2929 18.2071C13.4804 18.3947 13.7348 18.5 14 18.5C14.2652 18.5 14.5196 18.3947 14.7071 18.2071C14.8946 18.0196 15 17.7652 15 17.5Z" fill="#2D323B"/>
</svg>
