<svg width="24" height="24" viewBox="0 0 24 24" fill="none" xmlns="http://www.w3.org/2000/svg">
<path fill-rule="evenodd" clip-rule="evenodd" d="M16.8526 2H21.1875C21.6366 2 22.0005 2.36369 22.0005 2.81301V7.14797C22.0005 7.59675 21.6366 7.96098 21.1875 7.96098H17.1892L16.0157 9.13442L14.8661 7.98482L16.0396 6.81138V2.81301C16.0396 2.36396 16.4038 2 16.8526 2ZM17.6656 6.33496H20.3745V3.62602H17.6656V6.33496ZM12.1831 10.6678L13.3327 11.8174L14.6743 10.4758L13.5247 9.32624L12.1831 10.6678ZM10.6495 14.5005L9.49959 13.3509L10.8406 12.0095L11.9905 13.1591L10.6495 14.5005ZM6.82331 16.0388L6.81762 16.0331L8.15854 14.6914L9.3084 15.841L7.96721 17.1827L7.96098 17.1765V21.1868C7.96098 21.6361 7.59702 21.9998 7.14797 21.9998H2.81301C2.36423 21.9998 2 21.6361 2 21.1868V16.8518C2 16.4031 2.36423 16.0388 2.81301 16.0388H6.82331ZM3.62602 20.3738H6.33496V17.6648H3.62602V20.3738Z" fill="#2D323B"/>
</svg>
