<svg width="24" height="24" viewBox="0 0 24 24" fill="none" xmlns="http://www.w3.org/2000/svg">
<path d="M12 11C11.2089 11 10.4355 10.7654 9.77772 10.3259C9.11992 9.88635 8.60723 9.26164 8.30448 8.53074C8.00173 7.79983 7.92252 6.99556 8.07686 6.21964C8.2312 5.44372 8.61216 4.73098 9.17157 4.17157C9.73098 3.61216 10.4437 3.2312 11.2196 3.07686C11.9956 2.92252 12.7998 3.00173 13.5307 3.30448C14.2616 3.60723 14.8864 4.11992 15.3259 4.77772C15.7654 5.43552 16 6.20888 16 7C16 8.06087 15.5786 9.07828 14.8284 9.82843C14.0783 10.5786 13.0609 11 12 11ZM12 5C11.6044 5 11.2178 5.1173 10.8889 5.33706C10.56 5.55683 10.3036 5.86918 10.1522 6.23463C10.0009 6.60009 9.96126 7.00222 10.0384 7.39018C10.1156 7.77814 10.3061 8.13451 10.5858 8.41422C10.8655 8.69392 11.2219 8.8844 11.6098 8.96157C11.9978 9.03874 12.3999 8.99914 12.7654 8.84776C13.1308 8.69639 13.4432 8.44004 13.6629 8.11114C13.8827 7.78224 14 7.39556 14 7C14 6.46957 13.7893 5.96086 13.4142 5.58579C13.0391 5.21072 12.5304 5 12 5ZM19 21H5C4.46957 21 3.96086 20.7893 3.58579 20.4142C3.21071 20.0391 3 19.5304 3 19V16.11C2.99974 15.7225 3.11206 15.3432 3.32332 15.0183C3.53458 14.6935 3.83568 14.437 4.19 14.28L4.35 14.22L11.28 12.48C11.7434 12.3012 12.2566 12.3012 12.72 12.48L19.65 14.22L19.81 14.28C20.1628 14.4363 20.4628 14.6912 20.674 15.0141C20.8851 15.3371 20.9983 15.7142 21 16.1V19C21 19.5304 20.7893 20.0391 20.4142 20.4142C20.0391 20.7893 19.5304 21 19 21ZM5 16.12V19H19V16.12L12.16 14.4C12.1046 14.3861 12.0509 14.366 12 14.34C11.9491 14.366 11.8954 14.3861 11.84 14.4L5 16.12Z" fill="#2D323B"/>
</svg>
