<svg width="24" height="24" viewBox="0 0 24 24" fill="none" xmlns="http://www.w3.org/2000/svg">
<path d="M17.3201 15.9311H14.7001L16.3601 14.2611C16.4536 14.1575 16.5677 14.0746 16.6952 14.0178C16.8226 13.961 16.9606 13.9314 17.1001 13.9311H18.0001C18.2004 13.9309 18.3961 13.9909 18.5619 14.1032C18.7277 14.2155 18.856 14.375 18.9301 14.5611L20.9301 19.5611C20.9782 19.6785 21.002 19.8043 21.0001 19.9311V20.9311C21.0001 21.4615 20.7894 21.9702 20.4143 22.3453C20.0392 22.7204 19.5305 22.9311 19.0001 22.9311H5.0001C4.46967 22.9311 3.96096 22.7204 3.58589 22.3453C3.21081 21.9702 3.0001 21.4615 3.0001 20.9311V19.9311C2.99824 19.8043 3.02205 19.6785 3.0701 19.5611L5.0701 14.5611C5.1442 14.375 5.27247 14.2155 5.43829 14.1032C5.6041 13.9909 5.79982 13.9309 6.0001 13.9311H7.5001C7.63171 13.9303 7.76217 13.9556 7.88401 14.0053C8.00585 14.0551 8.11666 14.1284 8.2101 14.2211L9.9001 15.9311H6.6801L5.8801 17.9311H18.1201L17.3201 15.9311ZM19.0001 19.9311H5.0001V20.9311H19.0001V19.9311ZM13.0001 15.5011L20.0701 8.43111C20.2564 8.24374 20.3609 7.99029 20.3609 7.72611C20.3609 7.46192 20.2564 7.20847 20.0701 7.02111L14.4101 1.36111C14.2227 1.17485 13.9693 1.07031 13.7051 1.07031C13.4409 1.07031 13.1875 1.17485 13.0001 1.36111L5.9301 8.43111C5.74385 8.61847 5.63931 8.87192 5.63931 9.1361C5.63931 9.40029 5.74385 9.65374 5.9301 9.8411L11.5901 15.5011C11.7764 15.6858 12.0278 15.79 12.2901 15.7911C12.4217 15.7919 12.5522 15.7666 12.674 15.7169C12.7958 15.6671 12.9067 15.5938 13.0001 15.5011ZM13.7101 3.50111L18.0001 7.72111L12.3401 13.3811L8.0501 9.14111L13.7101 3.50111Z" fill="#2D323B"/>
</svg>
