<?xml version="1.0" standalone="no"?>
<!DOCTYPE svg PUBLIC "-//W3C//DTD SVG 1.1//EN" "http://www.w3.org/Graphics/SVG/1.1/DTD/svg11.dtd" >
<svg xmlns="http://www.w3.org/2000/svg">
<metadata>Generated by IcoMoon</metadata>
<defs>
<font id="exim-icon" horiz-adv-x="1024">
<font-face units-per-em="1024" ascent="960" descent="-64" />
<missing-glyph horiz-adv-x="1024" />
<glyph unicode="&#x20;" horiz-adv-x="512" d="" />
<glyph unicode="&#xe900;" d="M698.464 269.005l-337.133-53.395-40.045 252.848c-16.554 104.512 33.597 199.715 138.528 216.334 104.934 16.62 182.048-58.427 198.602-162.939l40.048-252.848z" />
<glyph unicode="&#xe901;" d="M563.283 31.638c46.355 7.344 78.278 51.277 70.934 97.632l-168.566-26.698c7.344-46.355 51.277-78.275 97.632-70.934zM776.086 324.534l-33.373 210.707c-20.493 129.374-106.336 226.798-231.821 236.298l-4.538 28.656c-5.539 34.977-38.246 58.74-73.226 53.2-34.976-5.54-58.739-38.246-53.2-73.224l4.541-28.656c-115.987-47.745-168.012-166.572-147.454-296.367l33.373-210.707-70.934-97.632 6.675-42.141 674.26 106.79-6.672 42.141-97.632 70.934zM698.477 269.043l-337.13-53.395-40.048 252.848c-16.553 104.512 33.597 199.715 138.531 216.335 104.931 16.62 182.048-58.428 198.598-162.94l40.048-252.848z" />
<glyph unicode="&#xe902;" d="M853.334 20.374h-682.668c-25.6 0-42.667 17.066-42.667 42.666s17.067 42.669 42.667 42.669h682.668c25.6 0 42.666-17.069 42.666-42.669s-17.066-42.666-42.666-42.666zM298.667 191.040v256c0 25.6-17.067 42.669-42.667 42.669s-42.667-17.069-42.667-42.669v-256c0-25.6 17.067-42.666 42.667-42.666s42.667 17.066 42.667 42.666zM554.666 191.040v256c0 25.6-17.066 42.669-42.666 42.669s-42.666-17.069-42.666-42.669v-256c0-25.6 17.066-42.666 42.666-42.666s42.666 17.066 42.666 42.666zM810.666 191.040v256c0 25.6-17.066 42.669-42.666 42.669s-42.666-17.069-42.666-42.669v-256c0-25.6 17.066-42.666 42.666-42.666s42.666 17.066 42.666 42.666zM268.8 617.709c46.933 132.265 192 204.798 328.534 157.865 72.531-25.6 132.266-85.333 157.866-157.865h-486.4zM844.8 617.709c-46.934 183.465-234.666 294.398-413.866 247.465-123.734-34.133-217.601-128-251.734-247.465h-8.533c-25.6 0-42.667-17.069-42.667-42.669s17.067-42.666 42.667-42.666h682.668c25.6 0 42.666 17.066 42.666 42.666s-17.066 42.669-42.666 42.669h-8.534z" />
<glyph unicode="&#xe903;" d="M268.812 617.722c46.933 132.266 192 204.8 328.535 157.866 72.531-25.6 132.266-85.333 157.866-157.866h-486.4z" />
<glyph unicode="&#xe904;" d="M512.010 746.656c-16.877 0-33.376-5.005-47.408-14.381s-24.97-22.704-31.43-38.296c-6.458-15.593-8.147-32.75-4.854-49.303s11.421-31.757 23.354-43.693c11.933-11.933 27.139-20.061 43.693-23.354s33.709-1.603 49.302 4.858c15.594 6.458 28.922 17.395 38.298 31.427 9.376 14.035 14.381 30.532 14.381 47.409 0 22.632-8.992 44.337-24.995 60.34s-37.706 24.994-60.339 24.994zM213.344 272.202v-122.88h597.335v122.88l-291.84 73.389c-2.365 0.592-4.656 1.453-6.829 2.56-2.173-1.107-4.461-1.968-6.826-2.56l-291.84-73.389z" />
<glyph unicode="&#xe905;" d="M512 490.666c-33.754 0-66.752 10.010-94.816 28.765-28.067 18.752-49.942 45.405-62.861 76.592-12.915 31.184-16.294 65.5-9.712 98.606 6.586 33.106 22.842 63.516 46.71 87.384 23.866 23.868 54.278 40.123 87.382 46.708 33.107 6.585 67.421 3.205 98.608-9.712 31.184-12.917 57.84-34.792 76.592-62.858s28.762-61.063 28.762-94.818c0-45.263-17.981-88.674-49.987-120.68s-75.414-49.987-120.678-49.987zM512 746.667c-16.877 0-33.376-5.005-47.408-14.381-14.035-9.377-24.97-22.704-31.43-38.297-6.458-15.593-8.147-32.75-4.854-49.303s11.418-31.757 23.354-43.693c11.933-11.933 27.139-20.061 43.693-23.354 16.55-3.293 33.709-1.6 49.302 4.858s28.918 17.395 38.298 31.427c9.376 14.035 14.381 30.533 14.381 47.41 0 22.632-8.992 44.337-24.995 60.34s-37.709 24.994-60.339 24.994zM810.666 64h-597.332c-22.632 0-44.337 8.992-60.34 24.992-16.003 16.003-24.994 37.709-24.994 60.342v123.306c-0.011 16.534 4.781 32.717 13.795 46.579 9.014 13.859 21.86 24.803 36.978 31.501l6.827 2.56 295.68 74.24c19.77 7.629 41.67 7.629 61.44 0l295.68-74.24 6.826-2.56c15.053-6.666 27.856-17.546 36.864-31.325 9.008-13.776 13.84-29.866 13.91-46.33v-123.731c0-22.634-8.992-44.339-24.992-60.342-16.003-16-37.709-24.992-60.342-24.992zM213.333 272.214v-122.88h597.332v122.88l-291.84 73.386c-2.365 0.595-4.653 1.453-6.826 2.56-2.173-1.107-4.461-1.965-6.826-2.56l-291.841-73.386z" />
<glyph unicode="&#xe906;" d="M896.006 400l-240 48-128.32-29.12 163.686-51.136c36.074-11.27 60.634-44.678 60.634-82.47v-13.274h144v128z" />
<glyph unicode="&#xe907;" d="M362.656 447.99c-29.536 0-58.407 8.758-82.965 25.165-24.558 16.41-43.698 39.734-55.001 67.021s-14.26 57.312-8.498 86.282c5.762 28.967 19.985 55.575 40.869 76.46s47.493 35.107 76.461 40.869c28.966 5.762 58.992 2.805 86.282-8.498 27.286-11.303 50.608-30.443 67.018-55.001s25.168-53.43 25.168-82.966c0-39.603-15.734-77.587-43.741-105.594-28.003-28.006-65.987-43.738-105.594-43.738zM362.656 661.323c-12.659 0-25.030-3.754-35.555-10.786s-18.729-17.027-23.573-28.723c-4.844-11.693-6.111-24.563-3.642-36.976 2.469-12.416 8.565-23.821 17.515-32.771s20.356-15.046 32.768-17.514c12.416-2.47 25.283-1.203 36.979 3.642 11.693 4.845 21.69 13.046 28.72 23.571 7.034 10.525 10.787 22.899 10.787 35.555 0 16.976-6.742 33.254-18.746 45.256s-28.282 18.745-45.254 18.745zM597.322 63.99h-469.332c-22.632 0-44.337 8.989-60.34 24.992s-24.994 37.709-24.994 60.339v96.429c0.009 18.227 5.854 35.974 16.68 50.637 10.826 14.666 26.063 25.478 43.48 30.854l234.665 72.534c16.454 4.694 33.894 4.694 50.349 0l234.666-72.534c17.418-5.376 32.653-16.189 43.478-30.854 10.826-14.662 16.672-32.41 16.682-50.637v-96.429c0-22.63-8.989-44.336-24.992-60.339s-37.709-24.992-60.342-24.992zM362.656 317.856l-234.667-72.106v-96.429h469.332v96.429l-234.666 72.106z" />
<glyph unicode="&#xe908;" d="M362.666 661.344c-12.656 0-25.030-3.754-35.555-10.786s-18.728-17.028-23.572-28.721c-4.844-11.696-6.111-24.563-3.642-36.979s8.565-23.818 17.516-32.768c8.95-8.95 20.355-15.046 32.771-17.517 12.413-2.467 25.28-1.2 36.976 3.642 11.696 4.845 21.69 13.050 28.723 23.574 7.030 10.525 10.784 22.896 10.784 35.555 0 16.973-6.742 33.251-18.746 45.255-12 12.002-28.278 18.745-45.254 18.745zM362.666 317.878l-234.666-72.109v-96.426h469.334v96.426l-234.669 72.109z" />
<glyph unicode="&#xe909;" d="M981.318 277.334v96.426c-0.010 18.227-5.853 35.974-16.678 50.64-10.826 14.662-26.064 25.475-43.482 30.854l-234.666 72.531c-16.31 4.685-33.61 4.685-49.92 0l-101.12-30.72c-10.784-3.258-19.843-10.65-25.2-20.56-5.354-9.91-6.573-21.539-3.386-32.346 1.61-5.389 4.269-10.403 7.827-14.762 3.555-4.355 7.936-7.965 12.893-10.621 4.957-2.659 10.39-4.307 15.987-4.858s11.245 0.013 16.624 1.654l101.12 30.291 234.669-72.106v-96.426h-128c-11.318 0-22.17-4.496-30.173-12.499-8-8-12.496-18.851-12.496-30.17 0-11.315 4.496-22.166 12.496-30.17 8.003-8 18.854-12.496 30.173-12.496h128c22.63 0 44.336 8.992 60.339 24.992 16.003 16.003 24.992 37.709 24.992 60.342zM533.318 704c0-25.316 7.507-50.063 21.571-71.114 14.067-21.050 34.058-37.456 57.446-47.142 23.389-9.69 49.126-12.224 73.955-7.283 24.829 4.938 47.635 17.13 65.539 35.030 17.901 17.901 30.090 40.708 35.030 65.537 4.938 24.829 2.403 50.566-7.286 73.955-9.686 23.389-26.093 43.38-47.142 57.445s-45.795 21.572-71.114 21.572c-33.946 0-66.506-13.486-90.509-37.49s-37.491-56.562-37.491-90.51z" />
<glyph unicode="&#xe90a;" d="M981.318 277.334v96.426c-0.010 18.227-5.853 35.974-16.678 50.64-10.826 14.662-26.064 25.475-43.482 30.854l-234.666 72.531c-16.31 4.685-33.61 4.685-49.92 0l-101.12-30.72c-10.784-3.258-19.843-10.65-25.2-20.56-5.354-9.91-6.573-21.539-3.386-32.346 1.61-5.389 4.269-10.403 7.827-14.762 3.555-4.355 7.936-7.965 12.893-10.621 4.957-2.659 10.39-4.307 15.987-4.858s11.245 0.013 16.624 1.654l101.12 30.291 234.669-72.106v-96.426h-128c-11.318 0-22.17-4.496-30.173-12.499-8-8-12.496-18.851-12.496-30.17 0-11.315 4.496-22.166 12.496-30.17 8.003-8 18.854-12.496 30.173-12.496h128c22.63 0 44.336 8.992 60.339 24.992 16.003 16.003 24.992 37.709 24.992 60.342zM533.318 704c0-25.316 7.507-50.063 21.571-71.114 14.067-21.050 34.058-37.456 57.446-47.142 23.389-9.69 49.126-12.224 73.955-7.283 24.829 4.938 47.635 17.13 65.539 35.030 17.901 17.901 30.090 40.708 35.030 65.537 4.938 24.829 2.403 50.566-7.286 73.955-9.686 23.389-26.093 43.38-47.142 57.445s-45.795 21.572-71.114 21.572c-33.946 0-66.506-13.486-90.509-37.49s-37.491-56.562-37.491-90.51z" />
<glyph unicode="&#xe90b;" d="M682.646 234.624h-341.334v256c0 105.814 64.426 192.001 170.666 192.001s170.669-86.187 170.669-192.001v-256z" />
<glyph unicode="&#xe90c;" d="M511.99 21.344c46.931 0 85.331 38.4 85.331 85.334h-170.666c0-46.934 38.4-85.334 85.334-85.334zM767.99 277.344v213.334c0 130.986-69.549 240.639-192 269.652v29.013c0 35.413-28.589 64-64 64-35.414 0-64-28.587-64-64v-29.013c-122.029-29.013-192.001-138.241-192.001-269.652v-213.334l-85.333-85.334v-42.666h682.665v42.666l-85.331 85.334zM682.656 234.678h-341.334v256c0 105.811 64.429 191.999 170.669 191.999s170.666-86.188 170.666-191.999v-256z" />
<glyph unicode="&#xe90d;" d="M192 608h725.44v-127.84c0-23.594-19.126-42.72-42.72-42.72s-42.72-19.126-42.72-42.72v-85.44c0-23.594 19.126-42.72 42.72-42.72s42.72-19.126 42.72-42.72v-95.84h-725.44v480z" />
<glyph unicode="&#xe90e;" d="M191.989 693.354h640.001c22.63 0 44.336-8.99 60.339-24.994s24.992-37.708 24.992-60.338v-128c0-11.318-4.493-22.17-12.496-30.173-8-8-18.854-12.496-30.17-12.496s-22.17 4.496-30.17 12.496c-8.003 8.003-12.496 18.854-12.496 30.173v128h-640.001v-469.334h640.001v85.334c0 11.315 4.493 22.166 12.496 30.17 8 8 18.854 12.496 30.17 12.496s22.17-4.496 30.17-12.496c8.003-8.003 12.496-18.854 12.496-30.17v-85.334c0-22.634-8.989-44.336-24.992-60.339s-37.709-24.995-60.339-24.995h-640.001c-22.632 0-44.337 8.992-60.34 24.995s-24.994 37.706-24.994 60.339v575.999c0 33.948 13.486 66.505 37.49 90.51s56.562 37.49 90.51 37.49h554.665c11.318 0 22.17-4.495 30.17-12.497 8.003-8.002 12.499-18.854 12.499-30.17s-4.496-22.168-12.499-30.17c-8-8.002-18.851-12.497-30.17-12.497h-554.665c-11.316 0-22.168-4.495-30.17-12.497s-12.497-18.854-12.497-30.17v-21.333zM959.99 352.022c0 11.315-4.496 22.166-12.499 30.17-8 8-18.851 12.496-30.17 12.496h-256c-11.315 0-22.166-4.496-30.17-12.496-8-8.003-12.496-18.854-12.496-30.17 0-11.318 4.496-22.17 12.496-30.173 8.003-8 18.854-12.496 30.17-12.496h256c11.318 0 22.17 4.496 30.17 12.496 8.003 8.003 12.499 18.854 12.499 30.173z" />
<glyph unicode="&#xe90f;" glyph-name="fingerprint" d="M759.902 769.28c-3.413 0-6.827 0.853-9.813 2.56-81.92 42.24-152.747 60.16-237.653 60.16-84.48 0-164.692-20.053-237.652-60.16-10.24-5.547-23.040-1.707-29.013 8.533-5.547 10.24-1.707 23.467 8.533 29.013 79.36 43.093 166.4 65.28 258.132 65.28 90.88 0 170.24-20.053 257.28-64.853 10.667-5.547 14.507-18.347 8.96-28.587-3.84-7.68-11.093-11.947-18.773-11.947zM149.343 545.28c-4.267 0-8.533 1.28-12.373 3.84-9.813 6.827-11.947 20.053-5.12 29.867 42.24 59.733 96 106.667 160 139.52 133.973 69.12 305.492 69.547 439.892 0.427 64-32.853 117.76-79.36 160-138.667 6.827-9.387 4.693-23.040-5.12-29.867s-23.040-4.693-29.867 5.12c-38.4 53.76-87.040 96-144.64 125.44-122.453 62.72-279.040 62.72-401.065-0.427-58.027-29.867-106.667-72.533-145.067-126.293-3.413-5.973-9.813-8.96-16.64-8.96zM416.010 30.293c-5.547 0-11.093 2.133-14.933 6.4-37.12 37.12-57.173 61.013-85.76 112.64-29.44 52.48-44.8 116.48-44.8 185.173 0 126.72 108.373 229.973 241.492 229.973s241.493-103.253 241.493-229.973c0-11.947-9.387-21.333-21.333-21.333s-21.333 9.387-21.333 21.333c0 103.253-89.173 187.307-198.827 187.307-109.652 0-198.825-84.053-198.825-187.307 0-61.44 13.653-118.187 39.68-164.267 27.307-49.067 46.080-69.973 78.932-103.253 8.107-8.533 8.107-21.76 0-30.293-4.693-4.267-10.239-6.4-15.785-6.4zM721.929 109.227c-50.773 0-95.573 12.8-132.267 37.973-63.573 43.093-101.547 113.067-101.547 187.307 0 11.947 9.387 21.333 21.333 21.333s21.333-9.387 21.333-21.333c0-60.16 30.72-116.907 82.773-151.893 30.293-20.48 65.707-30.293 108.373-30.293 10.24 0 27.307 1.28 44.373 4.267 11.52 2.133 22.613-5.547 24.747-17.493 2.133-11.52-5.547-22.613-17.493-24.747-24.32-4.693-45.653-5.12-51.627-5.12zM636.169 21.333c-1.707 0-3.84 0.427-5.547 0.853-67.84 18.773-112.213 43.947-158.72 89.6-59.732 59.307-92.585 138.24-92.585 222.72 0 69.12 58.879 125.44 131.412 125.44s131.413-56.32 131.413-125.44c0-45.653 39.68-82.773 88.747-82.773s88.747 37.12 88.747 82.773c0 160.853-138.667 291.413-309.333 291.413-121.172 0-232.105-67.413-282.025-171.947-16.64-34.56-25.173-75.093-25.173-119.467 0-33.28 2.987-85.76 28.587-154.027 4.267-11.093-1.28-23.467-12.373-27.307-11.093-4.267-23.467 1.707-27.307 12.373-20.907 55.893-31.147 111.36-31.147 168.96 0 51.2 9.813 97.707 29.013 138.24 56.747 119.040 182.613 196.267 320.425 196.267 194.133 0 352-149.76 352-334.080 0-69.12-58.88-125.44-131.413-125.44s-131.413 56.32-131.413 125.44c0 45.653-39.68 82.773-88.747 82.773s-88.745-37.12-88.745-82.773c0-72.96 28.159-141.227 79.785-192.427 40.533-40.107 79.36-62.293 139.52-78.933 11.52-2.987 17.92-14.933 14.933-26.027-2.133-9.813-11.093-16.213-20.053-16.213z" />
<glyph unicode="&#xe910;" glyph-name="key" d="M938.667 149.333h-256v170.667h-114.347c-48.64-103.253-153.6-170.667-269.653-170.667-164.693 0-298.667 133.973-298.667 298.667s133.973 298.667 298.667 298.667c116.053 0 220.587-67.413 269.653-170.667h455.68v-256h-85.333v-170.667zM768 234.667h85.333v170.667h85.333v85.333h-429.227l-9.813 28.587c-29.867 84.907-110.933 142.080-200.96 142.080-117.76 0-213.333-95.573-213.333-213.333s95.573-213.333 213.333-213.333c90.027 0 171.093 57.173 200.96 142.080l9.813 28.587h258.56v-170.667zM298.667 320c-70.4 0-128 57.6-128 128s57.6 128 128 128c70.4 0 128-57.6 128-128s-57.6-128-128-128zM298.667 490.667c-23.467 0-42.667-19.2-42.667-42.667s19.2-42.667 42.667-42.667c23.467 0 42.667 19.2 42.667 42.667s-19.2 42.667-42.667 42.667z" />
<glyph unicode="&#xe911;" glyph-name="lock" d="M597.333 320c0-16.879-5.005-33.374-14.383-47.407-9.374-14.033-22.703-24.973-38.293-31.433-15.595-6.455-32.751-8.145-49.306-4.855-16.55 3.294-31.757 11.422-43.691 23.356s-20.062 27.14-23.356 43.691c-3.291 16.555-1.6 33.711 4.855 49.306 6.46 15.59 17.399 28.919 31.433 38.293 14.033 9.378 30.528 14.383 47.407 14.383 22.63 0 44.335-8.99 60.339-24.994s24.994-37.709 24.994-60.339zM682.667 704c0 45.264-17.98 88.673-49.988 120.68-32.004 32.006-75.413 49.987-120.678 49.987s-88.673-17.981-120.68-49.987c-32.006-32.006-49.987-75.416-49.987-120.68v-139.093c-52.18-36.335-91.404-88.371-111.961-148.544-20.557-60.169-21.374-125.329-2.333-185.997 19.041-60.663 56.946-113.673 108.199-151.305s113.176-57.924 176.762-57.924c63.586 0 125.508 20.292 176.764 57.924 51.251 37.632 89.156 90.641 108.198 151.305 19.038 60.668 18.223 125.828-2.334 185.997-20.557 60.173-59.78 112.209-111.962 148.544v139.093zM597.333 606.293c-55.68 16.6-114.987 16.6-170.667 0v97.707c0 22.632 8.99 44.337 24.994 60.34s37.709 24.994 60.339 24.994c22.63 0 44.335-8.99 60.339-24.994s24.994-37.708 24.994-60.34v-97.707zM725.333 320c0-42.193-12.51-83.439-35.955-118.524-23.441-35.081-56.759-62.426-95.74-78.571s-81.873-20.373-123.26-12.139c-41.382 8.23-79.393 28.548-109.228 58.385-29.836 29.833-50.153 67.844-58.385 109.227-8.231 41.387-4.007 84.279 12.14 123.26s43.49 72.299 78.573 95.74c35.083 23.445 76.329 35.955 118.522 35.955 56.58 0 110.844-22.477 150.848-62.485 40.009-40.004 62.485-94.268 62.485-150.848z" />
<glyph unicode="&#xe912;" glyph-name="passcode" d="M512 149.333c-46.933 0-85.333-38.4-85.333-85.333s38.4-85.333 85.333-85.333c46.933 0 85.333 38.4 85.333 85.333s-38.4 85.333-85.333 85.333zM256 917.333c-46.933 0-85.333-38.4-85.333-85.333s38.4-85.333 85.333-85.333c46.933 0 85.333 38.4 85.333 85.333s-38.4 85.333-85.333 85.333zM256 661.333c-46.933 0-85.333-38.4-85.333-85.333s38.4-85.333 85.333-85.333c46.933 0 85.333 38.4 85.333 85.333s-38.4 85.333-85.333 85.333zM256 405.333c-46.933 0-85.333-38.4-85.333-85.333s38.4-85.333 85.333-85.333c46.933 0 85.333 38.4 85.333 85.333s-38.4 85.333-85.333 85.333zM768 746.667c46.933 0 85.333 38.4 85.333 85.333s-38.4 85.333-85.333 85.333c-46.933 0-85.333-38.4-85.333-85.333s38.4-85.333 85.333-85.333zM512 405.333c-46.933 0-85.333-38.4-85.333-85.333s38.4-85.333 85.333-85.333c46.933 0 85.333 38.4 85.333 85.333s-38.4 85.333-85.333 85.333zM768 405.333c-46.933 0-85.333-38.4-85.333-85.333s38.4-85.333 85.333-85.333c46.933 0 85.333 38.4 85.333 85.333s-38.4 85.333-85.333 85.333zM768 661.333c-46.933 0-85.333-38.4-85.333-85.333s38.4-85.333 85.333-85.333c46.933 0 85.333 38.4 85.333 85.333s-38.4 85.333-85.333 85.333zM512 661.333c-46.933 0-85.333-38.4-85.333-85.333s38.4-85.333 85.333-85.333c46.933 0 85.333 38.4 85.333 85.333s-38.4 85.333-85.333 85.333zM512 917.333c-46.933 0-85.333-38.4-85.333-85.333s38.4-85.333 85.333-85.333c46.933 0 85.333 38.4 85.333 85.333s-38.4 85.333-85.333 85.333z" />
<glyph unicode="&#xe913;" glyph-name="password-security" d="M256 149.342c0-8.435-2.502-16.687-7.191-23.701-4.688-7.019-11.352-12.489-19.148-15.714-7.796-3.23-16.375-4.075-24.652-2.432-8.276 1.647-15.879 5.713-21.846 11.678-5.967 5.969-10.031 13.572-11.677 21.845-1.647 8.277-0.802 16.858 2.428 24.653s8.698 14.46 15.715 19.149c7.017 4.689 15.266 7.189 23.704 7.189 11.316 0 22.168-4.493 30.17-12.497 8.001-8 12.497-18.854 12.497-30.17zM268.373 264.969c-17.169 8.252-35.992 12.484-55.040 12.373-25.316 0-50.063-7.505-71.113-21.572-21.050-14.063-37.455-34.052-47.144-57.442s-12.223-49.126-7.284-73.954c4.939-24.832 17.129-47.637 35.031-65.54 17.901-17.899 40.709-30.093 65.538-35.029 24.829-4.941 50.566-2.406 73.955 7.283s43.38 26.095 57.445 47.142c14.065 21.052 21.572 45.798 21.572 71.113 0.108 19.051-4.123 37.871-12.373 55.040l140.373 140.8 12.373-12.8c3.968-3.998 8.687-7.172 13.884-9.34 5.201-2.163 10.778-3.281 16.41-3.281s11.209 1.118 16.41 3.281c5.197 2.167 9.916 5.342 13.884 9.34 3.998 3.968 7.172 8.687 9.34 13.888 2.167 5.197 3.281 10.773 3.281 16.405s-1.114 11.209-3.281 16.41c-2.167 5.201-5.342 9.92-9.34 13.884l-12.8 12.373 46.507 46.507 33.707-34.133c8.034-8.034 18.931-12.548 30.293-12.548s22.259 4.514 30.293 12.548c8.034 8.034 12.548 18.931 12.548 30.293s-4.514 22.259-12.548 30.293l-64 64.001c-3.968 3.999-8.687 7.174-13.884 9.339-5.201 2.166-10.778 3.281-16.41 3.281s-11.209-1.115-16.41-3.281c-5.197-2.166-9.916-5.34-13.884-9.339l-277.333-277.335zM612.267 23.902c13.227 5.12 326.4 122.453 326.4 328.96v316.588c-0.077 16.295-4.821 32.227-13.666 45.913-8.849 13.685-21.427 24.552-36.254 31.314l-238.507 108.373c-16.661 7.385-34.684 11.2-52.907 11.2s-36.245-3.815-52.907-11.2l-213.333-96.853c-22.378-10.158-41.359-26.543-54.674-47.198s-20.404-44.707-20.419-69.282v-232.961c0-11.315 4.495-22.165 12.497-30.17 8.002-8 18.854-12.497 30.17-12.497s22.168 4.497 30.17 12.497c8.001 8.004 12.497 18.854 12.497 30.17v232.961c0.017 8.207 2.401 16.236 6.866 23.122s10.822 12.34 18.307 15.704l213.333 96.427c5.5 2.473 11.465 3.751 17.493 3.751s11.994-1.279 17.493-3.751l238.507-107.52v-316.588c0-114.773-170.667-209.067-256-243.2-51.674 21.961-100.757 49.579-146.347 82.347-4.476 3.733-9.668 6.507-15.258 8.154s-11.457 2.129-17.241 1.421c-5.783-0.708-11.361-2.59-16.388-5.538-5.027-2.944-9.398-6.891-12.842-11.588-3.444-4.702-5.89-10.057-7.185-15.735-1.295-5.683-1.414-11.567-0.347-17.297s3.295-11.179 6.548-16.013c3.253-4.834 7.462-8.951 12.367-12.096 56.23-40.316 117.295-73.425 181.76-98.56 9.664-3.413 20.203-3.413 29.867 0v-0.853z" />
<glyph unicode="&#xe914;" glyph-name="shield" d="M520.627 111.164c-5.158-3.686-12.096-3.686-17.254 0l-1.254 0.892c-63.915 45.504-123.098 87.859-169.236 132.518-67.479 65.399-87.549 115.435-87.549 162.697v268.968c0 17.834 11.092 33.787 27.81 39.997l224 83.205c9.583 3.56 20.13 3.56 29.713 0l224-83.204c16.717-6.21 27.81-22.163 27.81-39.997v-268.969c0-47.232-20.041-97.237-87.552-162.594-46.758-45.069-106.257-87.782-170.368-133.427l-0.119-0.085zM215.62 785.898c-33.436-12.419-55.62-44.325-55.62-79.993v-298.635c0-78.191 36.053-148.919 113.493-223.974 51.635-49.984 116.444-96.124 179.132-140.753l34.735-24.819c14.72-10.594 34.56-10.594 49.28 0l33.6 24.009c63.040 44.881 128 91.277 180.16 141.564 77.547 75.055 113.6 145.783 113.6 223.974v298.635c0 35.668-22.182 67.573-55.62 79.993l-266.667 99.053c-19.17 7.12-40.256 7.12-59.426 0l-266.667-99.053zM469.935 218.778l19.588-13.201c10.62-4.604 22.477 3.179 22.477 14.75v485.461c0 14.732-14.579 25.030-28.463 20.106l-160.001-56.743c-8.514-3.019-14.203-11.073-14.203-20.106v-222.754c0-42.982 10.353-81.86 55.503-123.119 30.286-27.644 68.346-59.725 105.099-84.395z" />
<glyph unicode="&#xe915;" glyph-name="candidate" d="M512.009 618.667c-29.534 0-58.406 8.758-82.965 25.167s-43.698 39.732-55.001 67.019c-11.302 27.287-14.26 57.313-8.498 86.281s19.985 55.577 40.87 76.461c20.884 20.885 47.491 35.107 76.462 40.87 28.966 5.762 58.991 2.804 86.281-8.498 27.285-11.303 50.611-30.443 67.017-55.001 16.41-24.558 25.169-53.43 25.169-82.965 0-39.606-15.735-77.589-43.738-105.594-28.006-28.006-65.993-43.739-105.596-43.739zM512.009 832c-12.659 0-25.033-3.754-35.558-10.786-10.522-7.032-18.726-17.028-23.569-28.722-4.847-11.695-6.114-24.563-3.644-36.977s8.567-23.818 17.515-32.769c8.951-8.951 20.356-15.046 32.772-17.516 12.412-2.47 25.28-1.202 36.975 3.642s21.692 13.047 28.723 23.572c7.031 10.525 10.786 22.899 10.786 35.557 0 16.974-6.741 33.252-18.743 45.255-12.006 12.002-28.284 18.745-45.257 18.745zM853.342 362.667v53.333c-0.026 18.517-6.076 36.527-17.237 51.302-11.162 14.78-26.825 25.523-44.629 30.618l-256 72.96c-15.351 4.276-31.582 4.276-46.933 0l-256-72.96c-17.804-5.094-33.469-15.838-44.629-30.618-11.16-14.775-17.21-32.785-17.237-51.302v-53.333c0-11.315 4.495-22.17 12.497-30.17s18.854-12.497 30.17-12.497c11.316 0 22.168 4.497 30.17 12.497s12.497 18.854 12.497 30.17v53.333l256 74.667 256-72.96v-55.040c0-11.315 4.493-22.17 12.497-30.17 8-8 18.854-12.497 30.17-12.497s22.17 4.497 30.17 12.497c8 8 12.497 18.854 12.497 30.17zM768.009-21.333h-512c-8.545-0.009-16.896 2.551-23.971 7.343s-12.547 11.597-15.709 19.537l-85.333 213.333c-2.577 6.46-3.535 13.453-2.792 20.369s3.167 13.547 7.058 19.311c3.914 5.79 9.19 10.53 15.365 13.803s13.059 4.979 20.048 4.971h682.667c6.989 0.009 13.875-1.698 20.049-4.971s11.452-8.013 15.364-13.803c3.891-5.764 6.315-12.395 7.057-19.311 0.747-6.916-0.213-13.909-2.79-20.369l-85.333-213.333c-3.162-7.94-8.636-14.746-15.71-19.537s-15.424-7.351-23.97-7.343zM285.021 64h453.974l51.2 128h-554.667l49.493-128z" />
<glyph unicode="&#xe916;" glyph-name="cycle" d="M765.44 93.38c2.837-6.507 4.011-13.615 3.409-20.689-0.602-7.070-2.961-13.879-6.857-19.81-3.9-5.931-9.212-10.799-15.467-14.157-6.251-3.358-13.244-5.103-20.339-5.077-3.959-0.627-7.987-0.627-11.947 0l-170.667 49.067c-6.029 1.728-11.601 4.766-16.32 8.896s-8.469 9.25-10.987 14.997c-2.662 5.67-4.045 11.861-4.045 18.133 0 6.268 1.382 12.459 4.045 18.133l81.067 159.573c3.639 7.232 9.267 13.278 16.218 17.434s14.942 6.246 23.036 6.033c8.107-0.218 15.987-2.743 22.711-7.275 6.729-4.535 12.019-10.893 15.262-18.325l26.88-62.293 109.227 48.64v323.411l-145.067 64.427c-5.129 2.266-9.762 5.522-13.632 9.58s-6.903 8.839-8.922 14.070c-2.022 5.231-2.991 10.809-2.854 16.415s1.374 11.13 3.648 16.256c2.266 5.129 5.521 9.761 9.579 13.631s8.841 6.903 14.071 8.923c5.231 2.021 10.807 2.991 16.414 2.855s11.132-1.376 16.256-3.649l148.053-65.707c14.187-6.329 26.244-16.622 34.722-29.641s13.013-28.209 13.065-43.745v-330.238c-0.051-15.539-4.587-30.729-13.065-43.746-8.478-13.022-20.535-23.313-34.722-29.641l-112.213-49.92 29.44-66.56zM349.013 595.991c3.241-7.435 8.535-13.792 15.261-18.327s14.604-7.057 22.712-7.273c8.167-0.3 16.248 1.753 23.282 5.913s12.726 10.253 16.398 17.553l78.933 157.44c2.662 5.674 4.045 11.865 4.045 18.133s-1.382 12.46-4.045 18.133c-2.517 5.745-6.268 10.864-10.987 14.994s-10.291 7.168-16.32 8.899l-170.667 49.493c-7.796 2.31-16.090 2.343-23.905 0.096s-14.825-6.679-20.205-12.777c-5.38-6.097-8.905-13.605-10.161-21.638s-0.19-16.259 3.072-23.708l29.013-66.133-109.653-49.92c-14.188-6.329-26.246-16.622-34.723-29.641s-13.014-28.209-13.063-43.745v-330.238c0.049-15.539 4.586-30.729 13.063-43.746 8.477-13.022 20.535-23.313 34.723-29.641l147.627-65.707c5.494-2.505 11.456-3.814 17.493-3.84 8.255 0.051 16.316 2.5 23.208 7.044s12.317 10.987 15.619 18.551c4.617 10.304 4.965 22.012 0.966 32.567s-12.017 19.098-22.3 23.757l-145.067 64.427v323.411l108.373 48.213 27.307-62.293z" />
<glyph unicode="&#xe917;" glyph-name="demotion" d="M820.907 405.333h-394.24c-11.316 0-22.168 4.493-30.17 12.497-8.001 8-12.497 18.854-12.497 30.17s4.495 22.165 12.497 30.17c8.002 8 18.854 12.497 30.17 12.497h394.24l-122.88 102.399c-4.753 3.428-8.751 7.799-11.742 12.841s-4.911 10.644-5.641 16.461c-0.73 5.816-0.252 11.72 1.399 17.344 1.655 5.624 4.45 10.846 8.209 15.342 3.763 4.496 8.41 8.169 13.653 10.789s10.97 4.132 16.823 4.441c5.854 0.309 11.708-0.591 17.199-2.645s10.496-5.217 14.711-9.292l213.333-177.492c4.83-4.006 8.721-9.024 11.392-14.703 2.667-5.679 4.053-11.878 4.053-18.15 0-6.276-1.387-12.476-4.053-18.15-2.671-5.679-6.562-10.701-11.392-14.703l-213.333-177.493c-7.616-6.515-17.284-10.142-27.307-10.24-6.268-0.013-12.463 1.361-18.142 4.015-5.675 2.654-10.701 6.528-14.711 11.345-3.593 4.309-6.298 9.289-7.966 14.647-1.664 5.359-2.257 10.995-1.741 16.58 0.512 5.589 2.125 11.021 4.745 15.987 2.615 4.962 6.187 9.361 10.509 12.945l122.88 102.4zM749.227 93.44c9.284 6.319 15.701 16.047 17.856 27.072 2.159 11.025-0.119 22.451-6.336 31.808-3.098 4.689-7.095 8.721-11.759 11.861s-9.899 5.329-15.411 6.438c-5.513 1.109-11.187 1.122-16.704 0.030-5.513-1.092-10.761-3.26-15.433-6.383-51.392-34.368-111.151-54.135-172.898-57.186s-123.164 10.726-177.693 39.859c-54.529 29.129-100.122 72.525-131.91 125.551-31.789 53.022-48.579 113.685-48.579 175.509 0 61.82 16.791 122.484 48.579 175.508s77.381 96.419 131.91 125.551c54.529 29.132 115.945 42.908 177.693 39.857s121.506-22.817 172.898-57.184c4.672-3.124 9.92-5.294 15.433-6.385 5.517-1.091 11.191-1.081 16.704 0.029s10.748 3.299 15.411 6.439c4.663 3.141 8.661 7.172 11.759 11.863 6.217 9.355 8.495 20.784 6.336 31.807-2.155 11.023-8.572 20.751-17.856 27.073-70.093 47.201-152.721 72.317-237.227 72.107-113.159 0-221.683-44.952-301.699-124.968s-124.968-188.54-124.968-301.698c0-113.161 44.952-221.683 124.968-301.7s188.54-124.966 301.699-124.966c84.506-0.213 167.134 24.905 237.227 72.107z" />
<glyph unicode="&#xe918;" glyph-name="governance1" d="M853.333 20.395h-682.667c-25.6 0-42.667 17.067-42.667 42.667s17.067 42.667 42.667 42.667h682.667c25.6 0 42.667-17.067 42.667-42.667s-17.067-42.667-42.667-42.667zM298.667 191.061v256c0 25.6-17.067 42.667-42.667 42.667s-42.667-17.067-42.667-42.667v-256c0-25.6 17.067-42.667 42.667-42.667s42.667 17.067 42.667 42.667zM554.667 191.061v256c0 25.6-17.067 42.667-42.667 42.667s-42.667-17.067-42.667-42.667v-256c0-25.6 17.067-42.667 42.667-42.667s42.667 17.067 42.667 42.667zM810.667 191.061v256c0 25.6-17.067 42.667-42.667 42.667s-42.667-17.067-42.667-42.667v-256c0-25.6 17.067-42.667 42.667-42.667s42.667 17.067 42.667 42.667zM268.8 617.728c46.933 132.267 192 204.8 328.533 157.867 72.533-25.6 132.267-85.333 157.867-157.867h-486.4zM844.8 617.728c-46.933 183.467-234.667 294.4-413.867 247.467-123.733-34.133-217.6-128-251.733-247.467h-8.533c-25.6 0-42.667-17.067-42.667-42.667s17.067-42.667 42.667-42.667h682.667c25.6 0 42.667 17.067 42.667 42.667s-17.067 42.667-42.667 42.667h-8.533z" />
<glyph unicode="&#xe919;" glyph-name="kyc-validated" d="M512 533.333c-33.754 0-66.752 10.009-94.817 28.762s-49.941 45.408-62.858 76.593c-12.917 31.185-16.297 65.501-9.712 98.607s22.839 63.516 46.708 87.384c23.868 23.868 54.278 40.122 87.383 46.708 33.109 6.585 67.422 3.206 98.607-9.712s57.843-34.792 76.595-62.858c18.752-28.066 28.762-61.063 28.762-94.817 0-45.264-17.98-88.673-49.988-120.68-32.004-32.006-75.413-49.987-120.678-49.987zM512 789.333c-16.879 0-33.374-5.005-47.407-14.381s-24.973-22.704-31.433-38.296c-6.455-15.593-8.147-32.751-4.855-49.303 3.294-16.553 11.422-31.758 23.356-43.692s27.14-20.061 43.691-23.354c16.555-3.293 33.711-1.603 49.306 4.856 15.59 6.458 28.919 17.396 38.293 31.429 9.378 14.033 14.383 30.531 14.383 47.409 0 22.632-8.99 44.337-24.994 60.34s-37.709 24.994-60.339 24.994zM426.667 149.333c0 11.315-4.495 22.17-12.497 30.17s-18.854 12.497-30.17 12.497h-170.667v122.88l291.84 73.387c2.364 0.593 4.655 1.451 6.827 2.56 2.172-1.109 4.463-1.967 6.827-2.56l218.027-55.040c10.803-2.893 22.31-1.434 32.047 4.075 9.737 5.504 16.922 14.613 20.006 25.365 2.705 10.974 0.947 22.579-4.894 32.256-5.837 9.681-15.279 16.649-26.253 19.371l-213.333 54.187c-19.772 7.629-41.673 7.629-61.44 0l-297.387-72.533-6.827-2.56c-15.118-6.699-27.965-17.643-36.978-31.501-9.014-13.862-13.806-30.046-13.795-46.579v-123.307c0-22.63 8.99-44.335 24.994-60.339s37.708-24.994 60.34-24.994h170.667c11.316 0 22.168 4.497 30.17 12.497s12.497 18.854 12.497 30.17zM648.96 33.707l277.333 277.333c3.977 3.977 7.134 8.7 9.289 13.897 2.15 5.201 3.26 10.769 3.26 16.397s-1.109 11.196-3.26 16.393c-2.155 5.201-5.312 9.924-9.289 13.901s-8.7 7.134-13.901 9.289c-5.197 2.15-10.765 3.26-16.393 3.26s-11.196-1.109-16.393-3.26c-5.201-2.155-9.924-5.312-13.901-9.289l-247.040-247.467-76.373 76.8c-3.977 3.977-8.7 7.134-13.901 9.289-5.197 2.15-10.765 3.26-16.393 3.26s-11.196-1.109-16.393-3.26c-5.201-2.155-9.924-5.312-13.901-9.289s-7.134-8.7-9.289-13.901c-2.15-5.197-3.26-10.765-3.26-16.393s1.109-11.196 3.26-16.397c2.155-5.197 5.312-9.92 9.289-13.897l106.667-106.667c3.968-3.998 8.687-7.172 13.884-9.34 5.201-2.167 10.778-3.281 16.41-3.281s11.209 1.114 16.41 3.281c5.197 2.167 9.916 5.342 13.884 9.34z" />
<glyph unicode="&#xe91a;" glyph-name="promotion" d="M356.693 593.076c-4.755 3.428-8.752 7.799-11.743 12.841s-4.911 10.644-5.64 16.461c-0.729 5.816-0.252 11.72 1.402 17.344s4.448 10.846 8.209 15.342c3.761 4.496 8.408 8.169 13.652 10.789s10.97 4.132 16.824 4.441c5.854 0.309 11.708-0.591 17.198-2.645s10.498-5.217 14.712-9.292l213.333-177.495c4.83-4.002 8.721-9.024 11.392-14.703 2.667-5.675 4.053-11.874 4.053-18.15 0-6.272-1.387-12.471-4.053-18.15-2.671-5.679-6.562-10.697-11.392-14.703l-213.333-177.493c-7.617-6.515-17.284-10.138-27.307-10.24-6.268-0.009-12.462 1.361-18.14 4.015-5.679 2.658-10.702 6.528-14.714 11.345-3.593 4.314-6.299 9.289-7.965 14.647-1.666 5.363-2.258 10.995-1.743 16.585s2.128 11.021 4.746 15.983c2.618 4.966 6.189 9.365 10.509 12.945l122.88 102.4h-394.24c-11.316 0-22.168 4.497-30.17 12.497-8.001 8.004-12.497 18.854-12.497 30.17s4.495 22.17 12.497 30.17c8.002 8.004 18.854 12.497 30.17 12.497h394.24l-122.88 102.401zM938.667 448.009c0.794 96.877-31.407 191.138-91.302 267.282s-143.923 129.638-238.259 151.683c-94.34 22.045-193.369 11.329-280.807-30.385s-158.076-111.944-200.298-199.138c-2.967-5.061-4.859-10.679-5.557-16.504s-0.187-11.731 1.5-17.35c1.688-5.618 4.516-10.829 8.308-15.305s8.466-8.123 13.731-10.711c5.265-2.588 11.007-4.063 16.867-4.332s11.714 0.673 17.193 2.768c5.48 2.095 10.469 5.297 14.655 9.408s7.48 9.039 9.675 14.48c34.249 68.924 90.787 124.25 160.436 156.999s148.321 40.997 223.248 23.407 141.713-59.987 189.513-120.308c47.799-60.321 73.809-135.026 73.809-211.992 0-76.962-26.010-151.667-73.809-211.989s-114.586-102.72-189.513-120.307c-74.927-17.591-153.6-9.344-223.248 23.407-69.649 32.747-126.187 88.073-160.436 156.996-2.385 5.193-5.789 9.852-10.009 13.705s-9.171 6.818-14.559 8.721c-5.388 1.903-11.103 2.701-16.806 2.355-5.703-0.35-11.278-1.839-16.394-4.382-5.117-2.547-9.67-6.093-13.39-10.428-3.72-4.339-6.531-9.378-8.266-14.822s-2.359-11.179-1.836-16.87c0.524-5.687 2.185-11.217 4.886-16.252 42.237-87.228 112.912-157.478 200.394-199.189 87.482-41.707 186.559-52.395 280.92-30.293 94.366 22.101 178.389 75.669 238.255 151.889 59.861 76.22 91.989 170.547 91.098 267.46z" />
<glyph unicode="&#xe91b;" glyph-name="token-claim" d="M436.809 801.88c-30.649 0-55.496-24.847-55.496-55.496s24.847-55.496 55.496-55.496c30.652 0 55.497 24.847 55.497 55.496s-24.845 55.496-55.497 55.496zM307.318 746.384c0 71.516 57.975 129.491 129.49 129.491 71.518 0 129.489-57.975 129.489-129.491s-57.971-129.49-129.489-129.49c-71.515 0-129.49 57.975-129.49 129.49zM732.787 579.889c-30.652 0-55.497-24.846-55.497-55.495 0-30.652 24.845-55.497 55.497-55.497 30.647 0 55.497 24.845 55.497 55.497 0 30.649-24.849 55.495-55.497 55.495zM603.298 524.395c0 71.515 57.971 129.489 129.489 129.489 71.514 0 129.489-57.975 129.489-129.489 0-71.518-57.975-129.493-129.489-129.493-71.518 0-129.489 57.975-129.489 129.493zM159.328 468.907h-73.995v-318.844l272.625-136.311c37.174-18.59 80.493-20.715 119.337-5.764l461.372 177.451-2.547 27.861-0.009 0.051-0.004 0.051-0.009 0.111-0.026 0.247-0.064 0.576c-0.021 0.201-0.047 0.418-0.077 0.649-0.034 0.265-0.068 0.546-0.111 0.845-0.158 1.143-0.384 2.573-0.708 4.258-0.644 3.354-1.685 7.761-3.354 12.877-3.319 10.18-9.28 23.59-19.947 36.996-22.519 28.301-61.461 50.957-123.529 50.957h-184.977c-33.749 44.932-87.484 73.997-148.002 73.997h-93.531c-27.396 29.205-65.543 46.601-98.763 56.981-39.749 12.425-79.604 17.011-103.682 17.011zM788.284 246.925c33.331 0 50.658-8.969 59.87-17.020l-397.444-152.866c-19.392-7.462-41.045-6.413-59.66 2.893l-231.722 115.861v199.121c16.804 0 49.204-3.516 81.61-13.645 33.342-10.419 59.859-25.711 73.073-44.578l11.047-15.774h130.247c48.324 0 89.438-30.886 104.678-73.993h-215.668v-73.997h295.98v36.996c0 12.672-1.276 25.045-3.703 37.001h151.693z" />
<glyph unicode="&#xe91c;" glyph-name="vote" d="M738.991 280.273h-111.787l70.827 71.253c3.989 4.42 8.858 7.957 14.298 10.381 5.436 2.423 11.324 3.686 17.276 3.699h38.4c8.546 0.009 16.896-2.551 23.97-7.343s12.548-11.597 15.71-19.537l85.333-213.333c2.052-5.009 3.068-10.377 2.987-15.787v-42.667c0-22.63-8.99-44.335-24.994-60.339s-37.709-24.994-60.339-24.994h-597.333c-22.632 0-44.337 8.99-60.34 24.994s-24.994 37.709-24.994 60.339v42.667c-0.079 5.41 0.937 10.778 2.987 15.787l85.333 213.333c3.162 7.94 8.634 14.746 15.709 19.537s15.425 7.351 23.971 7.343h64c5.615 0.034 11.182-1.045 16.38-3.166 5.199-2.125 9.926-5.252 13.913-9.207l72.107-72.96h-137.387l-34.133-85.333h522.24l-34.133 85.333zM810.671 109.606h-597.333v-42.667h597.333v42.667zM554.671 298.62l301.653 301.653c7.949 7.994 12.407 18.808 12.407 30.080s-4.459 22.086-12.407 30.080l-241.493 241.493c-7.996 7.947-18.807 12.407-30.080 12.407s-22.084-4.46-30.080-12.407l-301.653-301.653c-7.947-7.994-12.407-18.808-12.407-30.080s4.46-22.086 12.407-30.080l241.493-241.493c7.949-7.881 18.675-12.326 29.867-12.373 5.615-0.034 11.183 1.045 16.38 3.166 5.197 2.125 9.929 5.252 13.914 9.207zM584.964 810.619l183.040-180.053-241.493-241.493-183.040 180.906 241.493 240.64z" />
<glyph unicode="&#xe91d;" glyph-name="blockmaker" d="M512 490.667c-25.314 0-50.065 7.505-71.113 21.572-21.050 14.063-37.456 34.055-47.144 57.444s-12.223 49.126-7.284 73.955c4.939 24.829 17.13 47.637 35.031 65.538 17.9 17.901 40.709 30.092 65.537 35.031 24.832 4.939 50.569 2.404 73.958-7.284 23.386-9.688 43.379-26.094 57.442-47.144 14.067-21.050 21.572-45.797 21.572-71.113 0-33.948-13.487-66.505-37.491-90.509s-56.563-37.491-90.509-37.491zM512 661.333c-8.439 0-16.687-2.502-23.706-7.191-7.014-4.688-12.484-11.352-15.714-19.148s-4.075-16.375-2.428-24.652c1.647-8.276 5.709-15.879 11.678-21.846 5.965-5.967 13.568-10.031 21.845-11.677s16.858-0.802 24.653 2.428c7.795 3.229 14.46 8.698 19.149 15.715s7.189 15.266 7.189 23.704c0 11.316-4.497 22.168-12.497 30.17s-18.854 12.497-30.17 12.497zM512 360.533l213.333-71.253c0-11.315 4.497-22.17 12.497-30.17s18.854-12.497 30.17-12.497c11.315 0 22.17 4.497 30.17 12.497s12.497 18.854 12.497 30.17c0.017 17.941-5.623 35.435-16.115 49.988-10.496 14.549-25.31 25.425-42.338 31.078l-213.333 70.827c-17.421 5.982-36.339 5.982-53.76 0l-213.333-70.827c-17.029-5.653-31.843-16.529-42.336-31.078-10.494-14.554-16.133-32.047-16.117-49.988 0-11.315 4.495-22.17 12.497-30.17s18.854-12.497 30.17-12.497c11.316 0 22.168 4.497 30.17 12.497s12.497 18.854 12.497 30.17l213.333 71.253zM512-17.493c-11.942-0.004-23.744 2.62-34.56 7.68l-384 170.667c-15.052 6.669-27.853 17.545-36.862 31.322-9.009 13.781-13.84 29.871-13.911 46.332v418.987c0.071 16.462 4.902 32.552 13.911 46.33s21.811 24.656 36.862 31.323l384 170.667c10.884 4.821 22.656 7.312 34.56 7.312s23.676-2.491 34.56-7.312l384-170.667c15.053-6.667 27.853-17.545 36.864-31.323 9.007-13.778 13.837-29.868 13.909-46.33v-418.987c-0.073-16.461-4.902-32.55-13.909-46.332-9.011-13.777-21.811-24.653-36.864-31.322l-384-170.667c-10.816-5.060-22.618-7.684-34.56-7.68zM128 657.493v-418.987l384-170.667 384 170.667v418.987l-384 170.667-384-170.667z" />
<glyph unicode="&#xe91e;" glyph-name="gas" d="M843.52 651.52l0.427 0.427-158.72 158.72-45.227-45.227 90.027-90.027c-40.107-15.36-68.693-53.76-68.693-99.413 0-58.88 47.787-106.667 106.667-106.667 15.36 0 29.44 3.413 42.667 8.96v-307.627c0-23.467-19.2-42.667-42.667-42.667s-42.667 19.2-42.667 42.667v192c0 46.933-38.4 85.333-85.333 85.333h-42.667v298.667c0 46.933-38.4 85.333-85.333 85.333h-256c-46.933 0-85.333-38.4-85.333-85.333v-682.667h426.667v320h64v-213.333c0-58.88 47.787-106.667 106.667-106.667s106.667 47.787 106.667 106.667v405.333c0 29.44-11.947 56.32-31.147 75.52zM512 384v-234.667h-256v298.667h256v-64zM512 533.333h-256v213.333h256v-213.333zM768 533.333c-23.467 0-42.667 19.2-42.667 42.667s19.2 42.667 42.667 42.667c23.467 0 42.667-19.2 42.667-42.667s-19.2-42.667-42.667-42.667z" />
<glyph unicode="&#xe91f;" glyph-name="seed-phrase" d="M512.026 21.333c-111.677-3.469-221.497 29.15-313.175 93.013l-2.987 2.133c-27.945 20.066-52.566 44.399-72.96 72.107-25.126 37.909-38.213 82.526-37.547 128 0.246 50.961 17.013 100.463 47.786 141.086 30.772 40.619 73.89 70.161 122.88 84.194l8.96 2.133c5.603 1.805 11.518 2.431 17.374 1.839s11.527-2.389 16.655-5.279c5.128-2.89 9.603-6.81 13.142-11.514 3.54-4.702 6.068-10.086 7.426-15.812 1.358-5.73 1.516-11.674 0.465-17.468-1.051-5.79-3.29-11.302-6.575-16.188-3.284-4.881-7.544-9.033-12.511-12.194-4.967-3.157-10.534-5.252-16.35-6.157h-5.973c-31.452-9.067-59.052-28.22-78.556-54.507s-29.83-58.257-29.391-90.987c-0.385-28.689 7.623-56.866 23.040-81.067 14.544-18.654 31.635-35.17 50.773-49.067h2.56c77.568-54.046 170.46-81.719 264.961-78.933 94.315-3.375 187.166 24.034 264.533 78.080l6.4 4.267c17.762 13.022 33.694 28.378 47.36 45.653 20.258 31.535 27.913 69.538 21.453 106.458-6.464 36.919-26.573 70.059-56.337 92.838s-67.008 33.536-104.333 30.127c-37.329-3.405-72.009-20.723-97.156-48.516l-11.947-14.933-5.547-5.547c-17.997-15.249-40.841-23.569-64.427-23.467-11.315 0-22.17 4.497-30.17 12.497-8.004 8-12.497 18.854-12.497 30.17s4.493 22.17 12.497 30.17c8 8 18.854 12.497 30.17 12.497 2.385-0.533 4.864-0.533 7.253 0l10.24 12.8c31.573 35.127 73.015 59.908 118.903 71.105 45.888 11.195 94.089 8.282 138.291-8.36 44.207-16.64 82.359-46.234 109.478-84.907 27.115-38.677 41.924-84.634 42.5-131.866 0.533-45.333-12.224-89.835-36.693-128-19.443-26.889-42.901-50.628-69.547-70.4l-6.827-4.693c-91.938-63.488-201.954-95.518-313.6-91.307zM515.012 672c-18.411 20.514-28.591 47.105-28.587 74.667 0 11.316-4.497 22.168-12.497 30.17-8.004 8.001-18.854 12.497-30.17 12.497s-22.17-4.495-30.171-12.497c-8.002-8.002-12.497-18.854-12.497-30.17-0.121-51.69 20.111-101.35 56.321-138.24l-66.561-75.093c-15.868-15.851-28.456-34.671-37.045-55.39s-13.009-42.927-13.009-65.357c0-22.43 4.421-44.638 13.009-65.357s21.177-39.539 37.045-55.39c3.978-3.951 8.695-7.078 13.882-9.203 5.187-2.129 10.742-3.213 16.348-3.196 5.606 0.021 11.153 1.143 16.324 3.311 5.171 2.163 9.869 5.325 13.82 9.301 3.947 3.977 7.078 8.695 9.203 13.884 2.129 5.184 3.213 10.739 3.191 16.346-0.017 5.606-1.143 11.153-3.307 16.329-2.163 5.171-5.325 9.865-9.301 13.815-8.128 7.949-14.588 17.438-18.995 27.917-4.412 10.475-6.681 21.73-6.681 33.097s2.269 22.622 6.681 33.097c4.407 10.479 10.867 19.968 18.995 27.917l209.493 229.547c14.729 16.192 22.669 37.424 22.187 59.307v68.693c0 11.316-4.497 22.168-12.497 30.17-8.004 8.001-18.854 12.497-30.17 12.497s-22.17-4.495-30.17-12.497c-8.004-8.002-12.497-18.854-12.497-30.17v-68.693l-82.347-91.307z" />
<glyph unicode="&#xe920;" glyph-name="transfer" d="M554.918 874.667l362.918-362.918h-832.503v71.11h660.83l-241.527 241.525 50.283 50.283zM469.082 42.167l-362.92 362.918h832.505v-71.113h-660.828l241.526-241.523-50.283-50.283z" />
<glyph unicode="&#xe921;" glyph-name="tx-status" d="M719.044 874.667h184.956c19.162 0 34.688-15.517 34.688-34.688v-184.958c0-19.148-15.526-34.688-34.688-34.688h-170.594l-50.069-50.067-49.050 49.050 50.069 50.067v170.597c0 19.159 15.539 34.688 34.688 34.688zM753.732 689.708h115.58v115.581h-115.58v-115.581zM519.812 504.841l49.050-49.050 57.242 57.242-49.050 49.048-57.242-57.24zM454.379 341.312l-49.063 49.050 57.216 57.233 49.062-49.050-57.216-57.233zM291.128 275.678l-0.243 0.243 57.213 57.246 49.061-49.050-57.224-57.246-0.266 0.265v-171.106c0-19.17-15.529-34.688-34.688-34.688h-184.958c-19.148 0-34.688 15.518-34.688 34.688v184.96c0 19.145 15.54 34.688 34.688 34.688h171.106zM154.71 90.718h115.581v115.584h-115.581v-115.584z" />
<glyph unicode="&#xe922;" glyph-name="wallet1" d="M192 693.333h640c22.63 0 44.335-8.99 60.339-24.994s24.994-37.708 24.994-60.34v-128c0-11.315-4.497-22.17-12.497-30.17s-18.854-12.497-30.17-12.497c-11.315 0-22.17 4.497-30.17 12.497s-12.497 18.854-12.497 30.17v128h-640v-469.333h640v85.333c0 11.315 4.497 22.17 12.497 30.17s18.854 12.497 30.17 12.497c11.315 0 22.17-4.497 30.17-12.497s12.497-18.854 12.497-30.17v-85.333c0-22.63-8.99-44.335-24.994-60.339s-37.709-24.994-60.339-24.994h-640c-22.632 0-44.337 8.99-60.34 24.994s-24.994 37.709-24.994 60.339v576c0 33.948 13.486 66.505 37.49 90.51s56.562 37.49 90.51 37.49h554.667c11.315 0 22.17-4.495 30.17-12.497s12.497-18.854 12.497-30.17c0-11.316-4.497-22.168-12.497-30.17s-18.854-12.497-30.17-12.497h-554.667c-11.316 0-22.168-4.495-30.17-12.497s-12.497-18.854-12.497-30.17v-21.333zM960 352c0 11.315-4.497 22.17-12.497 30.17s-18.854 12.497-30.17 12.497h-256c-11.315 0-22.17-4.497-30.17-12.497s-12.497-18.854-12.497-30.17c0-11.315 4.497-22.17 12.497-30.17s18.854-12.497 30.17-12.497h256c11.315 0 22.17 4.497 30.17 12.497s12.497 18.854 12.497 30.17z" />
<glyph unicode="&#xe923;" glyph-name="avatar" d="M768 640c-11.315 0-22.17 4.495-30.17 12.497s-12.497 18.854-12.497 30.17v85.333c0 11.316 4.497 22.168 12.497 30.17s18.854 12.497 30.17 12.497c11.315 0 22.17-4.495 30.17-12.497s12.497-18.854 12.497-30.17v-85.333c0-11.316-4.497-22.168-12.497-30.17s-18.854-12.497-30.17-12.497zM298.667 682.667v85.333c0 11.316-4.495 22.168-12.497 30.17s-18.854 12.497-30.17 12.497c-11.316 0-22.168-4.495-30.17-12.497s-12.497-18.854-12.497-30.17v-85.333c0-11.316 4.495-22.168 12.497-30.17s18.854-12.497 30.17-12.497c11.316 0 22.168 4.495 30.17 12.497s12.497 18.854 12.497 30.17zM542.293 353.707l29.867 30.293c16.026 15.932 25.079 37.564 25.173 60.16v153.173c0 11.316-4.497 22.168-12.497 30.17s-18.854 12.497-30.17 12.497c-11.315 0-22.17-4.495-30.17-12.497s-12.497-18.854-12.497-30.17v-153.173l-30.293-29.867c-3.998-3.968-7.172-8.687-9.34-13.884-2.167-5.201-3.281-10.778-3.281-16.41s1.114-11.209 3.281-16.41c2.167-5.197 5.342-9.916 9.34-13.884 3.968-3.998 8.687-7.172 13.884-9.34 5.201-2.167 10.778-3.281 16.41-3.281s11.209 1.114 16.41 3.281c5.197 2.167 9.916 5.342 13.884 9.34zM696.747 149.333c3.089 4.855 5.158 10.287 6.093 15.966s0.713 11.486-0.657 17.075c-1.37 5.589-3.857 10.842-7.309 15.445s-7.799 8.465-12.783 11.341c-4.979 2.88-10.492 4.723-16.205 5.419-5.713 0.691-11.507 0.226-17.033-1.378-5.53-1.604-10.675-4.309-15.125-7.953-4.454-3.644-8.128-8.149-10.795-13.248-11.221-19.499-27.388-35.691-46.861-46.955-19.477-11.26-41.574-17.186-64.073-17.186s-44.595 5.926-64.073 17.186c-19.473 11.264-35.638 27.456-46.861 46.955-2.668 5.099-6.339 9.604-10.793 13.248s-9.6 6.349-15.126 7.953c-5.527 1.604-11.32 2.069-17.033 1.378-5.712-0.695-11.225-2.539-16.207-5.419-4.982-2.876-9.33-6.737-12.783-11.341s-5.937-9.856-7.307-15.445c-1.369-5.589-1.593-11.396-0.66-17.075s3.007-11.11 6.094-15.966c18.725-32.427 45.655-59.358 78.085-78.080s69.218-28.578 106.662-28.578c37.444 0 74.231 9.856 106.662 28.578s59.358 45.653 78.084 78.080z" />
<glyph unicode="&#xe924;" glyph-name="book" d="M896 789.333c-47.36 14.933-99.413 21.333-149.333 21.333-83.2 0-172.8-17.067-234.667-64-61.867 46.933-151.467 64-234.667 64s-172.8-17.067-234.667-64v-625.067c0-10.667 10.667-21.333 21.333-21.333 4.267 0 6.4 2.133 10.667 2.133 57.6 27.733 140.8 46.933 202.667 46.933 83.2 0 172.8-17.067 234.667-64 57.6 36.267 162.133 64 234.667 64 70.4 0 142.933-12.8 202.667-44.8 4.267-2.133 6.4-2.133 10.667-2.133 10.667 0 21.333 10.667 21.333 21.333v622.933c-25.6 19.2-53.333 32-85.333 42.667zM896 213.333c-46.933 14.933-98.133 21.333-149.333 21.333-72.533 0-177.067-27.733-234.667-64v490.667c57.6 36.267 162.133 64 234.667 64 51.2 0 102.4-6.4 149.333-21.333v-490.667z" />
<glyph unicode="&#xe925;" glyph-name="broadcast" d="M677.743 387.482c-6.076-6.067-14.042-9.109-21.999-9.109s-15.932 3.042-22.007 9.131c-12.151 12.164-12.143 31.876-0.004 44.049 32.542 32.567 50.445 75.844 50.445 121.923s-17.899 89.353-50.432 121.929c-12.139 12.173-12.147 31.888 0 44.055 12.16 12.176 31.868 12.154 44.015 0.004 44.267-44.33 68.659-103.301 68.659-165.988 0-62.689-24.397-121.663-68.676-165.994zM745.527 831.413c12.156 12.171 31.863 12.171 44.015 0 74.129-74.232 114.974-172.964 114.974-277.94s-40.845-203.709-114.974-277.928c-6.076-6.089-14.050-9.131-22.007-9.131s-15.927 3.042-22.007 9.131c-12.143 12.16-12.151 31.889 0 44.045zM745.527 319.59c62.391 62.477 96.747 145.506 96.747 233.883 0 88.365-34.351 171.404-96.747 233.896zM745.527 831.413c-12.147-12.164-12.147-31.879 0-44.044v44.044zM346.256 387.482c6.076-6.067 14.043-9.109 22.001-9.109 7.959 0 15.93 3.042 22.008 9.131 12.15 12.164 12.144 31.876 0.004 44.049-32.541 32.567-50.444 75.844-50.444 121.923s17.898 89.353 50.429 121.929c12.14 12.173 12.15 31.888 0 44.055-12.159 12.176-31.863 12.154-44.012 0.004-44.268-44.33-68.66-103.301-68.66-165.988 0-62.689 24.395-121.663 68.675-165.994zM278.431 831.413c-12.154 12.171-31.862 12.171-44.016 0-74.129-74.232-114.973-172.964-114.973-277.94s40.844-203.709 114.974-277.928c6.078-6.089 14.049-9.131 22.007-9.131s15.93 3.042 22.008 9.131c12.144 12.16 12.151 31.889 0 44.045zM278.431 319.59c-62.393 62.477-96.746 145.506-96.746 233.883 0 88.365 34.352 171.404 96.746 233.896zM278.431 831.413c12.147-12.164 12.147-31.879 0-44.044v44.044zM543.13 86.596c0-17.186-13.935-31.121-31.125-31.121-17.186 0-31.121 13.935-31.121 31.121v397.205c-26.594 11.913-45.175 38.588-45.175 69.681 0 42.182 34.146 76.392 76.297 76.392 42.155 0 76.301-34.21 76.301-76.392 0-31.098-18.586-57.76-45.175-69.677v-397.21z" />
<glyph unicode="&#xe926;" glyph-name="calendar" d="M853.333 832h-42.667v85.333h-85.333v-85.333h-426.667v85.333h-85.333v-85.333h-42.667c-46.933 0-85.333-38.4-85.333-85.333v-682.667c0-46.933 38.4-85.333 85.333-85.333h682.667c46.933 0 85.333 38.4 85.333 85.333v682.667c0 46.933-38.4 85.333-85.333 85.333zM853.333 64h-682.667v554.667h682.667v-554.667z" />
<glyph unicode="&#xe927;" glyph-name="camera" d="M602.453 746.667l78.080-85.333h172.8v-512h-682.667v512h172.8l78.080 85.333h180.907zM640 832h-256l-78.080-85.333h-135.253c-46.933 0-85.333-38.4-85.333-85.333v-512c0-46.933 38.4-85.333 85.333-85.333h682.667c46.933 0 85.333 38.4 85.333 85.333v512c0 46.933-38.4 85.333-85.333 85.333h-135.253l-78.080 85.333zM512 533.333c70.4 0 128-57.6 128-128s-57.6-128-128-128c-70.4 0-128 57.6-128 128s57.6 128 128 128zM512 618.667c-117.76 0-213.333-95.573-213.333-213.333s95.573-213.333 213.333-213.333c117.76 0 213.333 95.573 213.333 213.333s-95.573 213.333-213.333 213.333z" />
<glyph unicode="&#xe928;" glyph-name="check" d="M402.416 309.824c-3.333-3.332-8.734-3.328-12.065 0l-159.864 159.868c-6.648 6.647-17.421 6.665-24.093 0.038l-36.366-36.109c-6.705-6.656-6.724-17.493-0.043-24.175l214.328-214.332c6.665-6.665 17.471-6.665 24.136 0l445.199 445.199c6.665 6.665 6.665 17.471 0 24.136l-36.032 36.030c-6.665 6.662-17.463 6.665-24.128 0.006l-391.073-390.662z" />
<glyph unicode="&#xe929;" glyph-name="clipboard" d="M725.333 703.977c11.315 0 22.17-4.495 30.17-12.497s12.497-18.854 12.497-30.17v-512.002c0-11.315-4.497-22.165-12.497-30.17-8-8-18.854-12.497-30.17-12.497h-426.667c-11.316 0-22.168 4.497-30.17 12.497-8.001 8.004-12.497 18.854-12.497 30.17v512.002c0 11.316 4.495 22.168 12.497 30.17s18.854 12.497 30.17 12.497h42.667v-42.667c0-11.316 4.495-22.168 12.497-30.17s18.854-12.497 30.17-12.497h256c11.315 0 22.17 4.495 30.17 12.497s12.497 18.854 12.497 30.17v42.667h42.667zM298.667 789.31c-33.948 0-66.505-13.486-90.51-37.49s-37.49-56.562-37.49-90.51v-512.002c0-33.946 13.486-66.505 37.49-90.509s56.562-37.491 90.51-37.491h426.667c33.946 0 66.505 13.487 90.509 37.491s37.491 56.563 37.491 90.509v512.002c0 33.948-13.487 66.505-37.491 90.51s-56.563 37.49-90.509 37.49h-92.587c-8.794 25.002-25.135 46.658-46.763 61.977s-47.479 23.547-73.984 23.547c-26.505 0-52.356-8.228-73.984-23.547s-37.967-36.975-46.763-61.977h-92.587zM554.667 746.643c0-8.439-2.5-16.688-7.189-23.704s-11.354-12.486-19.149-15.715c-7.795-3.229-16.375-4.074-24.653-2.428s-15.881 5.71-21.845 11.677c-5.969 5.967-10.031 13.57-11.678 21.846s-0.802 16.855 2.428 24.652c3.23 7.796 8.7 14.46 15.714 19.148 7.019 4.688 15.266 7.191 23.706 7.191 11.315 0 22.17-4.495 30.17-12.497s12.497-18.854 12.497-30.17z" />
<glyph unicode="&#xe92a;" glyph-name="description" d="M170.667 337.067c0-9.425 7.641-17.067 17.067-17.067h648.533c9.425 0 17.067 7.642 17.067 17.067v51.2c0 9.425-7.642 17.067-17.067 17.067h-648.533c-9.425 0-17.067-7.642-17.067-17.067v-51.2zM170.667 166.4c0-9.425 7.641-17.067 17.067-17.067h392.533c9.425 0 17.067 7.642 17.067 17.067v51.2c0 9.425-7.642 17.067-17.067 17.067h-392.533c-9.425 0-17.067-7.642-17.067-17.067v-51.2zM170.667 507.733c0-9.425 7.641-17.067 17.067-17.067h648.533c9.425 0 17.067 7.642 17.067 17.067v51.2c0 9.425-7.642 17.067-17.067 17.067h-648.533c-9.425 0-17.067-7.641-17.067-17.067v-51.2zM187.733 746.667c-9.425 0-17.067-7.641-17.067-17.067v-51.2c0-9.425 7.641-17.067 17.067-17.067h648.533c9.425 0 17.067 7.641 17.067 17.067v51.2c0 9.425-7.642 17.067-17.067 17.067h-648.533z" />
<glyph unicode="&#xe92b;" glyph-name="email" d="M938.667 704c0 46.933-38.4 85.333-85.333 85.333h-682.667c-46.933 0-85.333-38.4-85.333-85.333v-512c0-46.933 38.4-85.333 85.333-85.333h682.667c46.933 0 85.333 38.4 85.333 85.333v512zM853.333 704l-341.333-212.907-341.333 212.907h682.667zM853.333 192h-682.667v426.667l341.333-213.333 341.333 213.333v-426.667z" />
<glyph unicode="&#xe92c;" glyph-name="environment" d="M597.333 704l-180.053-240.213 53.333-71.253 126.72 169.387 213.333-284.587h-360.96l-171.093 229.12-235.947-314.453h938.667l-384 512zM213.333 277.333l64.853 86.613 64.853-86.613h-129.707z" />
<glyph unicode="&#xe92d;" glyph-name="EXC-logo" d="M329.763 498.726l42.535-73.673 284.030 163.983 10.598-2.879-19.136-128.008-2.807-10.615-518.059-299.132-10.597 2.876 19.134 128.009 2.806 10.615 113.406 65.506-100.571 174.195 2.832 10.57 535.644 309.254 10.633-2.796-19.597-127.471-2.645-10.462-345.374-199.404-2.832-10.569zM336.125 209.152l78.060-135.202 10.57-2.833 439.224 253.585 3.008 10.671 20.608 128.055-10.483 2.884-389.769-225.033-10.569 2.833-20.023 34.679-120.626-69.641z" />
<glyph unicode="&#xe92e;" glyph-name="flag" d="M527.36 704l17.067-85.333h223.573v-256h-143.36l-17.067 85.333h-308.907v256h228.693zM597.333 789.333h-384v-725.333h85.333v298.667h238.933l17.067-85.333h298.667v426.667h-238.933l-17.067 85.333z" />
<glyph unicode="&#xe92f;" glyph-name="grid-view" d="M379.733 746.667h-162.133c-2.356 0-4.267-1.91-4.267-4.267v-162.133c0-2.356 1.91-4.267 4.267-4.267h162.133c2.356 0 4.267 1.91 4.267 4.267v162.133c0 2.356-1.91 4.267-4.267 4.267zM145.067 490.667c-9.425 0-17.067 7.642-17.067 17.067v307.2c0 9.425 7.641 17.067 17.067 17.067h307.2c9.425 0 17.067-7.641 17.067-17.067v-307.2c0-9.425-7.642-17.067-17.067-17.067h-307.2zM806.4 746.667h-162.133c-2.355 0-4.267-1.91-4.267-4.267v-162.133c0-2.356 1.911-4.267 4.267-4.267h162.133c2.355 0 4.267 1.91 4.267 4.267v162.133c0 2.356-1.911 4.267-4.267 4.267zM571.733 490.667c-9.425 0-17.067 7.642-17.067 17.067v307.2c0 9.425 7.642 17.067 17.067 17.067h307.2c9.425 0 17.067-7.641 17.067-17.067v-307.2c0-9.425-7.642-17.067-17.067-17.067h-307.2zM810.667 315.733v-162.133c0-2.355-1.911-4.267-4.267-4.267h-162.133c-2.355 0-4.267 1.911-4.267 4.267v162.133c0 2.355 1.911 4.267 4.267 4.267h162.133c2.355 0 4.267-1.911 4.267-4.267zM571.733 405.333c-9.425 0-17.067-7.642-17.067-17.067v-307.2c0-9.425 7.642-17.067 17.067-17.067h307.2c9.425 0 17.067 7.642 17.067 17.067v307.2c0 9.425-7.642 17.067-17.067 17.067h-307.2zM379.733 320h-162.133c-2.356 0-4.267-1.911-4.267-4.267v-162.133c0-2.355 1.91-4.267 4.267-4.267h162.133c2.356 0 4.267 1.911 4.267 4.267v162.133c0 2.355-1.91 4.267-4.267 4.267zM145.067 64c-9.425 0-17.067 7.642-17.067 17.067v307.2c0 9.425 7.641 17.067 17.067 17.067h307.2c9.425 0 17.067-7.642 17.067-17.067v-307.2c0-9.425-7.642-17.067-17.067-17.067h-307.2z" />
<glyph unicode="&#xe930;" glyph-name="help" d="M512 21.333c-84.386 0-166.878 25.024-237.043 71.906s-124.852 113.519-157.145 191.484c-32.294 77.961-40.743 163.75-24.28 246.515s57.099 158.79 116.77 218.46c59.67 59.671 135.695 100.307 218.46 116.77s168.555 8.014 246.515-24.28c77.965-32.294 144.602-86.98 191.484-157.145s71.906-152.657 71.906-237.043c0-113.161-44.954-221.683-124.966-301.7-80.017-80.013-188.54-124.966-301.7-124.966zM512 789.333c-67.507 0-133.502-20.019-189.635-57.525s-99.881-90.815-125.716-153.186c-25.835-62.368-32.594-131.002-19.424-197.212 13.17-66.214 45.679-127.031 93.416-174.771 47.736-47.735 108.556-80.243 174.769-93.414 66.21-13.171 134.844-6.409 197.214 19.426s115.678 69.581 153.186 125.713c37.504 56.132 57.523 122.125 57.523 189.636 0 90.527-35.959 177.347-99.972 241.359s-150.835 99.974-241.361 99.974zM490.667 277.333c-8.439 0-16.687-2.505-23.706-7.189-7.014-4.689-12.484-11.354-15.714-19.149s-4.075-16.375-2.428-24.653c1.647-8.277 5.709-15.881 11.678-21.845 5.969-5.969 13.568-10.031 21.845-11.678s16.858-0.802 24.653 2.428c7.795 3.23 14.46 8.7 19.149 15.714 4.689 7.019 7.189 15.266 7.189 23.706 0 11.315-4.497 22.17-12.497 30.17s-18.854 12.497-30.17 12.497zM533.333 362.667c0 17.92 13.227 28.587 44.8 49.92 23.398 10.846 43.46 27.772 58.091 49.011 14.635 21.235 23.305 46.007 25.109 71.735v21.333c0 39.605-15.731 77.589-43.738 105.594s-65.988 43.739-105.596 43.739c-39.607 0-77.589-15.733-105.594-43.739s-43.739-65.989-43.739-105.594c0-11.316 4.495-22.17 12.497-30.17s18.854-12.497 30.17-12.497c11.316 0 22.17 4.497 30.17 12.497s12.497 18.854 12.497 30.17c0 16.974 6.741 33.252 18.743 45.255s28.284 18.745 45.257 18.745c16.973 0 33.254-6.743 45.257-18.745s18.743-28.281 18.743-45.255v-21.333c0-17.92-13.227-28.587-44.8-49.92-23.398-10.85-43.46-27.772-58.091-49.011-14.635-21.235-23.305-46.007-25.109-71.735 0-11.315 4.497-22.17 12.497-30.17s18.854-12.497 30.17-12.497c11.315 0 22.17 4.497 30.17 12.497s12.497 18.854 12.497 30.17z" />
<glyph unicode="&#xe931;" glyph-name="hidden" d="M200.107 680.525l-114.347 114.347 60.16 60.587 756.48-756.907-60.16-60.16-145.92 145.92c-57.173-22.613-119.467-34.987-184.32-34.987-213.333 0-395.52 132.693-469.333 320 32.853 84.053 87.893 156.587 157.44 211.2zM517.12 363.511l-111.36 111.36c0-1.067-0.107-1.92-0.213-2.773s-0.213-1.707-0.213-2.773c0-58.88 47.787-106.667 106.667-106.667 1.707 0 3.413 0.427 5.12 0.853zM335.36 545.271l-74.667 74.667c-51.627-39.253-95.147-89.6-125.013-150.614 70.4-143.787 214.613-234.667 376.32-234.667 40.533 0 79.787 5.973 117.333 16.213l-41.813 41.813c-23.040-9.813-48.64-15.36-75.52-15.36-105.813 0-192 86.187-192 192 0 26.88 5.547 52.48 15.36 75.947zM512 704c161.707 0 305.92-90.88 376.32-234.667-25.173-52.053-60.587-96.853-102.827-133.12l60.16-60.16c59.307 52.48 106.24 118.187 135.68 193.28-73.813 187.307-256 320-469.333 320-54.187 0-106.241-8.533-155.307-24.32l70.4-70.4c27.733 5.547 55.893 9.387 84.907 9.387zM466.347 655.36l88.32-88.32c24.32-10.667 43.947-30.293 54.613-54.613l88.32-88.32c3.413 14.507 5.973 29.867 5.973 45.653 0.427 105.813-85.76 191.573-191.573 191.573-15.787 0-30.72-2.133-45.653-5.973z" />
<glyph unicode="&#xe932;" glyph-name="home" d="M512 717.227l213.333-192v-333.227h-85.333v256h-256v-256h-85.333v333.227l213.333 192zM512 832l-426.667-384h128v-341.333h256v256h85.333v-256h256v341.333h128l-426.667 384z" />
<glyph unicode="&#xe933;" glyph-name="hourglass" d="M256 618.667v256h512v-256h-0.427l0.427-0.427-170.667-170.24 170.667-170.667-0.427-0.427h0.427v-255.573h-512v255.573h0.427l-0.427 0.427 170.667 170.667-170.667 170.24 0.427 0.427h-0.427zM682.667 234.667v21.333l-170.667 170.667-170.667-170.667v-21.333h341.333zM341.333 789.333v-149.333l170.667-170.667 170.667 170.667v149.333h-341.333z" />
<glyph unicode="&#xe934;" glyph-name="info" d="M866.761 685.043c46.882-70.165 71.906-152.657 71.906-237.043 0-113.161-44.954-221.683-124.966-301.7-80.017-80.013-188.54-124.966-301.7-124.966-84.386 0-166.878 25.024-237.043 71.906s-124.852 113.519-157.145 191.484c-32.294 77.961-40.743 163.75-24.28 246.515s57.099 158.79 116.77 218.46c59.67 59.671 135.695 100.307 218.46 116.77s168.555 8.014 246.515-24.28c77.965-32.294 144.602-86.98 191.484-157.145zM795.81 258.364c37.504 56.132 57.523 122.125 57.523 189.636 0 90.527-35.959 177.347-99.972 241.359s-150.835 99.974-241.361 99.974c-67.507 0-133.502-20.019-189.635-57.525s-99.881-90.815-125.716-153.186c-25.835-62.368-32.594-131.002-19.424-197.212 13.17-66.214 45.679-127.031 93.416-174.771 47.736-47.735 108.556-80.243 174.769-93.414 66.21-13.171 134.844-6.409 197.214 19.426s115.678 69.581 153.186 125.713zM547.477 616.296c4.689 7.017 7.189 15.266 7.189 23.704 0 11.316-4.497 22.168-12.497 30.17s-18.854 12.497-30.17 12.497c-8.439 0-16.687-2.502-23.706-7.191-7.014-4.688-12.484-11.352-15.714-19.148s-4.075-16.375-2.428-24.652c1.647-8.276 5.709-15.879 11.678-21.846 5.965-5.967 13.568-10.031 21.845-11.677s16.858-0.801 24.653 2.428c7.795 3.229 14.46 8.698 19.149 15.715zM554.667 469.333v-213.333c0-11.315-4.497-22.17-12.497-30.17s-18.854-12.497-30.17-12.497c-11.315 0-22.17 4.497-30.17 12.497s-12.497 18.854-12.497 30.17v213.333c0 11.315 4.497 22.17 12.497 30.17s18.854 12.497 30.17 12.497c11.315 0 22.17-4.497 30.17-12.497s12.497-18.854 12.497-30.17z" />
<glyph unicode="&#xe935;" glyph-name="language" d="M511.573 874.667c-235.52 0-426.24-191.147-426.24-426.667s190.72-426.667 426.24-426.667c235.947 0 427.093 191.147 427.093 426.667s-191.147 426.667-427.093 426.667zM807.253 618.667h-125.867c-13.653 53.333-33.28 104.533-58.88 151.893 78.507-26.88 143.787-81.493 184.747-151.893zM512 787.627c35.413-51.2 63.147-107.947 81.493-168.96h-162.987c18.347 61.013 46.080 117.76 81.493 168.96zM181.76 362.667c-6.827 27.307-11.093 55.893-11.093 85.333s4.267 58.027 11.093 85.333h144.213c-3.413-28.16-5.973-56.32-5.973-85.333s2.56-57.173 5.973-85.333h-144.213zM216.747 277.333h125.867c13.653-53.333 33.28-104.533 58.88-151.893-78.507 26.88-143.787 81.067-184.747 151.893zM342.613 618.667h-125.867c40.96 70.827 106.24 125.013 184.747 151.893-25.6-47.36-45.227-98.56-58.88-151.893zM512 108.373c-35.413 51.2-63.147 107.947-81.493 168.96h162.987c-18.347-61.013-46.080-117.76-81.493-168.96zM611.84 362.667h-199.68c-3.84 28.16-6.827 56.32-6.827 85.333s2.987 57.6 6.827 85.333h199.68c3.84-27.733 6.827-56.32 6.827-85.333s-2.987-57.173-6.827-85.333zM622.507 125.44c25.6 47.36 45.227 98.56 58.88 151.893h125.867c-40.96-70.4-106.24-125.013-184.747-151.893zM698.027 362.667c3.413 28.16 5.973 56.32 5.973 85.333s-2.56 57.173-5.973 85.333h144.213c6.827-27.307 11.093-55.893 11.093-85.333s-4.267-58.027-11.093-85.333h-144.213z" />
<glyph unicode="&#xe936;" glyph-name="list-view" d="M128 405.333h85.333v85.333h-85.333v-85.333zM128 234.667h85.333v85.333h-85.333v-85.333zM128 576h85.333v85.333h-85.333v-85.333zM298.667 405.333h597.333v85.333h-597.333v-85.333zM298.667 234.667h597.333v85.333h-597.333v-85.333zM298.667 661.333v-85.333h597.333v85.333h-597.333z" />
<glyph unicode="&#xe937;" glyph-name="loading" d="M400.222 756.514c3.355-7.887-0.292-16.968-7.962-20.794-39.656-19.78-74.516-48.011-102.1-82.727-30.788-38.748-51.583-84.402-60.62-132.959-9.036-48.555-6.050-98.586 8.707-145.737s40.853-90.031 76.061-124.86c35.211-34.833 78.464-60.553 125.999-74.854 47.539-14.302 97.869-16.734 146.577-7.083s94.259 31.087 132.685 62.379c34.33 27.959 62.033 63.014 81.267 102.639 3.793 7.817 13.018 11.546 20.988 8.085l59.977-26.018c7.863-3.413 11.541-12.54 7.902-20.301-25.553-54.498-63.049-102.554-109.722-140.561-50.667-41.259-110.613-69.431-174.583-82.112-63.974-12.676-130.074-9.485-192.539 9.31-62.468 18.795-119.441 52.629-165.917 98.607-46.479 45.978-81.044 102.703-100.615 165.235-19.573 62.537-23.541 128.934-11.549 193.374 11.992 64.439 39.569 124.905 80.267 176.125 37.413 47.086 84.86 85.033 138.742 111.14 7.818 3.788 17.103 0.075 20.503-7.92l25.933-60.97z" />
<glyph unicode="&#xe938;" glyph-name="media" d="M810.667 832h-597.333c-46.933 0-85.333-38.4-85.333-85.333v-597.333c0-46.933 38.4-85.333 85.333-85.333h597.333c46.933 0 85.333 38.4 85.333 85.333v597.333c0 46.933-38.4 85.333-85.333 85.333zM810.667 149.333h-597.333v597.333h597.333v-597.333zM595.627 435.627l-117.333-151.040-83.627 100.693-117.333-150.613h469.333l-151.040 200.96z" />
<glyph unicode="&#xe939;" glyph-name="members1" d="M362.667 448c-29.535 0-58.407 8.759-82.965 25.169-24.558 16.405-43.698 39.731-55.001 67.017-11.303 27.287-14.26 57.313-8.498 86.281s19.985 55.576 40.87 76.461c20.884 20.885 47.493 35.107 76.461 40.87s58.994 2.804 86.281-8.498c27.286-11.303 50.612-30.443 67.017-55.001 16.41-24.558 25.169-53.43 25.169-82.965 0-39.606-15.731-77.589-43.738-105.596s-65.99-43.738-105.596-43.738zM362.667 661.333c-12.658 0-25.032-3.753-35.557-10.786s-18.728-17.028-23.572-28.722c-4.844-11.695-6.112-24.563-3.642-36.978s8.565-23.818 17.516-32.769c8.951-8.951 20.354-15.046 32.769-17.516s25.283-1.202 36.978 3.642 21.69 13.047 28.722 23.572c7.033 10.525 10.786 22.898 10.786 35.556 0 16.974-6.743 33.253-18.745 45.255s-28.281 18.745-45.255 18.745zM597.333 64h-469.333c-22.632 0-44.337 8.99-60.34 24.994s-24.994 37.709-24.994 60.339v96.427c0.009 18.227 5.855 35.972 16.681 50.637s26.063 25.481 43.479 30.857l234.667 72.533c16.454 4.698 33.893 4.698 50.347 0l234.667-72.533c17.417-5.376 32.653-16.192 43.482-30.857 10.825-14.665 16.67-32.41 16.678-50.637v-96.427c0-22.63-8.99-44.335-24.994-60.339s-37.709-24.994-60.339-24.994zM362.667 317.867l-234.667-72.107v-96.427h469.333v96.427l-234.667 72.107zM981.333 277.333v96.427c-0.009 18.227-5.854 35.972-16.678 50.637-10.829 14.665-26.065 25.481-43.482 30.857l-234.667 72.533c-16.311 4.681-33.609 4.681-49.92 0l-101.12-30.72c-10.786-3.26-19.844-10.65-25.199-20.561s-6.575-21.538-3.388-32.346c1.613-5.389 4.271-10.402 7.825-14.758 3.558-4.356 7.94-7.97 12.898-10.624 4.954-2.658 10.389-4.309 15.983-4.86 5.598-0.546 11.247 0.013 16.627 1.655l101.12 30.293 234.667-72.107v-96.427h-128c-11.315 0-22.17-4.497-30.17-12.497s-12.497-18.854-12.497-30.17c0-11.315 4.497-22.17 12.497-30.17s18.854-12.497 30.17-12.497h128c22.63 0 44.335 8.99 60.339 24.994s24.994 37.709 24.994 60.339zM533.333 704c0-25.316 7.505-50.063 21.572-71.113 14.063-21.050 34.057-37.456 57.442-47.144 23.39-9.688 49.126-12.223 73.958-7.284 24.828 4.939 47.637 17.13 65.536 35.031 17.903 17.901 30.093 40.709 35.034 65.538 4.937 24.829 2.402 50.566-7.287 73.955-9.685 23.389-26.091 43.38-47.142 57.445-21.047 14.065-45.798 21.572-71.113 21.572-33.946 0-66.505-13.486-90.509-37.49s-37.491-56.562-37.491-90.51z" />
<glyph unicode="&#xe93a;" glyph-name="menu" d="M128 251.733c0-9.425 7.641-17.067 17.067-17.067h733.867c9.425 0 17.067 7.642 17.067 17.067v51.2c0 9.425-7.642 17.067-17.067 17.067h-733.867c-9.425 0-17.067-7.642-17.067-17.067v-51.2zM145.067 661.333c-9.425 0-17.067-7.641-17.067-17.067v-51.2c0-9.425 7.641-17.067 17.067-17.067h733.867c9.425 0 17.067 7.641 17.067 17.067v51.2c0 9.425-7.642 17.067-17.067 17.067h-733.867z" />
<glyph unicode="&#xe93b;" glyph-name="more" d="M682.667 469.333c0-35.2 28.8-64 64-64s64 28.8 64 64c0 35.2-28.8 64-64 64s-64-28.8-64-64zM576 469.333c0 35.2-28.8 64-64 64s-64-28.8-64-64c0-35.2 28.8-64 64-64s64 28.8 64 64zM277.333 533.333c35.2 0 64-28.8 64-64s-28.8-64-64-64c-35.2 0-64 28.8-64 64s28.8 64 64 64z" />
<glyph unicode="&#xe93c;" glyph-name="notification" d="M512 21.333c46.933 0 85.333 38.4 85.333 85.333h-170.667c0-46.933 38.4-85.333 85.333-85.333zM768 277.333v213.333c0 130.987-69.547 240.64-192 269.653v29.013c0 35.413-28.587 64-64 64s-64-28.587-64-64v-29.013c-122.027-29.013-192-138.24-192-269.653v-213.333l-85.333-85.333v-42.667h682.667v42.667l-85.333 85.333zM682.667 234.667h-341.333v256c0 105.813 64.427 192 170.667 192s170.667-86.187 170.667-192v-256z" />
<glyph unicode="&#xe93d;" glyph-name="organization" d="M512 661.333v170.667h-426.667v-768h853.333v597.333h-426.667zM256 149.333h-85.333v85.333h85.333v-85.333zM256 320h-85.333v85.333h85.333v-85.333zM256 490.667h-85.333v85.333h85.333v-85.333zM256 661.333h-85.333v85.333h85.333v-85.333zM426.667 149.333h-85.333v85.333h85.333v-85.333zM426.667 320h-85.333v85.333h85.333v-85.333zM426.667 490.667h-85.333v85.333h85.333v-85.333zM426.667 661.333h-85.333v85.333h85.333v-85.333zM853.333 149.333h-341.333v85.333h85.333v85.333h-85.333v85.333h85.333v85.333h-85.333v85.333h341.333v-426.667zM768 490.667h-85.333v-85.333h85.333v85.333zM768 320h-85.333v-85.333h85.333v85.333z" />
<glyph unicode="&#xe93e;" glyph-name="privacy-policy" d="M725.333 21.333c-40.533 0-170.667 78.080-170.667 170.667v128c-0.021 8.943 2.765 17.673 7.97 24.943 5.21 7.275 12.57 12.727 21.043 15.59l128 42.667c8.858 2.991 18.449 2.991 27.307 0l128-42.667c8.474-2.863 15.834-8.316 21.043-15.59 5.205-7.27 7.991-16 7.97-24.943v-128c0-91.733-128-170.667-170.667-170.667zM640 288.853v-96.853c0-28.16 58.453-72.533 85.333-83.2 26.88 10.667 85.333 55.040 85.333 83.2v96.853l-85.333 28.587-85.333-28.587zM526.080 106.667c0 11.315-4.497 22.17-12.497 30.17s-18.854 12.497-30.17 12.497h-270.080v640h426.667v-301.227c0-11.315 4.497-22.17 12.497-30.17s18.854-12.497 30.17-12.497c11.315 0 22.17 4.497 30.17 12.497s12.497 18.854 12.497 30.17v301.227c0 22.632-8.99 44.337-24.994 60.34s-37.709 24.994-60.339 24.994h-426.667c-22.632 0-44.337-8.99-60.34-24.994s-24.994-37.708-24.994-60.34v-640c0-22.63 8.99-44.335 24.994-60.339s37.708-24.994 60.34-24.994h270.080c11.315 0 22.17 4.497 30.17 12.497s12.497 18.854 12.497 30.17zM469.333 661.333c0 11.316-4.497 22.168-12.497 30.17s-18.854 12.497-30.17 12.497h-128c-11.316 0-22.168-4.495-30.17-12.497s-12.497-18.854-12.497-30.17c0-11.316 4.495-22.168 12.497-30.17s18.854-12.497 30.17-12.497h128c11.315 0 22.17 4.495 30.17 12.497s12.497 18.854 12.497 30.17zM597.333 448c0 11.315-4.497 22.17-12.497 30.17s-18.854 12.497-30.17 12.497h-256c-11.316 0-22.168-4.497-30.17-12.497s-12.497-18.854-12.497-30.17c0-11.315 4.495-22.17 12.497-30.17s18.854-12.497 30.17-12.497h256c11.315 0 22.17 4.497 30.17 12.497s12.497 18.854 12.497 30.17zM512 277.333c0 11.315-4.497 22.17-12.497 30.17s-18.854 12.497-30.17 12.497h-170.667c-11.316 0-22.168-4.497-30.17-12.497s-12.497-18.854-12.497-30.17c0-11.315 4.495-22.17 12.497-30.17s18.854-12.497 30.17-12.497h170.667c11.315 0 22.17 4.497 30.17 12.497s12.497 18.854 12.497 30.17z" />
<glyph unicode="&#xe93f;" glyph-name="qr-code" d="M434.432 874.667h-310.31c-10.287 0-20.154-4.087-27.428-11.361s-11.361-17.14-11.361-27.427v-310.306c0-10.287 4.087-20.156 11.361-27.426 7.274-7.275 17.14-11.362 27.428-11.362h310.31c10.287 0 20.151 4.087 27.426 11.362 7.275 7.27 11.362 17.139 11.362 27.426v310.306c0 10.287-4.087 20.153-11.362 27.427s-17.139 11.361-27.426 11.361zM395.643 564.36h-232.733v232.73h232.733v-232.73zM341.333 746.667h-128v-128h128v128zM899.9 409.229c10.287 0 20.151-4.087 27.426-11.362s11.362-17.139 11.362-27.426v-77.577c0-10.287-4.087-20.151-11.362-27.426s-17.139-11.362-27.426-11.362h-77.581v-77.577h77.581c10.287 0 20.151-4.087 27.426-11.362s11.362-17.139 11.362-27.426v-77.577c0-10.287-4.087-20.151-11.362-27.426s-17.139-11.362-27.426-11.362h-77.581c-10.287 0-20.151 4.087-27.426 11.362s-11.362 17.139-11.362 27.426v77.577h-77.577v-77.577c0-10.287-4.087-20.151-11.362-27.426s-17.139-11.362-27.426-11.362h-77.577c-10.287 0-20.156 4.087-27.43 11.362s-11.358 17.139-11.358 27.426v77.577c0 10.287 4.083 20.151 11.358 27.426s17.143 11.362 27.43 11.362h77.577v77.577h-77.577c-10.287 0-20.156 4.087-27.43 11.362s-11.358 17.139-11.358 27.426v77.577c0 10.287 4.083 20.151 11.358 27.426s17.143 11.362 27.43 11.362h77.577c10.287 0 20.151-4.087 27.426-11.362s11.362-17.139 11.362-27.426v-77.577h77.577v77.577c0 10.287 4.087 20.151 11.362 27.426s17.139 11.362 27.426 11.362h77.581zM899.9 874.667h-310.31c-10.287 0-20.156-4.087-27.43-11.361s-11.358-17.14-11.358-27.427v-310.306c0-10.287 4.083-20.156 11.358-27.426 7.275-7.275 17.143-11.362 27.43-11.362h310.31c10.287 0 20.151 4.087 27.426 11.362 7.275 7.27 11.362 17.139 11.362 27.426v310.306c0 10.287-4.087 20.153-11.362 27.427s-17.139 11.361-27.426 11.361zM861.111 564.36h-232.734v232.73h232.734v-232.73zM124.122 409.229h310.31c10.287 0 20.151-4.087 27.426-11.362s11.362-17.139 11.362-27.426v-310.306c0-10.287-4.087-20.151-11.362-27.426s-17.139-11.362-27.426-11.362h-310.31c-10.287 0-20.154 4.087-27.428 11.362s-11.361 17.139-11.361 27.426v310.306c0 10.287 4.087 20.151 11.361 27.426s17.14 11.362 27.428 11.362zM162.911 98.923h232.733v232.73h-232.733v-232.73z" />
<glyph unicode="&#xe940;" glyph-name="receive" d="M798.601 502.733c6.665-6.665 6.665-17.468 0-24.132l-274.53-274.534c-6.665-6.665-17.472-6.665-24.137 0l-274.531 274.534c-6.665 6.665-6.665 17.468 0 24.132l36.438 36.439c6.67 6.67 17.486 6.664 24.149-0.013l183.344-183.746v502.187c0 9.425 7.642 17.067 17.067 17.067h51.2c9.425 0 17.067-7.641 17.067-17.067v-502.187l183.774 183.372c6.665 6.653 17.463 6.647 24.124-0.013l36.036-36.039zM793.6 21.342c9.425 0 17.067 7.642 17.067 17.067v51.2c0 9.425-7.642 17.067-17.067 17.067h-563.2c-9.425 0-17.067-7.642-17.067-17.067v-51.2c0-9.425 7.641-17.067 17.067-17.067h563.2z" />
<glyph unicode="&#xe941;" glyph-name="ruler" d="M256 832v-768c0-46.933 38.4-85.333 85.333-85.333h341.333c46.933 0 85.333 38.4 85.333 85.333v768c0 46.933-38.4 85.333-85.333 85.333h-341.333c-46.933 0-85.333-38.4-85.333-85.333zM682.667 832v-768h-341.333v85.333h170.667v85.333h-170.667v85.333h170.667v85.333h-170.667v85.333h170.667v85.333h-170.667v85.333h170.667v85.333h-170.667v85.333h341.333z" />
<glyph unicode="&#xe942;" glyph-name="send" d="M798.596 563.918c6.669 6.665 6.669 17.471 0 24.136l-274.53 274.531c-6.665 6.665-17.468 6.665-24.137 0l-274.529-274.531c-6.665-6.665-6.665-17.471 0-24.136l36.438-36.439c6.67-6.669 17.486-6.665 24.149 0.013l183.346 183.747v-502.185c0-9.425 7.642-17.067 17.067-17.067h51.2c9.425 0 17.067 7.642 17.067 17.067v502.185l183.77-183.372c6.669-6.652 17.463-6.647 24.124 0.013l36.036 36.038zM793.6 21.321c9.425 0 17.067 7.642 17.067 17.067v51.2c0 9.425-7.642 17.067-17.067 17.067h-563.2c-9.425 0-17.067-7.642-17.067-17.067v-51.2c0-9.425 7.641-17.067 17.067-17.067h563.2z" />
<glyph unicode="&#xe943;" glyph-name="settings" d="M511.983 277.333c-33.754 0-66.752 10.010-94.817 28.762s-49.941 45.41-62.858 76.595-16.297 65.498-9.712 98.607c6.585 33.105 22.839 63.514 46.708 87.383s54.277 40.122 87.386 46.708c33.105 6.585 67.418 3.206 98.603-9.712 31.189-12.917 57.843-34.792 76.595-62.858s28.762-61.064 28.762-94.817c0-45.265-17.98-88.674-49.988-120.678-32.004-32.009-75.413-49.988-120.678-49.988zM511.983 533.333c-16.879 0-33.374-5.005-47.407-14.383-14.033-9.374-24.973-22.703-31.428-38.293-6.46-15.595-8.151-32.751-4.86-49.306 3.294-16.55 11.422-31.757 23.356-43.691s27.14-20.062 43.691-23.356c16.555-3.29 33.711-1.6 49.306 4.855 15.59 6.46 28.919 17.399 38.298 31.433 9.374 14.033 14.379 30.528 14.379 47.407 0 22.63-8.99 44.335-24.994 60.339-16 16.004-37.709 24.994-60.339 24.994zM533.316 21.333h-42.667c-11.575-0.013-23.031 2.325-33.673 6.878s-20.245 11.221-28.228 19.605c-7.981 8.38-14.175 18.3-18.203 29.15s-5.807 22.409-5.229 33.967v35.413c-36.923 13.018-71.078 32.845-100.693 58.453l-34.133-19.627c-9.714-5.662-20.451-9.344-31.593-10.842s-22.47-0.777-33.334 2.116c-10.863 2.893-21.048 7.906-29.968 14.75s-16.401 15.381-22.011 25.122l-21.333 36.693c-11.296 19.58-14.36 42.846-8.52 64.683s20.106 40.465 39.667 51.797l34.56 20.053c-7.031 38.797-7.031 78.537 0 117.333l-29.867 17.067c-20.813 12.129-36.108 31.86-42.667 55.040-2.977 10.62-3.756 21.735-2.289 32.666s5.15 21.448 10.822 30.907l21.333 37.12c11.33 19.561 29.959 33.827 51.797 39.667s45.102 2.775 64.683-8.52l34.56-19.627c29.101 25.21 62.481 45.007 98.56 58.453v35.413c-0.579 11.56 1.2 23.117 5.229 33.967s10.223 20.768 18.203 29.15c7.983 8.381 17.587 15.052 28.228 19.604s22.097 6.893 33.673 6.879h42.667c11.575 0.015 23.031-2.326 33.673-6.879s20.245-11.223 28.228-19.604c7.983-8.381 14.174-18.299 18.206-29.15 4.028-10.851 5.807-22.408 5.227-33.967v-35.413c37.265-13.119 71.821-32.928 101.973-58.453l34.133 19.627c9.719 5.618 20.45 9.263 31.578 10.727s22.434 0.719 33.276-2.194c10.863-2.734 21.047-7.665 29.926-14.49s16.265-15.398 21.7-25.19l21.333-36.693c11.294-19.581 14.362-42.844 8.521-64.683s-20.105-40.467-39.667-51.797l-34.56-20.053c7.031-38.797 7.031-78.537 0-117.333l33.28-19.627c19.49-11.401 33.664-30.063 39.424-51.895 5.756-21.833 2.628-45.056-8.704-64.585l-20.907-36.693c-5.611-9.741-13.090-18.278-22.012-25.122-8.917-6.844-19.102-11.857-29.969-14.75-10.863-2.893-22.191-3.614-33.331-2.116-11.145 1.498-21.879 5.18-31.595 10.842l-33.707 19.627c-29.828-25.532-64.107-45.346-101.12-58.453v-35.413c0.576-11.49-1.178-22.976-5.154-33.766-3.977-10.795-10.095-20.672-17.984-29.043-7.893-8.371-17.391-15.057-27.934-19.661s-21.905-7.027-33.408-7.13zM319.983 311.467l23.040-24.747c31.367-33.114 71.69-56.388 116.053-66.987l32.427-7.68v-100.693c0-2.987 0-5.12 0-5.12h42.667c0 0 0 0 0 4.693v101.12l32.427 7.68c44.365 10.598 84.685 33.873 116.053 66.987l23.040 24.747 91.307-52.48 20.907 36.693-92.587 53.76 12.373 33.707c12.612 43.477 12.612 89.643 0 133.12l-8.533 32 90.027 52.053-21.333 36.693-92.16-52.48-23.040 24.32c-31.232 33.369-71.595 56.813-116.053 67.413l-32.427 7.68v100.693c0.294 1.694 0.294 3.426 0 5.12h-42.667c0 0 0 0 0-4.693v-101.12l-32.853-7.68c-44.919-10.367-85.754-33.828-117.333-67.413l-23.040-24.32-91.307 52.48-20.907-36.267c1.043-1.268 2.355-2.287 3.84-2.987l88.747-51.2-12.373-33.707c-12.611-43.477-12.611-89.643 0-133.12l8.533-31.573-89.6-52.48 21.333-36.693 93.44 52.48z" />
<glyph unicode="&#xe944;" glyph-name="signature" d="M639.147 621.227l-39.253 39.253-386.56-386.56v-39.253h39.253l386.56 386.56zM723.627 904.96c8.107 8.107 19.2 12.373 29.867 12.373 11.093 0 21.76-3.84 30.293-12.373l99.84-99.84c16.64-16.64 16.64-43.52 0-60.16l-78.080-78.080-160 160 78.080 78.080zM128 309.333l471.893 471.893 160-160-471.893-471.893h-160v160zM964.267-21.333c9.425 0 17.067 7.642 17.067 17.067v51.2c0 9.425-7.642 17.067-17.067 17.067h-904.533c-9.425 0-17.067-7.642-17.067-17.067v-51.2c0-9.425 7.641-17.067 17.067-17.067h904.533z" />
<glyph unicode="&#xe945;" glyph-name="stats" d="M341.333 64c-11.316 0-22.168 4.497-30.17 12.497s-12.497 18.854-12.497 30.17v469.333c0 11.316 4.495 22.168 12.497 30.17s18.854 12.497 30.17 12.497c11.316 0 22.168-4.495 30.17-12.497s12.497-18.854 12.497-30.17v-469.333c0-11.315-4.495-22.17-12.497-30.17s-18.854-12.497-30.17-12.497zM554.667 106.667v256c0 11.315-4.497 22.17-12.497 30.17s-18.854 12.497-30.17 12.497c-11.315 0-22.17-4.497-30.17-12.497s-12.497-18.854-12.497-30.17v-256c0-11.315 4.497-22.17 12.497-30.17s18.854-12.497 30.17-12.497c11.315 0 22.17 4.497 30.17 12.497s12.497 18.854 12.497 30.17zM213.333 106.667v128c0 11.315-4.495 22.17-12.497 30.17s-18.854 12.497-30.17 12.497c-11.316 0-22.168-4.497-30.17-12.497s-12.497-18.854-12.497-30.17v-128c0-11.315 4.495-22.17 12.497-30.17s18.854-12.497 30.17-12.497c11.316 0 22.168 4.497 30.17 12.497s12.497 18.854 12.497 30.17zM725.333 106.667v384c0 11.315-4.497 22.17-12.497 30.17s-18.854 12.497-30.17 12.497c-11.315 0-22.17-4.497-30.17-12.497s-12.497-18.854-12.497-30.17v-384c0-11.315 4.497-22.17 12.497-30.17s18.854-12.497 30.17-12.497c11.315 0 22.17 4.497 30.17 12.497s12.497 18.854 12.497 30.17zM896 106.667v682.667c0 11.316-4.497 22.168-12.497 30.17s-18.854 12.497-30.17 12.497c-11.315 0-22.17-4.495-30.17-12.497s-12.497-18.854-12.497-30.17v-682.667c0-11.315 4.497-22.17 12.497-30.17s18.854-12.497 30.17-12.497c11.315 0 22.17 4.497 30.17 12.497s12.497 18.854 12.497 30.17z" />
<glyph unicode="&#xe946;" glyph-name="tally" d="M936.196 590.225c-7.893 22.564-32.717 34.222-55.279 26.324l-68.066-24.068v110.938c0 24.068-19.179 43.247-43.247 43.247s-43.247-19.179-43.247-43.247v-141.399l-78.976-27.829v169.228c0 24.068-19.179 43.247-43.247 43.247s-43.247-19.179-43.247-43.247v-200.064l-78.972-27.831v227.895c0 24.068-19.179 43.247-43.247 43.247s-43.248-19.179-43.248-43.247v-258.73l-78.973-27.827v286.557c0 24.068-19.179 43.247-43.247 43.247s-43.247-19.179-43.247-43.247v-317.021l-115.827-40.99c-22.564-7.898-34.222-32.717-26.324-55.279 6.393-17.677 22.94-28.958 40.615-28.958 4.889 0 9.777 0.751 14.29 2.633l86.871 30.835v-117.705c0-24.068 19.179-43.251 43.247-43.251s43.623 19.183 43.623 43.251v148.164l78.973 27.831v-175.996c0-24.068 19.18-43.251 43.248-43.251s43.247 19.183 43.247 43.251v206.831l78.972 27.831v-234.662c0-24.068 19.179-43.251 43.247-43.251s43.247 19.183 43.247 43.251v265.122l78.976 27.827v-293.329c0-24.068 19.179-43.247 43.247-43.247s43.247 19.558 43.247 43.627v323.789l97.024 34.22c22.562 7.897 34.219 32.717 26.321 55.281z" />
<glyph unicode="&#xe947;" glyph-name="terms-of-service" d="M768 21.333h-341.333c-22.632 0-44.337 8.99-60.34 24.994s-24.994 37.709-24.994 60.339v512c0 22.632 8.99 44.337 24.994 60.34s37.708 24.994 60.34 24.994h341.333c22.63 0 44.335-8.99 60.339-24.994s24.994-37.708 24.994-60.34v-512c0-22.63-8.99-44.335-24.994-60.339s-37.709-24.994-60.339-24.994zM426.667 618.667v-512h341.333v512h-341.333zM298.667 234.667c0 11.315-4.495 22.17-12.497 30.17s-18.854 12.497-30.17 12.497v512h341.333c0-11.316 4.497-22.168 12.497-30.17s18.854-12.497 30.17-12.497c11.315 0 22.17 4.495 30.17 12.497s12.497 18.854 12.497 30.17c0 22.632-8.99 44.337-24.994 60.34s-37.709 24.994-60.339 24.994h-341.333c-22.632 0-44.337-8.99-60.34-24.994s-24.994-37.708-24.994-60.34v-512c0-22.63 8.99-44.335 24.994-60.339s37.708-24.994 60.34-24.994c11.316 0 22.168 4.497 30.17 12.497s12.497 18.854 12.497 30.17zM640 490.667c0 11.315-4.497 22.17-12.497 30.17s-18.854 12.497-30.17 12.497h-85.333c-11.315 0-22.17-4.497-30.17-12.497s-12.497-18.854-12.497-30.17c0-11.315 4.497-22.17 12.497-30.17s18.854-12.497 30.17-12.497h85.333c11.315 0 22.17 4.497 30.17 12.497s12.497 18.854 12.497 30.17zM725.333 362.667c0 11.315-4.497 22.17-12.497 30.17s-18.854 12.497-30.17 12.497h-170.667c-11.315 0-22.17-4.497-30.17-12.497s-12.497-18.854-12.497-30.17c0-11.315 4.497-22.17 12.497-30.17s18.854-12.497 30.17-12.497h170.667c11.315 0 22.17 4.497 30.17 12.497s12.497 18.854 12.497 30.17zM725.333 234.667c0 11.315-4.497 22.17-12.497 30.17s-18.854 12.497-30.17 12.497h-170.667c-11.315 0-22.17-4.497-30.17-12.497s-12.497-18.854-12.497-30.17c0-11.315 4.497-22.17 12.497-30.17s18.854-12.497 30.17-12.497h170.667c11.315 0 22.17 4.497 30.17 12.497s12.497 18.854 12.497 30.17z" />
<glyph unicode="&#xe948;" glyph-name="time" d="M85.333 448c0 235.52 190.72 426.667 426.24 426.667 235.947 0 427.093-191.147 427.093-426.667s-191.147-426.667-427.093-426.667c-235.52 0-426.24 191.147-426.24 426.667zM170.667 448c0-188.587 152.747-341.333 341.333-341.333s341.333 152.747 341.333 341.333c0 188.587-152.747 341.333-341.333 341.333s-341.333-152.747-341.333-341.333zM469.333 661.333h64v-224l192-113.92-32-52.48-224 134.4v256z" />
<glyph unicode="&#xe949;" glyph-name="user" d="M512 490.667c-33.754 0-66.752 10.010-94.817 28.762-28.066 18.754-49.941 45.408-62.858 76.593s-16.297 65.501-9.712 98.607c6.585 33.106 22.839 63.516 46.708 87.384s54.278 40.122 87.383 46.708c33.109 6.585 67.422 3.206 98.607-9.712s57.843-34.792 76.595-62.858c18.752-28.066 28.762-61.063 28.762-94.817 0-45.264-17.98-88.673-49.988-120.68-32.004-32.007-75.413-49.987-120.678-49.987zM512 746.667c-16.879 0-33.374-5.005-47.407-14.381s-24.973-22.704-31.433-38.296c-6.455-15.593-8.147-32.751-4.855-49.303 3.294-16.553 11.422-31.758 23.356-43.692s27.14-20.061 43.691-23.354c16.555-3.293 33.711-1.603 49.306 4.856 15.59 6.458 28.919 17.396 38.293 31.429 9.378 14.033 14.383 30.531 14.383 47.409 0 22.632-8.99 44.337-24.994 60.34s-37.709 24.994-60.339 24.994zM810.667 64h-597.333c-22.632 0-44.337 8.99-60.34 24.994s-24.994 37.709-24.994 60.339v123.307c-0.011 16.533 4.781 32.717 13.795 46.579 9.014 13.858 21.861 24.802 36.978 31.501l6.827 2.56 295.68 74.24c19.772 7.629 41.668 7.629 61.44 0l295.68-74.24 6.827-2.56c15.053-6.669 27.853-17.545 36.864-31.322 9.007-13.781 13.837-29.871 13.909-46.332v-123.733c0-22.63-8.99-44.335-24.994-60.339s-37.709-24.994-60.339-24.994zM213.333 272.213v-122.88h597.333v122.88l-291.84 73.387c-2.364 0.593-4.655 1.451-6.827 2.56-2.172-1.109-4.463-1.967-6.827-2.56l-291.84-73.387z" />
<glyph unicode="&#xe94a;" glyph-name="visible" d="M888.32 448c-70.4 143.787-214.613 234.667-376.32 234.667s-305.92-90.88-376.32-234.667c70.4-143.787 214.187-234.667 376.32-234.667s305.92 90.88 376.32 234.667zM42.667 448c73.813 187.307 256 320 469.333 320s395.52-132.693 469.333-320c-73.813-187.307-256-320-469.333-320s-395.52 132.693-469.333 320zM618.667 448c0 58.88-47.787 106.667-106.667 106.667s-106.667-47.787-106.667-106.667c0-58.88 47.787-106.667 106.667-106.667s106.667 47.787 106.667 106.667zM320 448c0 105.813 86.187 192 192 192s192-86.187 192-192c0-105.813-86.187-192-192-192s-192 86.187-192 192z" />
<glyph unicode="&#xe94b;" glyph-name="warning" d="M622.848 842.667c-49.267 85.333-172.437 85.333-221.705 0l-332.554-576c-49.267-85.333 12.317-192 110.851-192h665.107c98.534 0 160.119 106.667 110.852 192l-332.553 576zM475.046 800c16.422 28.445 57.476 28.445 73.899 0l332.553-576c16.422-28.446-4.105-64-36.949-64h-665.107c-32.845 0-53.373 35.554-36.951 64l332.556 576zM476.518 290.372c-4.689-7.019-7.189-15.266-7.189-23.706 0-11.315 4.493-22.17 12.497-30.17 8-8 18.854-12.497 30.17-12.497 8.439 0 16.687 2.5 23.701 7.189 7.019 4.689 12.489 11.354 15.718 19.149 3.226 7.795 4.070 16.375 2.428 24.653-1.647 8.277-5.713 15.881-11.678 21.845-5.969 5.969-13.572 10.031-21.845 11.678-8.277 1.647-16.858 0.802-24.653-2.428s-14.46-8.7-19.149-15.714zM469.329 437.333v170.667c0 11.316 4.493 22.168 12.497 30.17 8 8.001 18.854 12.497 30.17 12.497s22.165-4.495 30.17-12.497c8-8.002 12.497-18.854 12.497-30.17v-170.667c0-11.315-4.497-22.17-12.497-30.17-8.004-8-18.854-12.497-30.17-12.497s-22.17 4.497-30.17 12.497c-8.004 8-12.497 18.854-12.497 30.17z" />
<glyph unicode="&#xe94c;" glyph-name="work" d="M597.333 704v85.333h-170.667v-85.333h170.667zM170.667 618.667v-469.333h682.667v469.333h-682.667zM853.333 704c47.36 0 85.333-37.973 85.333-85.333v-469.333c0-47.36-37.973-85.333-85.333-85.333h-682.667c-47.36 0-85.333 37.973-85.333 85.333l0.427 469.333c0 47.36 37.547 85.333 84.907 85.333h170.667v85.333c0 47.36 37.973 85.333 85.333 85.333h170.667c47.36 0 85.333-37.973 85.333-85.333v-85.333h170.667z" />
<glyph unicode="&#xe94d;" glyph-name="world" d="M512 874.667c-235.52 0-426.667-191.147-426.667-426.667s191.147-426.667 426.667-426.667c235.52 0 426.667 191.147 426.667 426.667s-191.147 426.667-426.667 426.667zM170.667 448c0 26.027 3.413 51.627 8.96 75.947l203.947-203.947v-42.667c0-46.933 38.4-85.333 85.333-85.333v-82.347c-167.68 21.333-298.24 164.693-298.24 338.347zM763.307 217.6c-11.093 34.56-42.667 59.733-81.067 59.733h-42.667v128c0 23.467-19.2 42.667-42.667 42.667h-256v85.333h85.333c23.467 0 42.667 19.2 42.667 42.667v85.333h85.333c46.933 0 85.333 38.4 85.333 85.333v17.493c125.013-50.347 213.76-173.227 213.76-316.16 0-88.747-34.56-169.813-90.027-230.4z" />
<glyph unicode="&#xe94e;" glyph-name="back-ios" d="M693.257 64.030c6.272-0.009 12.463 1.361 18.142 4.015s10.701 6.528 14.711 11.345c3.593 4.314 6.302 9.289 7.966 14.647 1.668 5.359 2.261 10.995 1.745 16.585s-2.129 11.021-4.745 15.983c-2.62 4.966-6.191 9.365-10.513 12.945l-323.42 308.48 323.42 308.48c8.717 7.242 14.195 17.649 15.236 28.931 1.037 11.282-2.445 22.515-9.69 31.229-7.241 8.713-17.647 14.193-28.928 15.233-11.285 1.040-22.515-2.444-31.232-9.686l-362.673-341.333c-4.832-4.002-8.851-9.024-11.52-14.703s-3.84-11.874-3.84-18.15c0-6.276 1.17-12.471 3.84-18.15s6.688-10.701 11.52-14.703l362.673-341.333c7.68-6.362 17.34-9.835 27.307-9.813z" />
<glyph unicode="&#xe94f;" glyph-name="downward" d="M511.991 746.667c-23.565 0-42.667-19.103-42.667-42.667v-399.223l-137.805 149.205c-3.582 4.322-7.981 7.893-12.945 10.509-4.964 2.62-10.396 4.233-15.984 4.745-5.588 0.516-11.223-0.077-16.582-1.741-5.359-1.668-10.337-4.373-14.648-7.966-4.816-4.011-8.689-9.037-11.344-14.716-2.655-5.675-4.026-11.87-4.016-18.138-0.019-9.971 3.453-19.631 9.813-27.307l213.333-234.667c4.002-4.834 9.024-8.853 14.703-11.52 5.679-2.671 11.874-3.84 18.15-3.84s12.471 1.169 18.15 3.84c5.679 2.667 10.701 6.686 14.703 11.52l213.333 234.667c7.241 8.713 10.726 19.947 9.685 31.228s-6.519 21.692-15.232 28.932c-8.713 7.241-19.947 10.726-31.228 9.685s-21.692-6.519-28.932-15.232l-137.822-149.227v399.245c0 23.564-19.106 42.667-42.667 42.667z" />
<glyph unicode="&#xe950;" glyph-name="drop-down" d="M339.869 533.333c-15.205 0-22.819-18.385-12.068-29.133l172.133-172.134c6.665-6.665 17.468-6.665 24.132 0l172.134 172.134c10.748 10.748 3.136 29.133-12.070 29.133h-344.261z" />
<glyph unicode="&#xe951;" glyph-name="drop-up" d="M339.869 362.667c-15.205 0-22.819 18.385-12.068 29.133l172.133 172.133c6.665 6.665 17.468 6.665 24.132 0l172.134-172.133c10.748-10.748 3.136-29.133-12.070-29.133h-344.261z" />
<glyph unicode="&#xe952;" glyph-name="forward-ios" d="M330.742 64.030c-6.268-0.009-12.462 1.361-18.14 4.015s-10.702 6.528-14.714 11.345c-3.593 4.314-6.299 9.289-7.965 14.647s-2.258 10.995-1.743 16.585c0.515 5.589 2.128 11.021 4.746 15.983 2.618 4.966 6.189 9.365 10.509 12.945l323.424 308.48-323.424 308.48c-8.713 7.242-14.193 17.649-15.233 28.931s2.444 22.515 9.686 31.229c7.242 8.713 17.649 14.193 28.931 15.233s22.515-2.444 31.229-9.686l362.677-341.333c4.83-4.002 8.849-9.024 11.52-14.703 2.667-5.679 3.84-11.874 3.84-18.15s-1.173-12.471-3.84-18.15c-2.671-5.679-6.69-10.701-11.52-14.703l-362.677-341.333c-7.676-6.362-17.338-9.835-27.307-9.813z" />
<glyph unicode="&#xe953;" glyph-name="keyboard-down" d="M768.013 576.050c0.009 6.268-1.361 12.462-4.015 18.14-2.658 5.679-6.528 10.702-11.345 14.714-4.314 3.593-9.289 6.299-14.647 7.965s-10.995 2.258-16.585 1.743c-5.589-0.515-11.021-2.128-15.983-4.746-4.966-2.618-9.365-6.189-12.945-10.509l-180.48-216.745-180.481 216.745c-7.242 8.713-17.649 14.193-28.931 15.233s-22.516-2.444-31.229-9.686c-8.713-7.242-14.193-17.649-15.233-28.931s2.444-22.515 9.687-31.229l213.334-255.999c4.002-4.834 9.024-8.721 14.703-11.392 5.679-2.667 11.874-4.053 18.15-4.053 6.272 0 12.471 1.387 18.15 4.053 5.679 2.671 10.697 6.558 14.703 11.392l213.333 255.999c6.362 7.676 9.83 17.338 9.813 27.307z" />
<glyph unicode="&#xe954;" glyph-name="keyboard-left" d="M629.257 192.030c6.272-0.009 12.463 1.361 18.142 4.015s10.701 6.528 14.711 11.345c3.593 4.314 6.302 9.289 7.966 14.647 1.668 5.359 2.261 10.995 1.745 16.585-0.516 5.585-2.129 11.021-4.745 15.983-2.62 4.966-6.191 9.365-10.513 12.945l-195.422 180.48 195.422 180.48c8.717 7.242 14.195 17.649 15.236 28.931 1.037 11.282-2.445 22.515-9.69 31.229-7.241 8.713-17.647 14.193-28.928 15.233-11.285 1.040-22.515-2.444-31.232-9.686l-234.673-213.333c-4.832-4.002-8.851-9.024-11.52-14.703s-3.84-11.874-3.84-18.15c0-6.276 1.17-12.471 3.84-18.15s6.688-10.701 11.52-14.703l234.673-213.333c7.68-6.362 17.34-9.835 27.307-9.813z" />
<glyph unicode="&#xe955;" glyph-name="keyboard-right" d="M394.742 192.030c-6.268-0.009-12.462 1.361-18.14 4.015s-10.702 6.528-14.714 11.345c-3.593 4.314-6.299 9.289-7.965 14.647s-2.258 10.995-1.743 16.585c0.515 5.585 2.128 11.021 4.746 15.983 2.618 4.966 6.189 9.365 10.509 12.945l195.415 180.48-195.415 180.48c-8.713 7.242-14.193 17.649-15.233 28.931s2.444 22.515 9.686 31.229c7.242 8.713 17.649 14.193 28.931 15.233s22.515-2.444 31.229-9.686l234.668-213.333c4.83-4.002 8.849-9.024 11.52-14.703 2.667-5.679 3.84-11.874 3.84-18.15s-1.173-12.471-3.84-18.15c-2.671-5.679-6.69-10.701-11.52-14.703l-234.668-213.333c-7.676-6.362-17.338-9.835-27.307-9.813z" />
<glyph unicode="&#xe956;" glyph-name="keyboard-up" d="M255.988 320.034c-0.010-6.268 1.361-12.463 4.016-18.142s6.528-10.701 11.345-14.711c4.311-3.593 9.289-6.302 14.648-7.966s10.994-2.257 16.583-1.745c5.588 0.516 11.020 2.129 15.984 4.749 4.964 2.615 9.363 6.187 12.945 10.509l180.479 216.747 180.48-216.747c7.245-8.713 17.651-14.195 28.932-15.232 11.281-1.041 22.515 2.441 31.228 9.685 8.713 7.241 14.195 17.647 15.232 28.932 1.041 11.281-2.441 22.515-9.685 31.228l-213.333 255.999c-4.002 4.832-9.024 8.721-14.703 11.39s-11.874 4.053-18.15 4.053c-6.272 0-12.471-1.384-18.15-4.053s-10.697-6.559-14.703-11.39l-213.332-255.999c-6.361-7.676-9.833-17.34-9.813-27.307z" />
<glyph unicode="&#xe957;" glyph-name="left" d="M597.333 620.131c0 15.205-18.385 22.819-29.133 12.068l-172.133-172.133c-6.665-6.665-6.665-17.468 0-24.132l172.133-172.134c10.748-10.748 29.133-3.136 29.133 12.070v344.261z" />
<glyph unicode="&#xe958;" glyph-name="right-alt" d="M683.093 490.667h-495.36c-9.425 0-17.067-7.642-17.067-17.067v-51.2c0-9.425 7.641-17.067 17.067-17.067h495.36v-86.724c0-15.215 18.406-22.827 29.15-12.053l129.067 129.391c6.647 6.66 6.647 17.446 0 24.107l-129.067 129.391c-10.743 10.772-29.15 3.162-29.15-12.053v-86.724z" />
<glyph unicode="&#xe959;" glyph-name="right" d="M426.667 275.87c0-15.206 18.385-22.818 29.133-12.070l172.134 172.134c6.665 6.665 6.665 17.468 0 24.132l-172.134 172.133c-10.748 10.751-29.133 3.137-29.133-12.068v-344.261z" />
<glyph unicode="&#xe95a;" glyph-name="upward" d="M512.094 149.333c23.565 0 42.667 19.102 42.667 42.667v399.224l137.805-149.206c3.58-4.322 7.979-7.893 12.941-10.509 4.966-2.62 10.398-4.233 15.987-4.745 5.589-0.516 11.221 0.077 16.58 1.741 5.359 1.668 10.338 4.373 14.652 7.966 4.813 4.011 8.687 9.037 11.341 14.716 2.658 5.675 4.028 11.87 4.019 18.138 0.017 9.971-3.456 19.631-9.813 27.307l-213.333 234.668c-4.006 4.832-9.024 8.85-14.703 11.52s-11.878 3.84-18.15 3.84c-6.276 0-12.476-1.171-18.155-3.84s-10.697-6.688-14.699-11.52l-213.335-234.668c-7.242-8.713-10.726-19.947-9.686-31.228s6.52-21.692 15.233-28.932c8.713-7.241 19.947-10.726 31.229-9.685s21.689 6.519 28.931 15.232l137.824 149.228v-399.247c0-23.565 19.102-42.667 42.667-42.667z" />
<glyph unicode="&#xe95b;" glyph-name="add" d="M810.667 422.4c0-9.425-7.642-17.067-17.067-17.067h-238.933v-238.933c0-9.425-7.642-17.067-17.067-17.067h-51.2c-9.425 0-17.067 7.642-17.067 17.067v238.933h-238.933c-9.425 0-17.067 7.642-17.067 17.067v51.2c0 9.425 7.641 17.067 17.067 17.067h238.933v238.933c0 9.425 7.642 17.067 17.067 17.067h51.2c9.425 0 17.067-7.641 17.067-17.067v-238.933h238.933c9.425 0 17.067-7.642 17.067-17.067v-51.2z" />
<glyph unicode="&#xe95c;" glyph-name="backspace" d="M938.667 832h-640c-29.44 0-52.48-14.933-67.84-37.547l-224.518-336.986c-3.82-5.734-3.818-13.201 0.005-18.931l224.513-336.563c15.36-22.613 38.4-37.973 67.84-37.973h640c46.933 0 85.333 38.4 85.333 85.333v597.333c0 46.933-38.4 85.333-85.333 85.333zM938.667 149.333h-637.013l-197.675 296.303c-0.956 1.429-0.957 3.298-0.003 4.732l197.251 296.299h637.44v-597.333zM444.16 234.667l153.173 153.173 153.173-153.173 60.16 60.16-153.173 153.173 153.173 153.173-60.16 60.16-153.173-153.173-153.173 153.173-60.16-60.16 153.173-153.173-153.173-153.173 60.16-60.16z" />
<glyph unicode="&#xe95d;" glyph-name="close" d="M780.787 716.385c-16.64 16.64-43.52 16.64-60.16 0l-208.64-208.212-208.639 208.639c-16.64 16.64-43.52 16.64-60.16 0s-16.64-43.52 0-60.16l208.639-208.639-208.639-208.64c-16.64-16.64-16.64-43.52 0-60.16s43.52-16.64 60.16 0l208.639 208.64 208.64-208.64c16.64-16.64 43.52-16.64 60.16 0s16.64 43.52 0 60.16l-208.64 208.64 208.64 208.639c16.213 16.213 16.213 43.52 0 59.733z" />
<glyph unicode="&#xe95e;" glyph-name="copy" d="M662.455 874.667h-458.105c-41.993 0-76.351-34.909-76.351-77.576v-543.032h76.351v543.032h458.105v77.576zM776.981 719.515h-419.929c-41.993 0-76.351-34.909-76.351-77.576v-543.029c0-42.667 34.358-77.577 76.351-77.577h419.929c41.993 0 76.352 34.91 76.352 77.577v543.029c0 42.667-34.359 77.576-76.352 77.576zM776.981 98.91h-419.929v543.029h419.929v-543.029z" />
<glyph unicode="&#xe95f;" glyph-name="edit" d="M599.893 575.147l39.253-39.253-386.56-386.56h-39.253v39.253l386.56 386.56zM753.493 832c-10.667 0-21.76-4.267-29.867-12.373l-78.080-78.080 160-160 78.080 78.080c16.64 16.64 16.64 43.52 0 60.16l-99.84 99.84c-8.533 8.533-19.2 12.373-30.293 12.373zM599.893 695.893l-471.893-471.893v-160h160l471.893 471.893-160 160z" />
<glyph unicode="&#xe960;" glyph-name="filter" d="M426.667 209.067c0-9.425 7.642-17.067 17.067-17.067h136.533c9.425 0 17.067 7.642 17.067 17.067v51.2c0 9.425-7.642 17.067-17.067 17.067h-136.533c-9.425 0-17.067-7.642-17.067-17.067v-51.2zM145.067 704c-9.425 0-17.067-7.641-17.067-17.067v-51.2c0-9.425 7.641-17.067 17.067-17.067h733.867c9.425 0 17.067 7.641 17.067 17.067v51.2c0 9.425-7.642 17.067-17.067 17.067h-733.867zM256 422.4c0-9.425 7.641-17.067 17.067-17.067h477.867c9.425 0 17.067 7.642 17.067 17.067v51.2c0 9.425-7.642 17.067-17.067 17.067h-477.867c-9.425 0-17.067-7.642-17.067-17.067v-51.2z" />
<glyph unicode="&#xe961;" glyph-name="minus" d="M256 473.6c0 9.425 7.641 17.067 17.067 17.067h477.867c9.425 0 17.067-7.642 17.067-17.067v-51.2c0-9.425-7.642-17.067-17.067-17.067h-477.867c-9.425 0-17.067 7.642-17.067 17.067v51.2z" />
<glyph unicode="&#xe962;" glyph-name="search" d="M658.564 359.983h-30.835l-10.927 10.539c38.251 44.497 61.278 102.263 61.278 165.105 0 140.124-113.583 253.707-253.707 253.707s-253.707-113.583-253.707-253.707c0-140.124 113.583-253.707 253.707-253.707 62.842 0 120.608 23.027 165.105 61.278l10.539-10.927v-30.835l195.157-194.769 58.159 58.159-194.769 195.157zM424.373 359.983c-97.189 0-175.643 78.455-175.643 175.644s78.454 175.643 175.643 175.643c97.188 0 175.644-78.454 175.644-175.643s-78.455-175.644-175.644-175.644z" />
<glyph unicode="&#xe963;" glyph-name="trash" d="M810.667 725.332h-597.333c-11.316 0-22.168 4.495-30.17 12.497s-12.497 18.854-12.497 30.17c0 11.316 4.495 22.168 12.497 30.17s18.854 12.497 30.17 12.497h153.173l29.867 30.293c3.987 3.954 8.715 7.083 13.913 9.206s10.765 3.2 16.38 3.167h170.667c5.615 0.032 11.183-1.044 16.38-3.167s9.929-5.252 13.914-9.206l29.867-30.293h153.173c11.315 0 22.17-4.495 30.17-12.497s12.497-18.854 12.497-30.17c0-11.316-4.497-22.168-12.497-30.17s-18.854-12.497-30.17-12.497zM810.667 170.667v469.332c0 11.316-4.497 22.168-12.497 30.17s-18.854 12.497-30.17 12.497c-11.315 0-22.17-4.495-30.17-12.497s-12.497-18.854-12.497-30.17v-469.332c0-11.315-4.497-22.17-12.497-30.17-8-8.004-18.854-12.497-30.17-12.497h-341.333c-11.316 0-22.168 4.493-30.17 12.497-8.001 8-12.497 18.854-12.497 30.17v469.332c0 11.316-4.495 22.168-12.497 30.17s-18.854 12.497-30.17 12.497c-11.316 0-22.168-4.495-30.17-12.497s-12.497-18.854-12.497-30.17v-469.332c0-33.95 13.486-66.505 37.49-90.509s56.562-37.491 90.51-37.491h341.333c33.946 0 66.505 13.487 90.509 37.491s37.491 56.559 37.491 90.509zM469.333 213.333v383.999c0 11.316-4.497 22.168-12.497 30.17s-18.854 12.497-30.17 12.497c-11.316 0-22.168-4.495-30.17-12.497s-12.497-18.854-12.497-30.17v-383.999c0-11.315 4.495-22.17 12.497-30.17 8.002-8.004 18.854-12.497 30.17-12.497s22.17 4.493 30.17 12.497c8 8 12.497 18.854 12.497 30.17zM640 213.333v383.999c0 11.316-4.497 22.168-12.497 30.17s-18.854 12.497-30.17 12.497c-11.315 0-22.17-4.495-30.17-12.497s-12.497-18.854-12.497-30.17v-383.999c0-11.315 4.497-22.17 12.497-30.17 8-8.004 18.854-12.497 30.17-12.497s22.17 4.493 30.17 12.497c8 8 12.497 18.854 12.497 30.17z" />
<glyph unicode="&#xe964;" glyph-name="thin-fingerprint" d="M759.863 769.28c-3.413 0-6.827 0.853-9.813 2.56-81.92 42.24-152.747 60.16-237.653 60.16-84.48 0-164.695-20.053-237.655-60.16-10.24-5.547-23.040-1.707-29.013 8.533-5.547 10.24-1.707 23.467 8.533 29.013 79.36 43.093 166.4 65.28 258.135 65.28 90.88 0 170.24-20.053 257.28-64.853 10.667-5.547 14.507-18.347 8.96-28.587-3.84-7.68-11.093-11.947-18.773-11.947zM149.301 545.28c-4.267 0-8.533 1.28-12.373 3.84-9.813 6.827-11.947 20.053-5.12 29.867 42.24 59.733 96 106.667 160 139.52 133.973 69.12 305.495 69.547 439.895 0.427 64-32.853 117.76-79.36 160-138.667 6.827-9.387 4.693-23.040-5.12-29.867s-23.040-4.693-29.867 5.12c-38.4 53.76-87.040 96-144.64 125.44-122.453 62.72-279.040 62.72-401.069-0.427-58.027-29.867-106.667-72.533-145.067-126.293-3.413-5.973-9.813-8.96-16.64-8.96zM415.968 30.293c-5.547 0-11.093 2.133-14.933 6.4-37.12 37.12-57.173 61.013-85.76 112.64-29.44 52.48-44.8 116.48-44.8 185.173 0 126.72 108.373 229.973 241.495 229.973 133.12 0 241.493-103.253 241.493-229.973 0-11.947-9.387-21.333-21.333-21.333s-21.333 9.387-21.333 21.333c0 103.253-89.173 187.307-198.827 187.307s-198.829-84.053-198.829-187.307c0-61.44 13.653-118.187 39.68-164.267 27.307-49.067 46.080-69.973 78.935-103.253 8.107-8.533 8.107-21.76 0-30.293-4.693-4.267-10.242-6.4-15.789-6.4zM721.89 109.227c-50.773 0-95.573 12.8-132.267 37.973-63.573 43.093-101.547 113.067-101.547 187.307 0 11.947 9.387 21.333 21.333 21.333s21.333-9.387 21.333-21.333c0-60.16 30.72-116.907 82.773-151.893 30.293-20.48 65.707-30.293 108.373-30.293 10.24 0 27.307 1.28 44.373 4.267 11.52 2.133 22.613-5.547 24.747-17.493 2.133-11.52-5.547-22.613-17.493-24.747-24.32-4.693-45.653-5.12-51.627-5.12zM636.13 21.333c-1.707 0-3.84 0.427-5.547 0.853-67.84 18.773-112.213 43.947-158.72 89.6-59.735 59.307-92.589 138.24-92.589 222.72 0 69.12 58.882 125.44 131.415 125.44s131.413-56.32 131.413-125.44c0-45.653 39.68-82.773 88.747-82.773s88.747 37.12 88.747 82.773c0 160.853-138.667 291.413-309.333 291.413-121.175 0-232.109-67.413-282.029-171.947-16.64-34.56-25.173-75.093-25.173-119.467 0-33.28 2.987-85.76 28.587-154.027 4.267-11.093-1.28-23.467-12.373-27.307-11.093-4.267-23.467 1.707-27.307 12.373-20.907 55.893-31.147 111.36-31.147 168.96 0 51.2 9.813 97.707 29.013 138.24 56.747 119.040 182.613 196.267 320.429 196.267 194.133 0 352-149.76 352-334.080 0-69.12-58.88-125.44-131.413-125.44s-131.413 56.32-131.413 125.44c0 45.653-39.68 82.773-88.747 82.773s-88.749-37.12-88.749-82.773c0-72.96 28.162-141.227 79.789-192.427 40.533-40.107 79.36-62.293 139.52-78.933 11.52-2.987 17.92-14.933 14.933-26.027-2.133-9.813-11.093-16.213-20.053-16.213z" />
<glyph unicode="&#xe965;" glyph-name="thin-key" d="M568.32 569.6h449.28v-243.2h-85.333v-170.667h-243.2v170.667h-124.804l-1.732-3.674c-47.586-101.018-150.297-166.993-263.863-166.993-161.159 0-292.267 131.106-292.267 292.267 0 161.159 131.108 292.267 292.267 292.267 113.552 0 215.855-65.964 263.872-167.014l1.737-3.653h4.045zM761.6 234.667v-6.4h98.133v170.667h85.333v98.133h-431.057l-8.346 24.311c-30.771 87.479-114.267 146.355-206.997 146.355-121.295 0-219.733-98.439-219.733-219.733 0-121.293 98.439-219.733 219.733-219.733 92.73 0 176.226 58.876 206.997 146.355l0.017 0.047 8.329 24.265h247.59v-164.267zM298.667 326.4c-66.865 0-121.6 54.733-121.6 121.6s54.735 121.6 121.6 121.6c66.865 0 121.6-54.733 121.6-121.6s-54.735-121.6-121.6-121.6zM298.667 497.067c-27.001 0-49.067-22.067-49.067-49.067s22.065-49.067 49.067-49.067c27.001 0 49.067 22.067 49.067 49.067s-22.065 49.067-49.067 49.067z" />
</font>
</defs>
</svg>
