<svg width="24" height="24" viewBox="0 0 24 24" fill="none" xmlns="http://www.w3.org/2000/svg">
<path d="M16.2479 20.8493L16.2485 20.8493C16.3734 20.8495 16.4967 20.8222 16.6099 20.7693C16.723 20.7164 16.8231 20.6392 16.903 20.5433L16.903 20.5433C16.9746 20.4574 17.0285 20.3582 17.0617 20.2515C17.0949 20.1447 17.1067 20.0324 17.0964 19.9211C17.0861 19.8098 17.054 19.7016 17.0019 19.6027C16.9497 19.5038 16.8786 19.4161 16.7925 19.3448L16.7923 19.3451L16.7847 19.3378L9.20452 12.1078L9.09072 11.9993L9.20452 11.8908L16.7847 4.66076L16.7845 4.6605L16.7924 4.65394C16.966 4.50963 17.0752 4.30226 17.0959 4.07745C17.1166 3.85264 17.0472 3.6288 16.9029 3.45518C16.7586 3.28156 16.5512 3.17237 16.3264 3.15164C16.1031 3.13105 15.8807 3.19944 15.7075 3.34183L7.21085 11.3385L7.21106 11.3387L7.20375 11.3448C7.10618 11.4256 7.02628 11.5261 6.9738 11.6377C6.92202 11.7478 6.89805 11.8707 6.89805 11.9993C6.89805 12.1279 6.92202 12.2508 6.9738 12.3609C7.02628 12.4725 7.10618 12.573 7.20375 12.6538L7.20395 12.6536L7.21085 12.6601L15.7075 20.6567C15.8598 20.7816 16.0509 20.8497 16.2479 20.8493Z" fill="#888F9A" stroke="white" stroke-width="0.3"/>
</svg>
