<svg width="24" height="24" viewBox="0 0 24 24" fill="none" xmlns="http://www.w3.org/2000/svg">
<path d="M4.78947 3.66818H4.63947V3.81818V16.3955H3.15V3.81818C3.15 2.89876 3.89035 2.15 4.78947 2.15H15.3763V3.66818H4.78947ZM18.2105 20.3318H18.3605V20.1818V7.45455V7.30455H18.2105H8.36842H8.21842V7.45455V20.1818V20.3318H8.36842H18.2105ZM8.36842 5.78636H18.2105C19.1097 5.78636 19.85 6.53513 19.85 7.45455V20.1818C19.85 21.1012 19.1097 21.85 18.2105 21.85H8.36842C7.4693 21.85 6.72895 21.1012 6.72895 20.1818V7.45455C6.72895 6.53513 7.4693 5.78636 8.36842 5.78636Z" fill="#888F9A" stroke="white" stroke-width="0.3"/>
</svg>
