<svg width="24" height="24" viewBox="0 0 24 24" fill="none" xmlns="http://www.w3.org/2000/svg">
<path d="M15.81 15.4614L16.3806 16.7837M15.81 15.4614C15.734 15.2872 15.61 15.1382 15.4523 15.0319C15.2947 14.9257 15.11 14.8665 14.92 14.8614C14.7303 14.8564 14.543 14.9054 14.3801 15.0028C14.2172 15.1002 14.0853 15.2419 14 15.4114L16.3806 16.7837M15.81 15.4614L15.6725 15.5214M15.81 15.4614L15.6723 15.5209L15.6724 15.5213C15.6079 15.3732 15.5024 15.2466 15.3685 15.1563C15.2345 15.066 15.0775 15.0157 14.916 15.0114H14.916C14.7547 15.0071 14.5955 15.0487 14.4571 15.1315C14.3186 15.2143 14.2065 15.3348 14.134 15.4789L14.1337 15.4794L12.2348 19.2172M16.3806 16.7837L16.379 16.7844L16.44 16.9214M16.3806 16.7837L16.44 16.9214M15.6725 15.5214L19.8192 6.53855C20.1252 6.67513 20.3853 6.89718 20.5681 7.17802C20.751 7.45893 20.8489 7.78671 20.85 8.12193V15.861C20.8489 16.1962 20.751 16.524 20.5681 16.8049C20.3852 17.0858 20.1251 17.3078 19.819 17.4444C19.819 17.4444 19.819 17.4444 19.819 17.4444C19.819 17.4444 19.8189 17.4444 19.8189 17.4445L17.189 18.6144L17.0523 18.6752L17.1128 18.8121L17.8025 20.3715C17.8026 20.3716 17.8026 20.3717 17.8027 20.3718C17.8591 20.5013 17.8824 20.6428 17.8704 20.7836C17.8584 20.9244 17.8115 21.0601 17.7338 21.1783C17.6562 21.2964 17.5503 21.3933 17.4257 21.4603C17.3012 21.5272 17.1619 21.5619 17.0205 21.5614L17.0085 21.5614L16.9967 21.5633C16.9223 21.575 16.8466 21.5754 16.7721 21.5646L12.7814 20.4173L12.7814 20.4173C12.6613 20.3828 12.5503 20.3223 12.4563 20.24C12.3623 20.1577 12.2875 20.0557 12.2374 19.9413L12.2374 19.9413L12.2358 19.9377C12.1827 19.8247 12.1552 19.7013 12.1552 19.5764C12.1552 19.4523 12.1824 19.3297 12.2348 19.2172M15.6725 15.5214L16.3023 16.9809L16.3624 17.1202L16.501 17.0585L19.061 15.9185L19.15 15.8789V15.7814V8.20145V8.10394L19.0609 8.06436L15.6609 6.55436L15.6606 6.55425C15.5584 6.50909 15.4662 6.44424 15.3891 6.3634C15.312 6.28256 15.2516 6.18731 15.2113 6.08311C15.171 5.9789 15.1517 5.86778 15.1544 5.7561C15.1571 5.64442 15.1818 5.53437 15.2271 5.43225L15.2272 5.43208C15.2724 5.32989 15.3372 5.23761 15.418 5.16051C15.4989 5.08342 15.5941 5.02301 15.6983 4.98275C15.8025 4.94248 15.9137 4.92316 16.0253 4.92588C16.137 4.92859 16.2471 4.9533 16.3492 4.99858L19.8189 6.53844L15.6725 15.5214ZM12.2348 19.2172C12.2351 19.2166 12.2355 19.2159 12.2358 19.2152L12.1 19.1514L12.2337 19.2194L12.2348 19.2172ZM16.44 16.9214L16.5777 16.862L16.577 16.8604M16.44 16.9214L16.577 16.8604M16.577 16.8604L19 15.7814V8.20145L15.6 6.69145C15.4798 6.63833 15.3712 6.56203 15.2805 6.46693C15.1898 6.37182 15.1187 6.25976 15.0714 6.13717C15.024 6.01457 15.0013 5.88384 15.0045 5.75245L16.577 16.8604ZM8.3175 8.4715L8.31738 8.47123L7.67738 7.01123L7.61683 6.87309L7.47903 6.9344L4.93903 8.0644L4.85 8.10401V8.20145V15.7814V15.879L4.93912 15.9185L8.33812 17.4281C8.33831 17.4282 8.3385 17.4283 8.33869 17.4283C8.54327 17.5212 8.70279 17.6912 8.78237 17.9013C8.86203 18.1116 8.85511 18.3449 8.76312 18.5501L8.76252 18.5515C8.69674 18.7022 8.58866 18.8306 8.45137 18.9211C8.31427 19.0115 8.15394 19.0602 7.98974 19.0614C7.86979 19.0608 7.75135 19.0347 7.6422 18.9849L7.64099 18.9844L4.18111 17.4445C3.87497 17.3079 3.6148 17.0858 3.43187 16.8049C3.24899 16.524 3.15112 16.1963 3.15 15.8612V8.1217C3.15112 7.78656 3.24899 7.45887 3.43187 7.17802C3.6148 6.8971 3.87497 6.67501 4.18111 6.53844L4.18111 6.53844L4.18215 6.53797L6.75215 5.36797L6.8868 5.30667L6.82736 5.17119L6.1474 3.62127C6.14739 3.62126 6.14739 3.62124 6.14738 3.62123C6.14737 3.62121 6.14737 3.6212 6.14736 3.62119C6.0824 3.47282 6.06119 3.30899 6.0862 3.14897C6.11123 2.98893 6.18146 2.83936 6.28864 2.7179C6.39582 2.59643 6.53547 2.50812 6.69116 2.46336C6.84684 2.4186 7.01208 2.41927 7.1674 2.46527L7.16822 2.46551L11.1682 3.62551L11.1686 3.62562C11.2887 3.66011 11.3997 3.72064 11.4937 3.80291C11.5877 3.88519 11.6625 3.98718 11.7126 4.10162L11.7126 4.10164L11.7142 4.1052C11.7673 4.21823 11.7948 4.34157 11.7948 4.46645C11.7948 4.59071 11.7676 4.71345 11.715 4.82603L9.86599 8.51405C9.79284 8.6595 9.67945 8.78087 9.53932 8.86375C9.39918 8.94663 9.23819 8.98751 9.07549 8.98154L9.074 8.9815C8.91247 8.97719 8.75551 8.92693 8.62153 8.8366C8.48754 8.74627 8.38208 8.61963 8.3175 8.4715Z" fill="#888F9A" stroke="white" stroke-width="0.3"/>
</svg>
