<svg width="24" height="24" viewBox="0 0 24 24" fill="none" xmlns="http://www.w3.org/2000/svg">
<path d="M4.4 14.85C4.26193 14.85 4.15 14.7381 4.15 14.6V13.4C4.15 13.2619 4.26193 13.15 4.4 13.15H19.6C19.7381 13.15 19.85 13.2619 19.85 13.4V14.6C19.85 14.7381 19.7381 14.85 19.6 14.85H4.4ZM4.4 18.85C4.26193 18.85 4.15 18.7381 4.15 18.6V17.4C4.15 17.2619 4.26193 17.15 4.4 17.15H13.6C13.7381 17.15 13.85 17.2619 13.85 17.4V18.6C13.85 18.7381 13.7381 18.85 13.6 18.85H4.4ZM4.4 10.85C4.26193 10.85 4.15 10.7381 4.15 10.6V9.4C4.15 9.26193 4.26193 9.15 4.4 9.15H19.6C19.7381 9.15 19.85 9.26193 19.85 9.4V10.6C19.85 10.7381 19.7381 10.85 19.6 10.85H4.4ZM4.15 5.4C4.15 5.26193 4.26193 5.15 4.4 5.15H19.6C19.7381 5.15 19.85 5.26193 19.85 5.4V6.6C19.85 6.73807 19.7381 6.85 19.6 6.85H4.4C4.26193 6.85 4.15 6.73807 4.15 6.6V5.4Z" fill="#888F9A" stroke="white" stroke-width="0.3"/>
</svg>
