<svg width="24" height="24" viewBox="0 0 24 24" fill="none" xmlns="http://www.w3.org/2000/svg">
<mask id="path-1-inside-1" fill="white">
<path fill-rule="evenodd" clip-rule="evenodd" d="M11.9998 5C11.4475 5 10.9998 5.44772 10.9998 6V15.3568L7.77 11.8598C7.68605 11.7585 7.58295 11.6748 7.4666 11.6135C7.35026 11.5521 7.22295 11.5143 7.09197 11.5023C6.961 11.4902 6.82893 11.5041 6.70332 11.5431C6.57772 11.5822 6.46105 11.6456 6.36 11.7298C6.24712 11.8238 6.15634 11.9416 6.09412 12.0747C6.0319 12.2077 5.99976 12.3529 6 12.4998C5.99955 12.7335 6.08092 12.9599 6.23 13.1398L11.23 18.6398C11.3238 18.7531 11.4415 18.8473 11.5746 18.9098C11.7077 18.9724 11.8529 18.9998 12 18.9998C12.1471 18.9998 12.2923 18.9724 12.4254 18.9098C12.5585 18.8473 12.6762 18.7531 12.77 18.6398L17.77 13.1398C17.9397 12.9356 18.0214 12.6723 17.997 12.4079C17.9726 12.1435 17.8442 11.8995 17.64 11.7298C17.4358 11.5601 17.1725 11.4784 16.9081 11.5028C16.6437 11.5272 16.3997 11.6556 16.23 11.8598L12.9998 15.3573V6C12.9998 5.44772 12.552 5 11.9998 5Z"/>
</mask>
<path fill-rule="evenodd" clip-rule="evenodd" d="M11.9998 5C11.4475 5 10.9998 5.44772 10.9998 6V15.3568L7.77 11.8598C7.68605 11.7585 7.58295 11.6748 7.4666 11.6135C7.35026 11.5521 7.22295 11.5143 7.09197 11.5023C6.961 11.4902 6.82893 11.5041 6.70332 11.5431C6.57772 11.5822 6.46105 11.6456 6.36 11.7298C6.24712 11.8238 6.15634 11.9416 6.09412 12.0747C6.0319 12.2077 5.99976 12.3529 6 12.4998C5.99955 12.7335 6.08092 12.9599 6.23 13.1398L11.23 18.6398C11.3238 18.7531 11.4415 18.8473 11.5746 18.9098C11.7077 18.9724 11.8529 18.9998 12 18.9998C12.1471 18.9998 12.2923 18.9724 12.4254 18.9098C12.5585 18.8473 12.6762 18.7531 12.77 18.6398L17.77 13.1398C17.9397 12.9356 18.0214 12.6723 17.997 12.4079C17.9726 12.1435 17.8442 11.8995 17.64 11.7298C17.4358 11.5601 17.1725 11.4784 16.9081 11.5028C16.6437 11.5272 16.3997 11.6556 16.23 11.8598L12.9998 15.3573V6C12.9998 5.44772 12.552 5 11.9998 5Z" fill="#888F9A"/>
<path d="M10.9998 15.3568L10.7794 15.5603L11.2998 16.1238V15.3568H10.9998ZM7.77 11.8598L7.53905 12.0513L7.54417 12.0575L7.54962 12.0633L7.77 11.8598ZM7.4666 11.6135L7.60654 11.3481L7.60654 11.3481L7.4666 11.6135ZM7.09197 11.5023L7.11952 11.2035H7.11952L7.09197 11.5023ZM6.36 11.7298L6.552 11.9603L6.55205 11.9603L6.36 11.7298ZM6 12.4998L6.3 12.5004L6.3 12.4993L6 12.4998ZM6.23 13.1398L5.99876 13.3314L6.00802 13.3416L6.23 13.1398ZM11.23 18.6398L11.4612 18.4482L11.452 18.438L11.23 18.6398ZM11.5746 18.9098L11.447 19.1813L11.5746 18.9098ZM12.4254 18.9098L12.2978 18.6383L12.4254 18.9098ZM12.77 18.6398L12.5478 18.4378L12.539 18.4484L12.77 18.6398ZM17.77 13.1398L17.9922 13.3418L18.0007 13.3316L17.77 13.1398ZM17.64 11.7298L17.4482 11.9605L17.4482 11.9605L17.64 11.7298ZM16.23 11.8598L16.4504 12.0634L16.4557 12.0576L16.4607 12.0516L16.23 11.8598ZM12.9998 15.3573H12.6998V16.1243L13.2201 15.5609L12.9998 15.3573ZM11.2998 6C11.2998 5.6134 11.6132 5.3 11.9998 5.3V4.7C11.2818 4.7 10.6998 5.28203 10.6998 6H11.2998ZM11.2998 15.3568V6H10.6998V15.3568H11.2998ZM7.54962 12.0633L10.7794 15.5603L11.2201 15.1533L7.99039 11.6563L7.54962 12.0633ZM7.32667 11.8789C7.40812 11.9218 7.48029 11.9804 7.53905 12.0513L8.00095 11.6683C7.89182 11.5367 7.75779 11.4279 7.60654 11.3481L7.32667 11.8789ZM7.06443 11.801C7.15611 11.8095 7.24523 11.8359 7.32667 11.8789L7.60654 11.3481C7.45529 11.2684 7.28979 11.2192 7.11952 11.2035L7.06443 11.801ZM6.79237 11.8296C6.8803 11.8023 6.97275 11.7925 7.06443 11.801L7.11952 11.2035C6.94925 11.1878 6.77755 11.2059 6.61427 11.2566L6.79237 11.8296ZM6.55205 11.9603C6.62278 11.9013 6.70445 11.8569 6.79237 11.8296L6.61427 11.2566C6.45098 11.3074 6.29932 11.3899 6.16795 11.4993L6.55205 11.9603ZM6.36588 12.2017C6.40944 12.1086 6.47298 12.0261 6.552 11.9603L6.168 11.4993C6.02126 11.6215 5.90324 11.7746 5.82235 11.9476L6.36588 12.2017ZM6.3 12.4993C6.29983 12.3965 6.32233 12.2949 6.36588 12.2017L5.82235 11.9476C5.74147 12.1206 5.69969 12.3093 5.7 12.5003L6.3 12.4993ZM6.461 12.9484C6.35664 12.8225 6.29968 12.6639 6.3 12.5004L5.7 12.4992C5.69941 12.803 5.8052 13.0973 5.999 13.3312L6.461 12.9484ZM11.452 18.438L6.45198 12.938L6.00802 13.3416L11.008 18.8416L11.452 18.438ZM11.7022 18.6383C11.612 18.5959 11.5289 18.5303 11.461 18.4484L10.999 18.8312C11.1188 18.9758 11.271 19.0986 11.447 19.1813L11.7022 18.6383ZM12 18.6998C11.8899 18.6998 11.7894 18.6793 11.7022 18.6383L11.447 19.1813C11.626 19.2655 11.8159 19.2998 12 19.2998V18.6998ZM12.2978 18.6383C12.2106 18.6793 12.1101 18.6998 12 18.6998V19.2998C12.1841 19.2998 12.374 19.2655 12.553 19.1813L12.2978 18.6383ZM12.539 18.4484C12.4711 18.5303 12.388 18.5959 12.2978 18.6383L12.553 19.1813C12.729 19.0986 12.8812 18.9758 13.001 18.8312L12.539 18.4484ZM17.548 12.938L12.548 18.438L12.992 18.8416L17.992 13.3416L17.548 12.938ZM17.6983 12.4354C17.7154 12.6206 17.6582 12.805 17.5393 12.948L18.0007 13.3316C18.2213 13.0662 18.3274 12.724 18.2958 12.3803L17.6983 12.4354ZM17.4482 11.9605C17.5913 12.0794 17.6812 12.2502 17.6983 12.4354L18.2958 12.3803C18.2641 12.0367 18.0972 11.7197 17.8318 11.4991L17.4482 11.9605ZM16.9356 11.8015C17.1208 11.7844 17.3052 11.8416 17.4482 11.9605L17.8318 11.4991C17.5664 11.2785 17.2242 11.1724 16.8805 11.2041L16.9356 11.8015ZM16.4607 12.0516C16.5796 11.9085 16.7504 11.8186 16.9356 11.8015L16.8805 11.2041C16.5369 11.2357 16.2199 11.4026 15.9993 11.668L16.4607 12.0516ZM13.2201 15.5609L16.4504 12.0634L16.0096 11.6563L12.7794 15.1538L13.2201 15.5609ZM12.6998 6V15.3573H13.2998V6H12.6998ZM11.9998 5.3C12.3864 5.3 12.6998 5.6134 12.6998 6H13.2998C13.2998 5.28203 12.7177 4.7 11.9998 4.7V5.3Z" fill="white" mask="url(#path-1-inside-1)"/>
</svg>
