<svg width="24" height="24" viewBox="0 0 24 24" fill="none" xmlns="http://www.w3.org/2000/svg">
<mask id="path-1-inside-1" fill="white">
<path fill-rule="evenodd" clip-rule="evenodd" d="M4.69 6.5502L2.01 3.8702L3.42 2.4502L21.15 20.1902L19.74 21.6002L16.32 18.1802C14.98 18.7102 13.52 19.0002 12 19.0002C7 19.0002 2.73 15.8902 1 11.5002C1.77 9.5302 3.06 7.8302 4.69 6.5502ZM12.12 13.9802L9.51 11.3702C9.51 11.3952 9.5075 11.4152 9.505 11.4352C9.5025 11.4552 9.5 11.4752 9.5 11.5002C9.5 12.8802 10.62 14.0002 12 14.0002C12.04 14.0002 12.08 13.9902 12.12 13.9802ZM7.86 9.7202L6.11 7.97019C4.9 8.89019 3.88 10.0702 3.18 11.5002C4.83 14.8702 8.21 17.0002 12 17.0002C12.95 17.0002 13.87 16.8602 14.75 16.6202L13.77 15.6402C13.23 15.8702 12.63 16.0002 12 16.0002C9.52 16.0002 7.5 13.9802 7.5 11.5002C7.5 10.8702 7.63 10.2702 7.86 9.7202ZM12 6C15.79 6 19.17 8.13 20.82 11.5C20.23 12.72 19.4 13.77 18.41 14.62L19.82 16.03C21.21 14.8 22.31 13.26 23 11.5C21.27 7.11 17 4 12 4C10.73 4 9.50998 4.2 8.35999 4.57L10.01 6.22C10.66 6.09 11.32 6 12 6ZM10.93 7.14L13 9.21C13.57 9.46 14.03 9.92 14.28 10.49L16.35 12.56C16.43 12.22 16.49 11.86 16.49 11.49C16.5 9.01 14.48 7 12 7C11.63 7 11.28 7.05 10.93 7.14Z"/>
</mask>
<path fill-rule="evenodd" clip-rule="evenodd" d="M4.69 6.5502L2.01 3.8702L3.42 2.4502L21.15 20.1902L19.74 21.6002L16.32 18.1802C14.98 18.7102 13.52 19.0002 12 19.0002C7 19.0002 2.73 15.8902 1 11.5002C1.77 9.5302 3.06 7.8302 4.69 6.5502ZM12.12 13.9802L9.51 11.3702C9.51 11.3952 9.5075 11.4152 9.505 11.4352C9.5025 11.4552 9.5 11.4752 9.5 11.5002C9.5 12.8802 10.62 14.0002 12 14.0002C12.04 14.0002 12.08 13.9902 12.12 13.9802ZM7.86 9.7202L6.11 7.97019C4.9 8.89019 3.88 10.0702 3.18 11.5002C4.83 14.8702 8.21 17.0002 12 17.0002C12.95 17.0002 13.87 16.8602 14.75 16.6202L13.77 15.6402C13.23 15.8702 12.63 16.0002 12 16.0002C9.52 16.0002 7.5 13.9802 7.5 11.5002C7.5 10.8702 7.63 10.2702 7.86 9.7202ZM12 6C15.79 6 19.17 8.13 20.82 11.5C20.23 12.72 19.4 13.77 18.41 14.62L19.82 16.03C21.21 14.8 22.31 13.26 23 11.5C21.27 7.11 17 4 12 4C10.73 4 9.50998 4.2 8.35999 4.57L10.01 6.22C10.66 6.09 11.32 6 12 6ZM10.93 7.14L13 9.21C13.57 9.46 14.03 9.92 14.28 10.49L16.35 12.56C16.43 12.22 16.49 11.86 16.49 11.49C16.5 9.01 14.48 7 12 7C11.63 7 11.28 7.05 10.93 7.14Z" fill="#888F9A"/>
<path d="M2.01 3.8702L1.79712 3.65881L1.58648 3.87094L1.79787 4.08233L2.01 3.8702ZM4.69 6.5502L4.87528 6.78614L5.14131 6.57724L4.90213 6.33806L4.69 6.5502ZM3.42 2.4502L3.63219 2.23812L3.41931 2.02512L3.20712 2.23881L3.42 2.4502ZM21.15 20.1902L21.3621 20.4023L21.5742 20.1903L21.3622 19.9781L21.15 20.1902ZM19.74 21.6002L19.5279 21.8123L19.74 22.0245L19.9521 21.8123L19.74 21.6002ZM16.32 18.1802L16.5321 17.9681L16.3928 17.8288L16.2097 17.9012L16.32 18.1802ZM1 11.5002L0.720585 11.391L0.677723 11.5006L0.720891 11.6102L1 11.5002ZM9.51 11.3702L9.72213 11.1581L9.21 10.6459V11.3702H9.51ZM12.12 13.9802L12.1928 14.2712L12.7068 14.1427L12.3321 13.7681L12.12 13.9802ZM9.505 11.4352L9.80268 11.4724L9.80268 11.4724L9.505 11.4352ZM6.11 7.97019L6.32213 7.75806L6.13692 7.57286L5.92843 7.73138L6.11 7.97019ZM7.86 9.7202L8.13677 9.83594L8.21439 9.65033L8.07213 9.50806L7.86 9.7202ZM3.18 11.5002L2.91055 11.3683L2.84598 11.5002L2.91056 11.6321L3.18 11.5002ZM14.75 16.6202L14.8289 16.9096L15.3277 16.7736L14.9621 16.4081L14.75 16.6202ZM13.77 15.6402L13.9821 15.4281L13.8389 15.2848L13.6524 15.3642L13.77 15.6402ZM20.82 11.5L21.0901 11.6306L21.1536 11.4992L21.0894 11.3681L20.82 11.5ZM18.41 14.62L18.2146 14.3924L17.969 14.6032L18.1979 14.8321L18.41 14.62ZM19.82 16.03L19.6079 16.2421L19.8074 16.4417L20.0188 16.2547L19.82 16.03ZM23 11.5L23.2793 11.6095L23.3223 11.4997L23.2791 11.39L23 11.5ZM8.35999 4.57L8.2681 4.28442L7.80056 4.43484L8.14785 4.78213L8.35999 4.57ZM10.01 6.22L9.79785 6.43213L9.91138 6.54566L10.0688 6.51417L10.01 6.22ZM13 9.21L12.7879 9.42213L12.8278 9.46206L12.8795 9.48474L13 9.21ZM10.93 7.14L10.8553 6.84945L10.3461 6.98038L10.7179 7.35213L10.93 7.14ZM14.28 10.49L14.0053 10.6105L14.0279 10.6622L14.0679 10.7021L14.28 10.49ZM16.35 12.56L16.1379 12.7721L16.5187 13.1529L16.642 12.6287L16.35 12.56ZM16.49 11.49L16.19 11.4888V11.49H16.49ZM1.79787 4.08233L4.47787 6.76233L4.90213 6.33806L2.22213 3.65806L1.79787 4.08233ZM3.20712 2.23881L1.79712 3.65881L2.22288 4.08158L3.63288 2.66158L3.20712 2.23881ZM21.3622 19.9781L3.63219 2.23812L3.20781 2.66227L20.9378 20.4023L21.3622 19.9781ZM19.9521 21.8123L21.3621 20.4023L20.9379 19.9781L19.5279 21.3881L19.9521 21.8123ZM16.1079 18.3923L19.5279 21.8123L19.9521 21.3881L16.5321 17.9681L16.1079 18.3923ZM12 19.3002C13.5583 19.3002 15.0557 19.0028 16.4303 18.4592L16.2097 17.9012C14.9043 18.4175 13.4817 18.7002 12 18.7002V19.3002ZM0.720891 11.6102C2.49437 16.1105 6.87218 19.3002 12 19.3002V18.7002C7.12782 18.7002 2.96563 15.6699 1.27911 11.3902L0.720891 11.6102ZM4.50472 6.31425C2.83388 7.62632 1.51067 9.36959 0.720585 11.391L1.27941 11.6094C2.02933 9.6908 3.28612 8.03407 4.87528 6.78614L4.50472 6.31425ZM9.29787 11.5823L11.9079 14.1923L12.3321 13.7681L9.72213 11.1581L9.29787 11.5823ZM9.80268 11.4724C9.80517 11.4525 9.81 11.4158 9.81 11.3702H9.21C9.21 11.3746 9.20982 11.3779 9.20732 11.398L9.80268 11.4724ZM9.8 11.5002C9.8 11.4958 9.80018 11.4925 9.80268 11.4724L9.20732 11.398C9.20483 11.4179 9.2 11.4545 9.2 11.5002H9.8ZM12 13.7002C10.7857 13.7002 9.8 12.7145 9.8 11.5002H9.2C9.2 13.0459 10.4543 14.3002 12 14.3002V13.7002ZM12.0472 13.6892C12.0257 13.6945 12.0144 13.6973 12.0047 13.6991C11.996 13.7007 11.9955 13.7002 12 13.7002V14.3002C12.0834 14.3002 12.1598 14.2795 12.1928 14.2712L12.0472 13.6892ZM5.89787 8.18233L7.64787 9.93233L8.07213 9.50806L6.32213 7.75806L5.89787 8.18233ZM3.44945 11.6321C4.12714 10.2477 5.11549 9.10322 6.29157 8.20901L5.92843 7.73138C4.68451 8.67717 3.63286 9.89272 2.91055 11.3683L3.44945 11.6321ZM12 16.7002C8.32507 16.7002 5.04931 14.6359 3.44944 11.3683L2.91056 11.6321C4.61069 15.1045 8.09493 17.3002 12 17.3002V16.7002ZM14.6711 16.3308C13.8137 16.5646 12.9203 16.7002 12 16.7002V17.3002C12.9797 17.3002 13.9263 17.1558 14.8289 16.9096L14.6711 16.3308ZM13.5579 15.8523L14.5379 16.8323L14.9621 16.4081L13.9821 15.4281L13.5579 15.8523ZM12 16.3002C12.6714 16.3002 13.3114 16.1616 13.8876 15.9162L13.6524 15.3642C13.1486 15.5788 12.5886 15.7002 12 15.7002V16.3002ZM7.2 11.5002C7.2 14.1459 9.35431 16.3002 12 16.3002V15.7002C9.68569 15.7002 7.8 13.8145 7.8 11.5002H7.2ZM7.58323 9.60445C7.33869 10.1892 7.2 10.8284 7.2 11.5002H7.8C7.8 10.912 7.92131 10.3512 8.13677 9.83594L7.58323 9.60445ZM21.0894 11.3681C19.3893 7.8957 15.9051 5.7 12 5.7V6.3C15.6749 6.3 18.9507 8.3643 20.5505 11.6319L21.0894 11.3681ZM18.6054 14.8476C19.6252 13.972 20.4813 12.8894 21.0901 11.6306L20.5499 11.3694C19.9787 12.5506 19.1747 13.568 18.2146 14.3924L18.6054 14.8476ZM20.0321 15.8179L18.6221 14.4079L18.1979 14.8321L19.6079 16.2421L20.0321 15.8179ZM22.7207 11.3905C22.0486 13.1047 20.9769 14.6057 19.6212 15.8053L20.0188 16.2547C21.4431 14.9943 22.5713 13.4153 23.2793 11.6095L22.7207 11.3905ZM12 4.3C16.8722 4.3 21.0344 7.33032 22.7209 11.61L23.2791 11.39C21.5056 6.88969 17.1278 3.7 12 3.7V4.3ZM8.45187 4.85558C9.57275 4.49495 10.7618 4.3 12 4.3V3.7C10.6982 3.7 9.44722 3.90505 8.2681 4.28442L8.45187 4.85558ZM10.2221 6.00787L8.57212 4.35787L8.14785 4.78213L9.79785 6.43213L10.2221 6.00787ZM12 5.7C11.2937 5.7 10.6129 5.79348 9.95115 5.92583L10.0688 6.51417C10.7071 6.38652 11.3462 6.3 12 6.3V5.7ZM13.2121 8.99787L11.1421 6.92787L10.7179 7.35213L12.7879 9.42213L13.2121 8.99787ZM14.5547 10.3695C14.2745 9.73056 13.7594 9.2155 13.1205 8.93526L12.8795 9.48474C13.3805 9.7045 13.7855 10.1094 14.0053 10.6105L14.5547 10.3695ZM16.5621 12.3479L14.4921 10.2779L14.0679 10.7021L16.1379 12.7721L16.5621 12.3479ZM16.19 11.49C16.19 11.8284 16.135 12.1637 16.058 12.4913L16.642 12.6287C16.7249 12.2763 16.79 11.8916 16.79 11.49H16.19ZM12 7.3C14.3154 7.3 16.1993 9.17652 16.19 11.4888L16.79 11.4912C16.8007 8.84348 14.6446 6.7 12 6.7V7.3ZM11.0047 7.43055C11.3332 7.34608 11.658 7.3 12 7.3V6.7C11.602 6.7 11.2268 6.75392 10.8553 6.84945L11.0047 7.43055Z" fill="white" mask="url(#path-1-inside-1)"/>
</svg>
