<svg width="24" height="24" viewBox="0 0 24 24" fill="none" xmlns="http://www.w3.org/2000/svg">
<path d="M18.92 8.15H19.1808L19.0497 7.92457C18.0719 6.24403 16.5134 4.94002 14.6386 4.29809L14.2756 4.1738L14.458 4.51133C15.0518 5.60981 15.5075 6.79824 15.8247 8.0372L15.8536 8.15H15.97H18.92ZM12.1234 3.95467L12 3.77631L11.8766 3.95467C11.038 5.16722 10.381 6.51138 9.94635 7.95681L9.88826 8.15H10.09H13.91H14.1117L14.0536 7.95681C13.619 6.51138 12.962 5.16722 12.1234 3.95467ZM4.11448 14.0364L4.14288 14.15H4.26H7.64H7.80928L7.78891 13.982C7.70924 13.3247 7.65 12.6714 7.65 12C7.65 11.3286 7.70924 10.6753 7.78891 10.018L7.80928 9.85H7.64H4.26H4.14288L4.11448 9.96362C3.95209 10.6132 3.85 11.2955 3.85 12C3.85 12.7045 3.95209 13.3868 4.11448 14.0364ZM5.08 15.85H4.81998L4.95015 16.0751C5.92816 17.7662 7.48691 19.0601 9.36141 19.7019L9.7244 19.8262L9.54196 19.4887C8.94818 18.3902 8.49249 17.2018 8.17531 15.9628L8.14644 15.85H8.03H5.08ZM8.03 8.15H8.14644L8.17531 8.0372C8.49249 6.79824 8.94818 5.60981 9.54196 4.51133L9.7244 4.1738L9.36141 4.29809C7.48691 4.9399 5.92816 6.23377 4.95015 7.92491L4.81998 8.15H5.08H8.03ZM11.8766 20.0453L12 20.2237L12.1234 20.0453C12.962 18.8328 13.619 17.4886 14.0536 16.0432L14.1117 15.85H13.91H10.09H9.88826L9.94635 16.0432C10.381 17.4886 11.038 18.8328 11.8766 20.0453ZM14.34 14.15H14.4709L14.4886 14.0203C14.579 13.3577 14.65 12.69 14.65 12C14.65 11.3101 14.579 10.6324 14.4886 9.97943L14.4707 9.85H14.34H9.66H9.52934L9.51142 9.97943C9.421 10.6324 9.35 11.3101 9.35 12C9.35 12.69 9.42103 13.3577 9.51138 14.0203L9.52907 14.15H9.66H14.34ZM14.458 19.4887L14.2756 19.8262L14.6386 19.7019C16.5134 19.06 18.0719 17.756 19.0497 16.0754L19.1808 15.85H18.92H15.97H15.8536L15.8247 15.9628C15.5075 17.2018 15.0518 18.3902 14.458 19.4887ZM16.2111 13.982L16.1907 14.15H16.36H19.74H19.8571L19.8855 14.0364C20.0479 13.3868 20.15 12.7045 20.15 12C20.15 11.2955 20.0479 10.6132 19.8855 9.96362L19.8571 9.85H19.74H16.36H16.1907L16.2111 10.018C16.2908 10.6753 16.35 11.3286 16.35 12C16.35 12.6714 16.2908 13.3247 16.2111 13.982ZM2.15 12C2.15 6.56265 6.55304 2.15 11.99 2.15C17.4373 2.15 21.85 6.56294 21.85 12C21.85 17.4371 17.4373 21.85 11.99 21.85C6.55304 21.85 2.15 17.4374 2.15 12Z" fill="#888F9A" stroke="white" stroke-width="0.3"/>
</svg>
