<svg width="24" height="24" viewBox="0 0 24 24" fill="none" xmlns="http://www.w3.org/2000/svg">
<mask id="path-1-inside-1" fill="white">
<path fill-rule="evenodd" clip-rule="evenodd" d="M16 11.5C16 12.325 16.675 13 17.5 13C18.325 13 19 12.325 19 11.5C19 10.675 18.325 10 17.5 10C16.675 10 16 10.675 16 11.5ZM13.5 11.5C13.5 10.675 12.825 10 12 10C11.175 10 10.5 10.675 10.5 11.5C10.5 12.325 11.175 13 12 13C12.825 13 13.5 12.325 13.5 11.5ZM6.5 10C7.325 10 8 10.675 8 11.5C8 12.325 7.325 13 6.5 13C5.675 13 5 12.325 5 11.5C5 10.675 5.675 10 6.5 10Z"/>
</mask>
<path fill-rule="evenodd" clip-rule="evenodd" d="M16 11.5C16 12.325 16.675 13 17.5 13C18.325 13 19 12.325 19 11.5C19 10.675 18.325 10 17.5 10C16.675 10 16 10.675 16 11.5ZM13.5 11.5C13.5 10.675 12.825 10 12 10C11.175 10 10.5 10.675 10.5 11.5C10.5 12.325 11.175 13 12 13C12.825 13 13.5 12.325 13.5 11.5ZM6.5 10C7.325 10 8 10.675 8 11.5C8 12.325 7.325 13 6.5 13C5.675 13 5 12.325 5 11.5C5 10.675 5.675 10 6.5 10Z" fill="#888F9A"/>
<path d="M17.5 12.7C16.8407 12.7 16.3 12.1593 16.3 11.5H15.7C15.7 12.4907 16.5093 13.3 17.5 13.3V12.7ZM18.7 11.5C18.7 12.1593 18.1593 12.7 17.5 12.7V13.3C18.4907 13.3 19.3 12.4907 19.3 11.5H18.7ZM17.5 10.3C18.1593 10.3 18.7 10.8407 18.7 11.5H19.3C19.3 10.5093 18.4907 9.7 17.5 9.7V10.3ZM16.3 11.5C16.3 10.8407 16.8407 10.3 17.5 10.3V9.7C16.5093 9.7 15.7 10.5093 15.7 11.5H16.3ZM12 10.3C12.6593 10.3 13.2 10.8407 13.2 11.5L13.8 11.5C13.8 10.5093 12.9907 9.7 12 9.7V10.3ZM10.8 11.5C10.8 10.8407 11.3407 10.3 12 10.3V9.7C11.0093 9.7 10.2 10.5093 10.2 11.5H10.8ZM12 12.7C11.3407 12.7 10.8 12.1593 10.8 11.5H10.2C10.2 12.4907 11.0093 13.3 12 13.3V12.7ZM13.2 11.5C13.2 12.1593 12.6593 12.7 12 12.7V13.3C12.9907 13.3 13.8 12.4907 13.8 11.5L13.2 11.5ZM8.3 11.5C8.3 10.5093 7.49069 9.7 6.5 9.7V10.3C7.15931 10.3 7.7 10.8407 7.7 11.5H8.3ZM6.5 13.3C7.49069 13.3 8.3 12.4907 8.3 11.5H7.7C7.7 12.1593 7.15931 12.7 6.5 12.7V13.3ZM4.7 11.5C4.7 12.4907 5.50931 13.3 6.5 13.3V12.7C5.84069 12.7 5.3 12.1593 5.3 11.5L4.7 11.5ZM6.5 9.7C5.50931 9.7 4.7 10.5093 4.7 11.5L5.3 11.5C5.3 10.8407 5.84069 10.3 6.5 10.3V9.7Z" fill="white" mask="url(#path-1-inside-1)"/>
</svg>
