<svg width="24" height="24" viewBox="0 0 24 24" fill="none" xmlns="http://www.w3.org/2000/svg">
<path d="M11.85 7V7.15H12H21.85V20.85H2.15V3.15H11.85V7ZM6 19.15H6.15V19V17V16.85H6H4H3.85V17V19V19.15H4H6ZM6 15.15H6.15V15V13V12.85H6H4H3.85V13V15V15.15H4H6ZM6 11.15H6.15V11V9V8.85H6H4H3.85V9V11V11.15H4H6ZM6 7.15H6.15V7V5V4.85H6H4H3.85V5V7V7.15H4H6ZM10 19.15H10.15V19V17V16.85H10H8H7.85V17V19V19.15H8H10ZM10 15.15H10.15V15V13V12.85H10H8H7.85V13V15V15.15H8H10ZM10 11.15H10.15V11V9V8.85H10H8H7.85V9V11V11.15H8H10ZM10 7.15H10.15V7V5V4.85H10H8H7.85V5V7V7.15H8H10ZM20 19.15H20.15V19V9V8.85H20H12H11.85V9V11V11.15H12H13.85V12.85H12H11.85V13V15V15.15H12H13.85V16.85H12H11.85V17V19V19.15H12H20ZM16.15 12.85V11.15H17.85V12.85H16.15ZM16.15 16.85V15.15H17.85V16.85H16.15Z" fill="#888F9A" stroke="white" stroke-width="0.3"/>
</svg>
