<svg width="24" height="24" viewBox="0 0 24 24" fill="none" xmlns="http://www.w3.org/2000/svg">
<path d="M6.22504 16.425L6.32088 16.471L6.39607 16.3958L12.8961 9.89583L12.8965 9.8954C12.9755 9.81573 13.0695 9.75249 13.1731 9.70934C13.2767 9.66619 13.3878 9.64397 13.5 9.64397C13.6122 9.64397 13.7233 9.66619 13.8269 9.70934C13.9305 9.75249 14.0245 9.81573 14.1035 9.8954L14.1039 9.89583L15.6039 11.3958C15.7641 11.556 15.8541 11.7732 15.8541 11.9998C15.8541 12.2263 15.7641 12.4435 15.6039 12.6037C15.4438 12.7639 15.2265 12.8539 15 12.8539C14.7737 12.8539 14.5566 12.764 14.3965 12.6041C14.3963 12.604 14.3962 12.6038 14.3961 12.6037L13.6067 11.8044L13.5007 11.697L13.3939 11.8037L12.3039 12.8937L12.1961 13.0016L12.3057 13.1076L12.6044 13.3963C12.6046 13.3965 12.6048 13.3967 12.605 13.3969C12.6844 13.4758 12.7474 13.5696 12.7904 13.6729C12.8336 13.7765 12.8558 13.8876 12.8558 13.9998C12.8558 14.112 12.8336 14.2231 12.7904 14.3267C12.7473 14.4302 12.684 14.5242 12.6044 14.6033L12.6035 14.6041C12.5245 14.6838 12.4305 14.747 12.3269 14.7902C12.2233 14.8333 12.1122 14.8556 12 14.8556C11.8878 14.8556 11.7767 14.8333 11.6731 14.7902C11.5698 14.7472 11.476 14.6842 11.3972 14.6048C11.3969 14.6046 11.3967 14.6044 11.3965 14.6041L11.1078 14.3055L11.0017 14.1957L10.8938 14.3039L7.60377 17.6039L7.52882 17.679L7.5748 17.7747C7.75829 18.1566 7.85241 18.5753 7.85 18.9989V18.9998C7.85 19.5634 7.68285 20.1145 7.36969 20.5831C7.05653 21.0518 6.61142 21.4171 6.09065 21.6328C5.56988 21.8485 4.99684 21.905 4.44399 21.795C3.89115 21.685 3.38333 21.4136 2.98475 21.015C2.58617 20.6164 2.31473 20.1086 2.20476 19.5558C2.0948 19.0029 2.15123 18.4299 2.36694 17.9091C2.58265 17.3883 2.94795 16.9432 3.41663 16.6301C3.88531 16.3169 4.43632 16.1498 5 16.1498L5.00085 16.1498C5.42452 16.1474 5.84316 16.2415 6.22504 16.425ZM18.2054 19.7318C16.6482 20.8184 15.0628 21.4946 14.5 21.72V21.7076L14.3 21.7783C14.1066 21.8467 13.8957 21.847 13.7021 21.7791C12.2038 21.1947 10.7845 20.425 9.47741 19.4879L9.47752 19.4877L9.47097 19.4835C9.37325 19.4208 9.28941 19.3388 9.2246 19.2425C9.15979 19.1462 9.1154 19.0377 9.09415 18.9235C9.07291 18.8094 9.07526 18.6922 9.10107 18.579C9.12688 18.4658 9.17559 18.3591 9.24421 18.2655C9.31283 18.1719 9.3999 18.0933 9.50006 18.0346C9.60021 17.9759 9.71132 17.9384 9.82654 17.9243C9.94176 17.9102 10.0586 17.9198 10.17 17.9526C10.2813 17.9854 10.3848 18.0407 10.474 18.115L10.4737 18.1153L10.4824 18.1216C11.56 18.8961 12.72 19.5488 13.9413 20.0678L13.9983 20.092L14.0557 20.069C15.0649 19.6654 16.5786 18.9063 17.8431 17.9062C19.0998 16.912 20.15 15.6481 20.15 14.2298V6.80977V6.71285L20.0616 6.67302L14.4716 4.15302L14.4715 4.15295C14.3232 4.08631 14.1625 4.05185 14 4.05185C13.8375 4.05185 13.6768 4.08631 13.5285 4.15295L13.5282 4.15308L8.5285 6.41295C8.52846 6.41297 8.52843 6.41299 8.52839 6.41301C8.32667 6.50371 8.15539 6.65065 8.03506 6.83624C7.91472 7.02185 7.85046 7.23824 7.85 7.45945V7.45977V12.9198C7.85 13.1452 7.76045 13.3614 7.60104 13.5208C7.44164 13.6802 7.22543 13.7698 7 13.7698C6.77457 13.7698 6.55837 13.6802 6.39896 13.5208C6.23955 13.3614 6.15 13.1452 6.15 12.9198V7.45985C6.15032 6.91267 6.30815 6.37714 6.60464 5.91724C6.90113 5.45735 7.32375 5.09252 7.822 4.86635L7.82201 4.86635L12.8208 2.5969C12.821 2.59681 12.8212 2.59672 12.8214 2.59663C13.1926 2.43221 13.594 2.34727 14 2.34727C14.406 2.34727 14.8074 2.43221 15.1786 2.59662C15.1788 2.59672 15.179 2.59681 15.1792 2.5969L20.7678 5.13624C20.7678 5.13625 20.7678 5.13626 20.7678 5.13628C21.0892 5.28289 21.3619 5.51845 21.5537 5.81512C21.7454 6.1117 21.8482 6.45696 21.85 6.8101C21.85 6.81023 21.85 6.81036 21.85 6.81049L21.85 14.2298C21.85 16.5712 20.0716 18.4295 18.2054 19.7318ZM5.95619 19.6387C6.08255 19.4496 6.15 19.2272 6.15 18.9998C6.15 18.6948 6.02884 18.4023 5.81317 18.1866C5.59751 17.9709 5.305 17.8498 5 17.8498C4.77255 17.8498 4.55021 17.9172 4.3611 18.0436C4.17198 18.1699 4.02458 18.3495 3.93754 18.5597C3.8505 18.7698 3.82773 19.001 3.8721 19.2241C3.91647 19.4472 4.026 19.6521 4.18683 19.8129C4.34766 19.9738 4.55257 20.0833 4.77565 20.1277C4.99873 20.172 5.22995 20.1493 5.44009 20.0622C5.65022 19.9752 5.82983 19.8278 5.95619 19.6387Z" fill="#888F9A" stroke="white" stroke-width="0.3"/>
</svg>
