<svg width="24" height="24" viewBox="0 0 24 24" fill="none" xmlns="http://www.w3.org/2000/svg">
<path d="M14.6083 14.1709L14.6519 14.2129H14.7124H15.3729L19.788 18.6368L18.6368 19.788L14.2129 15.3729V14.7124V14.6519L14.1709 14.6083L13.9239 14.3521L13.8255 14.2502L13.7181 14.3425C12.7014 15.2166 11.3818 15.7425 9.94625 15.7425C6.74494 15.7425 4.15 13.1476 4.15 9.94625C4.15 6.74494 6.74494 4.15 9.94625 4.15C13.1476 4.15 15.7425 6.74494 15.7425 9.94625C15.7425 11.3818 15.2166 12.7014 14.3425 13.7181L14.2502 13.8255L14.3521 13.9239L14.6083 14.1709ZM5.67962 9.94625C5.67962 12.307 7.58554 14.2129 9.94625 14.2129C12.307 14.2129 14.2129 12.307 14.2129 9.94625C14.2129 7.58554 12.307 5.67962 9.94625 5.67962C7.58554 5.67962 5.67962 7.58554 5.67962 9.94625Z" fill="#888F9A" stroke="white" stroke-width="0.3"/>
</svg>
