<svg width="24" height="24" viewBox="0 0 24 24" fill="none" xmlns="http://www.w3.org/2000/svg">
<mask id="path-1-inside-1" fill="white">
<path fill-rule="evenodd" clip-rule="evenodd" d="M10.2377 3.70593C9.51936 3.70593 8.93702 4.28827 8.93702 5.00662C8.93702 5.72496 9.51936 6.3073 10.2377 6.3073C10.9561 6.3073 11.5384 5.72496 11.5384 5.00662C11.5384 4.28827 10.9561 3.70593 10.2377 3.70593ZM7.20277 5.00662C7.20277 3.33047 8.56156 1.97168 10.2377 1.97168C11.9139 1.97168 13.2726 3.33047 13.2726 5.00662C13.2726 6.68276 11.9139 8.04155 10.2377 8.04155C8.56156 8.04155 7.20277 6.68276 7.20277 5.00662ZM17.1747 8.90884C16.4563 8.90884 15.874 9.49117 15.874 10.2095C15.874 10.9279 16.4563 11.5102 17.1747 11.5102C17.893 11.5102 18.4754 10.9279 18.4754 10.2095C18.4754 9.49117 17.893 8.90884 17.1747 8.90884ZM14.1398 10.2095C14.1398 8.53337 15.4985 7.17459 17.1747 7.17459C18.8508 7.17459 20.2096 8.53337 20.2096 10.2095C20.2096 11.8857 18.8508 13.2445 17.1747 13.2445C15.4985 13.2445 14.1398 11.8857 14.1398 10.2095ZM3.73425 11.51H2V18.9829L8.38965 22.1777C9.26092 22.6134 10.2762 22.6632 11.1866 22.3128L22 18.1538L21.9403 17.5008L21.9401 17.4996L21.94 17.4984L21.9398 17.4958L21.9392 17.49L21.9377 17.4765C21.9372 17.4718 21.9366 17.4667 21.9359 17.4613C21.9351 17.4551 21.9343 17.4485 21.9333 17.4415C21.9296 17.4147 21.9243 17.3812 21.9167 17.3417C21.9016 17.2631 21.8772 17.1598 21.8381 17.0399C21.7603 16.8013 21.6206 16.487 21.3706 16.1728C20.8428 15.5095 19.9301 14.9785 18.4754 14.9785H14.14C13.349 13.9254 12.0896 13.2442 10.6712 13.2442H8.47906C7.83696 12.5597 6.9429 12.152 6.1643 11.9087C5.23269 11.6175 4.29858 11.51 3.73425 11.51ZM18.4754 16.7127C19.2566 16.7127 19.6627 16.9229 19.8786 17.1116L10.5635 20.6944C10.109 20.8693 9.6015 20.8447 9.16523 20.6266L3.73425 17.9111V13.2442C4.12809 13.2442 4.88748 13.3266 5.64698 13.564C6.42843 13.8082 7.04993 14.1666 7.35962 14.6088L7.61854 14.9785H10.6712C11.8038 14.9785 12.7674 15.7024 13.1246 16.7127H8.06987V18.447H15.0069V17.5799C15.0069 17.2829 14.977 16.9929 14.9201 16.7127H18.4754Z"/>
</mask>
<path fill-rule="evenodd" clip-rule="evenodd" d="M10.2377 3.70593C9.51936 3.70593 8.93702 4.28827 8.93702 5.00662C8.93702 5.72496 9.51936 6.3073 10.2377 6.3073C10.9561 6.3073 11.5384 5.72496 11.5384 5.00662C11.5384 4.28827 10.9561 3.70593 10.2377 3.70593ZM7.20277 5.00662C7.20277 3.33047 8.56156 1.97168 10.2377 1.97168C11.9139 1.97168 13.2726 3.33047 13.2726 5.00662C13.2726 6.68276 11.9139 8.04155 10.2377 8.04155C8.56156 8.04155 7.20277 6.68276 7.20277 5.00662ZM17.1747 8.90884C16.4563 8.90884 15.874 9.49117 15.874 10.2095C15.874 10.9279 16.4563 11.5102 17.1747 11.5102C17.893 11.5102 18.4754 10.9279 18.4754 10.2095C18.4754 9.49117 17.893 8.90884 17.1747 8.90884ZM14.1398 10.2095C14.1398 8.53337 15.4985 7.17459 17.1747 7.17459C18.8508 7.17459 20.2096 8.53337 20.2096 10.2095C20.2096 11.8857 18.8508 13.2445 17.1747 13.2445C15.4985 13.2445 14.1398 11.8857 14.1398 10.2095ZM3.73425 11.51H2V18.9829L8.38965 22.1777C9.26092 22.6134 10.2762 22.6632 11.1866 22.3128L22 18.1538L21.9403 17.5008L21.9401 17.4996L21.94 17.4984L21.9398 17.4958L21.9392 17.49L21.9377 17.4765C21.9372 17.4718 21.9366 17.4667 21.9359 17.4613C21.9351 17.4551 21.9343 17.4485 21.9333 17.4415C21.9296 17.4147 21.9243 17.3812 21.9167 17.3417C21.9016 17.2631 21.8772 17.1598 21.8381 17.0399C21.7603 16.8013 21.6206 16.487 21.3706 16.1728C20.8428 15.5095 19.9301 14.9785 18.4754 14.9785H14.14C13.349 13.9254 12.0896 13.2442 10.6712 13.2442H8.47906C7.83696 12.5597 6.9429 12.152 6.1643 11.9087C5.23269 11.6175 4.29858 11.51 3.73425 11.51ZM18.4754 16.7127C19.2566 16.7127 19.6627 16.9229 19.8786 17.1116L10.5635 20.6944C10.109 20.8693 9.6015 20.8447 9.16523 20.6266L3.73425 17.9111V13.2442C4.12809 13.2442 4.88748 13.3266 5.64698 13.564C6.42843 13.8082 7.04993 14.1666 7.35962 14.6088L7.61854 14.9785H10.6712C11.8038 14.9785 12.7674 15.7024 13.1246 16.7127H8.06987V18.447H15.0069V17.5799C15.0069 17.2829 14.977 16.9929 14.9201 16.7127H18.4754Z" fill="#888F9A"/>
<path d="M2 11.51V11.21H1.7V11.51H2ZM2 18.9829H1.7V19.1683L1.86584 19.2512L2 18.9829ZM8.38965 22.1777L8.25549 22.446H8.25549L8.38965 22.1777ZM11.1866 22.3128L11.0789 22.0328L11.0788 22.0328L11.1866 22.3128ZM22 18.1538L22.1077 18.4338L22.3194 18.3524L22.2988 18.1265L22 18.1538ZM21.9403 17.5008L22.239 17.4735L22.239 17.4733L21.9403 17.5008ZM21.9401 17.4996L22.2389 17.4721L22.2388 17.4717L21.9401 17.4996ZM21.94 17.4984L22.2387 17.4705L22.2386 17.4697L21.94 17.4984ZM21.9398 17.4958L22.2384 17.4671L22.2383 17.466L21.9398 17.4958ZM21.9392 17.49L22.2377 17.4602L22.2374 17.4576L21.9392 17.49ZM21.9377 17.4765L22.236 17.4441L22.2358 17.4425L21.9377 17.4765ZM21.9359 17.4613L22.2336 17.4239L22.2336 17.4239L21.9359 17.4613ZM21.9333 17.4415L22.2305 17.4003V17.4003L21.9333 17.4415ZM21.9167 17.3417L21.6221 17.3983V17.3983L21.9167 17.3417ZM21.8381 17.0399L22.1233 16.9469V16.9469L21.8381 17.0399ZM21.3706 16.1728L21.6053 15.986V15.986L21.3706 16.1728ZM14.14 14.9785L13.9001 15.1587L13.9901 15.2785H14.14V14.9785ZM8.47906 13.2442L8.26026 13.4495L8.34915 13.5442H8.47906V13.2442ZM6.1643 11.9087L6.07481 12.195H6.07481L6.1643 11.9087ZM19.8786 17.1116L19.9863 17.3916L20.4506 17.2131L20.0761 16.8857L19.8786 17.1116ZM10.5635 20.6944L10.4558 20.4144L10.4557 20.4144L10.5635 20.6944ZM9.16523 20.6266L9.2994 20.3582H9.2994L9.16523 20.6266ZM3.73425 17.9111H3.43425V18.0965L3.60008 18.1794L3.73425 17.9111ZM3.73425 13.2442V12.9442H3.43425V13.2442H3.73425ZM5.64698 13.564L5.55749 13.8503H5.55749L5.64698 13.564ZM7.35962 14.6088L7.1139 14.7809L7.35962 14.6088ZM7.61854 14.9785L7.37281 15.1506L7.46239 15.2785H7.61854V14.9785ZM13.1246 16.7127V17.0127H13.5488L13.4074 16.6127L13.1246 16.7127ZM8.06987 16.7127V16.4127H7.76987V16.7127H8.06987ZM8.06987 18.447H7.76987V18.747H8.06987V18.447ZM15.0069 18.447V18.747H15.3069V18.447H15.0069ZM14.9201 16.7127V16.4127H14.5531L14.6261 16.7724L14.9201 16.7127ZM9.23702 5.00662C9.23702 4.45395 9.68504 4.00593 10.2377 4.00593V3.40593C9.35367 3.40593 8.63702 4.12258 8.63702 5.00662H9.23702ZM10.2377 6.0073C9.68504 6.0073 9.23702 5.55928 9.23702 5.00662H8.63702C8.63702 5.89065 9.35367 6.6073 10.2377 6.6073V6.0073ZM11.2384 5.00662C11.2384 5.55928 10.7904 6.0073 10.2377 6.0073V6.6073C11.1217 6.6073 11.8384 5.89065 11.8384 5.00662H11.2384ZM10.2377 4.00593C10.7904 4.00593 11.2384 4.45395 11.2384 5.00662H11.8384C11.8384 4.12258 11.1217 3.40593 10.2377 3.40593V4.00593ZM10.2377 1.67168C8.39587 1.67168 6.90277 3.16478 6.90277 5.00662H7.50277C7.50277 3.49615 8.72724 2.27168 10.2377 2.27168V1.67168ZM13.5726 5.00662C13.5726 3.16478 12.0795 1.67168 10.2377 1.67168V2.27168C11.7482 2.27168 12.9726 3.49615 12.9726 5.00662H13.5726ZM10.2377 8.34155C12.0795 8.34155 13.5726 6.84845 13.5726 5.00662H12.9726C12.9726 6.51708 11.7482 7.74155 10.2377 7.74155V8.34155ZM6.90277 5.00662C6.90277 6.84845 8.39587 8.34155 10.2377 8.34155V7.74155C8.72724 7.74155 7.50277 6.51708 7.50277 5.00662H6.90277ZM16.174 10.2095C16.174 9.65686 16.622 9.20884 17.1747 9.20884V8.60884C16.2907 8.60884 15.574 9.32549 15.574 10.2095H16.174ZM17.1747 11.2102C16.622 11.2102 16.174 10.7622 16.174 10.2095H15.574C15.574 11.0936 16.2907 11.8102 17.1747 11.8102V11.2102ZM18.1754 10.2095C18.1754 10.7622 17.7274 11.2102 17.1747 11.2102V11.8102C18.0587 11.8102 18.7754 11.0936 18.7754 10.2095H18.1754ZM17.1747 9.20884C17.7274 9.20884 18.1754 9.65686 18.1754 10.2095H18.7754C18.7754 9.32549 18.0587 8.60884 17.1747 8.60884V9.20884ZM17.1747 6.87459C15.3329 6.87459 13.8398 8.36769 13.8398 10.2095H14.4398C14.4398 8.69906 15.6642 7.47459 17.1747 7.47459V6.87459ZM20.5096 10.2095C20.5096 8.36769 19.0165 6.87459 17.1747 6.87459V7.47459C18.6852 7.47459 19.9096 8.69906 19.9096 10.2095H20.5096ZM17.1747 13.5445C19.0165 13.5445 20.5096 12.0514 20.5096 10.2095H19.9096C19.9096 11.72 18.6852 12.9445 17.1747 12.9445V13.5445ZM13.8398 10.2095C13.8398 12.0514 15.3329 13.5445 17.1747 13.5445V12.9445C15.6642 12.9445 14.4398 11.72 14.4398 10.2095H13.8398ZM2 11.81H3.73425V11.21H2V11.81ZM2.3 18.9829V11.51H1.7V18.9829H2.3ZM8.52382 21.9094L2.13416 18.7146L1.86584 19.2512L8.25549 22.446L8.52382 21.9094ZM11.0788 22.0328C10.2473 22.3529 9.31981 22.3074 8.52382 21.9094L8.25549 22.446C9.20204 22.9193 10.3052 22.9735 11.2943 22.5928L11.0788 22.0328ZM21.8923 17.8738L11.0789 22.0328L11.2943 22.5928L22.1077 18.4338L21.8923 17.8738ZM21.6415 17.5282L21.7012 18.1811L22.2988 18.1265L22.239 17.4735L21.6415 17.5282ZM21.6414 17.5272L21.6415 17.5284L22.239 17.4733L22.2389 17.4721L21.6414 17.5272ZM21.6413 17.5263L21.6414 17.5276L22.2388 17.4717L22.2387 17.4705L21.6413 17.5263ZM21.6412 17.5245L21.6414 17.5271L22.2386 17.4697L22.2384 17.4671L21.6412 17.5245ZM21.6407 17.5198L21.6413 17.5256L22.2383 17.466L22.2377 17.4602L21.6407 17.5198ZM21.6395 17.5089L21.641 17.5224L22.2374 17.4576L22.236 17.4441L21.6395 17.5089ZM21.6382 17.4986C21.6388 17.503 21.6393 17.507 21.6397 17.5105L22.2358 17.4425C22.2351 17.4366 22.2344 17.4305 22.2336 17.4239L21.6382 17.4986ZM21.6361 17.4826C21.6369 17.4884 21.6376 17.4937 21.6382 17.4986L22.2336 17.4239C22.2326 17.4165 22.2316 17.4087 22.2305 17.4003L21.6361 17.4826ZM21.6221 17.3983C21.6286 17.4323 21.6331 17.4607 21.6361 17.4826L22.2305 17.4003C22.2261 17.3687 22.2199 17.33 22.2113 17.2851L21.6221 17.3983ZM21.5529 17.133C21.5877 17.2395 21.6091 17.3305 21.6221 17.3983L22.2113 17.2852C22.1941 17.1958 22.1668 17.0801 22.1233 16.9469L21.5529 17.133ZM21.1358 16.3596C21.359 16.6401 21.4837 16.9206 21.5529 17.133L22.1233 16.9469C22.0369 16.6819 21.8821 16.3339 21.6053 15.986L21.1358 16.3596ZM18.4754 15.2785C19.8496 15.2785 20.6714 15.776 21.1358 16.3596L21.6053 15.986C21.0142 15.2431 20.0107 14.6785 18.4754 14.6785V15.2785ZM14.14 15.2785H18.4754V14.6785H14.14V15.2785ZM10.6712 13.5442C11.9913 13.5442 13.1633 14.1778 13.9001 15.1587L14.3798 14.7983C13.5346 13.6731 12.188 12.9442 10.6712 12.9442V13.5442ZM8.47906 13.5442H10.6712V12.9442H8.47906V13.5442ZM6.07481 12.195C6.83161 12.4315 7.66911 12.8193 8.26026 13.4495L8.69786 13.039C8.0048 12.3002 7.0542 11.8725 6.25378 11.6223L6.07481 12.195ZM3.73425 11.81C4.26909 11.81 5.17297 11.9132 6.07481 12.195L6.25379 11.6223C5.2924 11.3219 4.32808 11.21 3.73425 11.21V11.81ZM20.0761 16.8857C19.7949 16.64 19.3138 16.4127 18.4754 16.4127V17.0127C19.1994 17.0127 19.5305 17.2058 19.6812 17.3375L20.0761 16.8857ZM10.6712 20.9744L19.9863 17.3916L19.7709 16.8316L10.4558 20.4144L10.6712 20.9744ZM9.03107 20.8949C9.54261 21.1507 10.1379 21.1797 10.6713 20.9743L10.4557 20.4144C10.0801 20.559 9.66039 20.5387 9.2994 20.3582L9.03107 20.8949ZM3.60008 18.1794L9.03107 20.8949L9.2994 20.3582L3.86841 17.6427L3.60008 18.1794ZM3.43425 13.2442V17.9111H4.03425V13.2442H3.43425ZM5.73647 13.2776C4.94719 13.031 4.15758 12.9442 3.73425 12.9442V13.5442C4.09859 13.5442 4.82776 13.6222 5.55749 13.8503L5.73647 13.2776ZM7.60535 14.4367C7.23871 13.9132 6.54012 13.5288 5.73647 13.2776L5.55749 13.8503C6.31675 14.0876 6.86115 14.42 7.1139 14.7809L7.60535 14.4367ZM7.86426 14.8064L7.60535 14.4367L7.1139 14.7809L7.37281 15.1506L7.86426 14.8064ZM10.6712 14.6785H7.61854V15.2785H10.6712V14.6785ZM13.4074 16.6127C13.0092 15.4863 11.9349 14.6785 10.6712 14.6785V15.2785C11.6727 15.2785 12.5256 15.9185 12.8417 16.8127L13.4074 16.6127ZM8.06987 17.0127H13.1246V16.4127H8.06987V17.0127ZM8.36987 18.447V16.7127H7.76987V18.447H8.36987ZM15.0069 18.147H8.06987V18.747H15.0069V18.147ZM14.7069 17.5799V18.447H15.3069V17.5799H14.7069ZM14.6261 16.7724C14.679 17.0331 14.7069 17.3031 14.7069 17.5799H15.3069C15.3069 17.2627 15.275 16.9528 15.2141 16.653L14.6261 16.7724ZM18.4754 16.4127H14.9201V17.0127H18.4754V16.4127Z" fill="white" mask="url(#path-1-inside-1)"/>
</svg>
