<svg width="24" height="24" viewBox="0 0 24 24" fill="none" xmlns="http://www.w3.org/2000/svg">
<mask id="path-1-inside-1" fill="white">
<path fill-rule="evenodd" clip-rule="evenodd" d="M16.8526 2H21.1875C21.6366 2 22.0005 2.36369 22.0005 2.81301V7.14797C22.0005 7.59675 21.6366 7.96098 21.1875 7.96098H17.1892L16.0157 9.13442L14.8661 7.98482L16.0396 6.81138V2.81301C16.0396 2.36396 16.4038 2 16.8526 2ZM17.6656 6.33496H20.3745V3.62602H17.6656V6.33496ZM12.1831 10.6678L13.3327 11.8174L14.6743 10.4758L13.5247 9.32624L12.1831 10.6678ZM10.6495 14.5005L9.49959 13.3509L10.8406 12.0095L11.9905 13.1591L10.6495 14.5005ZM6.82331 16.0388L6.81762 16.0331L8.15854 14.6914L9.3084 15.841L7.96721 17.1827L7.96098 17.1765V21.1868C7.96098 21.6361 7.59702 21.9998 7.14797 21.9998H2.81301C2.36423 21.9998 2 21.6361 2 21.1868V16.8518C2 16.4031 2.36423 16.0388 2.81301 16.0388H6.82331ZM3.62602 20.3738H6.33496V17.6648H3.62602V20.3738Z"/>
</mask>
<path fill-rule="evenodd" clip-rule="evenodd" d="M16.8526 2H21.1875C21.6366 2 22.0005 2.36369 22.0005 2.81301V7.14797C22.0005 7.59675 21.6366 7.96098 21.1875 7.96098H17.1892L16.0157 9.13442L14.8661 7.98482L16.0396 6.81138V2.81301C16.0396 2.36396 16.4038 2 16.8526 2ZM17.6656 6.33496H20.3745V3.62602H17.6656V6.33496ZM12.1831 10.6678L13.3327 11.8174L14.6743 10.4758L13.5247 9.32624L12.1831 10.6678ZM10.6495 14.5005L9.49959 13.3509L10.8406 12.0095L11.9905 13.1591L10.6495 14.5005ZM6.82331 16.0388L6.81762 16.0331L8.15854 14.6914L9.3084 15.841L7.96721 17.1827L7.96098 17.1765V21.1868C7.96098 21.6361 7.59702 21.9998 7.14797 21.9998H2.81301C2.36423 21.9998 2 21.6361 2 21.1868V16.8518C2 16.4031 2.36423 16.0388 2.81301 16.0388H6.82331ZM3.62602 20.3738H6.33496V17.6648H3.62602V20.3738Z" fill="#888F9A"/>
<path d="M17.1892 7.96098V7.66098H17.0649L16.977 7.74884L17.1892 7.96098ZM16.0157 9.13442L15.8036 9.34655L16.0157 9.55868L16.2278 9.34655L16.0157 9.13442ZM14.8661 7.98482L14.654 7.77269L14.4419 7.98482L14.654 8.19696L14.8661 7.98482ZM16.0396 6.81138L16.2517 7.02351L16.3396 6.93565V6.81138H16.0396ZM20.3745 6.33496V6.63496H20.6745V6.33496H20.3745ZM17.6656 6.33496H17.3656V6.63496H17.6656V6.33496ZM20.3745 3.62602H20.6745V3.32602H20.3745V3.62602ZM17.6656 3.62602V3.32602H17.3656V3.62602H17.6656ZM13.3327 11.8174L13.1206 12.0295L13.3327 12.2416L13.5448 12.0295L13.3327 11.8174ZM12.1831 10.6678L11.971 10.4557L11.7589 10.6678L11.971 10.88L12.1831 10.6678ZM14.6743 10.4758L14.8864 10.6879L15.0985 10.4758L14.8864 10.2637L14.6743 10.4758ZM13.5247 9.32624L13.7368 9.11411L13.5247 8.90198L13.3126 9.11411L13.5247 9.32624ZM9.49959 13.3509L9.28743 13.1388L9.07532 13.351L9.28749 13.5631L9.49959 13.3509ZM10.6495 14.5005L10.4374 14.7127L10.6496 14.9248L10.8617 14.7126L10.6495 14.5005ZM10.8406 12.0095L11.0527 11.7974L10.8405 11.5853L10.6284 11.7974L10.8406 12.0095ZM11.9905 13.1591L12.2027 13.3712L12.4148 13.159L12.2026 12.9469L11.9905 13.1591ZM6.81762 16.0331L6.60542 15.8211L6.3934 16.0332L6.6055 16.2453L6.81762 16.0331ZM6.82331 16.0388V16.3388H7.54766L7.03542 15.8267L6.82331 16.0388ZM8.15854 14.6914L8.37064 14.4792L8.15845 14.2671L7.94634 14.4793L8.15854 14.6914ZM9.3084 15.841L9.52058 16.0531L9.73265 15.8409L9.52051 15.6288L9.3084 15.841ZM7.96721 17.1827L7.75505 17.3948L7.96723 17.6071L8.17938 17.3948L7.96721 17.1827ZM7.96098 17.1765L8.17313 16.9644L7.66098 16.4521V17.1765H7.96098ZM6.33496 20.3738V20.6738H6.63496V20.3738H6.33496ZM3.62602 20.3738H3.32602V20.6738H3.62602V20.3738ZM6.33496 17.6648H6.63496V17.3648H6.33496V17.6648ZM3.62602 17.6648V17.3648H3.32602V17.6648H3.62602ZM21.1875 1.7H16.8526V2.3H21.1875V1.7ZM22.3005 2.81301C22.3005 2.19793 21.8022 1.7 21.1875 1.7V2.3C21.471 2.3 21.7005 2.52944 21.7005 2.81301H22.3005ZM22.3005 7.14797V2.81301H21.7005V7.14797H22.3005ZM21.1875 8.26098C21.8023 8.26098 22.3005 7.76237 22.3005 7.14797H21.7005C21.7005 7.43113 21.4708 7.66098 21.1875 7.66098V8.26098ZM17.1892 8.26098H21.1875V7.66098H17.1892V8.26098ZM16.2278 9.34655L17.4013 8.17311L16.977 7.74884L15.8036 8.92229L16.2278 9.34655ZM14.654 8.19696L15.8036 9.34655L16.2278 8.92229L15.0783 7.77269L14.654 8.19696ZM15.8274 6.59925L14.654 7.77269L15.0783 8.19696L16.2517 7.02351L15.8274 6.59925ZM15.7396 2.81301V6.81138H16.3396V2.81301H15.7396ZM16.8526 1.7C16.2382 1.7 15.7396 2.19821 15.7396 2.81301H16.3396C16.3396 2.52971 16.5694 2.3 16.8526 2.3V1.7ZM20.3745 6.03496H17.6656V6.63496H20.3745V6.03496ZM20.0745 3.62602V6.33496H20.6745V3.62602H20.0745ZM17.6656 3.92602H20.3745V3.32602H17.6656V3.92602ZM17.9656 6.33496V3.62602H17.3656V6.33496H17.9656ZM13.5448 11.6053L12.3953 10.4557L11.971 10.88L13.1206 12.0295L13.5448 11.6053ZM14.4621 10.2637L13.1206 11.6053L13.5448 12.0295L14.8864 10.6879L14.4621 10.2637ZM13.3126 9.53838L14.4621 10.6879L14.8864 10.2637L13.7368 9.11411L13.3126 9.53838ZM12.3953 10.88L13.7368 9.53838L13.3126 9.11411L11.971 10.4557L12.3953 10.88ZM9.28749 13.5631L10.4374 14.7127L10.8616 14.2883L9.71169 13.1387L9.28749 13.5631ZM10.6284 11.7974L9.28743 13.1388L9.71175 13.563L11.0527 12.2216L10.6284 11.7974ZM12.2026 12.9469L11.0527 11.7974L10.6285 12.2217L11.7784 13.3713L12.2026 12.9469ZM10.8617 14.7126L12.2027 13.3712L11.7783 12.947L10.4373 14.2884L10.8617 14.7126ZM6.6055 16.2453L6.61119 16.251L7.03542 15.8267L7.02973 15.821L6.6055 16.2453ZM7.94634 14.4793L6.60542 15.8211L7.02981 16.2452L8.37073 14.9035L7.94634 14.4793ZM9.52051 15.6288L8.37064 14.4792L7.94643 14.9036L9.09629 16.0532L9.52051 15.6288ZM8.17938 17.3948L9.52058 16.0531L9.09623 15.6289L7.75503 16.9706L8.17938 17.3948ZM7.74882 17.3886L7.75505 17.3948L8.17937 16.9706L8.17313 16.9644L7.74882 17.3886ZM8.26098 21.1868V17.1765H7.66098V21.1868H8.26098ZM7.14797 22.2998C7.76264 22.2998 8.26098 21.8019 8.26098 21.1868H7.66098C7.66098 21.4704 7.4314 21.6998 7.14797 21.6998V22.2998ZM2.81301 22.2998H7.14797V21.6998H2.81301V22.2998ZM1.7 21.1868C1.7 21.8019 2.19867 22.2998 2.81301 22.2998V21.6998C2.52978 21.6998 2.3 21.4703 2.3 21.1868H1.7ZM1.7 16.8518V21.1868H2.3V16.8518H1.7ZM2.81301 15.7388C2.19854 15.7388 1.7 16.2374 1.7 16.8518H2.3C2.3 16.5687 2.52991 16.3388 2.81301 16.3388V15.7388ZM6.82331 15.7388H2.81301V16.3388H6.82331V15.7388ZM6.33496 20.0738H3.62602V20.6738H6.33496V20.0738ZM6.03496 17.6648V20.3738H6.63496V17.6648H6.03496ZM3.62602 17.9648H6.33496V17.3648H3.62602V17.9648ZM3.92602 20.3738V17.6648H3.32602V20.3738H3.92602Z" fill="white" mask="url(#path-1-inside-1)"/>
</svg>
