<svg width="24" height="24" viewBox="0 0 24 24" fill="none" xmlns="http://www.w3.org/2000/svg">
<mask id="path-1-inside-1" fill="white">
<path fill-rule="evenodd" clip-rule="evenodd" d="M20.82 12C19.17 8.63 15.79 6.5 12 6.5C8.21 6.5 4.83 8.63 3.18 12C4.83 15.37 8.2 17.5 12 17.5C15.8 17.5 19.17 15.37 20.82 12ZM1 12C2.73 7.61 7 4.5 12 4.5C17 4.5 21.27 7.61 23 12C21.27 16.39 17 19.5 12 19.5C7 19.5 2.73 16.39 1 12ZM14.5 12C14.5 10.62 13.38 9.5 12 9.5C10.62 9.5 9.5 10.62 9.5 12C9.5 13.38 10.62 14.5 12 14.5C13.38 14.5 14.5 13.38 14.5 12ZM7.5 12C7.5 9.52 9.52 7.5 12 7.5C14.48 7.5 16.5 9.52 16.5 12C16.5 14.48 14.48 16.5 12 16.5C9.52 16.5 7.5 14.48 7.5 12Z"/>
</mask>
<path fill-rule="evenodd" clip-rule="evenodd" d="M20.82 12C19.17 8.63 15.79 6.5 12 6.5C8.21 6.5 4.83 8.63 3.18 12C4.83 15.37 8.2 17.5 12 17.5C15.8 17.5 19.17 15.37 20.82 12ZM1 12C2.73 7.61 7 4.5 12 4.5C17 4.5 21.27 7.61 23 12C21.27 16.39 17 19.5 12 19.5C7 19.5 2.73 16.39 1 12ZM14.5 12C14.5 10.62 13.38 9.5 12 9.5C10.62 9.5 9.5 10.62 9.5 12C9.5 13.38 10.62 14.5 12 14.5C13.38 14.5 14.5 13.38 14.5 12ZM7.5 12C7.5 9.52 9.52 7.5 12 7.5C14.48 7.5 16.5 9.52 16.5 12C16.5 14.48 14.48 16.5 12 16.5C9.52 16.5 7.5 14.48 7.5 12Z" fill="#888F9A"/>
<path d="M20.82 12L21.0894 12.1319L21.154 12L21.0894 11.8681L20.82 12ZM3.18 12L2.91056 11.8681L2.84597 12L2.91056 12.1319L3.18 12ZM1 12L0.720891 11.89L0.677546 12L0.720891 12.11L1 12ZM23 12L23.2791 12.11L23.3225 12L23.2791 11.89L23 12ZM12 6.8C15.6749 6.8 18.9507 8.8643 20.5506 12.1319L21.0894 11.8681C19.3893 8.3957 15.9051 6.2 12 6.2V6.8ZM3.44944 12.1319C5.04931 8.8643 8.32507 6.8 12 6.8V6.2C8.09493 6.2 4.61069 8.3957 2.91056 11.8681L3.44944 12.1319ZM12 17.2C8.31525 17.2 5.04939 15.1359 3.44944 11.8681L2.91056 12.1319C4.61061 15.6041 8.08475 17.8 12 17.8V17.2ZM20.5506 11.8681C18.9506 15.1359 15.6848 17.2 12 17.2V17.8C15.9152 17.8 19.3894 15.6041 21.0894 12.1319L20.5506 11.8681ZM12 4.2C6.87218 4.2 2.49437 7.38969 0.720891 11.89L1.27911 12.11C2.96563 7.83031 7.12782 4.8 12 4.8V4.2ZM23.2791 11.89C21.5056 7.38969 17.1278 4.2 12 4.2V4.8C16.8722 4.8 21.0344 7.83031 22.7209 12.11L23.2791 11.89ZM12 19.8C17.1278 19.8 21.5056 16.6103 23.2791 12.11L22.7209 11.89C21.0344 16.1697 16.8722 19.2 12 19.2V19.8ZM0.720891 12.11C2.49437 16.6103 6.87218 19.8 12 19.8V19.2C7.12782 19.2 2.96563 16.1697 1.27911 11.89L0.720891 12.11ZM12 9.8C13.2143 9.8 14.2 10.7857 14.2 12H14.8C14.8 10.4543 13.5457 9.2 12 9.2V9.8ZM9.8 12C9.8 10.7857 10.7857 9.8 12 9.8V9.2C10.4543 9.2 9.2 10.4543 9.2 12H9.8ZM12 14.2C10.7857 14.2 9.8 13.2143 9.8 12H9.2C9.2 13.5457 10.4543 14.8 12 14.8V14.2ZM14.2 12C14.2 13.2143 13.2143 14.2 12 14.2V14.8C13.5457 14.8 14.8 13.5457 14.8 12H14.2ZM12 7.2C9.35431 7.2 7.2 9.35431 7.2 12H7.8C7.8 9.68569 9.68569 7.8 12 7.8V7.2ZM16.8 12C16.8 9.35431 14.6457 7.2 12 7.2V7.8C14.3143 7.8 16.2 9.68569 16.2 12H16.8ZM12 16.8C14.6457 16.8 16.8 14.6457 16.8 12H16.2C16.2 14.3143 14.3143 16.2 12 16.2V16.8ZM7.2 12C7.2 14.6457 9.35431 16.8 12 16.8V16.2C9.68569 16.2 7.8 14.3143 7.8 12H7.2Z" fill="white" mask="url(#path-1-inside-1)"/>
</svg>
