<svg width="24" height="24" viewBox="0 0 24 24" fill="none" xmlns="http://www.w3.org/2000/svg">
<path d="M18.0001 13.9311H17.1001C16.9606 13.9314 16.8226 13.961 16.6952 14.0178C16.5677 14.0746 16.4536 14.1575 16.3601 14.2611L18.0001 13.9311ZM18.0001 13.9311C18.2004 13.9309 18.3961 13.9909 18.5619 14.1032C18.7277 14.2155 18.856 14.375 18.9301 14.5611L18.0001 13.9311ZM17.4594 15.8754L17.4217 15.7811H17.3201H15.0607L16.4665 14.3669L16.4666 14.367L16.4715 14.3616C16.5509 14.2736 16.6479 14.2031 16.7563 14.1548C16.8646 14.1065 16.9818 14.0814 17.1005 14.0811H18.0001H18.0002C18.1705 14.0809 18.3368 14.1319 18.4778 14.2274C18.6187 14.3229 18.7278 14.4585 18.7907 14.6166L18.7908 14.6168L20.7908 19.6168L20.7913 19.6179C20.8317 19.7166 20.8517 19.8223 20.8501 19.9289H20.8501V19.9311V20.9311C20.8501 21.4218 20.6552 21.8923 20.3082 22.2393C19.9613 22.5862 19.4908 22.7811 19.0001 22.7811H5.0001C4.50945 22.7811 4.0389 22.5862 3.69195 22.2393C3.34501 21.8923 3.1501 21.4218 3.1501 20.9311L3.15012 19.9311L3.15009 19.9289C3.14852 19.8223 3.16853 19.7166 3.20891 19.6179L3.20892 19.6179L3.20937 19.6168L5.20937 14.6168L5.20946 14.6166C5.27244 14.4584 5.38147 14.3229 5.52241 14.2274C5.66335 14.1319 5.82972 14.0809 5.99996 14.0811H6.0001L7.5001 14.0811L7.50097 14.0811C7.61283 14.0805 7.72373 14.1019 7.82729 14.1442C7.93063 14.1864 8.02464 14.2486 8.10396 14.3271C8.10413 14.3273 8.1043 14.3274 8.10447 14.3276L9.54096 15.7811H6.6801H6.57855L6.54083 15.8754L5.74083 17.8754L5.65855 18.0811H5.8801H18.1201H18.3417L18.2594 17.8754L17.4594 15.8754ZM19.1501 19.9311V19.7811H19.0001H5.0001H4.8501V19.9311V20.9311V21.0811H5.0001H19.0001H19.1501V20.9311V19.9311ZM12.291 15.6411L12.2907 15.6411C12.0678 15.6402 11.8542 15.5517 11.6958 15.3947C11.6958 15.3947 11.6958 15.3946 11.6957 15.3946L6.03648 9.73535C6.03646 9.73533 6.03643 9.7353 6.0364 9.73528C5.87814 9.57603 5.78931 9.36063 5.78931 9.1361C5.78931 8.91162 5.87811 8.69625 6.03633 8.53701C6.03638 8.53696 6.03643 8.53691 6.03648 8.53686L13.1059 1.46749C13.1059 1.46746 13.1059 1.46743 13.1059 1.4674C13.2652 1.30914 13.4806 1.22031 13.7051 1.22031C13.9296 1.22031 14.145 1.30914 14.3043 1.4674C14.3043 1.46743 14.3043 1.46746 14.3044 1.46749L19.9637 7.12686C19.9638 7.12693 19.9639 7.12701 19.9639 7.12708C20.1221 7.28632 20.2109 7.50165 20.2109 7.72611C20.2109 7.95056 20.1221 8.16589 19.9639 8.32513C19.9639 8.3252 19.9638 8.32528 19.9637 8.32536L12.8945 15.3946C12.8944 15.3946 12.8944 15.3947 12.8944 15.3947C12.815 15.4734 12.7208 15.5357 12.6173 15.578C12.5137 15.6203 12.4028 15.6418 12.291 15.6411ZM13.8153 3.39417L13.7094 3.29003L13.6042 3.39485L7.94422 9.03485L7.83716 9.14154L7.94466 9.24779L12.2347 13.4878L12.3407 13.5926L12.4462 13.4872L18.1062 7.82717L18.2131 7.72023L18.1053 7.61417L13.8153 3.39417Z" fill="#888F9A" stroke="white" stroke-width="0.3"/>
</svg>
