<svg width="24" height="24" viewBox="0 0 24 24" fill="none" xmlns="http://www.w3.org/2000/svg">
<mask id="path-1-inside-1" fill="white">
<path fill-rule="evenodd" clip-rule="evenodd" d="M14.598 2.75C13.4433 0.75 10.5565 0.75 9.4018 2.75L1.60757 16.25C0.452871 18.25 1.89625 20.75 4.20565 20.75H19.7941C22.1035 20.75 23.5469 18.25 22.3922 16.25L14.598 2.75ZM11.1339 3.75C11.5188 3.08333 12.481 3.08333 12.8659 3.75L20.6601 17.25C21.045 17.9167 20.5639 18.75 19.7941 18.75H4.20565C3.43585 18.75 2.95472 17.9167 3.33962 17.25L11.1339 3.75ZM11.1684 15.6944C11.0585 15.8589 10.9999 16.0522 10.9999 16.25C10.9999 16.5152 11.1052 16.7696 11.2928 16.9571C11.4803 17.1446 11.7347 17.25 11.9999 17.25C12.1977 17.25 12.391 17.1914 12.5554 17.0815C12.7199 16.9716 12.8481 16.8154 12.9238 16.6327C12.9994 16.45 13.0192 16.2489 12.9807 16.0549C12.9421 15.8609 12.8468 15.6827 12.707 15.5429C12.5671 15.403 12.3889 15.3078 12.195 15.2692C12.001 15.2306 11.7999 15.2504 11.6172 15.3261C11.4345 15.4018 11.2783 15.53 11.1684 15.6944ZM10.9999 12.25V8.25C10.9999 7.98478 11.1052 7.73043 11.2928 7.54289C11.4803 7.35536 11.7347 7.25 11.9999 7.25C12.2651 7.25 12.5194 7.35536 12.707 7.54289C12.8945 7.73043 12.9999 7.98478 12.9999 8.25V12.25C12.9999 12.5152 12.8945 12.7696 12.707 12.9571C12.5194 13.1446 12.2651 13.25 11.9999 13.25C11.7347 13.25 11.4803 13.1446 11.2928 12.9571C11.1052 12.7696 10.9999 12.5152 10.9999 12.25Z"/>
</mask>
<path fill-rule="evenodd" clip-rule="evenodd" d="M14.598 2.75C13.4433 0.75 10.5565 0.75 9.4018 2.75L1.60757 16.25C0.452871 18.25 1.89625 20.75 4.20565 20.75H19.7941C22.1035 20.75 23.5469 18.25 22.3922 16.25L14.598 2.75ZM11.1339 3.75C11.5188 3.08333 12.481 3.08333 12.8659 3.75L20.6601 17.25C21.045 17.9167 20.5639 18.75 19.7941 18.75H4.20565C3.43585 18.75 2.95472 17.9167 3.33962 17.25L11.1339 3.75ZM11.1684 15.6944C11.0585 15.8589 10.9999 16.0522 10.9999 16.25C10.9999 16.5152 11.1052 16.7696 11.2928 16.9571C11.4803 17.1446 11.7347 17.25 11.9999 17.25C12.1977 17.25 12.391 17.1914 12.5554 17.0815C12.7199 16.9716 12.8481 16.8154 12.9238 16.6327C12.9994 16.45 13.0192 16.2489 12.9807 16.0549C12.9421 15.8609 12.8468 15.6827 12.707 15.5429C12.5671 15.403 12.3889 15.3078 12.195 15.2692C12.001 15.2306 11.7999 15.2504 11.6172 15.3261C11.4345 15.4018 11.2783 15.53 11.1684 15.6944ZM10.9999 12.25V8.25C10.9999 7.98478 11.1052 7.73043 11.2928 7.54289C11.4803 7.35536 11.7347 7.25 11.9999 7.25C12.2651 7.25 12.5194 7.35536 12.707 7.54289C12.8945 7.73043 12.9999 7.98478 12.9999 8.25V12.25C12.9999 12.5152 12.8945 12.7696 12.707 12.9571C12.5194 13.1446 12.2651 13.25 11.9999 13.25C11.7347 13.25 11.4803 13.1446 11.2928 12.9571C11.1052 12.7696 10.9999 12.5152 10.9999 12.25Z" fill="#888F9A"/>
<path d="M9.4018 2.75L9.66161 2.9V2.9L9.4018 2.75ZM14.598 2.75L14.3381 2.9V2.9L14.598 2.75ZM1.60757 16.25L1.34776 16.1L1.60757 16.25ZM22.3922 16.25L22.1324 16.4V16.4L22.3922 16.25ZM12.8659 3.75L13.1257 3.6V3.6L12.8659 3.75ZM11.1339 3.75L10.874 3.6L11.1339 3.75ZM20.6601 17.25L20.9199 17.1L20.6601 17.25ZM3.33962 17.25L3.59943 17.4L3.33962 17.25ZM11.1684 15.6944L11.4178 15.8611H11.4178L11.1684 15.6944ZM11.2928 16.9571L11.0806 17.1692H11.0806L11.2928 16.9571ZM12.5554 17.0815L12.3888 16.832H12.3888L12.5554 17.0815ZM12.9238 16.6327L12.6466 16.5179L12.6466 16.5179L12.9238 16.6327ZM12.9807 16.0549L13.2749 15.9964L13.2749 15.9964L12.9807 16.0549ZM12.195 15.2692L12.1364 15.5634L12.1364 15.5635L12.195 15.2692ZM11.6172 15.3261L11.732 15.6033L11.732 15.6033L11.6172 15.3261ZM11.2928 7.54289L11.5049 7.75502L11.5049 7.75502L11.2928 7.54289ZM12.707 7.54289L12.9191 7.33076L12.9191 7.33076L12.707 7.54289ZM12.707 12.9571L12.4949 12.745V12.745L12.707 12.9571ZM11.2928 12.9571L11.5049 12.745V12.745L11.2928 12.9571ZM9.66161 2.9C10.7008 1.1 13.2989 1.1 14.3381 2.9L14.8578 2.6C13.5876 0.4 10.4122 0.4 9.14199 2.6L9.66161 2.9ZM1.86738 16.4L9.66161 2.9L9.14199 2.6L1.34776 16.1L1.86738 16.4ZM4.20565 20.45C2.12719 20.45 0.828148 18.2 1.86738 16.4L1.34776 16.1C0.077593 18.3 1.66531 21.05 4.20565 21.05V20.45ZM19.7941 20.45H4.20565V21.05H19.7941V20.45ZM22.1324 16.4C23.1716 18.2 21.8726 20.45 19.7941 20.45V21.05C22.3344 21.05 23.9222 18.3 22.652 16.1L22.1324 16.4ZM14.3381 2.9L22.1324 16.4L22.652 16.1L14.8578 2.6L14.3381 2.9ZM13.1257 3.6C12.6253 2.73333 11.3744 2.73333 10.874 3.6L11.3937 3.9C11.6631 3.43333 12.3367 3.43333 12.6061 3.9L13.1257 3.6ZM20.9199 17.1L13.1257 3.6L12.6061 3.9L20.4003 17.4L20.9199 17.1ZM19.7941 19.05C20.7948 19.05 21.4203 17.9667 20.9199 17.1L20.4003 17.4C20.6698 17.8667 20.333 18.45 19.7941 18.45V19.05ZM4.20565 19.05H19.7941V18.45H4.20565V19.05ZM3.07981 17.1C2.57944 17.9667 3.20491 19.05 4.20565 19.05V18.45C3.66679 18.45 3.33 17.8667 3.59943 17.4L3.07981 17.1ZM10.874 3.6L3.07981 17.1L3.59943 17.4L11.3937 3.9L10.874 3.6ZM11.2999 16.25C11.2999 16.1116 11.3409 15.9762 11.4178 15.8611L10.919 15.5278C10.7761 15.7415 10.6999 15.9929 10.6999 16.25H11.2999ZM11.5049 16.745C11.3736 16.6137 11.2999 16.4357 11.2999 16.25H10.6999C10.6999 16.5948 10.8368 16.9254 11.0806 17.1692L11.5049 16.745ZM11.9999 16.95C11.8142 16.95 11.6362 16.8763 11.5049 16.745L11.0806 17.1692C11.3244 17.413 11.6551 17.55 11.9999 17.55V16.95ZM12.3888 16.832C12.2737 16.9089 12.1383 16.95 11.9999 16.95V17.55C12.257 17.55 12.5083 17.4738 12.7221 17.3309L12.3888 16.832ZM12.6466 16.5179C12.5936 16.6458 12.5039 16.7551 12.3888 16.832L12.7221 17.3309C12.9359 17.1881 13.1025 16.985 13.2009 16.7475L12.6466 16.5179ZM12.6864 16.1134C12.7134 16.2492 12.6996 16.39 12.6466 16.5179L13.2009 16.7475C13.2993 16.5099 13.3251 16.2486 13.2749 15.9964L12.6864 16.1134ZM12.4949 15.755C12.5927 15.8529 12.6594 15.9776 12.6864 16.1134L13.2749 15.9964C13.2247 15.7442 13.1009 15.5126 12.9191 15.3308L12.4949 15.755ZM12.1364 15.5635C12.2722 15.5905 12.397 15.6571 12.4949 15.755L12.9191 15.3308C12.7373 15.149 12.5057 15.0251 12.2535 14.975L12.1364 15.5635ZM11.732 15.6033C11.8599 15.5503 12.0007 15.5364 12.1364 15.5634L12.2535 14.975C12.0013 14.9248 11.7399 14.9506 11.5024 15.049L11.732 15.6033ZM11.4178 15.8611C11.4948 15.746 11.6041 15.6563 11.732 15.6033L11.5024 15.049C11.2648 15.1474 11.0618 15.314 10.919 15.5278L11.4178 15.8611ZM10.6999 8.25V12.25H11.2999V8.25H10.6999ZM11.0806 7.33076C10.8368 7.57456 10.6999 7.90522 10.6999 8.25H11.2999C11.2999 8.06435 11.3736 7.8863 11.5049 7.75502L11.0806 7.33076ZM11.9999 6.95C11.6551 6.95 11.3244 7.08696 11.0806 7.33076L11.5049 7.75502C11.6362 7.62375 11.8142 7.55 11.9999 7.55V6.95ZM12.9191 7.33076C12.6753 7.08696 12.3447 6.95 11.9999 6.95V7.55C12.1855 7.55 12.3636 7.62375 12.4949 7.75502L12.9191 7.33076ZM13.2999 8.25C13.2999 7.90522 13.1629 7.57456 12.9191 7.33076L12.4949 7.75502C12.6261 7.8863 12.6999 8.06435 12.6999 8.25H13.2999ZM13.2999 12.25V8.25H12.6999V12.25H13.2999ZM12.9191 13.1692C13.1629 12.9254 13.2999 12.5948 13.2999 12.25H12.6999C12.6999 12.4357 12.6261 12.6137 12.4949 12.745L12.9191 13.1692ZM11.9999 13.55C12.3447 13.55 12.6753 13.413 12.9191 13.1692L12.4949 12.745C12.3636 12.8762 12.1855 12.95 11.9999 12.95V13.55ZM11.0806 13.1692C11.3244 13.413 11.6551 13.55 11.9999 13.55V12.95C11.8142 12.95 11.6362 12.8762 11.5049 12.745L11.0806 13.1692ZM10.6999 12.25C10.6999 12.5948 10.8368 12.9254 11.0806 13.1692L11.5049 12.745C11.3736 12.6137 11.2999 12.4357 11.2999 12.25H10.6999Z" fill="white" mask="url(#path-1-inside-1)"/>
</svg>
