<svg width="24" height="24" viewBox="0 0 24 24" fill="none" xmlns="http://www.w3.org/2000/svg">
<path d="M14 6.15H14.15V6V4V3.85H14H10H9.85V4V6V6.15H10H14ZM4 7.85H3.85V8V19V19.15H4H20H20.15V19V8V7.85H20H4ZM4 20.85C2.97284 20.85 2.15 20.0272 2.15 19L2.16 8.00014V8C2.16 6.97186 2.97382 6.15 4 6.15H8H8.15V6V4C8.15 2.97284 8.97284 2.15 10 2.15H14C15.0272 2.15 15.85 2.97284 15.85 4V6V6.15H16H20C21.0272 6.15 21.85 6.97284 21.85 8V19C21.85 20.0272 21.0272 20.85 20 20.85H4Z" fill="#888F9A" stroke="white" stroke-width="0.3"/>
</svg>
