<svg width="24" height="24" viewBox="0 0 24 24" fill="none" xmlns="http://www.w3.org/2000/svg">
<path d="M4.31607 10.1139L4.12412 9.92199L4.06376 10.1866C3.93168 10.7657 3.85 11.377 3.85 12C3.85 16.1469 6.96754 19.5694 10.9711 20.0788L11.14 20.1003V19.93V18V17.85H10.99C9.97284 17.85 9.14 17.0172 9.14 16V15V14.9379L9.09607 14.8939L4.31607 10.1139ZM17.7472 17.4458L17.8262 17.6919L18.0006 17.5013C19.3245 16.0552 20.15 14.1196 20.15 12C20.15 8.58655 18.0307 5.65288 15.046 4.45086L14.84 4.36788V4.59V5C14.84 6.01716 14.0072 6.85 12.99 6.85H10.99H10.84V7V9C10.84 9.46716 10.4572 9.85 9.99 9.85H7.99H7.84V10V12V12.15H7.99H13.99C14.4572 12.15 14.84 12.5328 14.84 13V16V16.15H14.99H15.99C16.8209 16.15 17.5059 16.6941 17.7472 17.4458ZM2.15 12C2.15 6.56284 6.56284 2.15 12 2.15C17.4372 2.15 21.85 6.56284 21.85 12C21.85 17.4372 17.4372 21.85 12 21.85C6.56284 21.85 2.15 17.4372 2.15 12Z" fill="#888F9A" stroke="white" stroke-width="0.3"/>
</svg>
