<svg width="24" height="24" viewBox="0 0 24 24" fill="none" xmlns="http://www.w3.org/2000/svg">
<path d="M13 12.85H12.85V13V18.6C12.85 18.7381 12.7381 18.85 12.6 18.85H11.4C11.2619 18.85 11.15 18.7381 11.15 18.6V13V12.85H11H5.4C5.26193 12.85 5.15 12.7381 5.15 12.6V11.4C5.15 11.2619 5.26193 11.15 5.4 11.15H11H11.15V11V5.4C11.15 5.26193 11.2619 5.15 11.4 5.15H12.6C12.7381 5.15 12.85 5.26193 12.85 5.4V11V11.15H13H18.6C18.7381 11.15 18.85 11.2619 18.85 11.4V12.6C18.85 12.7381 18.7381 12.85 18.6 12.85H13Z" fill="#888F9A" stroke="white" stroke-width="0.3"/>
</svg>
