<svg width="24" height="24" viewBox="0 0 24 24" fill="none" xmlns="http://www.w3.org/2000/svg">
<path d="M13.3043 13.3936L13.3032 13.3947L12.6035 14.1044C12.6034 14.1044 12.6034 14.1045 12.6033 14.1046C12.5243 14.1841 12.4304 14.2473 12.3269 14.2904C12.2233 14.3336 12.1122 14.3558 12 14.3558C11.8878 14.3558 11.7767 14.3336 11.6731 14.2904C11.5695 14.2473 11.4755 14.184 11.3965 14.1044L11.3956 14.1035C11.316 14.0245 11.2527 13.9305 11.2096 13.8269C11.1664 13.7233 11.1442 13.6122 11.1442 13.5C11.1442 13.3878 11.1664 13.2767 11.2096 13.1731C11.2527 13.0696 11.3159 12.9756 11.3955 12.8966C11.3956 12.8966 11.3956 12.8965 11.3956 12.8965L12.1053 12.1968L12.15 12.1528V12.09V8.5C12.15 8.27457 12.2396 8.05837 12.399 7.89896C12.5584 7.73955 12.7746 7.65 13 7.65C13.2254 7.65 13.4416 7.73955 13.601 7.89896C13.7604 8.05837 13.85 8.27457 13.85 8.5L13.85 12.0894C13.85 12.0894 13.85 12.0895 13.85 12.0896C13.8479 12.5794 13.6516 13.0483 13.3043 13.3936ZM16.2034 18.9195L16.2033 18.9195L16.2001 18.925C15.7744 19.6622 15.1622 20.2744 14.4249 20.7001C13.6876 21.1257 12.8513 21.3498 12 21.3498C11.1487 21.3498 10.3124 21.1257 9.57511 20.7001C8.83784 20.2744 8.22559 19.6622 7.7999 18.925L7.80002 18.9249L7.79659 18.9195C7.73509 18.8228 7.69379 18.7146 7.67519 18.6015C7.65658 18.4884 7.66105 18.3726 7.68832 18.2613C7.7156 18.15 7.76511 18.0453 7.83389 17.9536C7.90267 17.8618 7.98929 17.785 8.08854 17.7276C8.18779 17.6703 8.29762 17.6336 8.41142 17.6197C8.52522 17.6059 8.64064 17.6152 8.75074 17.6472C8.86084 17.6791 8.96334 17.733 9.05208 17.8056C9.14081 17.8782 9.21395 17.9679 9.26709 18.0695L9.26698 18.0696L9.27 18.0748C9.5462 18.5546 9.94397 18.9532 10.4232 19.2303C10.9025 19.5074 11.4464 19.6533 12 19.6533C12.5536 19.6533 13.0975 19.5074 13.5768 19.2303C14.056 18.9532 14.4538 18.5546 14.73 18.0748L14.7301 18.0749L14.7329 18.0695C14.7861 17.9679 14.8592 17.8782 14.9479 17.8056C15.0367 17.733 15.1392 17.6791 15.2493 17.6472C15.3594 17.6152 15.4748 17.6059 15.5886 17.6197C15.7024 17.6336 15.8122 17.6703 15.9115 17.7276C16.0107 17.785 16.0973 17.8618 16.1661 17.9536C16.2349 18.0453 16.2844 18.15 16.3117 18.2613C16.339 18.3726 16.3434 18.4884 16.3248 18.6015C16.3062 18.7146 16.2649 18.8228 16.2034 18.9195ZM18 7.35C17.7746 7.35 17.5584 7.26045 17.399 7.10104C17.2396 6.94163 17.15 6.72543 17.15 6.5V4.5C17.15 4.27457 17.2396 4.05836 17.399 3.89896C17.5584 3.73955 17.7746 3.65 18 3.65C18.2254 3.65 18.4416 3.73955 18.601 3.89896C18.7604 4.05836 18.85 4.27457 18.85 4.5V6.5C18.85 6.72543 18.7604 6.94163 18.601 7.10104C18.4416 7.26045 18.2254 7.35 18 7.35ZM6.85 4.5V6.5C6.85 6.72543 6.76045 6.94163 6.60104 7.10104C6.44163 7.26045 6.22543 7.35 6 7.35C5.77457 7.35 5.55837 7.26045 5.39896 7.10104C5.23955 6.94163 5.15 6.72543 5.15 6.5V4.5C5.15 4.27457 5.23955 4.05837 5.39896 3.89896C5.55837 3.73955 5.77457 3.65 6 3.65C6.22543 3.65 6.44163 3.73955 6.60104 3.89896C6.76045 4.05837 6.85 4.27457 6.85 4.5Z" fill="#888F9A" stroke="white" stroke-width="0.3"/>
</svg>
