<svg width="24" height="24" viewBox="0 0 24 24" fill="none" xmlns="http://www.w3.org/2000/svg">
<path d="M22 19.15H22.15V19V5V4.85H22H7.06H6.97966L6.93514 4.91688L2.31207 11.8614C2.25616 11.9454 2.25621 12.0548 2.31221 12.1387L6.94522 19.0832L6.98975 19.15H7.07H22ZM12.6961 11.8939L9.21213 8.41L10.41 7.21213L13.8939 10.6961L14 10.8021L14.1061 10.6961L17.59 7.21213L18.7879 8.41L15.3039 11.8939L15.1979 12L15.3039 12.1061L18.7879 15.59L17.59 16.7879L14.1061 13.3039L14 13.1979L13.8939 13.3039L10.41 16.7879L9.21213 15.59L12.6961 12.1061L12.8021 12L12.6961 11.8939ZM7 3.15H22C23.0172 3.15 23.85 3.98284 23.85 5V19C23.85 20.0172 23.0172 20.85 22 20.85H7C6.36939 20.85 5.8723 20.5234 5.53445 20.0263C5.53433 20.0261 5.53421 20.0259 5.53408 20.0257L0.272767 12.1386C0.21676 12.0546 0.216729 11.9452 0.272688 11.8612L5.53408 3.96428C5.53421 3.9641 5.53433 3.96392 5.53445 3.96374C5.87134 3.46807 6.36792 3.15 7 3.15Z" fill="#888F9A" stroke="white" stroke-width="0.3"/>
</svg>
