<svg width="24" height="24" viewBox="0 0 24 24" fill="none" xmlns="http://www.w3.org/2000/svg">
<path d="M12 14.05L17 15.72C17 15.9852 17.1054 16.2396 17.2929 16.4271C17.4804 16.6146 17.7348 16.72 18 16.72C18.2652 16.72 18.5196 16.6146 18.7071 16.4271C18.8946 16.2396 19 15.9852 19 15.72L12 14.05ZM12 14.05L7 15.72L12 14.05ZM12.0475 13.9077L12 13.8919L11.9525 13.9077L6.95248 15.5777L6.85 15.612V15.72C6.85 15.9454 6.76045 16.1616 6.60104 16.321C6.44164 16.4804 6.22543 16.57 6 16.57C5.77457 16.57 5.55836 16.4804 5.39896 16.321C5.23955 16.1616 5.15 15.9454 5.15 15.72V15.7199C5.14965 15.3309 5.27191 14.9517 5.49941 14.6362C5.72691 14.3207 6.04807 14.0849 6.41725 13.9624L6.41726 13.9624L11.4173 12.3024L11.4187 12.3019C11.7954 12.1725 12.2046 12.1725 12.5813 12.3019L12.5827 12.3024L17.5827 13.9624L17.63 13.82L17.5827 13.9624C17.9519 14.0849 18.2731 14.3207 18.5006 14.6362C18.7281 14.9517 18.8504 15.3309 18.85 15.7199V15.72C18.85 15.9454 18.7604 16.1616 18.601 16.321C18.4416 16.4804 18.2254 16.57 18 16.57C17.7746 16.57 17.5584 16.4804 17.399 16.321C17.2396 16.1616 17.15 15.9454 17.15 15.72V15.612L17.0475 15.5777L12.0475 13.9077ZM11.2536 22.5941L11.2509 22.5929L2.25092 18.5929L2.25075 18.5929C1.92444 18.4483 1.6469 18.2125 1.45159 17.9138C1.25634 17.6152 1.1516 17.2664 1.15 16.9097V7.09033C1.1516 6.73355 1.25634 6.38485 1.45159 6.08623C1.6469 5.78752 1.92444 5.55168 2.25075 5.40715L2.25092 5.40707L11.2507 1.40715C11.2508 1.40714 11.2508 1.40712 11.2508 1.40711C11.4868 1.30262 11.742 1.24863 12 1.24863C12.258 1.24863 12.5132 1.30262 12.7492 1.40711C12.7492 1.40712 12.7492 1.40714 12.7493 1.40715L21.7491 5.40707L21.7493 5.40715C22.0756 5.55169 22.3531 5.78752 22.5484 6.08623C22.7436 6.38482 22.8484 6.73348 22.85 7.09022C22.85 7.09036 22.85 7.0905 22.85 7.09065V16.9094C22.85 16.9095 22.85 16.9096 22.85 16.9098C22.8484 17.2665 22.7436 17.6152 22.5484 17.9138C22.3531 18.2125 22.0756 18.4483 21.7493 18.5929L21.7491 18.5929L12.7491 22.5929L12.7491 22.5929L12.7464 22.5941C12.5128 22.7035 12.258 22.7601 12 22.76H12C11.742 22.7601 11.4872 22.7035 11.2536 22.5941ZM2.93908 6.95293L2.85 6.99252V7.09V16.91V17.0075L2.93908 17.0471L11.9391 21.0471L12 21.0741L12.0609 21.0471L21.0609 17.0471L21.15 17.0075V16.91V7.09V6.99252L21.0609 6.95293L12.0609 2.95293L12 2.92585L11.9391 2.95293L2.93908 6.95293ZM12 10.85C11.4363 10.85 10.8853 10.6828 10.4166 10.3697C9.94794 10.0565 9.58265 9.61142 9.36694 9.09065C9.15123 8.56988 9.09479 7.99684 9.20476 7.44399C9.31473 6.89115 9.58617 6.38333 9.98475 5.98475C10.3833 5.58617 10.8911 5.31473 11.444 5.20476C11.9968 5.09479 12.5699 5.15123 13.0906 5.36694C13.6114 5.58265 14.0565 5.94794 14.3697 6.41662C14.6828 6.8853 14.85 7.43632 14.85 8C14.85 8.75587 14.5497 9.48078 14.0153 10.0153C13.4808 10.5497 12.7559 10.85 12 10.85ZM12 6.85C11.7726 6.85 11.5502 6.91745 11.3611 7.04381C11.172 7.17017 11.0246 7.34978 10.9375 7.55991C10.8505 7.77005 10.8277 8.00128 10.8721 8.22435C10.9165 8.44743 11.026 8.65234 11.1868 8.81317C11.3477 8.974 11.5526 9.08353 11.7756 9.1279C11.9987 9.17228 12.23 9.1495 12.4401 9.06246C12.6502 8.97542 12.8298 8.82802 12.9562 8.63891C13.0826 8.44979 13.15 8.22745 13.15 8C13.15 7.695 13.0288 7.40249 12.8132 7.18683C12.5975 6.97116 12.305 6.85 12 6.85Z" fill="#888F9A" stroke="white" stroke-width="0.3"/>
</svg>
