<svg width="24" height="24" viewBox="0 0 24 24" fill="none" xmlns="http://www.w3.org/2000/svg">
<path d="M11.9093 5.1195L12 5.18828L12.0907 5.1195C13.5028 4.04822 15.564 3.65 17.5 3.65C18.6577 3.65 19.8615 3.79847 20.9537 4.1427C21.6682 4.38092 22.2837 4.66284 22.85 5.07564V19.6C22.85 19.6762 22.8104 19.765 22.7377 19.8377C22.665 19.9104 22.5762 19.95 22.5 19.95C22.447 19.95 22.4226 19.9496 22.3997 19.9458C22.3807 19.9426 22.358 19.9362 22.3188 19.9167C20.8908 19.1523 19.1651 18.85 17.5 18.85C16.6333 18.85 15.5823 19.0153 14.5796 19.2865C13.6193 19.5462 12.6926 19.9059 12.0079 20.3189C10.5242 19.2371 8.42787 18.85 6.5 18.85C5.03674 18.85 3.08111 19.2993 1.71257 19.9516C1.65617 19.9564 1.61195 19.9712 1.5809 19.9816L1.57757 19.9827C1.54013 19.9952 1.52324 20 1.5 20C1.42378 20 1.33501 19.9604 1.26232 19.8877C1.18962 19.815 1.15 19.7262 1.15 19.65V5.07516C2.56016 4.03721 4.59094 3.65 6.5 3.65C8.43601 3.65 10.4972 4.04822 11.9093 5.1195ZM20.9545 17.6429L21.15 17.7051V17.5V6V5.89032L21.0455 5.85706C19.9277 5.50142 18.7119 5.35 17.5 5.35C16.6333 5.35 15.5823 5.51528 14.5796 5.78645C13.5776 6.05744 12.6121 6.43733 11.9201 6.87306L11.85 6.91719V7V18.5V18.7717L12.0799 18.6269C12.7379 18.2127 13.6724 17.8426 14.6579 17.576C15.6427 17.3097 16.6667 17.15 17.5 17.15C18.6881 17.15 19.8723 17.2986 20.9545 17.6429Z" fill="#888F9A" stroke="white" stroke-width="0.3"/>
</svg>
