<svg width="24" height="24" viewBox="0 0 24 24" fill="none" xmlns="http://www.w3.org/2000/svg">
<path d="M15.368 13.4819C15.5163 13.4819 15.6644 13.4253 15.7776 13.3122L15.8836 13.4184L15.7775 13.3124C16.7872 12.3015 17.3432 10.9574 17.3432 9.52792C17.3432 8.0984 16.7873 6.75441 15.7779 5.74357C15.5516 5.51738 15.1849 5.51709 14.9586 5.74366C14.7324 5.97017 14.7325 6.33739 14.9586 6.56422L15.368 13.4819ZM15.368 13.4819C15.2197 13.4819 15.0716 13.4253 14.9583 13.3119M15.368 13.4819L14.9583 13.3119M14.9583 13.3119C14.7321 13.0854 14.7321 12.7183 14.9582 12.4915L14.9583 13.3119ZM14.9583 12.4914C15.7491 11.7 16.1844 10.6476 16.1844 9.52792C16.1844 8.40825 15.7492 7.35592 14.9586 6.56425L14.9583 12.4914Z" fill="#888F9A" stroke="white" stroke-width="0.3"/>
<path d="M18.3988 15.9359L18.3988 15.9359C18.2856 16.0493 18.1374 16.1059 17.9891 16.1059C17.8408 16.1059 17.6927 16.0493 17.5794 15.9359C17.3532 15.7094 17.3532 15.342 17.5794 15.1157L17.4733 15.0096L17.5794 15.1156C19.0699 13.6231 19.8908 11.639 19.8908 9.52796C19.8908 7.43797 19.086 5.47193 17.6233 3.9843V3.08003C17.8509 2.89404 18.1866 2.90728 18.3988 3.11974C20.1081 4.83142 21.0496 7.10732 21.0496 9.52796C21.0496 11.9486 20.1081 14.2245 18.3988 15.9359Z" fill="#888F9A" stroke="white" stroke-width="0.3"/>
<path d="M8.63003 13.4819C8.48173 13.4819 8.33361 13.4253 8.2204 13.3122L8.1144 13.4184L8.22052 13.3124C7.21082 12.3015 6.65482 10.9574 6.65482 9.52792C6.65482 8.0984 7.21075 6.75441 8.22018 5.74357C8.44643 5.51738 8.81318 5.51709 9.03944 5.74366C9.26563 5.97017 9.26559 6.33739 9.03944 6.56422L8.63003 13.4819ZM8.63003 13.4819C8.77834 13.4819 8.92648 13.4253 9.0397 13.3119M8.63003 13.4819L9.0397 13.3119M9.0397 13.3119C9.26591 13.0854 9.26592 12.7183 9.03983 12.4915L9.0397 13.3119ZM9.03973 12.4914C8.24897 11.7 7.81365 10.6476 7.81365 9.52792C7.81365 8.40825 8.24886 7.35592 9.0394 6.56425L9.03973 12.4914Z" fill="#888F9A" stroke="white" stroke-width="0.3"/>
<path d="M5.60122 15.9359L5.60122 15.9359C5.71444 16.0493 5.86258 16.1059 6.01089 16.1059C6.1592 16.1059 6.30734 16.0493 6.42056 15.9359C6.64676 15.7094 6.64681 15.342 6.42061 15.1157L6.5267 15.0096L6.42056 15.1156C4.93014 13.6231 4.10921 11.639 4.10921 9.52796C4.10921 7.43797 4.91401 5.47193 6.3767 3.9843V3.08003C6.14913 2.89404 5.81338 2.90728 5.60121 3.11974C3.89191 4.83142 2.95039 7.10732 2.95039 9.52796C2.95039 11.9486 3.89191 14.2245 5.60122 15.9359Z" fill="#888F9A" stroke="white" stroke-width="0.3"/>
<path d="M11.4198 11.1609V11.0637L11.3311 11.024C10.7596 10.768 10.3609 10.1951 10.3609 9.52774C10.3609 8.62174 11.0943 7.8873 11.9992 7.8873C12.9041 7.8873 13.6374 8.62174 13.6374 9.52774C13.6374 10.1951 13.2388 10.7678 12.6672 11.0239L12.5786 11.0637V11.1608V20.4704C12.5786 20.7904 12.3192 21.0498 11.9992 21.0498C11.6792 21.0498 11.4198 20.7904 11.4198 20.4704V11.1609Z" fill="#888F9A" stroke="white" stroke-width="0.3"/>
</svg>
