<svg width="24" height="24" viewBox="0 0 24 24" fill="none" xmlns="http://www.w3.org/2000/svg">
<path d="M18.0012 22.85H18.0013C18.1715 22.8502 18.3379 22.7992 18.4789 22.7037C18.6198 22.6083 18.7288 22.4727 18.7918 22.3145L18.7919 22.3143L20.7918 17.3144C20.8432 17.1857 20.8623 17.0464 20.8475 16.9086C20.8327 16.7708 20.7844 16.6388 20.7068 16.5239C20.6289 16.4086 20.5238 16.3142 20.4008 16.249C20.2778 16.1838 20.1406 16.1498 20.0014 16.15L20.0012 16.15L4.00117 16.15H4.00094C3.86171 16.1498 3.72456 16.1838 3.60154 16.249C3.47855 16.3142 3.37346 16.4086 3.29549 16.5239C3.21796 16.6388 3.16969 16.7708 3.15487 16.9086C3.14006 17.0464 3.15914 17.1856 3.21044 17.3143L18.0012 22.85ZM18.0012 22.85H6.00117H6.00102C5.83079 22.8502 5.66442 22.7992 5.52348 22.7037C5.38254 22.6083 5.27351 22.4727 5.21052 22.3145L5.21044 22.3143L3.21049 17.3144L18.0012 22.85ZM5.95917 12.606L5.85117 12.6375V12.75V14C5.85117 14.2254 5.76162 14.4416 5.60221 14.601C5.4428 14.7604 5.2266 14.85 5.00117 14.85C4.77573 14.85 4.55953 14.7604 4.40013 14.601C4.24072 14.4416 4.15117 14.2254 4.15117 14L4.15117 12.7502C4.15117 12.7502 4.15117 12.7502 4.15117 12.7501C4.15177 12.3487 4.28293 11.9583 4.52487 11.638C4.76682 11.3176 5.10642 11.0846 5.49242 10.9742L11.4914 9.2645C11.4915 9.26447 11.4917 9.26443 11.4918 9.2644C11.825 9.17166 12.1773 9.17166 12.5105 9.2644C12.5107 9.26443 12.5108 9.26447 12.5109 9.2645L18.5099 10.9742C18.8959 11.0846 19.2355 11.3176 19.4775 11.638C19.7194 11.9584 19.8506 12.3487 19.8512 12.7502V14C19.8512 14.2254 19.7616 14.4416 19.6022 14.601C19.4428 14.7604 19.2266 14.85 19.0012 14.85C18.7757 14.85 18.5595 14.7604 18.4001 14.601C18.2407 14.4416 18.1512 14.2254 18.1512 14V12.71V12.5968L18.0423 12.5657L12.0423 10.8557L12.0007 10.8439L11.9592 10.856L5.95917 12.606ZM6.54126 21.0541L6.57835 21.15H6.68117H17.3212H17.4227L17.4604 21.0557L18.6604 18.0557L18.7427 17.85H18.5212H5.52117H5.30235L5.38126 18.0541L6.54126 21.0541ZM12.0012 7.85C11.3386 7.85 10.6909 7.65353 10.14 7.28542C9.5891 6.91732 9.15973 6.39412 8.90617 5.78199C8.65262 5.16986 8.58628 4.49629 8.71554 3.84645C8.8448 3.19661 9.16386 2.5997 9.63236 2.13119C10.1009 1.66269 10.6978 1.34363 11.3476 1.21437C11.9975 1.08511 12.671 1.15145 13.2832 1.40501C13.8953 1.65856 14.4185 2.08794 14.7866 2.63884C15.1547 3.18975 15.3512 3.83743 15.3512 4.5C15.3512 5.38848 14.9982 6.24056 14.37 6.86881C13.7417 7.49706 12.8896 7.85 12.0012 7.85ZM12.0012 2.85C11.6748 2.85 11.3558 2.94677 11.0845 3.12808C10.8131 3.30938 10.6017 3.56708 10.4768 3.86857C10.3519 4.17007 10.3192 4.50183 10.3829 4.8219C10.4465 5.14197 10.6037 5.43597 10.8344 5.66673C11.0652 5.89748 11.3592 6.05463 11.6793 6.1183C11.9993 6.18196 12.3311 6.14929 12.6326 6.0244C12.9341 5.89952 13.1918 5.68803 13.3731 5.41669C13.5544 5.14535 13.6512 4.82634 13.6512 4.5C13.6512 4.06239 13.4773 3.64271 13.1679 3.33328C12.8585 3.02384 12.4388 2.85 12.0012 2.85Z" fill="#888F9A" stroke="white" stroke-width="0.3"/>
</svg>
