<svg width="24" height="24" viewBox="0 0 24 24" fill="none" xmlns="http://www.w3.org/2000/svg">
<path d="M8.15 6.00055V5.85055H8H7C6.695 5.85055 6.40249 5.97171 6.18683 6.18738C5.97116 6.40305 5.85 6.69555 5.85 7.00055V19.0006C5.85 19.3056 5.97116 19.5981 6.18683 19.8137C6.40249 20.0294 6.695 20.1506 7 20.1506H17C17.305 20.1506 17.5975 20.0294 17.8132 19.8137C18.0288 19.5981 18.15 19.3056 18.15 19.0006V7.00055C18.15 6.69556 18.0288 6.40305 17.8132 6.18738C17.5975 5.97171 17.305 5.85055 17 5.85055H16H15.85V6.00055V7.00055C15.85 7.22599 15.7604 7.44219 15.601 7.60159C15.4416 7.761 15.2254 7.85055 15 7.85055H9C8.77457 7.85055 8.55837 7.761 8.39896 7.60159C8.23955 7.44219 8.15 7.22599 8.15 7.00055V6.00055ZM14.6885 4.05033L14.7238 4.15055H14.83H17C17.7559 4.15055 18.4808 4.45082 19.0153 4.9853C19.5497 5.51978 19.85 6.24469 19.85 7.00055V19.0006C19.85 19.7564 19.5497 20.4813 19.0153 21.0158C18.4808 21.5503 17.7559 21.8506 17 21.8506H7C6.24413 21.8506 5.51922 21.5503 4.98475 21.0158C4.45027 20.4813 4.15 19.7564 4.15 19.0006V7.00055C4.15 6.24469 4.45027 5.51978 4.98475 4.9853C5.51922 4.45082 6.24413 4.15055 7 4.15055H9.17H9.27624L9.3115 4.05033C9.50733 3.49364 9.87115 3.01147 10.3527 2.67038C10.8343 2.32928 11.4099 2.14609 12 2.14609C12.5901 2.14609 13.1657 2.32928 13.6473 2.67038C14.1289 3.01147 14.4927 3.49364 14.6885 4.05033ZM12.9562 5.63946C13.0826 5.45034 13.15 5.228 13.15 5.00055C13.15 4.69555 13.0288 4.40305 12.8132 4.18738C12.5975 3.97171 12.305 3.85055 12 3.85055C11.7726 3.85055 11.5502 3.918 11.3611 4.04436C11.172 4.17073 11.0246 4.35033 10.9375 4.56047C10.8505 4.7706 10.8277 5.00183 10.8721 5.22491C10.9165 5.44799 11.026 5.6529 11.1868 5.81373C11.3477 5.97456 11.5526 6.08408 11.7756 6.12846C11.9987 6.17283 12.23 6.15006 12.4401 6.06301C12.6502 5.97597 12.8298 5.82858 12.9562 5.63946Z" fill="#888F9A" stroke="white" stroke-width="0.3"/>
</svg>
