<svg width="24" height="24" viewBox="0 0 24 24" fill="none" xmlns="http://www.w3.org/2000/svg">
<path d="M16.9967 5.8159L16.9968 5.81579C17.3282 5.48437 17.8632 5.48437 18.1946 5.81579C18.5161 6.13721 18.5161 6.68224 18.1946 7.00366L13.3046 11.8937L13.1986 11.9997L13.3046 12.1058L18.1946 16.9958C18.5261 17.3272 18.5261 17.8622 18.1946 18.1937C17.8632 18.5251 17.3282 18.5251 16.9968 18.1937L12.1068 13.3037L12.0007 13.1976L11.8946 13.3037L7.00464 18.1937C6.67322 18.5251 6.13819 18.5251 5.80677 18.1937C5.47535 17.8622 5.47535 17.3272 5.80677 16.9958L10.6968 12.1058L10.8028 11.9997L10.6968 11.8937L5.80677 7.00366C5.47535 6.67224 5.47535 6.13721 5.80677 5.80579C6.13819 5.47437 6.67322 5.47437 7.00464 5.80579L11.8946 10.6958L12.0006 10.8018L12.1067 10.6959L16.9967 5.8159Z" fill="#888F9A" stroke="white" stroke-width="0.3"/>
</svg>
