<svg width="24" height="24" viewBox="0 0 24 24" fill="none" xmlns="http://www.w3.org/2000/svg">
<path d="M17.56 20.31C15.9172 21.4163 13.9806 22.005 12 22C9.34784 22 6.8043 20.9465 4.92893 19.0711C3.05357 17.1957 2 14.6522 2 12C2 9.34787 3.05357 6.80433 4.92893 4.92896C6.8043 3.0536 9.34784 2.00003 12 2.00003C13.9806 1.99511 15.9172 2.58375 17.56 3.69003L17.4756 3.81401C17.4757 3.81407 17.4757 3.81413 17.4758 3.81419M17.56 20.31L17.4756 20.186C17.4757 20.186 17.4758 20.1859 17.4759 20.1858M17.56 20.31L17.4762 20.1856C17.4761 20.1857 17.476 20.1858 17.4759 20.1858M17.56 20.31L17.4758 3.81419M17.4758 3.81419C15.858 2.72482 13.9508 2.14518 12.0004 2.15003L12 2.15003C9.38762 2.15003 6.88223 3.1878 5.035 5.03503C3.18776 6.88226 2.15 9.38765 2.15 12C2.15 14.6124 3.18776 17.1178 5.035 18.965C6.88223 20.8123 9.38762 21.85 12 21.85H12.0004C13.9508 21.8549 15.858 21.2752 17.4759 20.1858M17.4758 3.81419C17.6606 3.94014 17.7884 4.13387 17.8313 4.35336C17.8743 4.57296 17.8289 4.80065 17.7051 4.98701L17.7049 4.98733C17.6431 5.08076 17.5635 5.16108 17.4706 5.22365C17.3777 5.28622 17.2734 5.32982 17.1636 5.35193C17.0538 5.37405 16.9407 5.37425 16.8308 5.35252C16.721 5.3308 16.6165 5.28758 16.5234 5.22534C15.2963 4.40476 13.8695 3.93283 12.3951 3.85997C10.9208 3.7871 9.45433 4.11602 8.15235 4.81161C6.85037 5.50721 5.76175 6.54335 5.00274 7.8094C4.24372 9.07546 3.84281 10.5239 3.84281 12C3.84281 13.4762 4.24372 14.9246 5.00274 16.1907C5.76175 17.4567 6.85037 18.4929 8.15235 19.1884C9.45433 19.884 10.9208 20.213 12.3951 20.1401C13.8695 20.0672 15.2963 19.5953 16.5234 18.7747C16.6165 18.7125 16.721 18.6693 16.8308 18.6475C16.9407 18.6258 17.0538 18.626 17.1636 18.6481C17.2734 18.6702 17.3777 18.7138 17.4706 18.7764C17.5635 18.839 17.6431 18.9193 17.7049 19.0127L17.7051 19.0131C17.8289 19.1994 17.8743 19.4271 17.8313 19.6467C17.7884 19.8662 17.6607 20.0599 17.4759 20.1858M19.336 13.1153L19.6543 12.85H19.24H10C9.77457 12.85 9.55837 12.7605 9.39896 12.6011C9.23955 12.4417 9.15 12.2255 9.15 12C9.15 11.7746 9.23955 11.5584 9.39896 11.399C9.55837 11.2396 9.77457 11.15 10 11.15H19.24H19.6543L19.336 10.8848L16.456 8.4848L16.4563 8.48451L16.4477 8.47836C16.353 8.41006 16.2734 8.32299 16.2138 8.22255C16.1542 8.12212 16.116 8.01049 16.1014 7.89462C16.0869 7.77875 16.0964 7.66113 16.1293 7.5491C16.1623 7.43707 16.218 7.33302 16.2929 7.24346C16.3678 7.15389 16.4604 7.08073 16.5649 7.02853C16.6693 6.97633 16.7834 6.94621 16.9 6.94005C17.0166 6.9339 17.1333 6.95184 17.2426 6.99275C17.352 7.03367 17.4518 7.09668 17.5357 7.17786L17.5354 7.17816L17.5441 7.18534L22.5441 11.3453L22.5443 11.3455C22.6405 11.4253 22.718 11.5253 22.7712 11.6384C22.8244 11.7516 22.852 11.875 22.852 12C22.852 12.125 22.8244 12.2485 22.7712 12.3616C22.718 12.4748 22.6405 12.5748 22.5443 12.6545L22.5441 12.6547L17.5441 16.8147L17.5441 16.8147L17.5425 16.816C17.3909 16.9457 17.1985 17.0179 16.9991 17.02C16.8744 17.0201 16.7513 16.9928 16.6384 16.94C16.5253 16.8871 16.4252 16.81 16.3453 16.714L16.3452 16.714C16.2737 16.6281 16.2197 16.5289 16.1866 16.4222C16.1534 16.3154 16.1416 16.2032 16.1518 16.0918C16.1621 15.9805 16.1942 15.8723 16.2464 15.7734C16.2985 15.6745 16.3697 15.5869 16.4557 15.5155L16.456 15.5153L19.336 13.1153Z" fill="#888F9A" stroke="white" stroke-width="0.3"/>
</svg>
