<svg width="24" height="24" viewBox="0 0 24 24" fill="none" xmlns="http://www.w3.org/2000/svg">
<path d="M14.1661 8.91393L14.06 8.80787L13.9539 8.91393L4.89393 17.9739L4.85 18.0179V18.08V19V19.15H5H5.92H5.98213L6.02607 19.1061L15.0861 10.0461L15.1921 9.94L15.0861 9.83393L14.1661 8.91393ZM17.0661 3.39607C17.2269 3.23523 17.4483 3.15 17.66 3.15C17.8837 3.15 18.0944 3.22657 18.2639 3.39607L20.6039 5.73607C20.9354 6.06749 20.9354 6.60251 20.6039 6.93393L18.88 8.65787L15.3421 5.12L17.0661 3.39607ZM3.15 17.3121L14.06 6.40213L17.5979 9.94L6.68787 20.85H3.15V17.3121Z" fill="#888F9A" stroke="white" stroke-width="0.3"/>
</svg>
