<svg width="24" height="24" viewBox="0 0 24 24" fill="none" xmlns="http://www.w3.org/2000/svg">
<path d="M10.4 17.85C10.2619 17.85 10.15 17.7381 10.15 17.6V16.4C10.15 16.2619 10.2619 16.15 10.4 16.15H13.6C13.7381 16.15 13.85 16.2619 13.85 16.4V17.6C13.85 17.7381 13.7381 17.85 13.6 17.85H10.4ZM3.15 6.4C3.15 6.26193 3.26193 6.15 3.4 6.15H20.6C20.7381 6.15 20.85 6.26193 20.85 6.4V7.6C20.85 7.73807 20.7381 7.85 20.6 7.85H3.4C3.26193 7.85 3.15 7.73807 3.15 7.6V6.4ZM6.4 12.85C6.26193 12.85 6.15 12.7381 6.15 12.6V11.4C6.15 11.2619 6.26193 11.15 6.4 11.15H17.6C17.7381 11.15 17.85 11.2619 17.85 11.4V12.6C17.85 12.7381 17.7381 12.85 17.6 12.85H6.4Z" fill="#888F9A" stroke="white" stroke-width="0.3"/>
</svg>
