<svg width="24" height="24" viewBox="0 0 24 24" fill="none" xmlns="http://www.w3.org/2000/svg">
<mask id="path-1-inside-1" fill="white">
<path fill-rule="evenodd" clip-rule="evenodd" d="M8.9 5C8.95523 5 9 5.04477 9 5.1V8.9C9 8.95523 8.95523 9 8.9 9H5.1C5.04477 9 5 8.95523 5 8.9V5.1C5 5.04477 5.04477 5 5.1 5H8.9ZM3.4 11C3.17909 11 3 10.8209 3 10.6V3.4C3 3.17909 3.17909 3 3.4 3H10.6C10.8209 3 11 3.17909 11 3.4V10.6C11 10.8209 10.8209 11 10.6 11H3.4ZM18.9 5C18.9552 5 19 5.04477 19 5.1V8.9C19 8.95523 18.9552 9 18.9 9H15.1C15.0448 9 15 8.95523 15 8.9V5.1C15 5.04477 15.0448 5 15.1 5H18.9ZM13.4 11C13.1791 11 13 10.8209 13 10.6V3.4C13 3.17909 13.1791 3 13.4 3H20.6C20.8209 3 21 3.17909 21 3.4V10.6C21 10.8209 20.8209 11 20.6 11H13.4ZM19 15.1C19 15.0448 18.9552 15 18.9 15H15.1C15.0448 15 15 15.0448 15 15.1V18.9C15 18.9552 15.0448 19 15.1 19H18.9C18.9552 19 19 18.9552 19 18.9V15.1ZM13.4 13C13.1791 13 13 13.1791 13 13.4V20.6C13 20.8209 13.1791 21 13.4 21H20.6C20.8209 21 21 20.8209 21 20.6V13.4C21 13.1791 20.8209 13 20.6 13H13.4ZM8.9 15C8.95523 15 9 15.0448 9 15.1V18.9C9 18.9552 8.95523 19 8.9 19H5.1C5.04477 19 5 18.9552 5 18.9V15.1C5 15.0448 5.04477 15 5.1 15H8.9ZM3.4 21C3.17909 21 3 20.8209 3 20.6V13.4C3 13.1791 3.17909 13 3.4 13H10.6C10.8209 13 11 13.1791 11 13.4V20.6C11 20.8209 10.8209 21 10.6 21H3.4Z"/>
</mask>
<path fill-rule="evenodd" clip-rule="evenodd" d="M8.9 5C8.95523 5 9 5.04477 9 5.1V8.9C9 8.95523 8.95523 9 8.9 9H5.1C5.04477 9 5 8.95523 5 8.9V5.1C5 5.04477 5.04477 5 5.1 5H8.9ZM3.4 11C3.17909 11 3 10.8209 3 10.6V3.4C3 3.17909 3.17909 3 3.4 3H10.6C10.8209 3 11 3.17909 11 3.4V10.6C11 10.8209 10.8209 11 10.6 11H3.4ZM18.9 5C18.9552 5 19 5.04477 19 5.1V8.9C19 8.95523 18.9552 9 18.9 9H15.1C15.0448 9 15 8.95523 15 8.9V5.1C15 5.04477 15.0448 5 15.1 5H18.9ZM13.4 11C13.1791 11 13 10.8209 13 10.6V3.4C13 3.17909 13.1791 3 13.4 3H20.6C20.8209 3 21 3.17909 21 3.4V10.6C21 10.8209 20.8209 11 20.6 11H13.4ZM19 15.1C19 15.0448 18.9552 15 18.9 15H15.1C15.0448 15 15 15.0448 15 15.1V18.9C15 18.9552 15.0448 19 15.1 19H18.9C18.9552 19 19 18.9552 19 18.9V15.1ZM13.4 13C13.1791 13 13 13.1791 13 13.4V20.6C13 20.8209 13.1791 21 13.4 21H20.6C20.8209 21 21 20.8209 21 20.6V13.4C21 13.1791 20.8209 13 20.6 13H13.4ZM8.9 15C8.95523 15 9 15.0448 9 15.1V18.9C9 18.9552 8.95523 19 8.9 19H5.1C5.04477 19 5 18.9552 5 18.9V15.1C5 15.0448 5.04477 15 5.1 15H8.9ZM3.4 21C3.17909 21 3 20.8209 3 20.6V13.4C3 13.1791 3.17909 13 3.4 13H10.6C10.8209 13 11 13.1791 11 13.4V20.6C11 20.8209 10.8209 21 10.6 21H3.4Z" fill="#888F9A"/>
<path d="M9.3 5.1C9.3 4.87909 9.12091 4.7 8.9 4.7V5.3C8.78954 5.3 8.7 5.21046 8.7 5.1H9.3ZM9.3 8.9V5.1H8.7V8.9H9.3ZM8.9 9.3C9.12091 9.3 9.3 9.12091 9.3 8.9H8.7C8.7 8.78954 8.78954 8.7 8.9 8.7V9.3ZM5.1 9.3H8.9V8.7H5.1V9.3ZM4.7 8.9C4.7 9.12091 4.87909 9.3 5.1 9.3V8.7C5.21046 8.7 5.3 8.78954 5.3 8.9H4.7ZM4.7 5.1V8.9H5.3V5.1H4.7ZM5.1 4.7C4.87909 4.7 4.7 4.87909 4.7 5.1H5.3C5.3 5.21046 5.21046 5.3 5.1 5.3V4.7ZM8.9 4.7H5.1V5.3H8.9V4.7ZM2.7 3.4V10.6H3.3V3.4H2.7ZM10.6 2.7H3.4V3.3H10.6V2.7ZM11.3 10.6V3.4H10.7V10.6H11.3ZM3.4 11.3H10.6V10.7H3.4V11.3ZM19.3 5.1C19.3 4.87909 19.1209 4.7 18.9 4.7V5.3C18.7895 5.3 18.7 5.21046 18.7 5.1H19.3ZM19.3 8.9V5.1H18.7V8.9H19.3ZM18.9 9.3C19.1209 9.3 19.3 9.12091 19.3 8.9H18.7C18.7 8.78954 18.7895 8.7 18.9 8.7V9.3ZM15.1 9.3H18.9V8.7H15.1V9.3ZM14.7 8.9C14.7 9.12091 14.8791 9.3 15.1 9.3V8.7C15.2105 8.7 15.3 8.78954 15.3 8.9H14.7ZM14.7 5.1V8.9H15.3V5.1H14.7ZM15.1 4.7C14.8791 4.7 14.7 4.87909 14.7 5.1H15.3C15.3 5.21046 15.2105 5.3 15.1 5.3V4.7ZM18.9 4.7H15.1V5.3H18.9V4.7ZM12.7 3.4V10.6H13.3V3.4H12.7ZM20.6 2.7H13.4V3.3H20.6V2.7ZM21.3 10.6V3.4H20.7V10.6H21.3ZM13.4 11.3H20.6V10.7H13.4V11.3ZM18.9 15.3C18.7895 15.3 18.7 15.2105 18.7 15.1H19.3C19.3 14.8791 19.1209 14.7 18.9 14.7V15.3ZM15.1 15.3H18.9V14.7H15.1V15.3ZM15.3 15.1C15.3 15.2105 15.2105 15.3 15.1 15.3V14.7C14.8791 14.7 14.7 14.8791 14.7 15.1H15.3ZM15.3 18.9V15.1H14.7V18.9H15.3ZM15.1 18.7C15.2105 18.7 15.3 18.7895 15.3 18.9H14.7C14.7 19.1209 14.8791 19.3 15.1 19.3V18.7ZM18.9 18.7H15.1V19.3H18.9V18.7ZM18.7 18.9C18.7 18.7895 18.7895 18.7 18.9 18.7V19.3C19.1209 19.3 19.3 19.1209 19.3 18.9H18.7ZM18.7 15.1V18.9H19.3V15.1H18.7ZM13.3 20.6V13.4H12.7V20.6H13.3ZM20.6 20.7H13.4V21.3H20.6V20.7ZM20.7 13.4V20.6H21.3V13.4H20.7ZM13.4 13.3H20.6V12.7H13.4V13.3ZM9.3 15.1C9.3 14.8791 9.12091 14.7 8.9 14.7V15.3C8.78954 15.3 8.7 15.2105 8.7 15.1H9.3ZM9.3 18.9V15.1H8.7V18.9H9.3ZM8.9 19.3C9.12091 19.3 9.3 19.1209 9.3 18.9H8.7C8.7 18.7895 8.78954 18.7 8.9 18.7V19.3ZM5.1 19.3H8.9V18.7H5.1V19.3ZM4.7 18.9C4.7 19.1209 4.87909 19.3 5.1 19.3V18.7C5.21046 18.7 5.3 18.7895 5.3 18.9H4.7ZM4.7 15.1V18.9H5.3V15.1H4.7ZM5.1 14.7C4.87909 14.7 4.7 14.8791 4.7 15.1H5.3C5.3 15.2105 5.21046 15.3 5.1 15.3V14.7ZM8.9 14.7H5.1V15.3H8.9V14.7ZM2.7 13.4V20.6H3.3V13.4H2.7ZM10.6 12.7H3.4V13.3H10.6V12.7ZM11.3 20.6V13.4H10.7V20.6H11.3ZM3.4 21.3H10.6V20.7H3.4V21.3ZM10.7 20.6C10.7 20.6552 10.6552 20.7 10.6 20.7V21.3C10.9866 21.3 11.3 20.9866 11.3 20.6H10.7ZM21.3 13.4C21.3 13.0134 20.9866 12.7 20.6 12.7V13.3C20.6552 13.3 20.7 13.3448 20.7 13.4H21.3ZM10.7 10.6C10.7 10.6552 10.6552 10.7 10.6 10.7V11.3C10.9866 11.3 11.3 10.9866 11.3 10.6H10.7ZM20.6 21.3C20.9866 21.3 21.3 20.9866 21.3 20.6H20.7C20.7 20.6552 20.6552 20.7 20.6 20.7V21.3ZM10.6 13.3C10.6552 13.3 10.7 13.3448 10.7 13.4H11.3C11.3 13.0134 10.9866 12.7 10.6 12.7V13.3ZM20.7 10.6C20.7 10.6552 20.6552 10.7 20.6 10.7V11.3C20.9866 11.3 21.3 10.9866 21.3 10.6H20.7ZM10.6 3.3C10.6552 3.3 10.7 3.34477 10.7 3.4H11.3C11.3 3.0134 10.9866 2.7 10.6 2.7V3.3ZM13.3 13.4C13.3 13.3448 13.3448 13.3 13.4 13.3V12.7C13.0134 12.7 12.7 13.0134 12.7 13.4H13.3ZM2.7 20.6C2.7 20.9866 3.0134 21.3 3.4 21.3V20.7C3.34477 20.7 3.3 20.6552 3.3 20.6H2.7ZM20.6 3.3C20.6552 3.3 20.7 3.34477 20.7 3.4H21.3C21.3 3.0134 20.9866 2.7 20.6 2.7V3.3ZM12.7 20.6C12.7 20.9866 13.0134 21.3 13.4 21.3V20.7C13.3448 20.7 13.3 20.6552 13.3 20.6H12.7ZM2.7 10.6C2.7 10.9866 3.0134 11.3 3.4 11.3V10.7C3.34477 10.7 3.3 10.6552 3.3 10.6H2.7ZM13.3 3.4C13.3 3.34477 13.3448 3.3 13.4 3.3V2.7C13.0134 2.7 12.7 3.0134 12.7 3.4H13.3ZM3.3 13.4C3.3 13.3448 3.34477 13.3 3.4 13.3V12.7C3.0134 12.7 2.7 13.0134 2.7 13.4H3.3ZM12.7 10.6C12.7 10.9866 13.0134 11.3 13.4 11.3V10.7C13.3448 10.7 13.3 10.6552 13.3 10.6H12.7ZM3.3 3.4C3.3 3.34477 3.34477 3.3 3.4 3.3V2.7C3.0134 2.7 2.7 3.0134 2.7 3.4H3.3Z" fill="white" mask="url(#path-1-inside-1)"/>
</svg>
