<svg width="24" height="24" viewBox="0 0 24 24" fill="none" xmlns="http://www.w3.org/2000/svg">
<mask id="path-1-inside-1" fill="white">
<path fill-rule="evenodd" clip-rule="evenodd" d="M6 8V2H18V8H17.99L18 8.01L14 12L18 16L17.99 16.01H18V22H6V16.01H6.01L6 16L10 12L6 8.01L6.01 8H6ZM16 17V16.5L12 12.5L8 16.5V17H16ZM8 4V7.5L12 11.5L16 7.5V4H8Z"/>
</mask>
<path fill-rule="evenodd" clip-rule="evenodd" d="M6 8V2H18V8H17.99L18 8.01L14 12L18 16L17.99 16.01H18V22H6V16.01H6.01L6 16L10 12L6 8.01L6.01 8H6ZM16 17V16.5L12 12.5L8 16.5V17H16ZM8 4V7.5L12 11.5L16 7.5V4H8Z" fill="#888F9A"/>
<path d="M6 2V1.7H5.7V2H6ZM6 8H5.7V8.3H6V8ZM18 2H18.3V1.7H18V2ZM18 8V8.3H18.3V8H18ZM17.99 8V7.7H17.2657L17.7779 8.21213L17.99 8ZM18 8.01L18.2119 8.2224L18.4245 8.01027L18.2121 7.79787L18 8.01ZM14 12L13.7881 11.7876L13.5755 11.9997L13.7879 12.2121L14 12ZM18 16L18.2121 16.2121L18.4243 16L18.2121 15.7879L18 16ZM17.99 16.01L17.7779 15.7979L17.2657 16.31H17.99V16.01ZM18 16.01H18.3V15.71H18V16.01ZM18 22V22.3H18.3V22H18ZM6 22H5.7V22.3H6V22ZM6 16.01V15.71H5.7V16.01H6ZM6.01 16.01V16.31H6.73426L6.22213 15.7979L6.01 16.01ZM6 16L5.78787 15.7879L5.57574 16L5.78787 16.2121L6 16ZM10 12L10.2121 12.2121L10.4245 11.9997L10.2119 11.7876L10 12ZM6 8.01L5.78787 7.79787L5.57547 8.01027L5.78813 8.2224L6 8.01ZM6.01 8L6.22213 8.21213L6.73426 7.7H6.01V8ZM16 16.5H16.3V16.3757L16.2121 16.2879L16 16.5ZM16 17V17.3H16.3V17H16ZM12 12.5L12.2121 12.2879L12 12.0757L11.7879 12.2879L12 12.5ZM8 16.5L7.78787 16.2879L7.7 16.3757V16.5H8ZM8 17H7.7V17.3H8V17ZM8 7.5H7.7V7.62426L7.78787 7.71213L8 7.5ZM8 4V3.7H7.7V4H8ZM12 11.5L11.7879 11.7121L12 11.9243L12.2121 11.7121L12 11.5ZM16 7.5L16.2121 7.71213L16.3 7.62426V7.5H16ZM16 4H16.3V3.7H16V4ZM5.7 2V8H6.3V2H5.7ZM18 1.7H6V2.3H18V1.7ZM18.3 8V2H17.7V8H18.3ZM17.99 8.3H18V7.7H17.99V8.3ZM18.2121 7.79787L18.2021 7.78787L17.7779 8.21213L17.7879 8.22213L18.2121 7.79787ZM14.2119 12.2124L18.2119 8.2224L17.7881 7.7976L13.7881 11.7876L14.2119 12.2124ZM18.2121 15.7879L14.2121 11.7879L13.7879 12.2121L17.7879 16.2121L18.2121 15.7879ZM18.2021 16.2221L18.2121 16.2121L17.7879 15.7879L17.7779 15.7979L18.2021 16.2221ZM18 15.71H17.99V16.31H18V15.71ZM18.3 22V16.01H17.7V22H18.3ZM6 22.3H18V21.7H6V22.3ZM5.7 16.01V22H6.3V16.01H5.7ZM6.01 15.71H6V16.31H6.01V15.71ZM5.78787 16.2121L5.79787 16.2221L6.22213 15.7979L6.21213 15.7879L5.78787 16.2121ZM9.78787 11.7879L5.78787 15.7879L6.21213 16.2121L10.2121 12.2121L9.78787 11.7879ZM5.78813 8.2224L9.78813 12.2124L10.2119 11.7876L6.21187 7.7976L5.78813 8.2224ZM5.79787 7.78787L5.78787 7.79787L6.21213 8.22213L6.22213 8.21213L5.79787 7.78787ZM6 8.3H6.01V7.7H6V8.3ZM15.7 16.5V17H16.3V16.5H15.7ZM11.7879 12.7121L15.7879 16.7121L16.2121 16.2879L12.2121 12.2879L11.7879 12.7121ZM8.21213 16.7121L12.2121 12.7121L11.7879 12.2879L7.78787 16.2879L8.21213 16.7121ZM8.3 17V16.5H7.7V17H8.3ZM8 17.3H16V16.7H8V17.3ZM8.3 7.5V4H7.7V7.5H8.3ZM12.2121 11.2879L8.21213 7.28787L7.78787 7.71213L11.7879 11.7121L12.2121 11.2879ZM15.7879 7.28787L11.7879 11.2879L12.2121 11.7121L16.2121 7.71213L15.7879 7.28787ZM15.7 4V7.5H16.3V4H15.7ZM8 4.3H16V3.7H8V4.3Z" fill="white" mask="url(#path-1-inside-1)"/>
</svg>
