<svg width="24" height="24" viewBox="0 0 24 24" fill="none" xmlns="http://www.w3.org/2000/svg">
<mask id="path-1-inside-1" fill="white">
<path fill-rule="evenodd" clip-rule="evenodd" d="M20.3147 6.4443C21.4135 8.08879 22 10.0222 22 12C22 14.6522 20.9464 17.1957 19.0711 19.0711C17.1957 20.9464 14.6522 22 12 22C10.0222 22 8.08879 21.4135 6.4443 20.3147C4.79981 19.2159 3.51809 17.6541 2.76121 15.8268C2.00433 13.9996 1.8063 11.9889 2.19215 10.0491C2.578 8.10929 3.53041 6.32746 4.92894 4.92894C6.32746 3.53041 8.10929 2.578 10.0491 2.19215C11.9889 1.8063 13.9996 2.00433 15.8268 2.76121C17.6541 3.51809 19.2159 4.79981 20.3147 6.4443ZM18.6518 16.4446C19.5308 15.129 20 13.5823 20 12C20 9.87827 19.1572 7.84344 17.6569 6.34315C16.1566 4.84286 14.1217 4 12 4C10.4178 4 8.87104 4.4692 7.55544 5.34825C6.23985 6.2273 5.21447 7.47673 4.60897 8.93854C4.00347 10.4003 3.84504 12.0089 4.15372 13.5607C4.4624 15.1126 5.22433 16.538 6.34315 17.6569C7.46197 18.7757 8.88743 19.5376 10.4393 19.8463C11.9911 20.155 13.5997 19.9965 15.0615 19.391C16.5233 18.7855 17.7727 17.7602 18.6518 16.4446ZM12.8315 8.05557C12.9414 7.89112 13 7.69778 13 7.5C13 7.23478 12.8946 6.98043 12.7071 6.79289C12.5196 6.60536 12.2652 6.5 12 6.5C11.8022 6.5 11.6089 6.55865 11.4444 6.66853C11.28 6.77841 11.1518 6.93459 11.0761 7.11732C11.0004 7.30004 10.9806 7.50111 11.0192 7.69509C11.0578 7.88907 11.153 8.06725 11.2929 8.20711C11.4327 8.34696 11.6109 8.4422 11.8049 8.48079C11.9989 8.51937 12.2 8.49957 12.3827 8.42388C12.5654 8.34819 12.7216 8.22002 12.8315 8.05557ZM13 11.5V16.5C13 16.7652 12.8946 17.0196 12.7071 17.2071C12.5196 17.3946 12.2652 17.5 12 17.5C11.7348 17.5 11.4804 17.3946 11.2929 17.2071C11.1054 17.0196 11 16.7652 11 16.5V11.5C11 11.2348 11.1054 10.9804 11.2929 10.7929C11.4804 10.6054 11.7348 10.5 12 10.5C12.2652 10.5 12.5196 10.6054 12.7071 10.7929C12.8946 10.9804 13 11.2348 13 11.5Z"/>
</mask>
<path fill-rule="evenodd" clip-rule="evenodd" d="M20.3147 6.4443C21.4135 8.08879 22 10.0222 22 12C22 14.6522 20.9464 17.1957 19.0711 19.0711C17.1957 20.9464 14.6522 22 12 22C10.0222 22 8.08879 21.4135 6.4443 20.3147C4.79981 19.2159 3.51809 17.6541 2.76121 15.8268C2.00433 13.9996 1.8063 11.9889 2.19215 10.0491C2.578 8.10929 3.53041 6.32746 4.92894 4.92894C6.32746 3.53041 8.10929 2.578 10.0491 2.19215C11.9889 1.8063 13.9996 2.00433 15.8268 2.76121C17.6541 3.51809 19.2159 4.79981 20.3147 6.4443ZM18.6518 16.4446C19.5308 15.129 20 13.5823 20 12C20 9.87827 19.1572 7.84344 17.6569 6.34315C16.1566 4.84286 14.1217 4 12 4C10.4178 4 8.87104 4.4692 7.55544 5.34825C6.23985 6.2273 5.21447 7.47673 4.60897 8.93854C4.00347 10.4003 3.84504 12.0089 4.15372 13.5607C4.4624 15.1126 5.22433 16.538 6.34315 17.6569C7.46197 18.7757 8.88743 19.5376 10.4393 19.8463C11.9911 20.155 13.5997 19.9965 15.0615 19.391C16.5233 18.7855 17.7727 17.7602 18.6518 16.4446ZM12.8315 8.05557C12.9414 7.89112 13 7.69778 13 7.5C13 7.23478 12.8946 6.98043 12.7071 6.79289C12.5196 6.60536 12.2652 6.5 12 6.5C11.8022 6.5 11.6089 6.55865 11.4444 6.66853C11.28 6.77841 11.1518 6.93459 11.0761 7.11732C11.0004 7.30004 10.9806 7.50111 11.0192 7.69509C11.0578 7.88907 11.153 8.06725 11.2929 8.20711C11.4327 8.34696 11.6109 8.4422 11.8049 8.48079C11.9989 8.51937 12.2 8.49957 12.3827 8.42388C12.5654 8.34819 12.7216 8.22002 12.8315 8.05557ZM13 11.5V16.5C13 16.7652 12.8946 17.0196 12.7071 17.2071C12.5196 17.3946 12.2652 17.5 12 17.5C11.7348 17.5 11.4804 17.3946 11.2929 17.2071C11.1054 17.0196 11 16.7652 11 16.5V11.5C11 11.2348 11.1054 10.9804 11.2929 10.7929C11.4804 10.6054 11.7348 10.5 12 10.5C12.2652 10.5 12.5196 10.6054 12.7071 10.7929C12.8946 10.9804 13 11.2348 13 11.5Z" fill="#888F9A"/>
<path d="M20.3147 6.4443L20.5641 6.27763L20.3147 6.4443ZM19.0711 19.0711L18.8589 18.8589L19.0711 19.0711ZM6.4443 20.3147L6.27763 20.5641L6.4443 20.3147ZM2.76121 15.8268L2.48405 15.9416L2.76121 15.8268ZM2.19215 10.0491L1.89792 9.99057L2.19215 10.0491ZM4.92894 4.92894L5.14107 5.14107L4.92894 4.92894ZM10.0491 2.19215L9.99057 1.89792L10.0491 2.19215ZM15.8268 2.76121L15.9416 2.48405L15.8268 2.76121ZM18.6518 16.4446L18.4023 16.2779L18.6518 16.4446ZM7.55544 5.34825L7.38877 5.09881L7.55544 5.34825ZM4.60897 8.93854L4.3318 8.82373L4.60897 8.93854ZM6.34315 17.6569L6.13102 17.869L6.34315 17.6569ZM10.4393 19.8463L10.3808 20.1405L10.4393 19.8463ZM12.8315 8.05557L13.0809 8.22224V8.22224L12.8315 8.05557ZM12.7071 6.79289L12.9192 6.58076L12.9192 6.58076L12.7071 6.79289ZM11.4444 6.66853L11.6111 6.91797L11.6111 6.91797L11.4444 6.66853ZM11.0761 7.11732L11.3533 7.23212L11.3533 7.23212L11.0761 7.11732ZM11.0192 7.69509L11.3135 7.63656L11.3135 7.63656L11.0192 7.69509ZM11.2929 8.20711L11.505 7.99497L11.505 7.99497L11.2929 8.20711ZM11.8049 8.48079L11.8634 8.18655L11.8634 8.18655L11.8049 8.48079ZM12.3827 8.42388L12.2679 8.14672L12.3827 8.42388ZM12.7071 17.2071L12.9192 17.4192H12.9192L12.7071 17.2071ZM11.2929 17.2071L11.505 16.995H11.505L11.2929 17.2071ZM11.2929 10.7929L11.505 11.005H11.505L11.2929 10.7929ZM12.7071 10.7929L12.9192 10.5808H12.9192L12.7071 10.7929ZM22.3 12C22.3 9.96286 21.6959 7.97146 20.5641 6.27763L20.0653 6.61097C21.1311 8.20613 21.7 10.0815 21.7 12H22.3ZM19.2832 19.2832C21.2148 17.3516 22.3 14.7317 22.3 12H21.7C21.7 14.5726 20.678 17.0398 18.8589 18.8589L19.2832 19.2832ZM12 22.3C14.7317 22.3 17.3516 21.2148 19.2832 19.2832L18.8589 18.8589C17.0398 20.678 14.5726 21.7 12 21.7V22.3ZM6.27763 20.5641C7.97146 21.6959 9.96286 22.3 12 22.3V21.7C10.0815 21.7 8.20613 21.1311 6.61097 20.0653L6.27763 20.5641ZM2.48405 15.9416C3.26363 17.8237 4.5838 19.4324 6.27763 20.5641L6.61097 20.0653C5.01582 18.9994 3.77254 17.4845 3.03837 15.712L2.48405 15.9416ZM1.89792 9.99057C1.50049 11.9886 1.70446 14.0596 2.48405 15.9416L3.03837 15.712C2.3042 13.9396 2.11211 11.9892 2.48639 10.1076L1.89792 9.99057ZM4.7168 4.7168C3.27632 6.15729 2.29534 7.99257 1.89792 9.99057L2.48639 10.1076C2.86066 8.22601 3.7845 6.49764 5.14107 5.14107L4.7168 4.7168ZM9.99057 1.89792C7.99257 2.29534 6.15729 3.27632 4.7168 4.7168L5.14107 5.14107C6.49764 3.7845 8.22601 2.86066 10.1076 2.48639L9.99057 1.89792ZM15.9416 2.48405C14.0596 1.70446 11.9886 1.50049 9.99057 1.89792L10.1076 2.48639C11.9892 2.11211 13.9396 2.3042 15.712 3.03837L15.9416 2.48405ZM20.5641 6.27763C19.4324 4.5838 17.8237 3.26363 15.9416 2.48405L15.712 3.03837C17.4845 3.77254 18.9994 5.01582 20.0653 6.61097L20.5641 6.27763ZM19.7 12C19.7 13.5229 19.2484 15.0116 18.4023 16.2779L18.9012 16.6112C19.8132 15.2463 20.3 13.6416 20.3 12H19.7ZM17.4447 6.55528C18.8888 7.99931 19.7 9.95784 19.7 12H20.3C20.3 9.79871 19.4255 7.68757 17.869 6.13102L17.4447 6.55528ZM12 4.3C14.0422 4.3 16.0007 5.11125 17.4447 6.55528L17.869 6.13102C16.3124 4.57447 14.2013 3.7 12 3.7V4.3ZM7.72211 5.59769C8.98837 4.7516 10.4771 4.3 12 4.3V3.7C10.3584 3.7 8.7537 4.18679 7.38877 5.09881L7.72211 5.59769ZM4.88613 9.05334C5.46893 7.64635 6.45585 6.44378 7.72211 5.59769L7.38877 5.09881C6.02384 6.01082 4.96001 7.30711 4.3318 8.82373L4.88613 9.05334ZM4.44796 13.5022C4.15085 12.0085 4.30334 10.4603 4.88613 9.05334L4.3318 8.82373C3.7036 10.3404 3.53923 12.0092 3.85949 13.6193L4.44796 13.5022ZM6.55528 17.4447C5.47842 16.3679 4.74506 14.9959 4.44796 13.5022L3.85949 13.6193C4.17974 15.2293 4.97024 16.7082 6.13102 17.869L6.55528 17.4447ZM10.4978 19.5521C9.00416 19.2549 7.63215 18.5216 6.55528 17.4447L6.13102 17.869C7.29179 19.0298 8.77071 19.8203 10.3808 20.1405L10.4978 19.5521ZM14.9467 19.1139C13.5397 19.6967 11.9915 19.8492 10.4978 19.5521L10.3808 20.1405C11.9908 20.4608 13.6596 20.2964 15.1763 19.6682L14.9467 19.1139ZM18.4023 16.2779C17.5562 17.5442 16.3537 18.5311 14.9467 19.1139L15.1763 19.6682C16.6929 19.04 17.9892 17.9762 18.9012 16.6112L18.4023 16.2779ZM12.7 7.5C12.7 7.63845 12.6589 7.77379 12.582 7.8889L13.0809 8.22224C13.2238 8.00846 13.3 7.75711 13.3 7.5H12.7ZM12.495 7.00503C12.6263 7.1363 12.7 7.31435 12.7 7.5H13.3C13.3 7.15522 13.163 6.82456 12.9192 6.58076L12.495 7.00503ZM12 6.8C12.1857 6.8 12.3637 6.87375 12.495 7.00503L12.9192 6.58076C12.6754 6.33696 12.3448 6.2 12 6.2V6.8ZM11.6111 6.91797C11.7262 6.84105 11.8616 6.8 12 6.8V6.2C11.7429 6.2 11.4915 6.27624 11.2778 6.41909L11.6111 6.91797ZM11.3533 7.23212C11.4063 7.10421 11.496 6.99489 11.6111 6.91797L11.2778 6.41909C11.064 6.56194 10.8974 6.76497 10.799 7.00251L11.3533 7.23212ZM11.3135 7.63656C11.2864 7.50078 11.3003 7.36003 11.3533 7.23212L10.799 7.00251C10.7006 7.24006 10.6748 7.50144 10.725 7.75362L11.3135 7.63656ZM11.505 7.99497C11.4071 7.89708 11.3405 7.77235 11.3135 7.63656L10.725 7.75362C10.7751 8.00579 10.899 8.23743 11.0808 8.41924L11.505 7.99497ZM11.8634 8.18655C11.7277 8.15954 11.6029 8.09287 11.505 7.99497L11.0808 8.41924C11.2626 8.60105 11.4942 8.72486 11.7464 8.77502L11.8634 8.18655ZM12.2679 8.14672C12.14 8.1997 11.9992 8.21356 11.8634 8.18655L11.7464 8.77502C11.9986 8.82518 12.2599 8.79944 12.4975 8.70104L12.2679 8.14672ZM12.582 7.8889C12.5051 8.00401 12.3958 8.09373 12.2679 8.14672L12.4975 8.70104C12.735 8.60265 12.9381 8.43602 13.0809 8.22224L12.582 7.8889ZM13.3 16.5V11.5H12.7V16.5H13.3ZM12.9192 17.4192C13.163 17.1754 13.3 16.8448 13.3 16.5H12.7C12.7 16.6857 12.6263 16.8637 12.495 16.995L12.9192 17.4192ZM12 17.8C12.3448 17.8 12.6754 17.663 12.9192 17.4192L12.495 16.995C12.3637 17.1263 12.1857 17.2 12 17.2V17.8ZM11.0808 17.4192C11.3246 17.663 11.6552 17.8 12 17.8V17.2C11.8143 17.2 11.6363 17.1263 11.505 16.995L11.0808 17.4192ZM10.7 16.5C10.7 16.8448 10.837 17.1754 11.0808 17.4192L11.505 16.995C11.3738 16.8637 11.3 16.6857 11.3 16.5H10.7ZM10.7 11.5V16.5H11.3V11.5H10.7ZM11.0808 10.5808C10.837 10.8246 10.7 11.1552 10.7 11.5H11.3C11.3 11.3143 11.3738 11.1363 11.505 11.005L11.0808 10.5808ZM12 10.2C11.6552 10.2 11.3246 10.337 11.0808 10.5808L11.505 11.005C11.6363 10.8738 11.8143 10.8 12 10.8V10.2ZM12.9192 10.5808C12.6754 10.337 12.3448 10.2 12 10.2V10.8C12.1857 10.8 12.3637 10.8738 12.495 11.005L12.9192 10.5808ZM13.3 11.5C13.3 11.1552 13.163 10.8246 12.9192 10.5808L12.495 11.005C12.6263 11.1363 12.7 11.3143 12.7 11.5H13.3Z" fill="white" mask="url(#path-1-inside-1)"/>
</svg>
