<svg width="24" height="24" viewBox="0 0 24 24" fill="none" xmlns="http://www.w3.org/2000/svg">
<path d="M13.32 9.15H23.85V14.85H22H21.85V15V18.85H16.15V15V14.85H16H13.32H13.2249L13.1843 14.9361C12.069 17.3037 9.66171 18.85 7 18.85C3.22284 18.85 0.15 15.7772 0.15 12C0.15 8.22284 3.22284 5.15 7 5.15C9.66138 5.15 12.0591 6.69602 13.1845 9.06438L13.2252 9.15H13.32ZM17.85 17V17.15H18H20H20.15V17V13.15H22H22.15V13V11V10.85H22H12.0471L11.8519 10.2813L11.8515 10.2802C11.1303 8.2299 9.17336 6.85 7 6.85C4.15716 6.85 1.85 9.15716 1.85 12C1.85 14.8428 4.15716 17.15 7 17.15C9.17336 17.15 11.1303 15.7701 11.8515 13.7198L11.8519 13.7187L12.0471 13.15H17.85V17ZM7 14.85C5.43284 14.85 4.15 13.5672 4.15 12C4.15 10.4328 5.43284 9.15 7 9.15C8.56716 9.15 9.85 10.4328 9.85 12C9.85 13.5672 8.56716 14.85 7 14.85ZM7 10.85C6.36716 10.85 5.85 11.3672 5.85 12C5.85 12.6328 6.36716 13.15 7 13.15C7.63284 13.15 8.15 12.6328 8.15 12C8.15 11.3672 7.63284 10.85 7 10.85Z" fill="#888F9A" stroke="white" stroke-width="0.3"/>
</svg>
