<svg width="24" height="24" viewBox="0 0 24 24" fill="none" xmlns="http://www.w3.org/2000/svg">
<path d="M8.48176 17.6393C8.57578 17.7522 8.69352 17.843 8.82661 17.9052C8.95969 17.9674 9.10485 17.9995 9.25176 17.9993L8.48176 17.6393ZM8.48176 17.6393C8.39756 17.5382 8.33412 17.4216 8.29507 17.296C8.25603 17.1704 8.24215 17.0383 8.25422 16.9073C8.2663 16.7764 8.3041 16.649 8.36545 16.5327C8.4268 16.4163 8.5105 16.3132 8.61176 16.2293L8.48176 17.6393ZM9.25205 17.8493L9.25152 17.8493C9.12664 17.8495 9.00326 17.8222 8.89014 17.7693C8.77701 17.7164 8.67694 17.6392 8.59702 17.5433L8.597 17.5433C8.52542 17.4574 8.4715 17.3582 8.43831 17.2515C8.40513 17.1447 8.39333 17.0324 8.40359 16.9211C8.41385 16.8098 8.44598 16.7016 8.49813 16.6027C8.55028 16.5038 8.62143 16.4161 8.7075 16.3448L8.70763 16.3449L8.71353 16.3395L13.2935 12.1095L13.4129 11.9993L13.2935 11.8891L8.71353 7.65911L8.71367 7.65896L8.70764 7.65394C8.53402 7.50963 8.42483 7.30226 8.40411 7.07745C8.38338 6.85264 8.45281 6.6288 8.59712 6.45518C8.74143 6.28156 8.9488 6.17237 9.17361 6.15164C9.39736 6.13102 9.62015 6.19969 9.79342 6.34262L15.2909 11.3403L15.2908 11.3404L15.2961 11.3448C15.3936 11.4256 15.4735 11.5261 15.526 11.6377C15.5778 11.7478 15.6018 11.8707 15.6018 11.9993C15.6018 12.1279 15.5778 12.2508 15.526 12.3609C15.4735 12.4725 15.3936 12.573 15.2961 12.6538L15.296 12.6537L15.2909 12.6583L9.7935 17.6559C9.64099 17.7813 9.44955 17.8497 9.25205 17.8493Z" fill="#888F9A" stroke="white" stroke-width="0.3"/>
</svg>
