<svg width="24" height="24" viewBox="0 0 24 24" fill="none" xmlns="http://www.w3.org/2000/svg">
<path d="M6.35875 15.7692C6.24587 15.6752 6.15509 15.5575 6.09286 15.4244C6.03064 15.2913 5.99851 15.1461 5.99875 14.9992L6.35875 15.7692ZM6.35875 15.7692C6.4598 15.8534 6.57646 15.9169 6.70207 15.9559C6.82767 15.9949 6.95974 16.0088 7.09072 15.9968C7.2217 15.9847 7.349 15.9469 7.46535 15.8855C7.5817 15.8242 7.6848 15.7405 7.76875 15.6392L6.35875 15.7692ZM6.14875 14.9989L6.14875 14.9995C6.14855 15.1243 6.17586 15.2477 6.22875 15.3608C6.28163 15.474 6.3588 15.574 6.45475 15.654L6.45477 15.654C6.54066 15.7256 6.63983 15.7795 6.74659 15.8127C6.85336 15.8459 6.96562 15.8577 7.07695 15.8474C7.18828 15.8371 7.29649 15.805 7.39538 15.7528C7.49428 15.7007 7.58192 15.6295 7.65327 15.5435L7.65348 15.5432L11.8835 10.4632L11.9987 10.3248L12.114 10.4632L16.344 15.5432L16.3441 15.5433C16.4884 15.717 16.6958 15.8261 16.9206 15.8469C17.1454 15.8676 17.3692 15.7982 17.5429 15.6539C17.7165 15.5096 17.8257 15.3022 17.8464 15.0774C17.8671 14.8526 17.7977 14.6288 17.6534 14.4551C17.6534 14.4551 17.6534 14.4551 17.6534 14.4551L12.6535 8.45524L12.6532 8.45492C12.5735 8.35867 12.4735 8.28119 12.3604 8.22801C12.2472 8.17483 12.1238 8.14726 11.9987 8.14726C11.8737 8.14726 11.7503 8.17483 11.6371 8.22801C11.524 8.28119 11.424 8.35867 11.3442 8.45492L11.344 8.45524L6.34425 14.4549C6.34418 14.455 6.34412 14.4551 6.34406 14.4552C6.21746 14.608 6.14836 14.8004 6.14875 14.9989Z" fill="#888F9A" stroke="white" stroke-width="0.3"/>
</svg>
