<svg width="24" height="24" viewBox="0 0 24 24" fill="none" xmlns="http://www.w3.org/2000/svg">
<path d="M17.6413 8.22883C17.7541 8.32285 17.8449 8.44059 17.9071 8.57368C17.9694 8.70676 18.0015 8.85192 18.0013 8.99883L17.6413 8.22883ZM17.6413 8.22883C17.5402 8.14463 17.4235 8.08119 17.2979 8.04214C17.1723 8.0031 17.0403 7.98922 16.9093 8.00129C16.7783 8.01337 16.651 8.05117 16.5346 8.11252C16.4183 8.17387 16.3152 8.25757 16.2313 8.35883L17.6413 8.22883ZM17.8513 8.99912L17.8513 8.99859C17.8515 8.87371 17.8241 8.75033 17.7713 8.63721C17.7184 8.52409 17.6412 8.42401 17.5453 8.34409L17.5452 8.34407C17.4593 8.2725 17.3602 8.21857 17.2534 8.18538C17.1466 8.1522 17.0344 8.1404 16.9231 8.15066C16.8117 8.16093 16.7035 8.19305 16.6046 8.2452C16.5057 8.29735 16.4181 8.3685 16.3467 8.45457L16.3465 8.45481L12.1165 13.5348L12.0013 13.6732L11.886 13.5348L7.65598 8.45481L7.6559 8.45471C7.51159 8.28109 7.30422 8.1719 7.0794 8.15118C6.85459 8.13045 6.63075 8.19988 6.45713 8.34419C6.28351 8.4885 6.17433 8.69587 6.1536 8.92068C6.13287 9.14547 6.20229 9.36929 6.34657 9.54291C6.34659 9.54292 6.3466 9.54294 6.34661 9.54295L11.3465 15.5428L11.3468 15.5431C11.4265 15.6394 11.5265 15.7169 11.6396 15.77C11.7528 15.8232 11.8762 15.8508 12.0013 15.8508C12.1263 15.8508 12.2497 15.8232 12.3629 15.77C12.476 15.7169 12.576 15.6394 12.6558 15.5431L12.656 15.5428L17.6558 9.54312C17.6558 9.54305 17.6559 9.54297 17.6559 9.54289C17.7825 9.39001 17.8516 9.19763 17.8513 8.99912Z" fill="#888F9A" stroke="white" stroke-width="0.3"/>
</svg>
