<svg width="24" height="24" viewBox="0 0 24 24" fill="none" xmlns="http://www.w3.org/2000/svg">
<path d="M9.24218 4.82792C9.28788 4.93537 9.23981 5.06589 9.12664 5.12233C8.17761 5.59569 7.34334 6.27132 6.68318 7.10216C5.94634 8.02951 5.44865 9.12215 5.23237 10.2843C5.0161 11.4464 5.08758 12.6438 5.44076 13.7722C5.79396 14.9007 6.4185 15.9269 7.26111 16.7604C8.10379 17.594 9.1389 18.2095 10.2765 18.5518C11.4142 18.8941 12.6186 18.9523 13.7843 18.7213C14.9499 18.4903 16.04 17.9774 16.9596 17.2285C17.7812 16.5594 18.4442 15.7204 18.9045 14.7721C18.9606 14.6567 19.0932 14.6076 19.2018 14.6547L20.6075 15.2645C20.7178 15.3124 20.7643 15.4371 20.7166 15.539C20.1272 16.7959 19.2625 17.9042 18.1861 18.7808C17.0176 19.7323 15.6351 20.3821 14.1598 20.6744C12.6845 20.9668 11.1601 20.8932 9.71957 20.4597C8.27896 20.0263 6.96502 19.246 5.89317 18.1857C4.82124 17.1253 4.02406 15.8171 3.57266 14.3748C3.12124 12.9325 3.02971 11.4011 3.30631 9.91484C3.5829 8.42863 4.21892 7.03406 5.15754 5.85276C6.02039 4.76683 7.11464 3.89167 8.35727 3.28959C8.45983 3.2399 8.58667 3.2868 8.63437 3.39893L9.24218 4.82792Z" fill="#888F9A" stroke="white" stroke-width="0.3" stroke-linejoin="round"/>
</svg>
