<svg width="24" height="24" viewBox="0 0 24 24" fill="none" xmlns="http://www.w3.org/2000/svg">
<path d="M8.08571 9.3831L8.15 9.33834V9.26V6C8.15 4.97892 8.55562 3.99965 9.27764 3.27764C9.99965 2.55562 10.9789 2.15 12 2.15C13.0211 2.15 14.0003 2.55562 14.7224 3.27764C15.4444 3.99965 15.85 4.97892 15.85 6V9.26V9.33834L15.9143 9.3831C17.1111 10.2164 18.0107 11.41 18.4821 12.79C18.9536 14.17 18.9724 15.6644 18.5357 17.0558C18.0989 18.4472 17.2296 19.663 16.0541 20.5261C14.8786 21.3891 13.4583 21.8546 12 21.8546C10.5417 21.8546 9.12141 21.3891 7.94591 20.5261C6.77042 19.663 5.90105 18.4472 5.46435 17.0558C5.02764 15.6644 5.04639 14.17 5.51787 12.79C5.98934 11.41 6.88894 10.2164 8.08571 9.3831ZM13.9571 8.43375L14.15 8.49125V8.29V6C14.15 5.42978 13.9235 4.88292 13.5203 4.47972C13.1171 4.07652 12.5702 3.85 12 3.85C11.4298 3.85 10.8829 4.07652 10.4797 4.47972C10.0765 4.88292 9.85 5.42978 9.85 6V8.29V8.49125L10.0429 8.43375C11.3198 8.05302 12.6802 8.05302 13.9571 8.43375ZM13.85 15C13.85 15.3659 13.7415 15.7236 13.5382 16.0278C13.3349 16.332 13.046 16.5692 12.708 16.7092C12.3699 16.8492 11.9979 16.8858 11.6391 16.8145C11.2802 16.7431 10.9506 16.5669 10.6919 16.3081C10.4331 16.0494 10.2569 15.7198 10.1855 15.3609C10.1142 15.0021 10.1508 14.6301 10.2908 14.292C10.4308 13.954 10.668 13.6651 10.9722 13.4618C11.2764 13.2585 11.6341 13.15 12 13.15C12.4907 13.15 12.9612 13.3449 13.3081 13.6919C13.6551 14.0388 13.85 14.5093 13.85 15ZM16.2821 17.8612C16.848 17.0143 17.15 16.0186 17.15 15C17.15 13.6341 16.6074 12.3242 15.6416 11.3584C14.6758 10.3926 13.3659 9.85 12 9.85C10.9814 9.85 9.98573 10.152 9.13881 10.7179C8.2919 11.2838 7.63181 12.0881 7.24202 13.0292C6.85223 13.9702 6.75024 15.0057 6.94896 16.0047C7.14767 17.0037 7.63816 17.9214 8.3584 18.6416C9.07864 19.3618 9.99628 19.8523 10.9953 20.051C11.9943 20.2498 13.0298 20.1478 13.9708 19.758C14.9119 19.3682 15.7162 18.7081 16.2821 17.8612Z" fill="#888F9A" stroke="white" stroke-width="0.3"/>
</svg>
