<svg width="24" height="24" viewBox="0 0 24 24" fill="none" xmlns="http://www.w3.org/2000/svg">
<path d="M2.45425 14.9733L2.4543 14.9733L7.95272 13.2738C8.31047 13.172 8.68952 13.172 9.04727 13.2738L14.5457 14.9733L14.5458 14.9733C14.9233 15.0899 15.2537 15.3243 15.4884 15.6422C15.7231 15.9602 15.8498 16.3449 15.85 16.7401V19C15.85 19.4907 15.6551 19.9612 15.3081 20.3081C14.9612 20.6551 14.4907 20.85 14 20.85H3C2.50935 20.85 2.03879 20.6551 1.69185 20.3081C1.34491 19.9612 1.15 19.4907 1.15 19L1.15 16.7401C1.15 16.74 1.15 16.74 1.15 16.74C1.15021 16.3449 1.27694 15.9602 1.51163 15.6422C1.74633 15.3243 2.07666 15.0899 2.45425 14.9733ZM8.54406 14.9066L8.5 14.8931L8.45594 14.9066L2.95594 16.5966L2.85 16.6292V16.74V19V19.15H3H14H14.15V19V16.74V16.6292L14.0441 16.5966L8.54406 14.9066ZM21.5457 11.9733L21.5457 11.9733C21.9233 12.0899 22.2537 12.3243 22.4884 12.6422C22.7231 12.9602 22.8498 13.3449 22.85 13.7401V16C22.85 16.4907 22.6551 16.9612 22.3081 17.3081C21.9612 17.6551 21.4907 17.85 21 17.85H18C17.7746 17.85 17.5584 17.7604 17.399 17.601C17.2396 17.4416 17.15 17.2254 17.15 17C17.15 16.7746 17.2396 16.5584 17.399 16.399C17.5584 16.2396 17.7746 16.15 18 16.15H21H21.15V16V13.74V13.6292L21.0441 13.5966L15.5441 11.9066L15.5006 11.8932L15.457 11.9063L13.087 12.6163L13.0862 12.6165C12.9791 12.6492 12.8665 12.6604 12.755 12.6495C12.6435 12.6385 12.5353 12.6056 12.4365 12.5527C12.3378 12.4998 12.2505 12.4279 12.1796 12.3411C12.1088 12.2544 12.0559 12.1545 12.0238 12.0472C11.9604 11.8321 11.9847 11.6006 12.0914 11.4032C12.1981 11.2057 12.3785 11.0585 12.5934 10.9936L12.5936 10.9935L14.9625 10.2739C15.3169 10.1723 15.6927 10.1723 16.0472 10.2738L21.5457 11.9733ZM8.5 11.85C7.83743 11.85 7.18974 11.6535 6.63884 11.2854C6.08794 10.9173 5.65856 10.3941 5.405 9.78199C5.15145 9.16986 5.08511 8.49628 5.21437 7.84645C5.34363 7.19661 5.66269 6.5997 6.13119 6.13119C6.5997 5.66269 7.19661 5.34363 7.84645 5.21437C8.49628 5.08511 9.16986 5.15145 9.78199 5.405C10.3941 5.65856 10.9173 6.08794 11.2854 6.63884C11.6535 7.18974 11.85 7.83743 11.85 8.5C11.85 9.38848 11.4971 10.2406 10.8688 10.8688C10.2406 11.4971 9.38848 11.85 8.5 11.85ZM8.5 6.85C8.17366 6.85 7.85465 6.94677 7.58331 7.12808C7.31197 7.30938 7.10048 7.56707 6.9756 7.86857C6.85071 8.17007 6.81804 8.50183 6.8817 8.8219C6.94537 9.14197 7.10252 9.43597 7.33327 9.66673C7.56403 9.89748 7.85803 10.0546 8.1781 10.1183C8.49817 10.182 8.82993 10.1493 9.13143 10.0244C9.43293 9.89952 9.69062 9.68803 9.87193 9.41669C10.0532 9.14535 10.15 8.82634 10.15 8.5C10.15 8.06239 9.97616 7.64271 9.66673 7.33327C9.35729 7.02384 8.93761 6.85 8.5 6.85ZM13.1303 7.58338C12.8172 7.1147 12.65 6.56368 12.65 6C12.65 5.24413 12.9503 4.51922 13.4847 3.98475C14.0192 3.45027 14.7441 3.15 15.5 3.15C16.0637 3.15 16.6147 3.31715 17.0834 3.63031C17.5521 3.94347 17.9173 4.38858 18.1331 4.90935C18.3488 5.43012 18.4052 6.00316 18.2952 6.55601C18.1853 7.10885 17.9138 7.61667 17.5153 8.01525C17.1167 8.41383 16.6089 8.68527 16.056 8.79524C15.5032 8.90521 14.9301 8.84877 14.4094 8.63306C13.8886 8.41735 13.4435 8.05206 13.1303 7.58338Z" fill="#888F9A" stroke="white" stroke-width="0.3"/>
</svg>
