<svg width="24" height="24" viewBox="0 0 24 24" fill="none" xmlns="http://www.w3.org/2000/svg">
<path d="M3.4 16.85C3.26193 16.85 3.15 16.7381 3.15 16.6V15.4C3.15 15.2619 3.26193 15.15 3.4 15.15H20.6C20.7381 15.15 20.85 15.2619 20.85 15.4V16.6C20.85 16.7381 20.7381 16.85 20.6 16.85H3.4ZM3.15 7.4C3.15 7.26193 3.26193 7.15 3.4 7.15H20.6C20.7381 7.15 20.85 7.26193 20.85 7.4V8.6C20.85 8.73807 20.7381 8.85 20.6 8.85H3.4C3.26193 8.85 3.15 8.73807 3.15 8.6V7.4Z" fill="#888F9A" stroke="white" stroke-width="0.3"/>
</svg>
