<svg width="24" height="24" viewBox="0 0 24 24" fill="none" xmlns="http://www.w3.org/2000/svg">
<path d="M8.45603 8.48454L8.45626 8.48425L8.44772 8.4781C8.353 8.4098 8.27336 8.32272 8.21378 8.22229C8.1542 8.12186 8.11596 8.01023 8.10143 7.89436C8.0869 7.77849 8.0964 7.66087 8.12934 7.54884C8.16228 7.43681 8.21796 7.33276 8.29289 7.2432C8.36782 7.15363 8.4604 7.08047 8.56486 7.02827C8.66931 6.97606 8.78341 6.94595 8.90002 6.93979C9.01663 6.93364 9.13327 6.95158 9.24264 6.99249C9.35201 7.03341 9.45178 7.09642 9.53572 7.1776L9.53543 7.1779L9.54406 7.18508L14.5441 11.3451L14.5443 11.3453C14.6405 11.425 14.718 11.525 14.7712 11.6382C14.8244 11.7513 14.852 11.8748 14.852 11.9998C14.852 12.1248 14.8244 12.2482 14.7712 12.3614C14.718 12.4745 14.6405 12.5745 14.5443 12.6543L14.5441 12.6545L9.54406 16.8145L9.54405 16.8145L9.5425 16.8158C9.3909 16.9454 9.19853 17.0176 8.99907 17.0198C8.87443 17.0199 8.75129 16.9926 8.63838 16.9398C8.52525 16.8869 8.42518 16.8097 8.34526 16.7138L8.34524 16.7137C8.27366 16.6279 8.21974 16.5287 8.18655 16.4219C8.15337 16.3152 8.14157 16.2029 8.15183 16.0916C8.16209 15.9802 8.19422 15.872 8.24637 15.7731C8.29852 15.6742 8.36967 15.5866 8.45574 15.5152L8.45603 15.515L11.336 13.115L11.6543 12.8498H11.24H2C1.77457 12.8498 1.55837 12.7602 1.39896 12.6008C1.23955 12.4414 1.15 12.2252 1.15 11.9998C1.15 11.7743 1.23955 11.5581 1.39896 11.3987C1.55837 11.2393 1.77457 11.1498 2 11.1498H11.24H11.6543L11.336 10.8845L8.45603 8.48454ZM21.85 11.9985L21.85 12.0012C21.8706 14.2385 21.1289 16.4161 19.7469 18.1757C18.3649 19.9353 16.4251 21.172 14.2466 21.6822C12.0682 22.1924 9.7809 21.9458 7.76129 20.9829C5.74168 20.02 4.11008 18.3982 3.13501 16.3844L3.13512 16.3843L3.13219 16.3789C3.0784 16.2786 3.0453 16.1685 3.03486 16.0551C3.02442 15.9418 3.03686 15.8275 3.07143 15.719C3.106 15.6106 3.162 15.5102 3.2361 15.4238C3.31021 15.3374 3.40092 15.2667 3.50285 15.2161C3.60477 15.1654 3.71584 15.1357 3.82946 15.1288C3.94307 15.1218 4.05693 15.1378 4.16426 15.1757C4.2716 15.2136 4.37023 15.2726 4.4543 15.3494C4.53837 15.4261 4.60618 15.5189 4.65369 15.6224L4.65363 15.6224L4.65567 15.6265C5.47344 17.2722 6.82338 18.5932 8.4864 19.3752C10.1494 20.1571 12.0279 20.3541 13.8169 19.9341C15.606 19.5141 17.2005 18.5018 18.3419 17.0615C19.4832 15.6212 20.1042 13.8374 20.1042 11.9998C20.1042 10.1621 19.4832 8.37836 18.3419 6.93807C17.2005 5.49778 15.606 4.48548 13.8169 4.06548C12.0279 3.64548 10.1494 3.84243 8.4864 4.62437C6.82338 5.40631 5.47344 6.72733 4.65567 8.37302L4.65526 8.37282L4.6509 8.38364C4.60716 8.49202 4.54155 8.59022 4.45815 8.6721C4.37475 8.75398 4.27536 8.81778 4.16619 8.85952C4.05703 8.90125 3.94042 8.92003 3.82367 8.91467C3.70692 8.90931 3.59253 8.87993 3.48765 8.82837C3.38276 8.7768 3.28964 8.70416 3.21409 8.61499C3.13855 8.52581 3.0822 8.42201 3.04858 8.31008C3.01496 8.19814 3.00479 8.08048 3.01869 7.96443C3.0326 7.84839 3.07028 7.73646 3.1294 7.63564L3.12981 7.63588L3.135 7.62514C4.10973 5.61219 5.74049 3.99088 7.75907 3.02786C9.77766 2.06484 12.0639 1.81746 14.2417 2.32639C16.4196 2.83532 18.3594 4.07027 19.7422 5.82812C21.1249 7.58598 21.8683 9.76208 21.85 11.9985Z" fill="#888F9A" stroke="white" stroke-width="0.3"/>
</svg>
