<svg width="24" height="24" viewBox="0 0 24 24" fill="none" xmlns="http://www.w3.org/2000/svg">
<mask id="path-1-inside-1" fill="white">
<path fill-rule="evenodd" clip-rule="evenodd" d="M18.7172 10.7172C18.8734 10.8734 18.8734 11.1266 18.7172 11.2828L12.2829 17.7172C12.1267 17.8734 11.8734 17.8734 11.7172 17.7172L5.28287 11.2828C5.12666 11.1266 5.12666 10.8734 5.28287 10.7172L6.13688 9.86315C6.29321 9.70682 6.54671 9.70696 6.70287 9.86346L11 14.17V2.4C11 2.17909 11.1791 2 11.4 2H12.6C12.8209 2 13 2.17909 13 2.4V14.17L17.3072 9.87223C17.4634 9.71631 17.7165 9.71645 17.8726 9.87253L18.7172 10.7172ZM18.6 21.9998C18.8209 21.9998 19 21.8207 19 21.5998V20.3998C19 20.1789 18.8209 19.9998 18.6 19.9998H5.4C5.17909 19.9998 5 20.1789 5 20.3998V21.5998C5 21.8207 5.17909 21.9998 5.4 21.9998H12H18.6Z"/>
</mask>
<path fill-rule="evenodd" clip-rule="evenodd" d="M18.7172 10.7172C18.8734 10.8734 18.8734 11.1266 18.7172 11.2828L12.2829 17.7172C12.1267 17.8734 11.8734 17.8734 11.7172 17.7172L5.28287 11.2828C5.12666 11.1266 5.12666 10.8734 5.28287 10.7172L6.13688 9.86315C6.29321 9.70682 6.54671 9.70696 6.70287 9.86346L11 14.17V2.4C11 2.17909 11.1791 2 11.4 2H12.6C12.8209 2 13 2.17909 13 2.4V14.17L17.3072 9.87223C17.4634 9.71631 17.7165 9.71645 17.8726 9.87253L18.7172 10.7172ZM18.6 21.9998C18.8209 21.9998 19 21.8207 19 21.5998V20.3998C19 20.1789 18.8209 19.9998 18.6 19.9998H5.4C5.17909 19.9998 5 20.1789 5 20.3998V21.5998C5 21.8207 5.17909 21.9998 5.4 21.9998H12H18.6Z" fill="#888F9A"/>
<path d="M12.2829 17.7172L12.0707 17.505L12.0707 17.505L12.2829 17.7172ZM11.7172 17.7172L11.9293 17.505L11.9293 17.505L11.7172 17.7172ZM5.28287 11.2828L5.07074 11.495L5.07074 11.495L5.28287 11.2828ZM5.28287 10.7172L5.07074 10.505L5.07074 10.505L5.28287 10.7172ZM6.13688 9.86315L5.92475 9.65102H5.92475L6.13688 9.86315ZM6.70287 9.86346L6.91524 9.65156H6.91524L6.70287 9.86346ZM11 14.17L10.7877 14.3819L11.3 14.8954V14.17H11ZM13 14.17H12.7V14.8931L13.2119 14.3824L13 14.17ZM17.3072 9.87223L17.0953 9.65986L17.3072 9.87223ZM17.8726 9.87253L18.0847 9.6604L18.0847 9.6604L17.8726 9.87253ZM18.9293 11.495C19.2027 11.2216 19.2027 10.7784 18.9293 10.505L18.5051 10.9293C18.5441 10.9683 18.5441 11.0317 18.5051 11.0707L18.9293 11.495ZM12.495 17.9293L18.9293 11.495L18.5051 11.0707L12.0707 17.505L12.495 17.9293ZM11.5051 17.9293C11.7784 18.2027 12.2216 18.2027 12.495 17.9293L12.0707 17.505C12.0317 17.5441 11.9684 17.5441 11.9293 17.505L11.5051 17.9293ZM5.07074 11.495L11.5051 17.9293L11.9293 17.505L5.49501 11.0707L5.07074 11.495ZM5.07074 10.505C4.79737 10.7784 4.79737 11.2216 5.07074 11.495L5.49501 11.0707C5.45595 11.0317 5.45595 10.9683 5.49501 10.9293L5.07074 10.505ZM5.92475 9.65102L5.07074 10.505L5.49501 10.9293L6.34901 10.0753L5.92475 9.65102ZM6.91524 9.65156C6.64196 9.37768 6.19833 9.37744 5.92475 9.65102L6.34901 10.0753C6.38809 10.0362 6.45147 10.0362 6.49051 10.0754L6.91524 9.65156ZM11.2124 13.9581L6.91524 9.65156L6.49051 10.0754L10.7877 14.3819L11.2124 13.9581ZM10.7 2.4V14.17H11.3V2.4H10.7ZM11.4 1.7C11.0134 1.7 10.7 2.0134 10.7 2.4H11.3C11.3 2.34477 11.3448 2.3 11.4 2.3V1.7ZM12.6 1.7H11.4V2.3H12.6V1.7ZM13.3 2.4C13.3 2.0134 12.9866 1.7 12.6 1.7V2.3C12.6553 2.3 12.7 2.34477 12.7 2.4H13.3ZM13.3 14.17V2.4H12.7V14.17H13.3ZM17.0953 9.65986L12.7881 13.9576L13.2119 14.3824L17.5191 10.0846L17.0953 9.65986ZM18.0847 9.6604C17.8115 9.38725 17.3687 9.387 17.0953 9.65986L17.5191 10.0846C17.5582 10.0456 17.6214 10.0456 17.6604 10.0847L18.0847 9.6604ZM18.9293 10.505L18.0847 9.6604L17.6604 10.0847L18.5051 10.9293L18.9293 10.505ZM18.7 21.5998C18.7 21.655 18.6552 21.6998 18.6 21.6998V22.2998C18.9866 22.2998 19.3 21.9864 19.3 21.5998H18.7ZM18.7 20.3998V21.5998H19.3V20.3998H18.7ZM18.6 20.2998C18.6552 20.2998 18.7 20.3445 18.7 20.3998H19.3C19.3 20.0132 18.9866 19.6998 18.6 19.6998V20.2998ZM5.4 20.2998H18.6V19.6998H5.4V20.2998ZM5.3 20.3998C5.3 20.3445 5.34477 20.2998 5.4 20.2998V19.6998C5.0134 19.6998 4.7 20.0132 4.7 20.3998H5.3ZM5.3 21.5998V20.3998H4.7V21.5998H5.3ZM5.4 21.6998C5.34477 21.6998 5.3 21.655 5.3 21.5998H4.7C4.7 21.9864 5.0134 22.2998 5.4 22.2998V21.6998ZM12 21.6998H5.4V22.2998H12V21.6998ZM18.6 21.6998H12V22.2998H18.6V21.6998Z" fill="white" mask="url(#path-1-inside-1)"/>
</svg>
