<svg width="24" height="24" viewBox="0 0 24 24" fill="none" xmlns="http://www.w3.org/2000/svg">
<path d="M16.15 3V2.85H16H8H7.85V3L7.85 5V5.15H8H11.85V6.85H8H7.85V7V9V9.15H8H11.85V10.85H8H7.85V11V13V13.15H8H11.85V14.85H8H7.85V15V17V17.15H8H11.85V18.85H8H7.85V19V21V21.15H8H16H16.15V21V3ZM6.15 21L6.15 3C6.15 1.98284 6.98284 1.15 8 1.15H16C17.0172 1.15 17.85 1.98284 17.85 3V21C17.85 22.0172 17.0172 22.85 16 22.85H8C6.98284 22.85 6.15 22.0172 6.15 21Z" fill="#888F9A" stroke="white" stroke-width="0.3"/>
</svg>
