<svg width="24" height="24" viewBox="0 0 24 24" fill="none" xmlns="http://www.w3.org/2000/svg">
<path d="M11.9728 6.63447C11.6032 6.17145 11.4005 5.59539 11.4006 5C11.4006 4.73478 11.2952 4.48043 11.1077 4.29289C10.9201 4.10536 10.6658 4 10.4006 4C10.1354 4 9.881 4.10536 9.69346 4.29289C9.50592 4.48043 9.40057 4.73478 9.40057 5C9.39774 6.21149 9.87193 7.3754 10.7206 8.24L11.9728 6.63447ZM11.9728 6.63447L11.9592 6.64954L12.0706 6.75L12.1822 6.64982C12.1787 6.64587 12.1751 6.64191 12.1716 6.63795L14.0006 4.61V3C14.0006 2.73478 14.1059 2.48043 14.2935 2.29289C14.481 2.10536 14.7354 2 15.0006 2C15.2658 2 15.5201 2.10536 15.7077 2.29289C15.8952 2.48043 16.0006 2.73478 16.0006 3V4.61C16.0119 5.12288 15.8258 5.6205 15.4806 6L11.9728 6.63447ZM12.0062 21.8501L12.0062 21.8498L11.9959 21.8501C9.41103 21.9303 6.86911 21.1755 4.74701 19.6974C4.74677 19.6972 4.74654 19.6971 4.74631 19.6969L4.67806 19.6482C4.67803 19.6481 4.678 19.6481 4.67797 19.6481C4.0368 19.1877 3.4718 18.6295 3.00357 17.9941C2.43271 17.1314 2.1354 16.1166 2.15056 15.0822L2.15057 15.0807C2.15617 13.9188 2.53848 12.7901 3.24012 11.8639C3.94108 10.9386 4.92297 10.2654 6.03864 9.94513L6.24531 9.89592L6.24542 9.89636L6.25656 9.89278C6.36818 9.85682 6.48602 9.84435 6.60269 9.85615C6.71936 9.86794 6.83233 9.90375 6.93449 9.96132C7.03665 10.0189 7.12579 10.097 7.19631 10.1907C7.26683 10.2844 7.3172 10.3916 7.34425 10.5057C7.37131 10.6198 7.37446 10.7383 7.35351 10.8537C7.33257 10.969 7.28797 11.0788 7.22254 11.1761C7.1571 11.2735 7.07224 11.3562 6.97329 11.4191C6.87746 11.48 6.77043 11.5211 6.65852 11.54H6.53057H6.50937L6.48901 11.5459C5.72027 11.7675 5.04566 12.2356 4.56894 12.8781C4.09263 13.5201 3.84026 14.3007 3.85055 15.1C3.84154 15.801 4.03738 16.4893 4.41406 17.0806L4.41789 17.0866L4.42228 17.0922C4.77178 17.5405 5.18251 17.9374 5.64243 18.2714L5.68185 18.3H5.73057H5.74365C7.57885 19.5665 9.77053 20.2148 12.0001 20.1501C14.2409 20.2292 16.4468 19.5777 18.2851 18.2939L18.4338 18.1948L18.4339 18.1949L18.4393 18.191C18.8665 17.8778 19.2496 17.5085 19.5782 17.0931L19.5828 17.0873L19.5868 17.0811C20.0819 16.3103 20.2691 15.3815 20.1111 14.4791C19.9532 13.5767 19.4617 12.7666 18.7341 12.2099C18.0066 11.6531 17.0964 11.3902 16.184 11.4735C15.2717 11.5567 14.424 11.9801 13.8093 12.6594L13.8091 12.6592L13.8034 12.6663L13.5286 13.0098L13.4089 13.1295C13.0152 13.4613 12.5162 13.6423 12.0012 13.64H12.0006C11.7751 13.64 11.5589 13.5504 11.3995 13.391C11.2401 13.2316 11.1506 13.0154 11.1506 12.79C11.1506 12.5646 11.2401 12.3484 11.3995 12.189C11.5555 12.033 11.7659 11.9439 11.986 11.9401C12.0579 11.9536 12.1318 11.9524 12.2033 11.9364L12.2547 11.9249L12.2877 11.8837L12.525 11.5871C13.2445 10.7879 14.1882 10.2241 15.233 9.9692C16.2791 9.71398 17.378 9.78039 18.3858 10.1598C19.3936 10.5391 20.2635 11.2138 20.8816 12.0955C21.4998 12.9773 21.8375 14.025 21.8506 15.1018C21.8627 16.1336 21.5728 17.1464 21.0165 18.0155C20.5708 18.6311 20.0335 19.1749 19.4233 19.6279L19.2656 19.7364L19.2653 19.7366C17.1372 21.2062 14.5906 21.9476 12.0062 21.8501ZM11.9589 6.85018L12.0703 6.97428L12.182 6.85046L14.112 4.71046L14.1506 4.66765V4.61V3C14.1506 2.77457 14.2401 2.55837 14.3995 2.39896C14.5589 2.23955 14.7751 2.15 15.0006 2.15C15.226 2.15 15.4422 2.23955 15.6016 2.39896C15.761 2.55837 15.8506 2.77457 15.8506 3V4.61H15.8505L15.8506 4.61332C15.8611 5.08773 15.6889 5.54803 15.3696 5.89907L10.4626 11.2758C10.2593 11.4754 10.0977 11.7134 9.98713 11.9761C9.87604 12.2401 9.81882 12.5236 9.81882 12.81C9.81882 13.0964 9.87604 13.3799 9.98713 13.6439C10.0981 13.9077 10.2607 14.1467 10.4653 14.3468C10.5444 14.4255 10.6072 14.5189 10.6502 14.6217C10.6933 14.7248 10.7157 14.8353 10.7161 14.947C10.7165 15.0587 10.6949 15.1694 10.6525 15.2727C10.6102 15.3761 10.5478 15.47 10.4691 15.5493C10.3904 15.6286 10.2969 15.6916 10.1938 15.7347C10.0908 15.7778 9.98027 15.8002 9.86857 15.8006C9.75688 15.801 9.6462 15.7793 9.54285 15.737C9.43955 15.6946 9.3456 15.6323 9.26636 15.5537C8.9085 15.1961 8.62461 14.7716 8.4309 14.3043C8.23715 13.8369 8.13742 13.3359 8.13742 12.83C8.13742 12.3241 8.23715 11.8231 8.4309 11.3557C8.62464 10.8883 8.90862 10.4637 9.26657 10.1061L9.26677 10.1063L9.27282 10.0995L10.8328 8.3395L10.9256 8.23478L10.8276 8.13493C10.0066 7.29846 9.54784 6.17242 9.55057 5.00035V5C9.55057 4.77457 9.64012 4.55837 9.79953 4.39896C9.95893 4.23955 10.1751 4.15 10.4006 4.15C10.626 4.15 10.8422 4.23955 11.0016 4.39896C11.161 4.55837 11.2506 4.77457 11.2506 4.99999C11.2505 5.68296 11.5028 6.34187 11.9589 6.85018Z" fill="#888F9A" stroke="white" stroke-width="0.3"/>
</svg>
