<svg width="24" height="24" viewBox="0 0 24 24" fill="none" xmlns="http://www.w3.org/2000/svg">
<mask id="path-1-inside-1" fill="white">
<path fill-rule="evenodd" clip-rule="evenodd" d="M12.2022 19.8946C12.0813 19.981 11.9187 19.981 11.7978 19.8946L11.7684 19.8737C10.2704 18.8072 8.88328 17.8145 7.80192 16.7678C6.22038 15.235 5.75 14.0623 5.75 12.9546V6.65066C5.75 6.23267 6.00997 5.85878 6.4018 5.71324L11.6518 3.76313C11.8764 3.67969 12.1236 3.67969 12.3482 3.76313L17.5982 5.71323C17.99 5.85878 18.25 6.23267 18.25 6.65065V12.9546C18.25 14.0616 17.7803 15.2336 16.198 16.7654C15.1021 17.8217 13.7076 18.8228 12.205 19.8926L12.2022 19.8946ZM5.05359 4.08051C4.26994 4.37159 3.75 5.11937 3.75 5.95535V12.9546C3.75 14.7872 4.595 16.4449 6.41 18.204C7.6202 19.3755 9.13915 20.4569 10.6084 21.5029L10.635 21.5219L11.4225 22.0846C11.7675 22.3329 12.2325 22.3329 12.5775 22.0846L13.365 21.5219C14.8425 20.47 16.365 19.3826 17.5875 18.204C19.405 16.4449 20.25 14.7872 20.25 12.9546V5.95534C20.25 5.11937 19.7301 4.37159 18.9464 4.08051L12.6964 1.75895C12.2471 1.59207 11.7529 1.59207 11.3036 1.75895L5.05359 4.08051ZM11.0141 17.3724L11.4732 17.6818C11.7221 17.7897 12 17.6073 12 17.3361V5.9581C12 5.61281 11.6583 5.37145 11.3329 5.48686L7.58288 6.81677C7.38334 6.88753 7.25 7.0763 7.25 7.28801V12.5088C7.25 13.5162 7.49265 14.4274 8.55084 15.3944C9.26067 16.0423 10.1527 16.7942 11.0141 17.3724Z"/>
</mask>
<path fill-rule="evenodd" clip-rule="evenodd" d="M12.2022 19.8946C12.0813 19.981 11.9187 19.981 11.7978 19.8946L11.7684 19.8737C10.2704 18.8072 8.88328 17.8145 7.80192 16.7678C6.22038 15.235 5.75 14.0623 5.75 12.9546V6.65066C5.75 6.23267 6.00997 5.85878 6.4018 5.71324L11.6518 3.76313C11.8764 3.67969 12.1236 3.67969 12.3482 3.76313L17.5982 5.71323C17.99 5.85878 18.25 6.23267 18.25 6.65065V12.9546C18.25 14.0616 17.7803 15.2336 16.198 16.7654C15.1021 17.8217 13.7076 18.8228 12.205 19.8926L12.2022 19.8946ZM5.05359 4.08051C4.26994 4.37159 3.75 5.11937 3.75 5.95535V12.9546C3.75 14.7872 4.595 16.4449 6.41 18.204C7.6202 19.3755 9.13915 20.4569 10.6084 21.5029L10.635 21.5219L11.4225 22.0846C11.7675 22.3329 12.2325 22.3329 12.5775 22.0846L13.365 21.5219C14.8425 20.47 16.365 19.3826 17.5875 18.204C19.405 16.4449 20.25 14.7872 20.25 12.9546V5.95534C20.25 5.11937 19.7301 4.37159 18.9464 4.08051L12.6964 1.75895C12.2471 1.59207 11.7529 1.59207 11.3036 1.75895L5.05359 4.08051ZM11.0141 17.3724L11.4732 17.6818C11.7221 17.7897 12 17.6073 12 17.3361V5.9581C12 5.61281 11.6583 5.37145 11.3329 5.48686L7.58288 6.81677C7.38334 6.88753 7.25 7.0763 7.25 7.28801V12.5088C7.25 13.5162 7.49265 14.4274 8.55084 15.3944C9.26067 16.0423 10.1527 16.7942 11.0141 17.3724Z" fill="#888F9A"/>
<path d="M11.7978 19.8946L11.9722 19.6505L11.9718 19.6502L11.7978 19.8946ZM12.2022 19.8946L12.0278 19.6505L12.0278 19.6505L12.2022 19.8946ZM11.7684 19.8737L11.9424 19.6293H11.9423L11.7684 19.8737ZM7.80192 16.7678L7.59313 16.9832L7.59327 16.9834L7.80192 16.7678ZM6.4018 5.71324L6.29734 5.43201L6.4018 5.71324ZM11.6518 3.76313L11.7563 4.04435L11.6518 3.76313ZM12.3482 3.76313L12.4527 3.4819V3.4819L12.3482 3.76313ZM17.5982 5.71323L17.7027 5.43201H17.7027L17.5982 5.71323ZM16.198 16.7654L16.4062 16.9814L16.4067 16.981L16.198 16.7654ZM12.205 19.8926L12.0311 19.6482L12.0306 19.6485L12.205 19.8926ZM5.05359 4.08051L5.15805 4.36173L5.05359 4.08051ZM6.41 18.204L6.20121 18.4194L6.20134 18.4195L6.41 18.204ZM10.6084 21.5029L10.4344 21.7473H10.4344L10.6084 21.5029ZM10.635 21.5219L10.8094 21.2778L10.809 21.2775L10.635 21.5219ZM11.4225 22.0846L11.5978 21.8411L11.5969 21.8405L11.4225 22.0846ZM12.5775 22.0846L12.4031 21.8405L12.4022 21.8411L12.5775 22.0846ZM13.365 21.5219L13.191 21.2775L13.1906 21.2778L13.365 21.5219ZM17.5875 18.204L17.7957 18.4199L17.7961 18.4195L17.5875 18.204ZM18.9464 4.08051L19.0509 3.79928L18.9464 4.08051ZM12.6964 1.75895L12.5919 2.04018V2.04018L12.6964 1.75895ZM11.3036 1.75895L11.4081 2.04018L11.3036 1.75895ZM11.4732 17.6818L11.3056 17.9306L11.3285 17.946L11.3538 17.957L11.4732 17.6818ZM11.0141 17.3724L11.1817 17.1236L11.1813 17.1234L11.0141 17.3724ZM11.3329 5.48686L11.4332 5.76961L11.3329 5.48686ZM7.58288 6.81677L7.68315 7.09951H7.68315L7.58288 6.81677ZM8.55084 15.3944L8.34846 15.6158L8.34859 15.6159L8.55084 15.3944ZM11.6233 20.1387C11.8486 20.2997 12.1514 20.2997 12.3767 20.1387L12.0278 19.6505C12.0112 19.6624 11.9888 19.6624 11.9722 19.6505L11.6233 20.1387ZM11.5944 20.1181L11.6238 20.139L11.9718 19.6502L11.9424 19.6293L11.5944 20.1181ZM7.59327 16.9834C8.69397 18.0487 10.101 19.0549 11.5944 20.1181L11.9423 19.6293C10.4399 18.5596 9.07258 17.5802 8.01056 16.5522L7.59327 16.9834ZM5.45 12.9546C5.45 14.1706 5.97612 15.416 7.59313 16.9832L8.0107 16.5524C6.46463 15.0539 6.05 13.9541 6.05 12.9546H5.45ZM5.45 6.65066V12.9546H6.05V6.65066H5.45ZM6.29734 5.43201C5.78796 5.62122 5.45 6.10727 5.45 6.65066H6.05C6.05 6.35807 6.23198 6.09634 6.50626 5.99446L6.29734 5.43201ZM11.5473 3.4819L6.29734 5.43201L6.50626 5.99446L11.7563 4.04435L11.5473 3.4819ZM12.4527 3.4819C12.1606 3.37343 11.8394 3.37343 11.5473 3.4819L11.7563 4.04435C11.9135 3.98595 12.0865 3.98595 12.2437 4.04435L12.4527 3.4819ZM17.7027 5.43201L12.4527 3.4819L12.2437 4.04435L17.4937 5.99446L17.7027 5.43201ZM18.55 6.65065C18.55 6.10727 18.212 5.62122 17.7027 5.43201L17.4937 5.99446C17.768 6.09634 17.95 6.35807 17.95 6.65065H18.55ZM18.55 12.9546V6.65065H17.95V12.9546H18.55ZM16.4067 16.981C18.0245 15.4147 18.55 14.1699 18.55 12.9546H17.95C17.95 13.9533 17.536 15.0525 15.9893 16.5499L16.4067 16.981ZM12.379 20.137C13.8776 19.0701 15.2913 18.056 16.4062 16.9814L15.9898 16.5494C14.9129 17.5874 13.5377 18.5756 12.0311 19.6482L12.379 20.137ZM12.3767 20.1387L12.3795 20.1367L12.0306 19.6485L12.0278 19.6505L12.3767 20.1387ZM4.05 5.95535C4.05 5.24477 4.49195 4.60916 5.15805 4.36173L4.94913 3.79928C4.04793 4.13403 3.45 4.99398 3.45 5.95535H4.05ZM4.05 12.9546V5.95535H3.45V12.9546H4.05ZM6.61879 17.9885C4.83881 16.2634 4.05 14.6785 4.05 12.9546H3.45C3.45 14.8959 4.35119 16.6264 6.20121 18.4194L6.61879 17.9885ZM10.7824 21.2586C9.30878 20.2094 7.80955 19.1413 6.61866 17.9884L6.20134 18.4195C7.43084 19.6098 8.96952 20.7044 10.4344 21.7473L10.7824 21.2586ZM10.809 21.2775L10.7824 21.2586L10.4344 21.7473L10.461 21.7663L10.809 21.2775ZM11.5969 21.8405L10.8094 21.2778L10.4606 21.766L11.2481 22.3287L11.5969 21.8405ZM12.4022 21.8411C12.162 22.014 11.838 22.014 11.5978 21.8411L11.2472 22.3281C11.6969 22.6517 12.3031 22.6517 12.7528 22.3281L12.4022 21.8411ZM13.1906 21.2778L12.4031 21.8405L12.7519 22.3287L13.5394 21.766L13.1906 21.2778ZM17.3793 17.988C16.1757 19.1483 14.6724 20.2228 13.191 21.2775L13.539 21.7663C15.0126 20.7171 16.5543 19.6168 17.7957 18.4199L17.3793 17.988ZM19.95 12.9546C19.95 14.6784 19.1612 16.2633 17.3789 17.9884L17.7961 18.4195C19.6488 16.6265 20.55 14.896 20.55 12.9546H19.95ZM19.95 5.95534V12.9546H20.55V5.95534H19.95ZM18.8419 4.36173C19.5081 4.60916 19.95 5.24477 19.95 5.95534H20.55C20.55 4.99398 19.9521 4.13403 19.0509 3.79928L18.8419 4.36173ZM12.5919 2.04018L18.8419 4.36173L19.0509 3.79928L12.8009 1.47773L12.5919 2.04018ZM11.4081 2.04018C11.7899 1.89833 12.2101 1.89833 12.5919 2.04018L12.8009 1.47773C12.2842 1.28581 11.7158 1.28581 11.1991 1.47773L11.4081 2.04018ZM5.15805 4.36173L11.4081 2.04018L11.1991 1.47773L4.94913 3.79928L5.15805 4.36173ZM11.6409 17.433L11.1817 17.1236L10.8465 17.6212L11.3056 17.9306L11.6409 17.433ZM11.7 17.3361C11.7 17.3914 11.6433 17.4285 11.5926 17.4065L11.3538 17.957C11.8008 18.1509 12.3 17.8233 12.3 17.3361H11.7ZM11.7 5.9581V17.3361H12.3V5.9581H11.7ZM11.4332 5.76961C11.5633 5.72344 11.7 5.81999 11.7 5.9581H12.3C12.3 5.40563 11.7533 5.01945 11.2326 5.20412L11.4332 5.76961ZM7.68315 7.09951L11.4332 5.76961L11.2326 5.20412L7.4826 6.53402L7.68315 7.09951ZM7.55 7.28801C7.55 7.20333 7.60334 7.12782 7.68315 7.09951L7.4826 6.53402C7.16334 6.64724 6.95 6.94927 6.95 7.28801H7.55ZM7.55 12.5088V7.28801H6.95V12.5088H7.55ZM8.75321 15.1729C8.25139 14.7143 7.95498 14.2805 7.78151 13.8537C7.60771 13.4262 7.55 12.988 7.55 12.5088H6.95C6.95 13.037 7.01362 13.558 7.22569 14.0797C7.43809 14.6022 7.79211 15.1074 8.34846 15.6158L8.75321 15.1729ZM11.1813 17.1234C10.3374 16.5569 9.45772 15.816 8.75308 15.1728L8.34859 15.6159C9.06361 16.2686 9.968 17.0315 10.8469 17.6215L11.1813 17.1234Z" fill="white" mask="url(#path-1-inside-1)"/>
</svg>
