<svg width="24" height="24" viewBox="0 0 24 24" fill="none" xmlns="http://www.w3.org/2000/svg">
<mask id="path-1-inside-1" fill="white">
<path fill-rule="evenodd" clip-rule="evenodd" d="M14.98 7.94L14.06 7.02L5 16.08V17H5.92L14.98 7.94ZM16.96 1.29C17.15 1.1 17.41 1 17.66 1C17.92 1 18.17 1.09 18.37 1.29L20.71 3.63C21.1 4.02 21.1 4.65 20.71 5.04L18.88 6.87L15.13 3.12L16.96 1.29ZM3 15.25L14.06 4.19L17.81 7.94L6.75 19H3V15.25ZM22.6 23C22.8209 23 23 22.8209 23 22.6V21.4C23 21.1791 22.8209 21 22.6 21H1.4C1.17909 21 1 21.1791 1 21.4V22.6C1 22.8209 1.17909 23 1.4 23H22.6Z"/>
</mask>
<path fill-rule="evenodd" clip-rule="evenodd" d="M14.98 7.94L14.06 7.02L5 16.08V17H5.92L14.98 7.94ZM16.96 1.29C17.15 1.1 17.41 1 17.66 1C17.92 1 18.17 1.09 18.37 1.29L20.71 3.63C21.1 4.02 21.1 4.65 20.71 5.04L18.88 6.87L15.13 3.12L16.96 1.29ZM3 15.25L14.06 4.19L17.81 7.94L6.75 19H3V15.25ZM22.6 23C22.8209 23 23 22.8209 23 22.6V21.4C23 21.1791 22.8209 21 22.6 21H1.4C1.17909 21 1 21.1791 1 21.4V22.6C1 22.8209 1.17909 23 1.4 23H22.6Z" fill="#888F9A"/>
<path d="M14.06 7.02L14.2721 6.80787L14.06 6.59574L13.8479 6.80787L14.06 7.02ZM14.98 7.94L15.1921 8.15213L15.4043 7.94L15.1921 7.72787L14.98 7.94ZM5 16.08L4.78787 15.8679L4.7 15.9557V16.08H5ZM5 17H4.7V17.3H5V17ZM5.92 17V17.3H6.04426L6.13213 17.2121L5.92 17ZM16.96 1.29L16.7479 1.07787L16.7479 1.07787L16.96 1.29ZM18.37 1.29L18.5821 1.07787V1.07787L18.37 1.29ZM20.71 3.63L20.9221 3.41787L20.71 3.63ZM20.71 5.04L20.9221 5.25213L20.71 5.04ZM18.88 6.87L18.6679 7.08213L18.88 7.29426L19.0921 7.08213L18.88 6.87ZM15.13 3.12L14.9179 2.90787L14.7057 3.12L14.9179 3.33213L15.13 3.12ZM14.06 4.19L14.2721 3.97787L14.06 3.76574L13.8479 3.97787L14.06 4.19ZM3 15.25L2.78787 15.0379L2.7 15.1257V15.25H3ZM17.81 7.94L18.0221 8.15213L18.2343 7.94L18.0221 7.72787L17.81 7.94ZM6.75 19V19.3H6.87426L6.96213 19.2121L6.75 19ZM3 19H2.7V19.3H3V19ZM13.8479 7.23213L14.7679 8.15213L15.1921 7.72787L14.2721 6.80787L13.8479 7.23213ZM5.21213 16.2921L14.2721 7.23213L13.8479 6.80787L4.78787 15.8679L5.21213 16.2921ZM5.3 17V16.08H4.7V17H5.3ZM5.92 16.7H5V17.3H5.92V16.7ZM14.7679 7.72787L5.70787 16.7879L6.13213 17.2121L15.1921 8.15213L14.7679 7.72787ZM17.66 0.7C17.3334 0.7 16.9962 0.829537 16.7479 1.07787L17.1721 1.50213C17.3038 1.37046 17.4866 1.3 17.66 1.3V0.7ZM18.5821 1.07787C18.3211 0.816865 17.9926 0.7 17.66 0.7V1.3C17.8474 1.3 18.0189 1.36313 18.1579 1.50213L18.5821 1.07787ZM20.9221 3.41787L18.5821 1.07787L18.1579 1.50213L20.4979 3.84213L20.9221 3.41787ZM20.9221 5.25213C21.4293 4.74497 21.4293 3.92503 20.9221 3.41787L20.4979 3.84213C20.7707 4.11497 20.7707 4.55503 20.4979 4.82787L20.9221 5.25213ZM19.0921 7.08213L20.9221 5.25213L20.4979 4.82787L18.6679 6.65787L19.0921 7.08213ZM14.9179 3.33213L18.6679 7.08213L19.0921 6.65787L15.3421 2.90787L14.9179 3.33213ZM16.7479 1.07787L14.9179 2.90787L15.3421 3.33213L17.1721 1.50213L16.7479 1.07787ZM13.8479 3.97787L2.78787 15.0379L3.21213 15.4621L14.2721 4.40213L13.8479 3.97787ZM18.0221 7.72787L14.2721 3.97787L13.8479 4.40213L17.5979 8.15213L18.0221 7.72787ZM6.96213 19.2121L18.0221 8.15213L17.5979 7.72787L6.53787 18.7879L6.96213 19.2121ZM3 19.3H6.75V18.7H3V19.3ZM2.7 15.25V19H3.3V15.25H2.7ZM22.7 22.6C22.7 22.6552 22.6552 22.7 22.6 22.7V23.3C22.9866 23.3 23.3 22.9866 23.3 22.6H22.7ZM22.7 21.4V22.6H23.3V21.4H22.7ZM22.6 21.3C22.6552 21.3 22.7 21.3448 22.7 21.4H23.3C23.3 21.0134 22.9866 20.7 22.6 20.7V21.3ZM1.4 21.3H22.6V20.7H1.4V21.3ZM1.3 21.4C1.3 21.3448 1.34477 21.3 1.4 21.3V20.7C1.0134 20.7 0.7 21.0134 0.7 21.4H1.3ZM1.3 22.6V21.4H0.7V22.6H1.3ZM1.4 22.7C1.34477 22.7 1.3 22.6552 1.3 22.6H0.7C0.7 22.9866 1.0134 23.3 1.4 23.3V22.7ZM22.6 22.7H1.4V23.3H22.6V22.7Z" fill="white" mask="url(#path-1-inside-1)"/>
</svg>
