<svg width="24" height="24" viewBox="0 0 24 24" fill="none" xmlns="http://www.w3.org/2000/svg">
<path d="M8 20.85C7.77457 20.85 7.55836 20.7604 7.39896 20.601C7.23955 20.4416 7.15 20.2254 7.15 20V9C7.15 8.77457 7.23955 8.55837 7.39896 8.39896C7.55837 8.23955 7.77457 8.15 8 8.15C8.22543 8.15 8.44163 8.23955 8.60104 8.39896C8.76045 8.55837 8.85 8.77457 8.85 9V20C8.85 20.2254 8.76045 20.4416 8.60104 20.601C8.44164 20.7604 8.22543 20.85 8 20.85ZM12.85 14V20C12.85 20.2254 12.7604 20.4416 12.601 20.601C12.4416 20.7604 12.2254 20.85 12 20.85C11.7746 20.85 11.5584 20.7604 11.399 20.601C11.2396 20.4416 11.15 20.2254 11.15 20V14C11.15 13.7746 11.2396 13.5584 11.399 13.399C11.5584 13.2396 11.7746 13.15 12 13.15C12.2254 13.15 12.4416 13.2396 12.601 13.399C12.7604 13.5584 12.85 13.7746 12.85 14ZM4.85 17V20C4.85 20.2254 4.76045 20.4416 4.60104 20.601C4.44163 20.7604 4.22543 20.85 4 20.85C3.77457 20.85 3.55836 20.7604 3.39896 20.601C3.23955 20.4416 3.15 20.2254 3.15 20V17C3.15 16.7746 3.23955 16.5584 3.39896 16.399C3.55836 16.2396 3.77457 16.15 4 16.15C4.22543 16.15 4.44163 16.2396 4.60104 16.399C4.76045 16.5584 4.85 16.7746 4.85 17ZM16.85 11V20C16.85 20.2254 16.7604 20.4416 16.601 20.601C16.4416 20.7604 16.2254 20.85 16 20.85C15.7746 20.85 15.5584 20.7604 15.399 20.601C15.2396 20.4416 15.15 20.2254 15.15 20V11C15.15 10.7746 15.2396 10.5584 15.399 10.399C15.5584 10.2396 15.7746 10.15 16 10.15C16.2254 10.15 16.4416 10.2396 16.601 10.399C16.7604 10.5584 16.85 10.7746 16.85 11ZM20.85 4V20C20.85 20.2254 20.7604 20.4416 20.601 20.601C20.4416 20.7604 20.2254 20.85 20 20.85C19.7746 20.85 19.5584 20.7604 19.399 20.601C19.2396 20.4416 19.15 20.2254 19.15 20V4C19.15 3.77457 19.2396 3.55836 19.399 3.39896C19.5584 3.23955 19.7746 3.15 20 3.15C20.2254 3.15 20.4416 3.23955 20.601 3.39896C20.7604 3.55836 20.85 3.77457 20.85 4Z" fill="#888F9A" stroke="white" stroke-width="0.3"/>
</svg>
