<svg width="24" height="24" viewBox="0 0 24 24" fill="none" xmlns="http://www.w3.org/2000/svg">
<path d="M18.9012 8.61372V8.82586L19.1012 8.75514L20.696 8.19121C20.6961 8.19119 20.6962 8.19117 20.6962 8.19115C21.1484 8.03298 21.6434 8.26715 21.8006 8.71616C21.9589 9.1684 21.7247 9.66351 21.2756 9.82068L21.2753 9.8208L19.0013 10.6229L18.9012 10.6582V10.7643V18.3531C18.9012 18.8361 18.5171 19.2256 18.0376 19.2256C17.5563 19.2256 17.174 18.8432 17.174 18.362V11.4871V11.2752L16.9741 11.3456L15.1232 11.9978L15.023 12.0331V12.1393V18.3531C15.023 18.8344 14.6407 19.2168 14.1594 19.2168C13.6782 19.2168 13.2958 18.8344 13.2958 18.3531V12.8532V12.6413L13.096 12.7118L11.245 13.364L11.1449 13.3993V13.5055V18.3531C11.1449 18.8344 10.7625 19.2168 10.2813 19.2168C9.80003 19.2168 9.41767 18.8344 9.41767 18.3531V14.2282V14.0163L9.21782 14.0867L7.36689 14.739L7.26674 14.7743V14.8805V18.3531C7.26674 18.8327 6.87727 19.2168 6.39432 19.2168C5.91307 19.2168 5.53072 18.8344 5.53072 18.3531V15.5944V15.382L5.33054 15.453L3.29451 16.1758L3.29444 16.1756L3.287 16.1787C3.20355 16.2134 3.10943 16.2288 3.00976 16.2288C2.65928 16.2288 2.32784 16.0046 2.19918 15.6499C2.0414 15.1978 2.27556 14.7032 2.72438 14.5461L2.72487 14.5459L5.43957 13.5852L5.53953 13.5498V13.4438V6.01361C5.53953 5.53235 5.92189 5.15 6.40314 5.15C6.88439 5.15 7.26674 5.53235 7.26674 6.01361V12.7298V12.9417L7.46659 12.8713L9.31753 12.2191L9.41767 12.1838V12.0776V6.01361C9.41767 5.53235 9.80003 5.15 10.2813 5.15C10.7625 5.15 11.1449 5.53235 11.1449 6.01361V11.3549V11.5668L11.3447 11.4963L13.1957 10.8441L13.2958 10.8088V10.7026V6.01361C13.2958 5.53235 13.6782 5.15 14.1594 5.15C14.6407 5.15 15.023 5.53235 15.023 6.01361V9.97989V10.1918L15.2229 10.1214L17.0738 9.46913L17.174 9.43384V9.32765V6.01361C17.174 5.53235 17.5563 5.15 18.0376 5.15C18.5188 5.15 18.9012 5.53235 18.9012 6.01361V8.61372Z" fill="#888F9A" stroke="white" stroke-width="0.3"/>
</svg>
