<svg width="24" height="24" viewBox="0 0 24 24" fill="none" xmlns="http://www.w3.org/2000/svg">
<mask id="path-1-inside-1" fill="white">
<path fill-rule="evenodd" clip-rule="evenodd" d="M2 12C2 6.48 6.47 2 11.99 2C17.52 2 22 6.48 22 12C22 17.52 17.52 22 11.99 22C6.47 22 2 17.52 2 12ZM4 12C4 16.42 7.58 20 12 20C16.42 20 20 16.42 20 12C20 7.58 16.42 4 12 4C7.58 4 4 7.58 4 12ZM11 7H12.5V12.25L17 14.92L16.25 16.15L11 13V7Z"/>
</mask>
<path fill-rule="evenodd" clip-rule="evenodd" d="M2 12C2 6.48 6.47 2 11.99 2C17.52 2 22 6.48 22 12C22 17.52 17.52 22 11.99 22C6.47 22 2 17.52 2 12ZM4 12C4 16.42 7.58 20 12 20C16.42 20 20 16.42 20 12C20 7.58 16.42 4 12 4C7.58 4 4 7.58 4 12ZM11 7H12.5V12.25L17 14.92L16.25 16.15L11 13V7Z" fill="#888F9A"/>
<path d="M12.5 7H12.8V6.7H12.5V7ZM11 7V6.7H10.7V7H11ZM12.5 12.25H12.2V12.4208L12.3469 12.508L12.5 12.25ZM17 14.92L17.2561 15.0762L17.4142 14.8169L17.1531 14.662L17 14.92ZM16.25 16.15L16.0957 16.4072L16.3511 16.5605L16.5061 16.3062L16.25 16.15ZM11 13H10.7V13.1699L10.8457 13.2572L11 13ZM11.99 1.7C6.30392 1.7 1.7 6.31471 1.7 12H2.3C2.3 6.64529 6.63608 2.3 11.99 2.3V1.7ZM22.3 12C22.3 6.31412 17.6855 1.7 11.99 1.7V2.3C17.3545 2.3 21.7 6.64588 21.7 12H22.3ZM11.99 22.3C17.6855 22.3 22.3 17.6859 22.3 12H21.7C21.7 17.3541 17.3545 21.7 11.99 21.7V22.3ZM1.7 12C1.7 17.6853 6.30392 22.3 11.99 22.3V21.7C6.63608 21.7 2.3 17.3547 2.3 12H1.7ZM12 19.7C7.74569 19.7 4.3 16.2543 4.3 12H3.7C3.7 16.5857 7.41431 20.3 12 20.3V19.7ZM19.7 12C19.7 16.2543 16.2543 19.7 12 19.7V20.3C16.5857 20.3 20.3 16.5857 20.3 12H19.7ZM12 4.3C16.2543 4.3 19.7 7.74569 19.7 12H20.3C20.3 7.41431 16.5857 3.7 12 3.7V4.3ZM4.3 12C4.3 7.74569 7.74569 4.3 12 4.3V3.7C7.41431 3.7 3.7 7.41431 3.7 12H4.3ZM12.5 6.7H11V7.3H12.5V6.7ZM12.8 12.25V7H12.2V12.25H12.8ZM17.1531 14.662L12.6531 11.992L12.3469 12.508L16.8469 15.178L17.1531 14.662ZM16.5061 16.3062L17.2561 15.0762L16.7439 14.7638L15.9939 15.9938L16.5061 16.3062ZM10.8457 13.2572L16.0957 16.4072L16.4043 15.8928L11.1543 12.7428L10.8457 13.2572ZM10.7 7V13H11.3V7H10.7Z" fill="white" mask="url(#path-1-inside-1)"/>
</svg>
