<svg width="24" height="24" viewBox="0 0 24 24" fill="none" xmlns="http://www.w3.org/2000/svg">
<path d="M3.15 16.11L3.15 16.1099C3.14976 15.7514 3.25366 15.4006 3.44907 15.1001C3.64371 14.8008 3.92079 14.5642 4.24684 14.4189L4.39474 14.3634L11.3165 12.6255L11.3254 12.6233L11.334 12.6199C11.7626 12.4546 12.2374 12.4546 12.666 12.6199L12.6746 12.6233L12.6835 12.6255L19.6053 14.3634L19.7532 14.4189C20.0778 14.5636 20.3539 14.7987 20.5484 15.0962C20.7436 15.3948 20.8484 15.7435 20.85 16.1002C20.85 16.1004 20.85 16.1005 20.85 16.1007L20.85 19C20.85 19.4907 20.6551 19.9612 20.3081 20.3081C19.9612 20.6551 19.4907 20.85 19 20.85H5C4.50935 20.85 4.0388 20.6551 3.69185 20.3081C3.34491 19.9612 3.15 19.4907 3.15 19L3.15 16.11ZM4.96342 15.9745L4.85 16.0031V16.12V19V19.15H5H19H19.15V19V16.12V16.0031L19.0366 15.9745L12.1966 14.2545L12.1965 14.2545C12.1521 14.2433 12.109 14.2272 12.0681 14.2064L12 14.1716L11.9319 14.2064C11.891 14.2272 11.8479 14.2433 11.8035 14.2545L11.8034 14.2545L4.96342 15.9745ZM12 10.85C11.2385 10.85 10.4942 10.6242 9.86106 10.2012C9.22793 9.77812 8.73446 9.17683 8.44306 8.47333C8.15167 7.76984 8.07542 6.99573 8.22398 6.2489C8.37253 5.50208 8.73921 4.81607 9.27764 4.27764C9.81607 3.73921 10.5021 3.37253 11.2489 3.22398C11.9957 3.07543 12.7698 3.15167 13.4733 3.44307C14.1768 3.73446 14.7781 4.22793 15.2012 4.86106C15.6242 5.49419 15.85 6.23854 15.85 7C15.85 8.02109 15.4444 9.00035 14.7224 9.72236C14.0003 10.4444 13.0211 10.85 12 10.85ZM12 4.85C11.5748 4.85 11.1591 4.9761 10.8055 5.21234C10.452 5.44859 10.1764 5.78437 10.0137 6.17723C9.85093 6.57009 9.80835 7.00239 9.89131 7.41945C9.97427 7.83651 10.179 8.2196 10.4797 8.52028C10.7804 8.82096 11.1635 9.02573 11.5806 9.10869C11.9976 9.19165 12.4299 9.14907 12.8228 8.98634C13.2156 8.82361 13.5514 8.54804 13.7877 8.19448C14.0239 7.84091 14.15 7.42523 14.15 7C14.15 6.42979 13.9235 5.88293 13.5203 5.47972C13.1171 5.07652 12.5702 4.85 12 4.85Z" fill="#888F9A" stroke="white" stroke-width="0.3"/>
</svg>
