<svg width="24" height="24" viewBox="0 0 24 24" fill="none" xmlns="http://www.w3.org/2000/svg">
<path d="M4.35 6.25V6.4H4.5H19.5C19.9907 6.4 20.4612 6.59491 20.8081 6.94185C21.1551 7.28879 21.35 7.75935 21.35 8.25V11.25C21.35 11.4754 21.2604 11.6916 21.101 11.851C20.9416 12.0104 20.7254 12.1 20.5 12.1C20.2746 12.1 20.0584 12.0104 19.899 11.851C19.7396 11.6916 19.65 11.4754 19.65 11.25V8.25V8.1H19.5H4.5H4.35V8.25V19.25V19.4H4.5H19.5H19.65V19.25V17.25C19.65 17.0246 19.7396 16.8084 19.899 16.649C20.0584 16.4896 20.2746 16.4 20.5 16.4C20.7254 16.4 20.9416 16.4896 21.101 16.649C21.2604 16.8084 21.35 17.0246 21.35 17.25V19.25C21.35 19.7407 21.1551 20.2112 20.8081 20.5581C20.4612 20.9051 19.9907 21.1 19.5 21.1H4.5C4.00935 21.1 3.53879 20.9051 3.19185 20.5581C2.84491 20.2112 2.65 19.7407 2.65 19.25V5.75C2.65 4.99413 2.95027 4.26922 3.48475 3.73475C4.01922 3.20027 4.74413 2.9 5.5 2.9H18.5C18.7254 2.9 18.9416 2.98955 19.101 3.14896C19.2604 3.30836 19.35 3.52457 19.35 3.75C19.35 3.97543 19.2604 4.19163 19.101 4.35104C18.9416 4.51045 18.7254 4.6 18.5 4.6H5.5C5.195 4.6 4.90249 4.72116 4.68683 4.93683C4.47116 5.15249 4.35 5.445 4.35 5.75V6.25ZM22.101 13.649C22.2604 13.8084 22.35 14.0246 22.35 14.25C22.35 14.4754 22.2604 14.6916 22.101 14.851C21.9416 15.0104 21.7254 15.1 21.5 15.1H15.5C15.2746 15.1 15.0584 15.0104 14.899 14.851C14.7396 14.6916 14.65 14.4754 14.65 14.25C14.65 14.0246 14.7396 13.8084 14.899 13.649C15.0584 13.4896 15.2746 13.4 15.5 13.4H21.5C21.7254 13.4 21.9416 13.4896 22.101 13.649Z" fill="#888F9A" stroke="white" stroke-width="0.3"/>
</svg>
