<svg width="24" height="24" viewBox="0 0 24 24" fill="none" xmlns="http://www.w3.org/2000/svg">
<path d="M14.2307 4.89874L14.1861 4.85H14.12H9.88H9.81393L9.76934 4.89874L7.98393 6.85H4H3.85V7V19V19.15H4H20H20.15V19V7V6.85H20H16.0161L14.2307 4.89874ZM7.17 5.15H7.23607L7.28066 5.10126L9.06607 3.15H14.9339L16.7193 5.10126L16.7639 5.15H16.83H20C21.0172 5.15 21.85 5.98284 21.85 7V19C21.85 20.0172 21.0172 20.85 20 20.85H4C2.98284 20.85 2.15 20.0172 2.15 19V7C2.15 5.98284 2.98284 5.15 4 5.15H7.17ZM15.15 13C15.15 11.2672 13.7328 9.85 12 9.85C10.2672 9.85 8.85 11.2672 8.85 13C8.85 14.7328 10.2672 16.15 12 16.15C13.7328 16.15 15.15 14.7328 15.15 13ZM7.15 13C7.15 10.3228 9.32284 8.15 12 8.15C14.6772 8.15 16.85 10.3228 16.85 13C16.85 15.6772 14.6772 17.85 12 17.85C9.32284 17.85 7.15 15.6772 7.15 13Z" fill="#888F9A" stroke="white" stroke-width="0.3"/>
</svg>
