<svg width="24" height="24" viewBox="0 0 24 24" fill="none" xmlns="http://www.w3.org/2000/svg">
<path d="M20.0794 6.12727L20.5239 5.85H20H4H3.47609L3.92061 6.12727L11.9206 11.1173L12 11.1668L12.0794 11.1173L20.0794 6.12727ZM20 18.15H20.15V18V8V7.72936L19.9205 7.8728L12 12.8231L4.0795 7.8728L3.85 7.72936V8V18V18.15H4H20ZM20 4.15C21.0172 4.15 21.85 4.98284 21.85 6V18C21.85 19.0172 21.0172 19.85 20 19.85H4C2.98284 19.85 2.15 19.0172 2.15 18V6C2.15 4.98284 2.98284 4.15 4 4.15H20Z" fill="#888F9A" stroke="white" stroke-width="0.3"/>
</svg>
