<svg width="24" height="24" viewBox="0 0 24 24" fill="none" xmlns="http://www.w3.org/2000/svg">
<mask id="mask0" mask-type="alpha" maskUnits="userSpaceOnUse" x="0" y="0" width="24" height="24">
<rect x="0.15" y="0.15" width="23.7" height="23.7" fill="#888F9A" stroke="white" stroke-width="0.3"/>
</mask>
<g mask="url(#mask0)">
<mask id="path-2-inside-1" fill="white">
<path fill-rule="evenodd" clip-rule="evenodd" d="M7.72875 10.8111L8.72569 12.5379L15.3827 8.69448L15.6311 8.76195L15.1826 11.7621L15.1169 12.0109L10.539 14.654L10.5399 14.6541L10.0958 14.9106L10.0964 14.9118L7.2693 16.544L7.26861 16.5428L2.97482 19.0219L2.72644 18.9544L3.17491 15.9542L3.24067 15.7054L5.46999 14.4183L5.46904 14.4181L5.89855 14.1702L3.54139 10.0874L3.60777 9.8397L16.1619 2.59157L16.4111 2.6571L15.9519 5.6447L15.8899 5.8899L7.79513 10.5634L7.72875 10.8111ZM7.8779 17.5982L9.70736 20.7669L9.95511 20.8333L20.2494 14.8898L20.32 14.6397L20.8029 11.6384L20.5572 11.5709L11.422 16.8451L11.1743 16.7787L10.705 15.9659L7.8779 17.5982Z"/>
</mask>
<path fill-rule="evenodd" clip-rule="evenodd" d="M7.72875 10.8111L8.72569 12.5379L15.3827 8.69448L15.6311 8.76195L15.1826 11.7621L15.1169 12.0109L10.539 14.654L10.5399 14.6541L10.0958 14.9106L10.0964 14.9118L7.2693 16.544L7.26861 16.5428L2.97482 19.0219L2.72644 18.9544L3.17491 15.9542L3.24067 15.7054L5.46999 14.4183L5.46904 14.4181L5.89855 14.1702L3.54139 10.0874L3.60777 9.8397L16.1619 2.59157L16.4111 2.6571L15.9519 5.6447L15.8899 5.8899L7.79513 10.5634L7.72875 10.8111ZM7.8779 17.5982L9.70736 20.7669L9.95511 20.8333L20.2494 14.8898L20.32 14.6397L20.8029 11.6384L20.5572 11.5709L11.422 16.8451L11.1743 16.7787L10.705 15.9659L7.8779 17.5982Z" fill="#888F9A"/>
<path d="M8.72569 12.5379L8.46589 12.6879L8.61589 12.9477L8.87569 12.7977L8.72569 12.5379ZM7.72875 10.8111L7.43897 10.7335L7.40681 10.8535L7.46894 10.9611L7.72875 10.8111ZM15.3827 8.69448L15.4613 8.40497L15.3408 8.37224L15.2327 8.43467L15.3827 8.69448ZM15.6311 8.76195L15.9278 8.8063L15.9672 8.54239L15.7097 8.47244L15.6311 8.76195ZM15.1826 11.7621L15.4727 11.8388L15.4769 11.8228L15.4793 11.8065L15.1826 11.7621ZM15.1169 12.0109L15.2669 12.2707L15.375 12.2083L15.4069 12.0876L15.1169 12.0109ZM10.539 14.654L10.389 14.3942L9.67537 14.8062L10.4868 14.9494L10.539 14.654ZM10.5399 14.6541L10.6899 14.9139L11.4035 14.5019L10.5921 14.3587L10.5399 14.6541ZM10.0958 14.9106L9.94576 14.6508L9.68595 14.8008L9.83595 15.0606L10.0958 14.9106ZM10.0964 14.9118L10.2464 15.1716L10.5063 15.0216L10.3563 14.7618L10.0964 14.9118ZM7.2693 16.544L7.00949 16.694L7.15949 16.9538L7.4193 16.8038L7.2693 16.544ZM7.26861 16.5428L7.52842 16.3928L7.37842 16.133L7.11861 16.283L7.26861 16.5428ZM2.97482 19.0219L2.89618 19.3114L3.01668 19.3441L3.12482 19.2817L2.97482 19.0219ZM2.72644 18.9544L2.42974 18.91L2.39029 19.174L2.6478 19.2439L2.72644 18.9544ZM3.17491 15.9542L2.88486 15.8776L2.88064 15.8935L2.8782 15.9099L3.17491 15.9542ZM3.24067 15.7054L3.09067 15.4456L2.98253 15.508L2.95062 15.6288L3.24067 15.7054ZM5.46999 14.4183L5.61999 14.6781L6.33403 14.2659L5.52202 14.1229L5.46999 14.4183ZM5.46904 14.4181L5.31904 14.1583L4.605 14.5706L5.41701 14.7136L5.46904 14.4181ZM5.89855 14.1702L6.04855 14.43L6.30835 14.28L6.15835 14.0202L5.89855 14.1702ZM3.54139 10.0874L3.25161 10.0098L3.21945 10.1298L3.28158 10.2374L3.54139 10.0874ZM3.60777 9.8397L3.45777 9.5799L3.35015 9.64203L3.31799 9.76206L3.60777 9.8397ZM16.1619 2.59157L16.2382 2.30143L16.1188 2.27004L16.0119 2.33176L16.1619 2.59157ZM16.4111 2.6571L16.7076 2.70269L16.7487 2.43567L16.4874 2.36697L16.4111 2.6571ZM15.9519 5.6447L16.2427 5.71821L16.2462 5.70438L16.2484 5.69028L15.9519 5.6447ZM15.8899 5.8899L16.0399 6.14971L16.1497 6.08632L16.1807 5.96341L15.8899 5.8899ZM7.79513 10.5634L7.64513 10.3036L7.53752 10.3657L7.50535 10.4858L7.79513 10.5634ZM7.8779 17.5982L7.7279 17.3383L7.46809 17.4883L7.61809 17.7482L7.8779 17.5982ZM9.70736 20.7669L9.44756 20.9169L9.50969 21.0245L9.62972 21.0567L9.70736 20.7669ZM9.95511 20.8333L9.87746 21.123L9.99749 21.1552L10.1051 21.0931L9.95511 20.8333ZM20.2494 14.8898L20.3994 15.1497L20.5051 15.0887L20.5382 14.9713L20.2494 14.8898ZM20.32 14.6397L20.6087 14.7211L20.6134 14.7045L20.6161 14.6874L20.32 14.6397ZM20.8029 11.6384L21.0991 11.6861L21.1418 11.4205L20.8824 11.3492L20.8029 11.6384ZM20.5572 11.5709L20.6367 11.2816L20.5158 11.2484L20.4072 11.3111L20.5572 11.5709ZM11.422 16.8451L11.3444 17.1348L11.4644 17.167L11.572 17.1049L11.422 16.8451ZM11.1743 16.7787L10.9145 16.9287L10.9766 17.0363L11.0967 17.0684L11.1743 16.7787ZM10.705 15.9659L10.9649 15.8159L10.8149 15.5561L10.555 15.7061L10.705 15.9659ZM8.9855 12.3879L7.98856 10.6611L7.46894 10.9611L8.46589 12.6879L8.9855 12.3879ZM15.2327 8.43467L8.57569 12.2781L8.87569 12.7977L15.5327 8.95429L15.2327 8.43467ZM15.7097 8.47244L15.4613 8.40497L15.3041 8.98399L15.5524 9.05146L15.7097 8.47244ZM15.4793 11.8065L15.9278 8.8063L15.3344 8.7176L14.8859 11.7178L15.4793 11.8065ZM15.4069 12.0876L15.4727 11.8388L14.8926 11.6855L14.8268 11.9343L15.4069 12.0876ZM10.689 14.9138L15.2669 12.2707L14.9669 11.7511L10.389 14.3942L10.689 14.9138ZM10.5921 14.3587L10.5911 14.3585L10.4868 14.9494L10.4878 14.9496L10.5921 14.3587ZM10.2458 15.1704L10.6899 14.9139L10.3899 14.3943L9.94576 14.6508L10.2458 15.1704ZM10.3563 14.7618L10.3556 14.7606L9.83595 15.0606L9.83664 15.0618L10.3563 14.7618ZM7.4193 16.8038L10.2464 15.1716L9.94645 14.652L7.1193 16.2842L7.4193 16.8038ZM7.0088 16.6928L7.00949 16.694L7.52911 16.394L7.52842 16.3928L7.0088 16.6928ZM3.12482 19.2817L7.41861 16.8026L7.11861 16.283L2.82482 18.7621L3.12482 19.2817ZM2.6478 19.2439L2.89618 19.3114L3.05346 18.7323L2.80509 18.6649L2.6478 19.2439ZM2.8782 15.9099L2.42974 18.91L3.02315 18.9987L3.47161 15.9986L2.8782 15.9099ZM2.95062 15.6288L2.88486 15.8776L3.46495 16.0309L3.53071 15.7821L2.95062 15.6288ZM5.31999 14.1585L3.09067 15.4456L3.39067 15.9652L5.61999 14.6781L5.31999 14.1585ZM5.41701 14.7136L5.41795 14.7138L5.52202 14.1229L5.52108 14.1227L5.41701 14.7136ZM5.74855 13.9104L5.31904 14.1583L5.61904 14.6779L6.04855 14.43L5.74855 13.9104ZM3.28158 10.2374L5.63874 14.3202L6.15835 14.0202L3.80119 9.93745L3.28158 10.2374ZM3.31799 9.76206L3.25161 10.0098L3.83116 10.1651L3.89755 9.91735L3.31799 9.76206ZM16.0119 2.33176L3.45777 9.5799L3.75777 10.0995L16.3119 2.85138L16.0119 2.33176ZM16.4874 2.36697L16.2382 2.30143L16.0856 2.8817L16.3348 2.94724L16.4874 2.36697ZM16.2484 5.69028L16.7076 2.70269L16.1146 2.61152L15.6553 5.59912L16.2484 5.69028ZM16.1807 5.96341L16.2427 5.71821L15.661 5.57119L15.599 5.81639L16.1807 5.96341ZM7.94513 10.8232L16.0399 6.14971L15.7399 5.63009L7.64513 10.3036L7.94513 10.8232ZM8.01853 10.8888L8.08491 10.6411L7.50535 10.4858L7.43897 10.7335L8.01853 10.8888ZM7.61809 17.7482L9.44756 20.9169L9.96717 20.6169L8.1377 17.4482L7.61809 17.7482ZM9.62972 21.0567L9.87746 21.123L10.0328 20.5435L9.78501 20.4771L9.62972 21.0567ZM10.1051 21.0931L20.3994 15.1497L20.0994 14.63L9.80511 20.5735L10.1051 21.0931ZM20.5382 14.9713L20.6087 14.7211L20.0312 14.5583L19.9607 14.8084L20.5382 14.9713ZM20.6161 14.6874L21.0991 11.6861L20.5067 11.5908L20.0238 14.592L20.6161 14.6874ZM20.8824 11.3492L20.6367 11.2816L20.4777 11.8601L20.7234 11.9277L20.8824 11.3492ZM20.4072 11.3111L11.272 16.5852L11.572 17.1049L20.7072 11.8307L20.4072 11.3111ZM11.4997 16.5553L11.2519 16.4889L11.0967 17.0684L11.3444 17.1348L11.4997 16.5553ZM11.4341 16.6287L10.9649 15.8159L10.4452 16.1159L10.9145 16.9287L11.4341 16.6287ZM10.555 15.7061L7.7279 17.3383L8.0279 17.858L10.855 16.2257L10.555 15.7061Z" fill="white" mask="url(#path-2-inside-1)"/>
</g>
</svg>
