<svg width="24" height="24" viewBox="0 0 24 24" fill="none" xmlns="http://www.w3.org/2000/svg">
<path d="M7.75205 20.8493L7.75152 20.8493C7.62664 20.8495 7.50326 20.8222 7.39014 20.7693C7.27701 20.7164 7.17694 20.6392 7.09702 20.5433L7.097 20.5433C7.02542 20.4574 6.9715 20.3582 6.93831 20.2515C6.90513 20.1447 6.89333 20.0324 6.90359 19.9211C6.91385 19.8098 6.94598 19.7016 6.99813 19.6027C7.05028 19.5038 7.12143 19.4161 7.2075 19.3448L7.20773 19.3451L7.21529 19.3378L14.7955 12.1078L14.9093 11.9993L14.7955 11.8908L7.21529 4.66076L7.21553 4.6605L7.20764 4.65394C7.03402 4.50963 6.92483 4.30226 6.90411 4.07745C6.88338 3.85264 6.95281 3.6288 7.09712 3.45518C7.24142 3.28156 7.4488 3.17237 7.67361 3.15164C7.89695 3.13105 8.11932 3.19944 8.29246 3.34183L16.7891 11.3385L16.7889 11.3387L16.7962 11.3448C16.8938 11.4256 16.9737 11.5261 17.0262 11.6377C17.078 11.7478 17.102 11.8707 17.102 11.9993C17.102 12.1279 17.078 12.2508 17.0262 12.3609C16.9737 12.4725 16.8938 12.573 16.7962 12.6538L16.7961 12.6536L16.7891 12.6601L8.29254 20.6567C8.14018 20.7816 7.94914 20.8497 7.75205 20.8493Z" fill="#888F9A" stroke="white" stroke-width="0.3"/>
</svg>
