<svg width="24" height="24" viewBox="0 0 24 24" fill="none" xmlns="http://www.w3.org/2000/svg">
<path d="M13.85 13.5V20.85H4.15V5C4.15 3.98284 4.98284 3.15 6 3.15H12C13.0172 3.15 13.85 3.98284 13.85 5V12V12.15H14H15C16.0172 12.15 16.85 12.9828 16.85 14V18.5C16.85 19.1328 17.3672 19.65 18 19.65C18.6328 19.65 19.15 19.1328 19.15 18.5V11.29V11.0644L18.942 11.1517C18.6472 11.2753 18.3369 11.35 18 11.35C16.7028 11.35 15.65 10.2972 15.65 9C15.65 7.99506 16.2789 7.14892 17.1636 6.81008L17.3795 6.7274L17.2161 6.56393L15.2121 4.56L16.06 3.71213L19.5679 7.22L19.5579 7.23L19.6639 7.33607C20.0867 7.7588 20.35 8.35099 20.35 9V18.5C20.35 19.7972 19.2972 20.85 18 20.85C16.7028 20.85 15.65 19.7972 15.65 18.5V13.5V13.35H15.5H14H13.85V13.5ZM12 19.15H12.15V19V13.5V12V11.85H12H6H5.85V12V19V19.15H6H12ZM12 10.15H12.15V10V5V4.85H12H6H5.85V5V10V10.15H6H12ZM16.85 9C16.85 9.63284 17.3672 10.15 18 10.15C18.6328 10.15 19.15 9.63284 19.15 9C19.15 8.36716 18.6328 7.85 18 7.85C17.3672 7.85 16.85 8.36716 16.85 9Z" fill="#888F9A" stroke="white" stroke-width="0.3"/>
</svg>
