<svg width="24" height="24" viewBox="0 0 24 24" fill="none" xmlns="http://www.w3.org/2000/svg">
<path d="M6.15864 7.97184L6.08761 8.172H6.3H17.7H17.912L17.8414 7.97207C17.2264 6.22929 15.7927 4.79565 14.0499 4.18054L14.0488 4.18014C10.7701 3.05309 7.28582 4.79522 6.15864 7.97184ZM19.6547 8.05917L19.6835 8.172H19.8H20C20.2659 8.172 20.4759 8.25998 20.6189 8.40306C20.762 8.54615 20.85 8.75608 20.85 9.022C20.85 9.28791 20.762 9.49785 20.6189 9.64093C20.4759 9.78401 20.2659 9.872 20 9.872H4C3.73409 9.872 3.52415 9.78401 3.38107 9.64093C3.23798 9.49785 3.15 9.28791 3.15 9.022C3.15 8.75608 3.23798 8.54615 3.38107 8.40306C3.52415 8.25998 3.73409 8.172 4 8.172H4.2H4.31315L4.34423 8.06321C5.12967 5.31417 7.28948 3.15326 10.1389 2.36686C14.2568 1.28894 18.575 3.83865 19.6547 8.05917ZM4 21.872C3.73409 21.872 3.52415 21.784 3.38107 21.6409C3.23798 21.4978 3.15 21.2879 3.15 21.022C3.15 20.7561 3.23798 20.5461 3.38107 20.4031C3.52415 20.26 3.73409 20.172 4 20.172H20C20.2659 20.172 20.4759 20.26 20.6189 20.4031C20.762 20.5461 20.85 20.7561 20.85 21.022C20.85 21.2879 20.762 21.4978 20.6189 21.6409C20.4759 21.784 20.2659 21.872 20 21.872H4ZM6.85 12.022V18.022C6.85 18.2879 6.76202 18.4978 6.61893 18.6409C6.47585 18.784 6.26591 18.872 6 18.872C5.73409 18.872 5.52415 18.784 5.38107 18.6409C5.23798 18.4978 5.15 18.2879 5.15 18.022V12.022C5.15 11.7561 5.23798 11.5461 5.38107 11.4031C5.52415 11.26 5.73409 11.172 6 11.172C6.26591 11.172 6.47585 11.26 6.61893 11.4031C6.76202 11.5461 6.85 11.7561 6.85 12.022ZM12.85 12.022V18.022C12.85 18.2879 12.762 18.4978 12.6189 18.6409C12.4759 18.784 12.2659 18.872 12 18.872C11.7341 18.872 11.5241 18.784 11.3811 18.6409C11.238 18.4978 11.15 18.2879 11.15 18.022V12.022C11.15 11.7561 11.238 11.5461 11.3811 11.4031C11.5241 11.26 11.7341 11.172 12 11.172C12.2659 11.172 12.4759 11.26 12.6189 11.4031C12.762 11.5461 12.85 11.7561 12.85 12.022ZM18.85 12.022V18.022C18.85 18.2879 18.762 18.4978 18.6189 18.6409C18.4759 18.784 18.2659 18.872 18 18.872C17.7341 18.872 17.5241 18.784 17.3811 18.6409C17.238 18.4978 17.15 18.2879 17.15 18.022V12.022C17.15 11.7561 17.238 11.5461 17.3811 11.4031C17.5241 11.26 17.7341 11.172 18 11.172C18.2659 11.172 18.4759 11.26 18.6189 11.4031C18.762 11.5461 18.85 11.7561 18.85 12.022Z" fill="#888F9A" stroke="white" stroke-width="0.3"/>
</svg>
