<svg width="24" height="24" viewBox="0 0 24 24" fill="none" xmlns="http://www.w3.org/2000/svg">
<path d="M13.4869 12.6939L13.476 12.699L13.466 12.7057C13.0987 12.9539 12.8222 13.1501 12.6392 13.3413C12.4488 13.54 12.35 13.743 12.35 14C12.35 14.2254 12.2605 14.4416 12.101 14.601C11.9416 14.7605 11.7254 14.85 11.5 14.85C11.2746 14.85 11.0584 14.7605 10.899 14.601C10.7408 14.4428 10.6514 14.2287 10.65 14.0051C10.6913 13.4308 10.8853 12.8779 11.212 12.4038C11.5397 11.9281 11.989 11.5491 12.5131 11.3061L12.524 11.301L12.534 11.2943C12.9013 11.0461 13.1778 10.8499 13.3608 10.6588C13.5512 10.46 13.65 10.257 13.65 10V9.5C13.65 9.0624 13.4762 8.64271 13.1667 8.33328C12.8573 8.02384 12.4376 7.85 12 7.85C11.5624 7.85 11.1427 8.02384 10.8333 8.33328C10.5238 8.64271 10.35 9.0624 10.35 9.5C10.35 9.72544 10.2605 9.94164 10.101 10.101C9.94164 10.2605 9.72544 10.35 9.5 10.35C9.27457 10.35 9.05837 10.2605 8.89896 10.101C8.73956 9.94164 8.65 9.72544 8.65 9.5C8.65 8.61153 9.00295 7.75944 9.6312 7.1312C10.2594 6.50295 11.1115 6.15 12 6.15C12.8885 6.15 13.7406 6.50295 14.3688 7.1312C14.9971 7.75944 15.35 8.61153 15.35 9.5V9.99469C15.3088 10.5691 15.1148 11.122 14.788 11.5962C14.4603 12.0719 14.011 12.4509 13.4869 12.6939ZM12 21.85C10.0519 21.85 8.14746 21.2723 6.52764 20.19C4.90781 19.1076 3.64531 17.5693 2.89979 15.7694C2.15427 13.9696 1.95921 11.9891 2.33927 10.0784C2.71933 8.16765 3.65746 6.41255 5.035 5.035C6.41255 3.65746 8.16765 2.71933 10.0784 2.33927C11.9891 1.95921 13.9696 2.15427 15.7694 2.89979C17.5693 3.64531 19.1076 4.90781 20.19 6.52764C21.2723 8.14746 21.85 10.0519 21.85 12C21.85 14.6124 20.8122 17.1178 18.965 18.965C17.1178 20.8122 14.6124 21.85 12 21.85ZM12 3.85C10.3881 3.85 8.81237 4.32799 7.47211 5.22353C6.13185 6.11906 5.08724 7.39192 4.47039 8.88113C3.85353 10.3704 3.69214 12.009 4.0066 13.59C4.32107 15.1709 5.09729 16.6231 6.23708 17.7629C7.37688 18.9027 8.82907 19.6789 10.41 19.9934C11.991 20.3079 13.6297 20.1465 15.1189 19.5296C16.6081 18.9128 17.8809 17.8682 18.7765 16.5279C19.672 15.1876 20.15 13.6119 20.15 12C20.15 9.83849 19.2913 7.76551 17.7629 6.23708C16.2345 4.70866 14.1615 3.85 12 3.85ZM11.0278 16.2933C11.1676 16.1999 11.3319 16.15 11.5 16.15C11.7254 16.15 11.9416 16.2396 12.101 16.399C12.2605 16.5584 12.35 16.7746 12.35 17C12.35 17.1681 12.3002 17.3325 12.2068 17.4722C12.1134 17.612 11.9806 17.721 11.8253 17.7853C11.67 17.8496 11.4991 17.8665 11.3342 17.8337C11.1693 17.8009 11.0178 17.7199 10.899 17.601C10.7801 17.4822 10.6991 17.3307 10.6663 17.1658C10.6335 17.0009 10.6504 16.83 10.7147 16.6747C10.779 16.5194 10.888 16.3867 11.0278 16.2933Z" fill="#888F9A" stroke="white" stroke-width="0.3"/>
</svg>
