<svg width="24" height="24" viewBox="0 0 24 24" fill="none" xmlns="http://www.w3.org/2000/svg">
<path d="M15.5182 17.6393C15.4242 17.7522 15.3065 17.843 15.1734 17.9052C15.0403 17.9674 14.8952 17.9995 14.7482 17.9993L15.5182 17.6393ZM15.5182 17.6393C15.6024 17.5382 15.6659 17.4216 15.7049 17.296C15.744 17.1704 15.7579 17.0383 15.7458 16.9073C15.7337 16.7764 15.6959 16.649 15.6346 16.5327C15.5732 16.4163 15.4895 16.3132 15.3882 16.2293L15.5182 17.6393ZM14.7479 17.8493L14.7485 17.8493C14.8734 17.8495 14.9967 17.8222 15.1099 17.7693C15.223 17.7164 15.3231 17.6392 15.403 17.5433L15.403 17.5433C15.4746 17.4574 15.5285 17.3582 15.5617 17.2515C15.5949 17.1447 15.6067 17.0324 15.5964 16.9211C15.5861 16.8098 15.554 16.7016 15.5019 16.6027C15.4497 16.5038 15.3786 16.4161 15.2925 16.3448L15.2924 16.3449L15.2865 16.3395L10.7063 12.1095L10.587 11.9993L10.7063 11.8891L15.2865 7.6591L15.2863 7.65895L15.2924 7.65394C15.466 7.50963 15.5752 7.30226 15.5959 7.07745C15.6166 6.85264 15.5472 6.6288 15.4029 6.45518C15.2586 6.28156 15.0512 6.17237 14.8264 6.15164C14.6026 6.13102 14.3799 6.19969 14.2066 6.34262L8.70895 11.3403L8.70905 11.3404L8.70375 11.3448C8.60618 11.4256 8.52628 11.5261 8.4738 11.6377C8.42202 11.7478 8.39805 11.8707 8.39805 11.9993C8.39805 12.1279 8.42202 12.2508 8.4738 12.3609C8.52628 12.4725 8.60618 12.573 8.70375 12.6538L8.70385 12.6537L8.70895 12.6583L14.2065 17.6559C14.359 17.7813 14.5504 17.8497 14.7479 17.8493Z" fill="#888F9A" stroke="white" stroke-width="0.3"/>
</svg>
