<svg width="24" height="24" viewBox="0 0 24 24" fill="none" xmlns="http://www.w3.org/2000/svg">
<path d="M4.85 18V18.15H5H9C9.22543 18.15 9.44164 18.2396 9.60104 18.399C9.76045 18.5584 9.85 18.7746 9.85 19C9.85 19.2254 9.76045 19.4416 9.60104 19.601C9.44164 19.7604 9.22543 19.85 9 19.85H5C4.50935 19.85 4.0388 19.6551 3.69185 19.3081C3.34491 18.9612 3.15 18.4907 3.15 18L3.15 15.11L3.15 15.1099C3.14976 14.7514 3.25366 14.4006 3.44907 14.1001C3.64371 13.8008 3.92079 13.5642 4.24684 13.4189L4.39426 13.3636L11.3555 11.6657L11.365 11.6634L11.374 11.6599C11.8026 11.4946 12.2774 11.4946 12.706 11.6599L12.7144 11.6632L12.7231 11.6654L17.7231 12.9354L17.7239 12.9356C17.9424 12.9898 18.1306 13.1286 18.2469 13.3215C18.3628 13.5135 18.398 13.7435 18.345 13.9613C18.2831 14.1743 18.1404 14.3547 17.9473 14.4639C17.7533 14.5736 17.5241 14.6028 17.3088 14.5451L17.3067 14.5446L12.1967 13.2546L12.1965 13.2545C12.1521 13.2433 12.109 13.2272 12.0681 13.2064L12 13.1716L11.9319 13.2064C11.891 13.2272 11.8479 13.2433 11.8035 13.2545L11.8034 13.2545L4.96342 14.9745L4.85 15.0031V15.12V18ZM15.1039 21.6039L15.1035 21.6044C15.0245 21.684 14.9305 21.7473 14.8269 21.7904C14.7233 21.8336 14.6122 21.8558 14.5 21.8558C14.3878 21.8558 14.2767 21.8336 14.1731 21.7904C14.0695 21.7473 13.9755 21.684 13.8965 21.6044L13.8961 21.6039L11.3961 19.1039C11.3168 19.0246 11.2538 18.9305 11.2109 18.8268C11.168 18.7232 11.1459 18.6122 11.1459 18.5C11.1459 18.3878 11.168 18.2768 11.2109 18.1732C11.2538 18.0695 11.3168 17.9754 11.3961 17.8961C11.4754 17.8168 11.5695 17.7538 11.6732 17.7109C11.7768 17.668 11.8878 17.6459 12 17.6459C12.1122 17.6459 12.2232 17.668 12.3268 17.7109C12.4304 17.7538 12.5244 17.8166 12.6037 17.8958C12.6038 17.8959 12.6038 17.896 12.6039 17.8961L14.3936 19.6958L14.4998 19.8025L14.6062 19.696L20.3961 13.8961C20.3961 13.896 20.3961 13.896 20.3962 13.896C20.4755 13.8167 20.5696 13.7538 20.6732 13.7109C20.7768 13.668 20.8878 13.6459 21 13.6459C21.1122 13.6459 21.2232 13.668 21.3268 13.7109C21.4305 13.7538 21.5246 13.8168 21.6039 13.8961C21.6832 13.9754 21.7462 14.0695 21.7891 14.1732C21.832 14.2768 21.8541 14.3878 21.8541 14.5C21.8541 14.6122 21.832 14.7232 21.7891 14.8268C21.7462 14.9305 21.6832 15.0246 21.6039 15.1039L15.1039 21.6039ZM12 9.85C11.2385 9.85 10.4942 9.6242 9.86106 9.20116C9.22793 8.77812 8.73446 8.17683 8.44306 7.47333C8.15167 6.76984 8.07542 5.99573 8.22398 5.2489C8.37253 4.50208 8.73921 3.81607 9.27764 3.27764C9.81607 2.73921 10.5021 2.37253 11.2489 2.22398C11.9957 2.07543 12.7698 2.15167 13.4733 2.44307C14.1768 2.73446 14.7781 3.22793 15.2012 3.86106C15.6242 4.49419 15.85 5.23854 15.85 6C15.85 7.02109 15.4444 8.00035 14.7224 8.72236C14.0003 9.44438 13.0211 9.85 12 9.85ZM12 3.85C11.5748 3.85 11.1591 3.9761 10.8055 4.21234C10.452 4.44859 10.1764 4.78437 10.0137 5.17723C9.85093 5.57009 9.80835 6.00239 9.89131 6.41945C9.97427 6.8365 10.179 7.2196 10.4797 7.52028C10.7804 7.82096 11.1635 8.02573 11.5806 8.10869C11.9976 8.19165 12.4299 8.14907 12.8228 7.98634C13.2156 7.82361 13.5514 7.54804 13.7877 7.19448C14.0239 6.84091 14.15 6.42523 14.15 6C14.15 5.42979 13.9235 4.88293 13.5203 4.47972C13.1171 4.07652 12.5702 3.85 12 3.85Z" fill="#888F9A" stroke="white" stroke-width="0.3"/>
</svg>
