<svg width="24" height="24" viewBox="0 0 24 24" fill="none" xmlns="http://www.w3.org/2000/svg">
<path d="M17.85 16V16.0621L17.8939 16.1061L19.85 18.0621V18.85H4.15V18.0621L6.10607 16.1061L6.15 16.0621V16V11C6.15 7.97259 7.75744 5.48626 10.5347 4.82593L10.65 4.79852V4.68V4C10.65 3.25284 11.2528 2.65 12 2.65C12.7472 2.65 13.35 3.25284 13.35 4V4.68V4.79861L13.4654 4.82596C16.2522 5.48625 17.85 7.98217 17.85 11V16ZM16 17.15H16.15V17V11C16.15 9.73057 15.7636 8.56952 15.0483 7.72318C14.331 6.87442 13.2891 6.35 12 6.35C10.7109 6.35 9.66896 6.87442 8.95168 7.72318C8.23645 8.56952 7.85 9.73057 7.85 11V17V17.15H8H16ZM13.8439 20.15C13.7669 21.0978 12.9667 21.85 12 21.85C11.0333 21.85 10.2331 21.0978 10.1561 20.15H13.8439Z" fill="#888F9A" stroke="white" stroke-width="0.3"/>
</svg>
