<svg width="24" height="24" viewBox="0 0 24 24" fill="none" xmlns="http://www.w3.org/2000/svg">
<path d="M10.15 21C10.15 19.9828 10.9828 19.15 12 19.15C13.0172 19.15 13.85 19.9828 13.85 21C13.85 22.0172 13.0172 22.85 12 22.85C10.9828 22.85 10.15 22.0172 10.15 21ZM4.15 3C4.15 1.98284 4.98284 1.15 6 1.15C7.01716 1.15 7.85 1.98284 7.85 3C7.85 4.01716 7.01716 4.85 6 4.85C4.98284 4.85 4.15 4.01716 4.15 3ZM4.15 9C4.15 7.98284 4.98284 7.15 6 7.15C7.01716 7.15 7.85 7.98284 7.85 9C7.85 10.0172 7.01716 10.85 6 10.85C4.98284 10.85 4.15 10.0172 4.15 9ZM4.15 15C4.15 13.9828 4.98284 13.15 6 13.15C7.01716 13.15 7.85 13.9828 7.85 15C7.85 16.0172 7.01716 16.85 6 16.85C4.98284 16.85 4.15 16.0172 4.15 15ZM19.85 3C19.85 4.01716 19.0172 4.85 18 4.85C16.9828 4.85 16.15 4.01716 16.15 3C16.15 1.98284 16.9828 1.15 18 1.15C19.0172 1.15 19.85 1.98284 19.85 3ZM10.15 15C10.15 13.9828 10.9828 13.15 12 13.15C13.0172 13.15 13.85 13.9828 13.85 15C13.85 16.0172 13.0172 16.85 12 16.85C10.9828 16.85 10.15 16.0172 10.15 15ZM16.15 15C16.15 13.9828 16.9828 13.15 18 13.15C19.0172 13.15 19.85 13.9828 19.85 15C19.85 16.0172 19.0172 16.85 18 16.85C16.9828 16.85 16.15 16.0172 16.15 15ZM16.15 9C16.15 7.98284 16.9828 7.15 18 7.15C19.0172 7.15 19.85 7.98284 19.85 9C19.85 10.0172 19.0172 10.85 18 10.85C16.9828 10.85 16.15 10.0172 16.15 9ZM10.15 9C10.15 7.98284 10.9828 7.15 12 7.15C13.0172 7.15 13.85 7.98284 13.85 9C13.85 10.0172 13.0172 10.85 12 10.85C10.9828 10.85 10.15 10.0172 10.15 9ZM10.15 3C10.15 1.98284 10.9828 1.15 12 1.15C13.0172 1.15 13.85 1.98284 13.85 3C13.85 4.01716 13.0172 4.85 12 4.85C10.9828 4.85 10.15 4.01716 10.15 3Z" fill="#888F9A" stroke="white" stroke-width="0.3"/>
</svg>
