<svg width="24" height="24" viewBox="0 0 24 24" fill="none" xmlns="http://www.w3.org/2000/svg">
<path d="M13.15 15L13.15 14.9996C13.1495 14.8214 13.2051 14.6476 13.3088 14.5027C13.4125 14.3579 13.559 14.2493 13.7277 14.1922C13.7278 14.1922 13.7279 14.1921 13.728 14.1921L16.7274 13.1923L16.728 13.1921C16.9044 13.1325 17.0956 13.1325 17.272 13.1921L17.2726 13.1923L20.272 14.1921C20.2721 14.1922 20.2722 14.1922 20.2723 14.1922C20.441 14.2493 20.5875 14.3579 20.6912 14.5027C20.7949 14.6476 20.8505 14.8214 20.85 14.9996V15V18C20.85 19.0074 20.1427 19.9692 19.2788 20.6912C18.8504 21.0492 18.3917 21.341 17.9808 21.5427C17.5644 21.747 17.2148 21.85 17 21.85C16.7981 21.85 16.455 21.7486 16.0402 21.5454C15.6313 21.3452 15.1709 21.055 14.7393 20.6982C13.8689 19.9784 13.15 19.0167 13.15 18L13.15 15ZM14.9524 15.5878L14.85 15.6221V15.73V18C14.85 18.2122 14.9576 18.4325 15.1017 18.635C15.2488 18.8415 15.4485 19.0496 15.6642 19.241C16.0934 19.6218 16.6082 19.9559 16.9447 20.0894L17 20.1114L17.0553 20.0894C17.3918 19.9559 17.9066 19.6218 18.3358 19.241C18.5515 19.0496 18.7512 18.8415 18.8983 18.635C19.0424 18.4325 19.15 18.2122 19.15 18V15.73V15.6221L19.0476 15.5878L17.0476 14.9178L17 14.9018L16.9524 14.9178L14.9524 15.5878ZM4.85 19V19.15H5H11.33C11.5554 19.15 11.7716 19.2396 11.931 19.399C12.0904 19.5584 12.18 19.7746 12.18 20C12.18 20.2254 12.0904 20.4416 11.931 20.601C11.7716 20.7604 11.5554 20.85 11.33 20.85H5C4.50935 20.85 4.03879 20.6551 3.69185 20.3081C3.34491 19.9612 3.15 19.4907 3.15 19V4C3.15 3.50935 3.34491 3.03879 3.69185 2.69185C4.03879 2.34491 4.50935 2.15 5 2.15H15C15.4907 2.15 15.9612 2.34491 16.3081 2.69185C16.6551 3.03879 16.85 3.50935 16.85 4V11.06C16.85 11.2854 16.7604 11.5016 16.601 11.661C16.4416 11.8204 16.2254 11.91 16 11.91C15.7746 11.91 15.5584 11.8204 15.399 11.661C15.2396 11.5016 15.15 11.2854 15.15 11.06V4V3.85H15H5H4.85V4V19ZM10.601 6.39896C10.7604 6.55837 10.85 6.77457 10.85 7C10.85 7.22543 10.7604 7.44163 10.601 7.60104C10.4416 7.76045 10.2254 7.85 10 7.85H7C6.77457 7.85 6.55837 7.76045 6.39896 7.60104C6.23955 7.44163 6.15 7.22543 6.15 7C6.15 6.77457 6.23955 6.55837 6.39896 6.39896C6.55837 6.23955 6.77457 6.15 7 6.15H10C10.2254 6.15 10.4416 6.23955 10.601 6.39896ZM13.601 11.399C13.7604 11.5584 13.85 11.7746 13.85 12C13.85 12.2254 13.7604 12.4416 13.601 12.601C13.4416 12.7604 13.2254 12.85 13 12.85H7C6.77457 12.85 6.55837 12.7604 6.39896 12.601C6.23955 12.4416 6.15 12.2254 6.15 12C6.15 11.7746 6.23955 11.5584 6.39896 11.399C6.55837 11.2396 6.77457 11.15 7 11.15H13C13.2254 11.15 13.4416 11.2396 13.601 11.399ZM11.601 15.399C11.7604 15.5584 11.85 15.7746 11.85 16C11.85 16.2254 11.7604 16.4416 11.601 16.601C11.4416 16.7604 11.2254 16.85 11 16.85H7C6.77457 16.85 6.55837 16.7604 6.39896 16.601C6.23955 16.4416 6.15 16.2254 6.15 16C6.15 15.7746 6.23955 15.5584 6.39896 15.399C6.55837 15.2396 6.77457 15.15 7 15.15H11C11.2254 15.15 11.4416 15.2396 11.601 15.399Z" fill="#888F9A" stroke="white" stroke-width="0.3"/>
</svg>
