<svg width="24" height="24" viewBox="0 0 24 24" fill="none" xmlns="http://www.w3.org/2000/svg">
<mask id="path-1-inside-1" fill="white">
<path fill-rule="evenodd" clip-rule="evenodd" d="M10.182 2H2.90911C2.668 2 2.43676 2.09578 2.26627 2.26627C2.09578 2.43676 2 2.66799 2 2.9091V10.1819C2 10.423 2.09578 10.6543 2.26627 10.8247C2.43676 10.9952 2.668 11.091 2.90911 11.091H10.182C10.4231 11.091 10.6543 10.9952 10.8248 10.8247C10.9953 10.6543 11.0911 10.423 11.0911 10.1819V2.9091C11.0911 2.66799 10.9953 2.43676 10.8248 2.26627C10.6543 2.09578 10.4231 2 10.182 2ZM9.27289 9.27281H3.81822V3.8182H9.27289V9.27281ZM8 5H5V8H8V5ZM21.0914 12.9087C21.3325 12.9087 21.5637 13.0045 21.7342 13.175C21.9047 13.3455 22.0005 13.5767 22.0005 13.8178V15.636C22.0005 15.8771 21.9047 16.1083 21.7342 16.2788C21.5637 16.4493 21.3325 16.5451 21.0914 16.5451H19.2731V18.3633H21.0914C21.3325 18.3633 21.5637 18.4591 21.7342 18.6296C21.9047 18.8001 22.0005 19.0313 22.0005 19.2724V21.0906C22.0005 21.3317 21.9047 21.5629 21.7342 21.7334C21.5637 21.9039 21.3325 21.9997 21.0914 21.9997H19.2731C19.032 21.9997 18.8008 21.9039 18.6303 21.7334C18.4598 21.5629 18.364 21.3317 18.364 21.0906V19.2724H16.5458V21.0906C16.5458 21.3317 16.45 21.5629 16.2795 21.7334C16.109 21.9039 15.8778 21.9997 15.6367 21.9997H13.8185C13.5774 21.9997 13.3461 21.9039 13.1756 21.7334C13.0051 21.5629 12.9094 21.3317 12.9094 21.0906V19.2724C12.9094 19.0313 13.0051 18.8001 13.1756 18.6296C13.3461 18.4591 13.5774 18.3633 13.8185 18.3633H15.6367V16.5451H13.8185C13.5774 16.5451 13.3461 16.4493 13.1756 16.2788C13.0051 16.1083 12.9094 15.8771 12.9094 15.636V13.8178C12.9094 13.5767 13.0051 13.3455 13.1756 13.175C13.3461 13.0045 13.5774 12.9087 13.8185 12.9087H15.6367C15.8778 12.9087 16.109 13.0045 16.2795 13.175C16.45 13.3455 16.5458 13.5767 16.5458 13.8178V15.636H18.364V13.8178C18.364 13.5767 18.4598 13.3455 18.6303 13.175C18.8008 13.0045 19.032 12.9087 19.2731 12.9087H21.0914ZM21.0914 2H13.8185C13.5774 2 13.3461 2.09578 13.1756 2.26627C13.0051 2.43676 12.9094 2.66799 12.9094 2.9091V10.1819C12.9094 10.423 13.0051 10.6543 13.1756 10.8247C13.3461 10.9952 13.5774 11.091 13.8185 11.091H21.0914C21.3325 11.091 21.5637 10.9952 21.7342 10.8247C21.9047 10.6543 22.0005 10.423 22.0005 10.1819V2.9091C22.0005 2.66799 21.9047 2.43676 21.7342 2.26627C21.5637 2.09578 21.3325 2 21.0914 2ZM20.1823 9.27281H14.7276V3.8182H20.1823V9.27281ZM2.90911 12.9087H10.182C10.4231 12.9087 10.6543 13.0045 10.8248 13.175C10.9953 13.3455 11.0911 13.5767 11.0911 13.8178V21.0906C11.0911 21.3317 10.9953 21.5629 10.8248 21.7334C10.6543 21.9039 10.4231 21.9997 10.182 21.9997H2.90911C2.668 21.9997 2.43676 21.9039 2.26627 21.7334C2.09578 21.5629 2 21.3317 2 21.0906V13.8178C2 13.5767 2.09578 13.3455 2.26627 13.175C2.43676 13.0045 2.668 12.9087 2.90911 12.9087ZM3.81822 20.1815H9.27289V14.7269H3.81822V20.1815Z"/>
</mask>
<path fill-rule="evenodd" clip-rule="evenodd" d="M10.182 2H2.90911C2.668 2 2.43676 2.09578 2.26627 2.26627C2.09578 2.43676 2 2.66799 2 2.9091V10.1819C2 10.423 2.09578 10.6543 2.26627 10.8247C2.43676 10.9952 2.668 11.091 2.90911 11.091H10.182C10.4231 11.091 10.6543 10.9952 10.8248 10.8247C10.9953 10.6543 11.0911 10.423 11.0911 10.1819V2.9091C11.0911 2.66799 10.9953 2.43676 10.8248 2.26627C10.6543 2.09578 10.4231 2 10.182 2ZM9.27289 9.27281H3.81822V3.8182H9.27289V9.27281ZM8 5H5V8H8V5ZM21.0914 12.9087C21.3325 12.9087 21.5637 13.0045 21.7342 13.175C21.9047 13.3455 22.0005 13.5767 22.0005 13.8178V15.636C22.0005 15.8771 21.9047 16.1083 21.7342 16.2788C21.5637 16.4493 21.3325 16.5451 21.0914 16.5451H19.2731V18.3633H21.0914C21.3325 18.3633 21.5637 18.4591 21.7342 18.6296C21.9047 18.8001 22.0005 19.0313 22.0005 19.2724V21.0906C22.0005 21.3317 21.9047 21.5629 21.7342 21.7334C21.5637 21.9039 21.3325 21.9997 21.0914 21.9997H19.2731C19.032 21.9997 18.8008 21.9039 18.6303 21.7334C18.4598 21.5629 18.364 21.3317 18.364 21.0906V19.2724H16.5458V21.0906C16.5458 21.3317 16.45 21.5629 16.2795 21.7334C16.109 21.9039 15.8778 21.9997 15.6367 21.9997H13.8185C13.5774 21.9997 13.3461 21.9039 13.1756 21.7334C13.0051 21.5629 12.9094 21.3317 12.9094 21.0906V19.2724C12.9094 19.0313 13.0051 18.8001 13.1756 18.6296C13.3461 18.4591 13.5774 18.3633 13.8185 18.3633H15.6367V16.5451H13.8185C13.5774 16.5451 13.3461 16.4493 13.1756 16.2788C13.0051 16.1083 12.9094 15.8771 12.9094 15.636V13.8178C12.9094 13.5767 13.0051 13.3455 13.1756 13.175C13.3461 13.0045 13.5774 12.9087 13.8185 12.9087H15.6367C15.8778 12.9087 16.109 13.0045 16.2795 13.175C16.45 13.3455 16.5458 13.5767 16.5458 13.8178V15.636H18.364V13.8178C18.364 13.5767 18.4598 13.3455 18.6303 13.175C18.8008 13.0045 19.032 12.9087 19.2731 12.9087H21.0914ZM21.0914 2H13.8185C13.5774 2 13.3461 2.09578 13.1756 2.26627C13.0051 2.43676 12.9094 2.66799 12.9094 2.9091V10.1819C12.9094 10.423 13.0051 10.6543 13.1756 10.8247C13.3461 10.9952 13.5774 11.091 13.8185 11.091H21.0914C21.3325 11.091 21.5637 10.9952 21.7342 10.8247C21.9047 10.6543 22.0005 10.423 22.0005 10.1819V2.9091C22.0005 2.66799 21.9047 2.43676 21.7342 2.26627C21.5637 2.09578 21.3325 2 21.0914 2ZM20.1823 9.27281H14.7276V3.8182H20.1823V9.27281ZM2.90911 12.9087H10.182C10.4231 12.9087 10.6543 13.0045 10.8248 13.175C10.9953 13.3455 11.0911 13.5767 11.0911 13.8178V21.0906C11.0911 21.3317 10.9953 21.5629 10.8248 21.7334C10.6543 21.9039 10.4231 21.9997 10.182 21.9997H2.90911C2.668 21.9997 2.43676 21.9039 2.26627 21.7334C2.09578 21.5629 2 21.3317 2 21.0906V13.8178C2 13.5767 2.09578 13.3455 2.26627 13.175C2.43676 13.0045 2.668 12.9087 2.90911 12.9087ZM3.81822 20.1815H9.27289V14.7269H3.81822V20.1815Z" fill="#888F9A"/>
<path d="M2.26627 2.26627L2.4784 2.4784L2.26627 2.26627ZM2.26627 10.8247L2.4784 10.6126L2.4784 10.6126L2.26627 10.8247ZM10.8248 10.8247L10.6127 10.6126L10.6127 10.6126L10.8248 10.8247ZM10.8248 2.26627L10.6127 2.4784V2.4784L10.8248 2.26627ZM3.81822 9.27281H3.51822V9.57281H3.81822V9.27281ZM9.27289 9.27281V9.57281H9.57289V9.27281H9.27289ZM3.81822 3.8182V3.5182H3.51822V3.8182H3.81822ZM9.27289 3.8182H9.57289V3.5182H9.27289V3.8182ZM5 5V4.7H4.7V5H5ZM8 5H8.3V4.7H8V5ZM5 8H4.7V8.3H5V8ZM8 8V8.3H8.3V8H8ZM21.7342 16.2788L21.9463 16.491H21.9463L21.7342 16.2788ZM19.2731 16.5451V16.2451H18.9731V16.5451H19.2731ZM19.2731 18.3633H18.9731V18.6633H19.2731V18.3633ZM21.7342 18.6296L21.9463 18.4174L21.9463 18.4174L21.7342 18.6296ZM21.7342 21.7334L21.9463 21.9456L21.9463 21.9456L21.7342 21.7334ZM18.6303 21.7334L18.4182 21.9456L18.4182 21.9456L18.6303 21.7334ZM18.364 19.2724H18.664V18.9724H18.364V19.2724ZM16.5458 19.2724V18.9724H16.2458V19.2724H16.5458ZM16.2795 21.7334L16.4917 21.9456H16.4917L16.2795 21.7334ZM13.1756 21.7334L12.9635 21.9456H12.9635L13.1756 21.7334ZM13.1756 18.6296L12.9635 18.4174H12.9635L13.1756 18.6296ZM15.6367 18.3633V18.6633H15.9367V18.3633H15.6367ZM15.6367 16.5451H15.9367V16.2451H15.6367V16.5451ZM13.1756 16.2788L12.9635 16.491L12.9635 16.491L13.1756 16.2788ZM16.5458 15.636H16.2458V15.936H16.5458V15.636ZM18.364 15.636V15.936H18.664V15.636H18.364ZM13.1756 2.26627L13.3878 2.4784V2.4784L13.1756 2.26627ZM13.1756 10.8247L13.3878 10.6126L13.3878 10.6126L13.1756 10.8247ZM21.7342 10.8247L21.5221 10.6126H21.5221L21.7342 10.8247ZM21.7342 2.26627L21.5221 2.4784V2.4784L21.7342 2.26627ZM14.7276 9.27281H14.4276V9.57281H14.7276V9.27281ZM20.1823 9.27281V9.57281H20.4823V9.27281H20.1823ZM14.7276 3.8182V3.5182H14.4276V3.8182H14.7276ZM20.1823 3.8182H20.4823V3.5182H20.1823V3.8182ZM10.8248 21.7334L11.037 21.9456H11.037L10.8248 21.7334ZM2.26627 21.7334L2.05414 21.9456H2.05414L2.26627 21.7334ZM2.26627 13.175L2.05414 12.9628H2.05414L2.26627 13.175ZM9.27289 20.1815V20.4815H9.57289V20.1815H9.27289ZM3.81822 20.1815H3.51822V20.4815H3.81822V20.1815ZM9.27289 14.7269H9.57289V14.4269H9.27289V14.7269ZM3.81822 14.7269V14.4269H3.51822V14.7269H3.81822ZM2.90911 2.3H10.182V1.7H2.90911V2.3ZM2.4784 2.4784C2.59263 2.36417 2.74756 2.3 2.90911 2.3V1.7C2.58844 1.7 2.28089 1.82739 2.05414 2.05414L2.4784 2.4784ZM2.3 2.9091C2.3 2.74756 2.36417 2.59263 2.4784 2.4784L2.05414 2.05414C1.82739 2.28089 1.7 2.58843 1.7 2.9091H2.3ZM2.3 10.1819V2.9091H1.7V10.1819H2.3ZM2.4784 10.6126C2.36417 10.4984 2.3 10.3435 2.3 10.1819H1.7C1.7 10.5026 1.82739 10.8101 2.05414 11.0369L2.4784 10.6126ZM2.90911 10.791C2.74756 10.791 2.59263 10.7268 2.4784 10.6126L2.05414 11.0369C2.28089 11.2636 2.58844 11.391 2.90911 11.391V10.791ZM10.182 10.791H2.90911V11.391H10.182V10.791ZM10.6127 10.6126C10.4985 10.7268 10.3435 10.791 10.182 10.791V11.391C10.5027 11.391 10.8102 11.2636 11.037 11.0369L10.6127 10.6126ZM10.7911 10.1819C10.7911 10.3435 10.7269 10.4984 10.6127 10.6126L11.037 11.0369C11.2637 10.8101 11.3911 10.5026 11.3911 10.1819H10.7911ZM10.7911 2.9091V10.1819H11.3911V2.9091H10.7911ZM10.6127 2.4784C10.7269 2.59263 10.7911 2.74756 10.7911 2.9091H11.3911C11.3911 2.58843 11.2637 2.28089 11.037 2.05414L10.6127 2.4784ZM10.182 2.3C10.3435 2.3 10.4985 2.36417 10.6127 2.4784L11.037 2.05414C10.8102 1.82739 10.5027 1.7 10.182 1.7V2.3ZM3.81822 9.57281H9.27289V8.97281H3.81822V9.57281ZM3.51822 3.8182V9.27281H4.11822V3.8182H3.51822ZM9.27289 3.5182H3.81822V4.1182H9.27289V3.5182ZM9.57289 9.27281V3.8182H8.97289V9.27281H9.57289ZM5 5.3H8V4.7H5V5.3ZM5.3 8V5H4.7V8H5.3ZM8 7.7H5V8.3H8V7.7ZM7.7 5V8H8.3V5H7.7ZM21.9463 12.9628C21.7196 12.7361 21.412 12.6087 21.0914 12.6087V13.2087C21.2529 13.2087 21.4078 13.2729 21.5221 13.3871L21.9463 12.9628ZM22.3005 13.8178C22.3005 13.4971 22.1731 13.1896 21.9463 12.9628L21.5221 13.3871C21.6363 13.5013 21.7005 13.6562 21.7005 13.8178H22.3005ZM22.3005 15.636V13.8178H21.7005V15.636H22.3005ZM21.9463 16.491C22.1731 16.2642 22.3005 15.9567 22.3005 15.636H21.7005C21.7005 15.7975 21.6363 15.9525 21.5221 16.0667L21.9463 16.491ZM21.0914 16.8451C21.412 16.8451 21.7196 16.7177 21.9463 16.491L21.5221 16.0667C21.4078 16.1809 21.2529 16.2451 21.0914 16.2451V16.8451ZM19.2731 16.8451H21.0914V16.2451H19.2731V16.8451ZM19.5731 18.3633V16.5451H18.9731V18.3633H19.5731ZM21.0914 18.0633H19.2731V18.6633H21.0914V18.0633ZM21.9463 18.4174C21.7196 18.1907 21.412 18.0633 21.0914 18.0633V18.6633C21.2529 18.6633 21.4078 18.7275 21.5221 18.8417L21.9463 18.4174ZM22.3005 19.2724C22.3005 18.9517 22.1731 18.6442 21.9463 18.4174L21.5221 18.8417C21.6363 18.9559 21.7005 19.1109 21.7005 19.2724H22.3005ZM22.3005 21.0906V19.2724H21.7005V21.0906H22.3005ZM21.9463 21.9456C22.1731 21.7188 22.3005 21.4113 22.3005 21.0906H21.7005C21.7005 21.2521 21.6363 21.4071 21.5221 21.5213L21.9463 21.9456ZM21.0914 22.2997C21.412 22.2997 21.7196 22.1723 21.9463 21.9456L21.5221 21.5213C21.4078 21.6355 21.2529 21.6997 21.0914 21.6997V22.2997ZM19.2731 22.2997H21.0914V21.6997H19.2731V22.2997ZM18.4182 21.9456C18.6449 22.1723 18.9525 22.2997 19.2731 22.2997V21.6997C19.1116 21.6997 18.9567 21.6355 18.8424 21.5213L18.4182 21.9456ZM18.064 21.0906C18.064 21.4113 18.1914 21.7188 18.4182 21.9456L18.8424 21.5213C18.7282 21.4071 18.664 21.2521 18.664 21.0906H18.064ZM18.064 19.2724V21.0906H18.664V19.2724H18.064ZM16.5458 19.5724H18.364V18.9724H16.5458V19.5724ZM16.8458 21.0906V19.2724H16.2458V21.0906H16.8458ZM16.4917 21.9456C16.7184 21.7188 16.8458 21.4113 16.8458 21.0906H16.2458C16.2458 21.2521 16.1816 21.4071 16.0674 21.5213L16.4917 21.9456ZM15.6367 22.2997C15.9574 22.2997 16.2649 22.1723 16.4917 21.9456L16.0674 21.5213C15.9532 21.6355 15.7982 21.6997 15.6367 21.6997V22.2997ZM13.8185 22.2997H15.6367V21.6997H13.8185V22.2997ZM12.9635 21.9456C13.1903 22.1723 13.4978 22.2997 13.8185 22.2997V21.6997C13.6569 21.6997 13.502 21.6355 13.3878 21.5213L12.9635 21.9456ZM12.6094 21.0906C12.6094 21.4113 12.7368 21.7188 12.9635 21.9456L13.3878 21.5213C13.2735 21.4071 13.2094 21.2521 13.2094 21.0906H12.6094ZM12.6094 19.2724V21.0906H13.2094V19.2724H12.6094ZM12.9635 18.4174C12.7368 18.6442 12.6094 18.9517 12.6094 19.2724H13.2094C13.2094 19.1109 13.2735 18.9559 13.3878 18.8417L12.9635 18.4174ZM13.8185 18.0633C13.4978 18.0633 13.1903 18.1907 12.9635 18.4174L13.3878 18.8417C13.502 18.7275 13.6569 18.6633 13.8185 18.6633V18.0633ZM15.6367 18.0633H13.8185V18.6633H15.6367V18.0633ZM15.3367 16.5451V18.3633H15.9367V16.5451H15.3367ZM13.8185 16.8451H15.6367V16.2451H13.8185V16.8451ZM12.9635 16.491C13.1903 16.7177 13.4978 16.8451 13.8185 16.8451V16.2451C13.6569 16.2451 13.502 16.1809 13.3878 16.0667L12.9635 16.491ZM12.6094 15.636C12.6094 15.9567 12.7368 16.2642 12.9635 16.491L13.3878 16.0667C13.2735 15.9525 13.2094 15.7975 13.2094 15.636H12.6094ZM12.6094 13.8178V15.636H13.2094V13.8178H12.6094ZM12.9635 12.9628C12.7368 13.1896 12.6094 13.4971 12.6094 13.8178H13.2094C13.2094 13.6562 13.2735 13.5013 13.3878 13.3871L12.9635 12.9628ZM13.8185 12.6087C13.4978 12.6087 13.1903 12.7361 12.9635 12.9628L13.3878 13.3871C13.502 13.2729 13.6569 13.2087 13.8185 13.2087V12.6087ZM15.6367 12.6087H13.8185V13.2087H15.6367V12.6087ZM16.4917 12.9628C16.2649 12.7361 15.9574 12.6087 15.6367 12.6087V13.2087C15.7982 13.2087 15.9532 13.2729 16.0674 13.3871L16.4917 12.9628ZM16.8458 13.8178C16.8458 13.4971 16.7184 13.1896 16.4917 12.9628L16.0674 13.3871C16.1816 13.5013 16.2458 13.6562 16.2458 13.8178H16.8458ZM16.8458 15.636V13.8178H16.2458V15.636H16.8458ZM18.364 15.336H16.5458V15.936H18.364V15.336ZM18.064 13.8178V15.636H18.664V13.8178H18.064ZM18.4182 12.9628C18.1914 13.1896 18.064 13.4971 18.064 13.8178H18.664C18.664 13.6562 18.7282 13.5013 18.8424 13.3871L18.4182 12.9628ZM19.2731 12.6087C18.9525 12.6087 18.6449 12.7361 18.4182 12.9628L18.8424 13.3871C18.9567 13.2729 19.1116 13.2087 19.2731 13.2087V12.6087ZM21.0914 12.6087H19.2731V13.2087H21.0914V12.6087ZM13.8185 2.3H21.0914V1.7H13.8185V2.3ZM13.3878 2.4784C13.502 2.36417 13.6569 2.3 13.8185 2.3V1.7C13.4978 1.7 13.1903 1.82739 12.9635 2.05414L13.3878 2.4784ZM13.2094 2.9091C13.2094 2.74756 13.2735 2.59263 13.3878 2.4784L12.9635 2.05414C12.7368 2.28089 12.6094 2.58843 12.6094 2.9091H13.2094ZM13.2094 10.1819V2.9091H12.6094V10.1819H13.2094ZM13.3878 10.6126C13.2735 10.4984 13.2094 10.3435 13.2094 10.1819H12.6094C12.6094 10.5026 12.7368 10.8101 12.9635 11.0369L13.3878 10.6126ZM13.8185 10.791C13.6569 10.791 13.502 10.7268 13.3878 10.6126L12.9635 11.0369C13.1903 11.2636 13.4978 11.391 13.8185 11.391V10.791ZM21.0914 10.791H13.8185V11.391H21.0914V10.791ZM21.5221 10.6126C21.4078 10.7268 21.2529 10.791 21.0914 10.791V11.391C21.412 11.391 21.7196 11.2636 21.9463 11.0369L21.5221 10.6126ZM21.7005 10.1819C21.7005 10.3435 21.6363 10.4984 21.5221 10.6126L21.9463 11.0369C22.1731 10.8101 22.3005 10.5026 22.3005 10.1819H21.7005ZM21.7005 2.9091V10.1819H22.3005V2.9091H21.7005ZM21.5221 2.4784C21.6363 2.59263 21.7005 2.74756 21.7005 2.9091H22.3005C22.3005 2.58843 22.1731 2.28089 21.9463 2.05414L21.5221 2.4784ZM21.0914 2.3C21.2529 2.3 21.4078 2.36417 21.5221 2.4784L21.9463 2.05414C21.7196 1.82739 21.412 1.7 21.0914 1.7V2.3ZM14.7276 9.57281H20.1823V8.97281H14.7276V9.57281ZM14.4276 3.8182V9.27281H15.0276V3.8182H14.4276ZM20.1823 3.5182H14.7276V4.1182H20.1823V3.5182ZM20.4823 9.27281V3.8182H19.8823V9.27281H20.4823ZM10.182 12.6087H2.90911V13.2087H10.182V12.6087ZM11.037 12.9628C10.8102 12.7361 10.5027 12.6087 10.182 12.6087V13.2087C10.3435 13.2087 10.4985 13.2729 10.6127 13.3871L11.037 12.9628ZM11.3911 13.8178C11.3911 13.4971 11.2637 13.1896 11.037 12.9628L10.6127 13.3871C10.7269 13.5013 10.7911 13.6562 10.7911 13.8178H11.3911ZM11.3911 21.0906V13.8178H10.7911V21.0906H11.3911ZM11.037 21.9456C11.2637 21.7188 11.3911 21.4113 11.3911 21.0906H10.7911C10.7911 21.2521 10.7269 21.4071 10.6127 21.5213L11.037 21.9456ZM10.182 22.2997C10.5027 22.2997 10.8102 22.1723 11.037 21.9456L10.6127 21.5213C10.4985 21.6355 10.3435 21.6997 10.182 21.6997V22.2997ZM2.90911 22.2997H10.182V21.6997H2.90911V22.2997ZM2.05414 21.9456C2.28089 22.1723 2.58843 22.2997 2.90911 22.2997V21.6997C2.74756 21.6997 2.59263 21.6355 2.4784 21.5213L2.05414 21.9456ZM1.7 21.0906C1.7 21.4113 1.82739 21.7188 2.05414 21.9456L2.4784 21.5213C2.36417 21.4071 2.3 21.2521 2.3 21.0906H1.7ZM1.7 13.8178V21.0906H2.3V13.8178H1.7ZM2.05414 12.9628C1.82739 13.1896 1.7 13.4971 1.7 13.8178H2.3C2.3 13.6562 2.36417 13.5013 2.4784 13.3871L2.05414 12.9628ZM2.90911 12.6087C2.58844 12.6087 2.28089 12.7361 2.05414 12.9628L2.4784 13.3871C2.59263 13.2729 2.74756 13.2087 2.90911 13.2087V12.6087ZM9.27289 19.8815H3.81822V20.4815H9.27289V19.8815ZM8.97289 14.7269V20.1815H9.57289V14.7269H8.97289ZM3.81822 15.0269H9.27289V14.4269H3.81822V15.0269ZM4.11822 20.1815V14.7269H3.51822V20.1815H4.11822Z" fill="white" mask="url(#path-1-inside-1)"/>
</svg>
