<svg width="24" height="24" viewBox="0 0 24 24" fill="none" xmlns="http://www.w3.org/2000/svg">
<mask id="path-1-inside-1" fill="white">
<path fill-rule="evenodd" clip-rule="evenodd" d="M18.7171 9.28317C18.8734 9.12696 18.8734 8.8737 18.7171 8.71749L12.2828 2.28317C12.1266 2.12696 11.8734 2.12696 11.7171 2.28317L5.28283 8.71749C5.12662 8.8737 5.12662 9.12696 5.28283 9.28317L6.13684 10.1372C6.29317 10.2935 6.54667 10.2934 6.70283 10.1369L11 5.83033V17.6003C11 17.8212 11.1791 18.0003 11.4 18.0003H12.6C12.8209 18.0003 13 17.8212 13 17.6003V5.83033L17.3071 10.1281C17.4634 10.284 17.7164 10.2839 17.8725 10.1278L18.7171 9.28317ZM18.6 22.0003C18.8209 22.0003 19 21.8212 19 21.6003V20.4003C19 20.1794 18.8209 20.0003 18.6 20.0003H5.4C5.17909 20.0003 5 20.1794 5 20.4003V21.6003C5 21.8212 5.17909 22.0003 5.4 22.0003H18.6Z"/>
</mask>
<path fill-rule="evenodd" clip-rule="evenodd" d="M18.7171 9.28317C18.8734 9.12696 18.8734 8.8737 18.7171 8.71749L12.2828 2.28317C12.1266 2.12696 11.8734 2.12696 11.7171 2.28317L5.28283 8.71749C5.12662 8.8737 5.12662 9.12696 5.28283 9.28317L6.13684 10.1372C6.29317 10.2935 6.54667 10.2934 6.70283 10.1369L11 5.83033V17.6003C11 17.8212 11.1791 18.0003 11.4 18.0003H12.6C12.8209 18.0003 13 17.8212 13 17.6003V5.83033L17.3071 10.1281C17.4634 10.284 17.7164 10.2839 17.8725 10.1278L18.7171 9.28317ZM18.6 22.0003C18.8209 22.0003 19 21.8212 19 21.6003V20.4003C19 20.1794 18.8209 20.0003 18.6 20.0003H5.4C5.17909 20.0003 5 20.1794 5 20.4003V21.6003C5 21.8212 5.17909 22.0003 5.4 22.0003H18.6Z" fill="#888F9A"/>
<path d="M18.7171 8.71749L18.9293 8.50536L18.7171 8.71749ZM18.7171 9.28317L18.505 9.07104L18.505 9.07104L18.7171 9.28317ZM12.2828 2.28317L12.495 2.07104V2.07104L12.2828 2.28317ZM11.7171 2.28317L11.505 2.07104V2.07104L11.7171 2.28317ZM5.28283 8.71749L5.49496 8.92962H5.49496L5.28283 8.71749ZM5.28283 9.28317L5.49496 9.07104L5.49496 9.07104L5.28283 9.28317ZM6.13684 10.1372L5.9247 10.3493L5.9247 10.3493L6.13684 10.1372ZM6.70283 10.1369L6.49047 9.92497L6.49047 9.92497L6.70283 10.1369ZM11 5.83033H11.3V5.10495L10.7876 5.61843L11 5.83033ZM13 5.83033L13.2119 5.61797L12.7 5.10718V5.83033H13ZM17.3071 10.1281L17.519 9.91574V9.91574L17.3071 10.1281ZM17.8725 10.1278L17.6604 9.91566V9.91566L17.8725 10.1278ZM18.505 8.92962C18.5441 8.96867 18.5441 9.03199 18.505 9.07104L18.9293 9.49531C19.2026 9.22194 19.2026 8.77872 18.9293 8.50536L18.505 8.92962ZM12.0707 2.49531L18.505 8.92962L18.9293 8.50536L12.495 2.07104L12.0707 2.49531ZM11.9293 2.4953C11.9683 2.45625 12.0316 2.45625 12.0707 2.49531L12.495 2.07104C12.2216 1.79767 11.7784 1.79767 11.505 2.07104L11.9293 2.4953ZM5.49496 8.92962L11.9293 2.4953L11.505 2.07104L5.0707 8.50536L5.49496 8.92962ZM5.49496 9.07104C5.45591 9.03199 5.45591 8.96867 5.49496 8.92962L5.0707 8.50536C4.79733 8.77872 4.79733 9.22194 5.0707 9.49531L5.49496 9.07104ZM6.34897 9.92505L5.49496 9.07104L5.0707 9.49531L5.9247 10.3493L6.34897 9.92505ZM6.49047 9.92497C6.45143 9.96409 6.38805 9.96413 6.34897 9.92505L5.9247 10.3493C6.19828 10.6229 6.64191 10.6226 6.91519 10.3488L6.49047 9.92497ZM10.7876 5.61843L6.49047 9.92497L6.91519 10.3488L11.2124 6.04223L10.7876 5.61843ZM11.3 17.6003V5.83033H10.7V17.6003H11.3ZM11.4 17.7003C11.3448 17.7003 11.3 17.6556 11.3 17.6003H10.7C10.7 17.9869 11.0134 18.3003 11.4 18.3003V17.7003ZM12.6 17.7003H11.4V18.3003H12.6V17.7003ZM12.7 17.6003C12.7 17.6556 12.6552 17.7003 12.6 17.7003V18.3003C12.9866 18.3003 13.3 17.9869 13.3 17.6003H12.7ZM12.7 5.83033V17.6003H13.3V5.83033H12.7ZM17.519 9.91574L13.2119 5.61797L12.7881 6.04269L17.0952 10.3405L17.519 9.91574ZM17.6604 9.91566C17.6214 9.95469 17.5581 9.95472 17.519 9.91574L17.0952 10.3405C17.3687 10.6133 17.8115 10.6131 18.0847 10.3399L17.6604 9.91566ZM18.505 9.07104L17.6604 9.91566L18.0847 10.3399L18.9293 9.49531L18.505 9.07104ZM18.7 21.6003C18.7 21.6556 18.6552 21.7003 18.6 21.7003V22.3003C18.9866 22.3003 19.3 21.9869 19.3 21.6003H18.7ZM18.7 20.4003V21.6003H19.3V20.4003H18.7ZM18.6 20.3003C18.6552 20.3003 18.7 20.3451 18.7 20.4003H19.3C19.3 20.0137 18.9866 19.7003 18.6 19.7003V20.3003ZM5.4 20.3003H18.6V19.7003H5.4V20.3003ZM5.3 20.4003C5.3 20.3451 5.34477 20.3003 5.4 20.3003V19.7003C5.0134 19.7003 4.7 20.0137 4.7 20.4003H5.3ZM5.3 21.6003V20.4003H4.7V21.6003H5.3ZM5.4 21.7003C5.34477 21.7003 5.3 21.6556 5.3 21.6003H4.7C4.7 21.9869 5.0134 22.3003 5.4 22.3003V21.7003ZM18.6 21.7003H5.4V22.3003H18.6V21.7003Z" fill="white" mask="url(#path-1-inside-1)"/>
</svg>
