<svg width="24" height="24" viewBox="0 0 24 24" fill="none" xmlns="http://www.w3.org/2000/svg">
<mask id="path-1-inside-1" fill="white">
<path d="M11.9996 16C11.2085 16 10.4351 15.7654 9.77733 15.3259C9.11953 14.8864 8.60684 14.2616 8.30409 13.5307C8.00134 12.7998 7.92213 11.9956 8.07647 11.2196C8.23081 10.4437 8.61177 9.73098 9.17118 9.17157C9.73059 8.61216 10.4433 8.2312 11.2193 8.07686C11.9952 7.92252 12.7994 8.00173 13.5303 8.30448C14.2613 8.60723 14.886 9.11992 15.3255 9.77772C15.765 10.4355 15.9996 11.2089 15.9996 12C15.9996 13.0609 15.5782 14.0783 14.828 14.8284C14.0779 15.5786 13.0605 16 11.9996 16ZM11.9996 10C11.604 10 11.2174 10.1173 10.8885 10.3371C10.5596 10.5568 10.3032 10.8692 10.1519 11.2346C10.0005 11.6001 9.96087 12.0022 10.038 12.3902C10.1152 12.7781 10.3057 13.1345 10.5854 13.4142C10.8651 13.6939 11.2215 13.8844 11.6094 13.9616C11.9974 14.0387 12.3995 13.9991 12.765 13.8478C13.1304 13.6964 13.4428 13.44 13.6626 13.1111C13.8823 12.7822 13.9996 12.3956 13.9996 12C13.9996 11.4696 13.7889 10.9609 13.4138 10.5858C13.0388 10.2107 12.53 10 11.9996 10ZM12.4996 22H11.4996C11.2283 22.0003 10.9598 21.9455 10.7104 21.8388C10.461 21.7321 10.2359 21.5758 10.0488 21.3793C9.86175 21.1829 9.71658 20.9504 9.62216 20.6961C9.52774 20.4418 9.48605 20.1709 9.49961 19.9V19.07C8.63423 18.7649 7.83373 18.3002 7.13961 17.7L6.33961 18.16C6.11194 18.2927 5.8603 18.379 5.59915 18.4141C5.33801 18.4492 5.0725 18.4323 4.81788 18.3645C4.56327 18.2967 4.32457 18.1792 4.1155 18.0188C3.90643 17.8584 3.73111 17.6583 3.59961 17.43L3.09961 16.57C2.83487 16.1111 2.76305 15.5658 2.89992 15.054C3.03678 14.5422 3.37115 14.1056 3.82961 13.84L4.63961 13.37C4.47481 12.4607 4.47481 11.5293 4.63961 10.62L3.93961 10.22C3.45181 9.93572 3.09332 9.47327 2.93961 8.93C2.86984 8.6811 2.85159 8.42058 2.88597 8.16438C2.92036 7.90818 3.00667 7.66169 3.13961 7.44L3.63961 6.57C3.90516 6.11154 4.34178 5.77717 4.85361 5.64031C5.36545 5.50345 5.91068 5.57526 6.36961 5.84L7.17961 6.3C7.86167 5.70913 8.64402 5.24514 9.48961 4.93V4.1C9.47605 3.82907 9.51774 3.5582 9.61216 3.30389C9.70658 3.04958 9.85175 2.81713 10.0388 2.62069C10.2259 2.42425 10.451 2.26792 10.7004 2.16122C10.9498 2.05451 11.2183 1.99966 11.4896 2H12.4896C12.7609 1.99966 13.0294 2.05451 13.2788 2.16122C13.5282 2.26792 13.7533 2.42425 13.9404 2.62069C14.1275 2.81713 14.2726 3.04958 14.3671 3.30389C14.4615 3.5582 14.5032 3.82907 14.4896 4.1V4.93C15.363 5.23747 16.1729 5.70174 16.8796 6.3L17.6796 5.84C17.9074 5.70833 18.1589 5.62289 18.4197 5.58858C18.6805 5.55426 18.9455 5.57173 19.1996 5.64C19.4542 5.70407 19.6929 5.81966 19.901 5.97962C20.1091 6.13958 20.2822 6.34051 20.4096 6.57L20.9096 7.43C21.1743 7.88894 21.2462 8.43416 21.1093 8.946C20.9724 9.45783 20.6381 9.89445 20.1796 10.16L19.3696 10.63C19.5344 11.5393 19.5344 12.4707 19.3696 13.38L20.1496 13.84C20.6064 14.1072 20.9386 14.5446 21.0736 15.0563C21.2085 15.568 21.1352 16.1123 20.8696 16.57L20.3796 17.43C20.2481 17.6583 20.0728 17.8584 19.8637 18.0188C19.6547 18.1792 19.416 18.2967 19.1613 18.3645C18.9067 18.4323 18.6412 18.4492 18.3801 18.4141C18.1189 18.379 17.8673 18.2927 17.6396 18.16L16.8496 17.7C16.1505 18.2984 15.3471 18.7628 14.4796 19.07V19.9C14.4931 20.1693 14.452 20.4385 14.3588 20.6914C14.2656 20.9444 14.1222 21.1759 13.9373 21.3721C13.7523 21.5683 13.5297 21.725 13.2826 21.8329C13.0355 21.9408 12.7692 21.9976 12.4996 22ZM7.49961 15.2L8.03961 15.78C8.77478 16.5561 9.71984 17.1016 10.7596 17.35L11.5196 17.53V19.89C11.5196 19.96 11.5196 20.01 11.5196 20.01H12.5196C12.5196 20.01 12.5196 20.01 12.5196 19.9V17.53L13.2796 17.35C14.3194 17.1016 15.2644 16.5561 15.9996 15.78L16.5396 15.2L18.6796 16.43L19.1696 15.57L16.9996 14.31L17.2896 13.52C17.5852 12.501 17.5852 11.419 17.2896 10.4L17.0896 9.65L19.1996 8.43L18.6996 7.57L16.5396 8.8L15.9996 8.23C15.2676 7.44791 14.3216 6.89844 13.2796 6.65L12.5196 6.47V4.11C12.5265 4.0703 12.5265 4.0297 12.5196 3.99H11.5196C11.5196 3.99 11.5196 3.99 11.5196 4.1V6.47L10.7496 6.65C9.6968 6.89297 8.73975 7.44284 7.99961 8.23L7.45961 8.8L5.31961 7.57L4.82961 8.42C4.85406 8.44971 4.8848 8.47361 4.91961 8.49L6.99961 9.69L6.70961 10.48C6.41405 11.499 6.41405 12.581 6.70961 13.6L6.90961 14.34L4.80961 15.57L5.30961 16.43L7.49961 15.2Z"/>
</mask>
<path d="M11.9996 16C11.2085 16 10.4351 15.7654 9.77733 15.3259C9.11953 14.8864 8.60684 14.2616 8.30409 13.5307C8.00134 12.7998 7.92213 11.9956 8.07647 11.2196C8.23081 10.4437 8.61177 9.73098 9.17118 9.17157C9.73059 8.61216 10.4433 8.2312 11.2193 8.07686C11.9952 7.92252 12.7994 8.00173 13.5303 8.30448C14.2613 8.60723 14.886 9.11992 15.3255 9.77772C15.765 10.4355 15.9996 11.2089 15.9996 12C15.9996 13.0609 15.5782 14.0783 14.828 14.8284C14.0779 15.5786 13.0605 16 11.9996 16ZM11.9996 10C11.604 10 11.2174 10.1173 10.8885 10.3371C10.5596 10.5568 10.3032 10.8692 10.1519 11.2346C10.0005 11.6001 9.96087 12.0022 10.038 12.3902C10.1152 12.7781 10.3057 13.1345 10.5854 13.4142C10.8651 13.6939 11.2215 13.8844 11.6094 13.9616C11.9974 14.0387 12.3995 13.9991 12.765 13.8478C13.1304 13.6964 13.4428 13.44 13.6626 13.1111C13.8823 12.7822 13.9996 12.3956 13.9996 12C13.9996 11.4696 13.7889 10.9609 13.4138 10.5858C13.0388 10.2107 12.53 10 11.9996 10ZM12.4996 22H11.4996C11.2283 22.0003 10.9598 21.9455 10.7104 21.8388C10.461 21.7321 10.2359 21.5758 10.0488 21.3793C9.86175 21.1829 9.71658 20.9504 9.62216 20.6961C9.52774 20.4418 9.48605 20.1709 9.49961 19.9V19.07C8.63423 18.7649 7.83373 18.3002 7.13961 17.7L6.33961 18.16C6.11194 18.2927 5.8603 18.379 5.59915 18.4141C5.33801 18.4492 5.0725 18.4323 4.81788 18.3645C4.56327 18.2967 4.32457 18.1792 4.1155 18.0188C3.90643 17.8584 3.73111 17.6583 3.59961 17.43L3.09961 16.57C2.83487 16.1111 2.76305 15.5658 2.89992 15.054C3.03678 14.5422 3.37115 14.1056 3.82961 13.84L4.63961 13.37C4.47481 12.4607 4.47481 11.5293 4.63961 10.62L3.93961 10.22C3.45181 9.93572 3.09332 9.47327 2.93961 8.93C2.86984 8.6811 2.85159 8.42058 2.88597 8.16438C2.92036 7.90818 3.00667 7.66169 3.13961 7.44L3.63961 6.57C3.90516 6.11154 4.34178 5.77717 4.85361 5.64031C5.36545 5.50345 5.91068 5.57526 6.36961 5.84L7.17961 6.3C7.86167 5.70913 8.64402 5.24514 9.48961 4.93V4.1C9.47605 3.82907 9.51774 3.5582 9.61216 3.30389C9.70658 3.04958 9.85175 2.81713 10.0388 2.62069C10.2259 2.42425 10.451 2.26792 10.7004 2.16122C10.9498 2.05451 11.2183 1.99966 11.4896 2H12.4896C12.7609 1.99966 13.0294 2.05451 13.2788 2.16122C13.5282 2.26792 13.7533 2.42425 13.9404 2.62069C14.1275 2.81713 14.2726 3.04958 14.3671 3.30389C14.4615 3.5582 14.5032 3.82907 14.4896 4.1V4.93C15.363 5.23747 16.1729 5.70174 16.8796 6.3L17.6796 5.84C17.9074 5.70833 18.1589 5.62289 18.4197 5.58858C18.6805 5.55426 18.9455 5.57173 19.1996 5.64C19.4542 5.70407 19.6929 5.81966 19.901 5.97962C20.1091 6.13958 20.2822 6.34051 20.4096 6.57L20.9096 7.43C21.1743 7.88894 21.2462 8.43416 21.1093 8.946C20.9724 9.45783 20.6381 9.89445 20.1796 10.16L19.3696 10.63C19.5344 11.5393 19.5344 12.4707 19.3696 13.38L20.1496 13.84C20.6064 14.1072 20.9386 14.5446 21.0736 15.0563C21.2085 15.568 21.1352 16.1123 20.8696 16.57L20.3796 17.43C20.2481 17.6583 20.0728 17.8584 19.8637 18.0188C19.6547 18.1792 19.416 18.2967 19.1613 18.3645C18.9067 18.4323 18.6412 18.4492 18.3801 18.4141C18.1189 18.379 17.8673 18.2927 17.6396 18.16L16.8496 17.7C16.1505 18.2984 15.3471 18.7628 14.4796 19.07V19.9C14.4931 20.1693 14.452 20.4385 14.3588 20.6914C14.2656 20.9444 14.1222 21.1759 13.9373 21.3721C13.7523 21.5683 13.5297 21.725 13.2826 21.8329C13.0355 21.9408 12.7692 21.9976 12.4996 22ZM7.49961 15.2L8.03961 15.78C8.77478 16.5561 9.71984 17.1016 10.7596 17.35L11.5196 17.53V19.89C11.5196 19.96 11.5196 20.01 11.5196 20.01H12.5196C12.5196 20.01 12.5196 20.01 12.5196 19.9V17.53L13.2796 17.35C14.3194 17.1016 15.2644 16.5561 15.9996 15.78L16.5396 15.2L18.6796 16.43L19.1696 15.57L16.9996 14.31L17.2896 13.52C17.5852 12.501 17.5852 11.419 17.2896 10.4L17.0896 9.65L19.1996 8.43L18.6996 7.57L16.5396 8.8L15.9996 8.23C15.2676 7.44791 14.3216 6.89844 13.2796 6.65L12.5196 6.47V4.11C12.5265 4.0703 12.5265 4.0297 12.5196 3.99H11.5196C11.5196 3.99 11.5196 3.99 11.5196 4.1V6.47L10.7496 6.65C9.6968 6.89297 8.73975 7.44284 7.99961 8.23L7.45961 8.8L5.31961 7.57L4.82961 8.42C4.85406 8.44971 4.8848 8.47361 4.91961 8.49L6.99961 9.69L6.70961 10.48C6.41405 11.499 6.41405 12.581 6.70961 13.6L6.90961 14.34L4.80961 15.57L5.30961 16.43L7.49961 15.2Z" fill="#888F9A" stroke="white" stroke-width="0.6" mask="url(#path-1-inside-1)"/>
</svg>
