<svg width="24" height="24" viewBox="0 0 24 24" fill="none" xmlns="http://www.w3.org/2000/svg">
<path d="M10 7.85H9.85V8V20V20.15H10H18H18.15V20V8V7.85H18H10ZM5.85 16V16.15H6C6.22543 16.15 6.44163 16.2396 6.60104 16.399C6.76045 16.5584 6.85 16.7746 6.85 17C6.85 17.2254 6.76045 17.4416 6.60104 17.601C6.44163 17.7604 6.22543 17.85 6 17.85C5.50935 17.85 5.03879 17.6551 4.69185 17.3081C4.34491 16.9612 4.15 16.4907 4.15 16V4C4.15 3.50935 4.34491 3.03879 4.69185 2.69185C5.03879 2.34491 5.50935 2.15 6 2.15H14C14.4907 2.15 14.9612 2.34491 15.3081 2.69185C15.6551 3.03879 15.85 3.50935 15.85 4C15.85 4.22543 15.7604 4.44163 15.601 4.60104C15.4416 4.76045 15.2254 4.85 15 4.85C14.7746 4.85 14.5584 4.76045 14.399 4.60104C14.2396 4.44163 14.15 4.22543 14.15 4V3.85H14H6H5.85V4V16ZM18 21.85H10C9.50935 21.85 9.0388 21.6551 8.69185 21.3081C8.34491 20.9612 8.15 20.4907 8.15 20V8C8.15 7.50935 8.34491 7.03879 8.69185 6.69185C9.0388 6.34491 9.50935 6.15 10 6.15H18C18.4907 6.15 18.9612 6.34491 19.3081 6.69185C19.6551 7.03879 19.85 7.50935 19.85 8V20C19.85 20.4907 19.6551 20.9612 19.3081 21.3081C18.9612 21.6551 18.4907 21.85 18 21.85ZM14.601 10.399C14.7604 10.5584 14.85 10.7746 14.85 11C14.85 11.2254 14.7604 11.4416 14.601 11.601C14.4416 11.7604 14.2254 11.85 14 11.85H12C11.7746 11.85 11.5584 11.7604 11.399 11.601C11.2396 11.4416 11.15 11.2254 11.15 11C11.15 10.7746 11.2396 10.5584 11.399 10.399C11.5584 10.2396 11.7746 10.15 12 10.15H14C14.2254 10.15 14.4416 10.2396 14.601 10.399ZM16.601 13.399C16.7604 13.5584 16.85 13.7746 16.85 14C16.85 14.2254 16.7604 14.4416 16.601 14.601C16.4416 14.7604 16.2254 14.85 16 14.85H12C11.7746 14.85 11.5584 14.7604 11.399 14.601C11.2396 14.4416 11.15 14.2254 11.15 14C11.15 13.7746 11.2396 13.5584 11.399 13.399C11.5584 13.2396 11.7746 13.15 12 13.15H16C16.2254 13.15 16.4416 13.2396 16.601 13.399ZM16.601 16.399C16.7604 16.5584 16.85 16.7746 16.85 17C16.85 17.2254 16.7604 17.4416 16.601 17.601C16.4416 17.7604 16.2254 17.85 16 17.85H12C11.7746 17.85 11.5584 17.7604 11.399 17.601C11.2396 17.4416 11.15 17.2254 11.15 17C11.15 16.7746 11.2396 16.5584 11.399 16.399C11.5584 16.2396 11.7746 16.15 12 16.15H16C16.2254 16.15 16.4416 16.2396 16.601 16.399Z" fill="#888F9A" stroke="white" stroke-width="0.3"/>
</svg>
