<svg width="24" height="24" viewBox="0 0 24 24" fill="none" xmlns="http://www.w3.org/2000/svg">
<path d="M8.59 3.65002H8.65276L8.69682 3.60533L9.39621 2.89594C9.47552 2.81743 9.5695 2.75531 9.67281 2.71311C9.77637 2.67081 9.88727 2.64937 9.99913 2.65002H10L14 2.65002L14.0009 2.65001C14.1127 2.64937 14.2236 2.67081 14.3272 2.71311C14.4305 2.75531 14.5245 2.81744 14.6038 2.89596C14.604 2.89614 14.6042 2.89633 14.6044 2.89651L15.3032 3.60533L15.3472 3.65002H15.41H19C19.2254 3.65002 19.4416 3.73957 19.601 3.89898C19.7604 4.05838 19.85 4.27458 19.85 4.50002C19.85 4.72545 19.7604 4.94165 19.601 5.10106C19.4416 5.26046 19.2254 5.35002 19 5.35002H5C4.77457 5.35002 4.55837 5.26046 4.39896 5.10106C4.23955 4.94165 4.15 4.72545 4.15 4.50002C4.15 4.27458 4.23955 4.05838 4.39896 3.89898C4.55837 3.73957 4.77457 3.65002 5 3.65002H8.59ZM18.85 7.50002V18.5C18.85 19.2559 18.5497 19.9808 18.0153 20.5153C17.4808 21.0497 16.7559 21.35 16 21.35H8C7.24413 21.35 6.51922 21.0497 5.98475 20.5153C5.45027 19.9808 5.15 19.2559 5.15 18.5V7.50002C5.15 7.27458 5.23955 7.05838 5.39896 6.89898C5.55837 6.73957 5.77457 6.65002 6 6.65002C6.22543 6.65002 6.44163 6.73957 6.60104 6.89898C6.76045 7.05838 6.85 7.27458 6.85 7.50002V18.5C6.85 18.805 6.97116 19.0975 7.18683 19.3132C7.40249 19.5289 7.695 19.65 8 19.65H16C16.305 19.65 16.5975 19.5289 16.8132 19.3132C17.0288 19.0975 17.15 18.805 17.15 18.5V7.50002C17.15 7.27458 17.2396 7.05838 17.399 6.89898C17.5584 6.73957 17.7746 6.65002 18 6.65002C18.2254 6.65002 18.4416 6.73957 18.601 6.89898C18.7604 7.05838 18.85 7.27458 18.85 7.50002ZM10.85 8.50002V17.5C10.85 17.7255 10.7604 17.9417 10.601 18.1011C10.4416 18.2605 10.2254 18.35 10 18.35C9.77457 18.35 9.55836 18.2605 9.39896 18.1011C9.23955 17.9417 9.15 17.7255 9.15 17.5V8.50002C9.15 8.27458 9.23955 8.05838 9.39896 7.89898C9.55837 7.73957 9.77457 7.65002 10 7.65002C10.2254 7.65002 10.4416 7.73957 10.601 7.89898C10.7604 8.05838 10.85 8.27458 10.85 8.50002ZM14.85 8.50002V17.5C14.85 17.7255 14.7604 17.9417 14.601 18.1011C14.4416 18.2605 14.2254 18.35 14 18.35C13.7746 18.35 13.5584 18.2605 13.399 18.1011C13.2396 17.9417 13.15 17.7255 13.15 17.5V8.50002C13.15 8.27458 13.2396 8.05838 13.399 7.89898C13.5584 7.73957 13.7746 7.65002 14 7.65002C14.2254 7.65002 14.4416 7.73957 14.601 7.89898C14.7604 8.05838 14.85 8.27458 14.85 8.50002Z" fill="#888F9A" stroke="white" stroke-width="0.3"/>
</svg>
