<svg width="24" height="24" viewBox="0 0 24 24" fill="none" xmlns="http://www.w3.org/2000/svg">
<mask id="path-1-inside-1" fill="white">
<path fill-rule="evenodd" clip-rule="evenodd" d="M12.0022 19C12.5545 19 13.0022 18.5523 13.0022 18L13.0022 8.64319L16.232 12.1402C16.3159 12.2415 16.419 12.3252 16.5353 12.3865C16.6517 12.4479 16.779 12.4857 16.91 12.4977C17.041 12.5098 17.173 12.4959 17.2986 12.4569C17.4242 12.4178 17.5409 12.3544 17.642 12.2702C17.7548 12.1762 17.8456 12.0584 17.9078 11.9253C17.9701 11.7923 18.0022 11.6471 18.002 11.5002C18.0024 11.2665 17.921 11.0401 17.772 10.8602L12.772 5.36018C12.6781 5.24694 12.5605 5.15275 12.4274 5.09018C12.2943 5.02762 12.149 5.00018 12.002 5.00018C11.8549 5.00018 11.7096 5.02762 11.5765 5.09018C11.4434 5.15275 11.3258 5.24694 11.232 5.36018L6.23195 10.8602C6.06221 11.0644 5.98055 11.3277 6.00493 11.5921C6.02931 11.8565 6.15774 12.1005 6.36195 12.2702C6.56617 12.4399 6.82945 12.5216 7.09388 12.4972C7.3583 12.4728 7.60221 12.3444 7.77195 12.1402L11.0022 8.64266L11.0022 18C11.0022 18.5523 11.4499 19 12.0022 19Z"/>
</mask>
<path fill-rule="evenodd" clip-rule="evenodd" d="M12.0022 19C12.5545 19 13.0022 18.5523 13.0022 18L13.0022 8.64319L16.232 12.1402C16.3159 12.2415 16.419 12.3252 16.5353 12.3865C16.6517 12.4479 16.779 12.4857 16.91 12.4977C17.041 12.5098 17.173 12.4959 17.2986 12.4569C17.4242 12.4178 17.5409 12.3544 17.642 12.2702C17.7548 12.1762 17.8456 12.0584 17.9078 11.9253C17.9701 11.7923 18.0022 11.6471 18.002 11.5002C18.0024 11.2665 17.921 11.0401 17.772 10.8602L12.772 5.36018C12.6781 5.24694 12.5605 5.15275 12.4274 5.09018C12.2943 5.02762 12.149 5.00018 12.002 5.00018C11.8549 5.00018 11.7096 5.02762 11.5765 5.09018C11.4434 5.15275 11.3258 5.24694 11.232 5.36018L6.23195 10.8602C6.06221 11.0644 5.98055 11.3277 6.00493 11.5921C6.02931 11.8565 6.15774 12.1005 6.36195 12.2702C6.56617 12.4399 6.82945 12.5216 7.09388 12.4972C7.3583 12.4728 7.60221 12.3444 7.77195 12.1402L11.0022 8.64266L11.0022 18C11.0022 18.5523 11.4499 19 12.0022 19Z" fill="#888F9A"/>
<path d="M13.0022 18L13.3022 18L13.0022 18ZM13.0022 8.64319L13.2226 8.43965L12.7022 7.87621L12.7022 8.64319L13.0022 8.64319ZM16.232 12.1402L16.4629 11.9487L16.4578 11.9425L16.4523 11.9367L16.232 12.1402ZM16.5353 12.3865L16.3954 12.6519L16.3954 12.6519L16.5353 12.3865ZM16.91 12.4977L16.8824 12.7965L16.8824 12.7965L16.91 12.4977ZM17.642 12.2702L17.45 12.0397L17.4499 12.0397L17.642 12.2702ZM18.002 11.5002L17.702 11.4996L17.702 11.5007L18.002 11.5002ZM17.772 10.8602L18.0032 10.6686L17.9939 10.6584L17.772 10.8602ZM12.772 5.36018L12.5407 5.5518L12.55 5.56198L12.772 5.36018ZM12.4274 5.09018L12.555 4.81868L12.4274 5.09018ZM11.5765 5.09018L11.7042 5.36168L11.5765 5.09018ZM11.232 5.36018L11.4542 5.5622L11.463 5.5516L11.232 5.36018ZM6.23195 10.8602L6.00975 10.6582L6.00124 10.6684L6.23195 10.8602ZM6.36195 12.2702L6.55371 12.0395L6.55371 12.0395L6.36195 12.2702ZM7.77195 12.1402L7.55157 11.9366L7.54625 11.9424L7.54124 11.9484L7.77195 12.1402ZM11.0022 8.64266L11.3022 8.64266L11.3022 7.87567L10.7818 8.43912L11.0022 8.64266ZM12.7022 18C12.7022 18.3866 12.3888 18.7 12.0022 18.7L12.0022 19.3C12.7202 19.3 13.3022 18.718 13.3022 18L12.7022 18ZM12.7022 8.64319L12.7022 18L13.3022 18L13.3022 8.64319L12.7022 8.64319ZM16.4523 11.9367L13.2226 8.43965L12.7818 8.84674L16.0116 12.3437L16.4523 11.9367ZM16.6753 12.1211C16.5938 12.0782 16.5217 12.0196 16.4629 11.9487L16.001 12.3317C16.1101 12.4633 16.2442 12.5721 16.3954 12.6519L16.6753 12.1211ZM16.9375 12.199C16.8458 12.1905 16.7567 12.1641 16.6753 12.1211L16.3954 12.6519C16.5467 12.7316 16.7122 12.7808 16.8824 12.7965L16.9375 12.199ZM17.2096 12.1704C17.1217 12.1977 17.0292 12.2075 16.9375 12.199L16.8824 12.7965C17.0527 12.8122 17.2244 12.7941 17.3877 12.7434L17.2096 12.1704ZM17.4499 12.0397C17.3792 12.0987 17.2975 12.1431 17.2096 12.1704L17.3877 12.7434C17.551 12.6926 17.7026 12.6101 17.834 12.5007L17.4499 12.0397ZM17.6361 11.7983C17.5925 11.8914 17.529 11.9739 17.45 12.0397L17.834 12.5007C17.9807 12.3785 18.0987 12.2254 18.1796 12.0524L17.6361 11.7983ZM17.702 11.5007C17.7021 11.6035 17.6796 11.7051 17.6361 11.7983L18.1796 12.0524C18.2605 11.8794 18.3023 11.6907 18.302 11.4997L17.702 11.5007ZM17.541 11.0516C17.6453 11.1775 17.7023 11.3361 17.702 11.4996L18.302 11.5008C18.3025 11.197 18.1968 10.9027 18.003 10.6688L17.541 11.0516ZM12.55 5.56198L17.55 11.062L17.9939 10.6584L12.9939 5.15838L12.55 5.56198ZM12.2997 5.36168C12.3899 5.40408 12.4731 5.4697 12.541 5.5516L13.003 5.16877C12.8831 5.02419 12.731 4.90142 12.555 4.81868L12.2997 5.36168ZM12.002 5.30018C12.112 5.30018 12.2126 5.3207 12.2997 5.36168L12.555 4.81868C12.376 4.73454 12.186 4.70018 12.002 4.70018L12.002 5.30018ZM11.7042 5.36168C11.7913 5.3207 11.8919 5.30018 12.002 5.30018L12.002 4.70018C11.8179 4.70018 11.6279 4.73454 11.4489 4.81868L11.7042 5.36168ZM11.463 5.5516C11.5308 5.4697 11.614 5.40408 11.7042 5.36168L11.4489 4.81868C11.2729 4.90142 11.1208 5.02419 11.001 5.16877L11.463 5.5516ZM6.45393 11.062L11.4539 5.56198L11.01 5.15838L6.00997 10.6584L6.45393 11.062ZM6.30366 11.5646C6.28659 11.3794 6.34378 11.195 6.46266 11.052L6.00124 10.6684C5.78064 10.9338 5.67451 11.276 5.7062 11.6197L6.30366 11.5646ZM6.55371 12.0395C6.41068 11.9206 6.32074 11.7498 6.30366 11.5646L5.7062 11.6197C5.73788 11.9633 5.90479 12.2803 6.17019 12.5009L6.55371 12.0395ZM7.06633 12.1985C6.88114 12.2156 6.69674 12.1584 6.55371 12.0395L6.17019 12.5009C6.4356 12.7215 6.77776 12.8276 7.12142 12.7959L7.06633 12.1985ZM7.54124 11.9484C7.42236 12.0915 7.25153 12.1814 7.06633 12.1985L7.12142 12.7959C7.46507 12.7643 7.78207 12.5974 8.00266 12.332L7.54124 11.9484ZM10.7818 8.43912L7.55157 11.9366L7.99234 12.3437L11.2226 8.84621L10.7818 8.43912ZM11.3022 18L11.3022 8.64266L10.7022 8.64266L10.7022 18L11.3022 18ZM12.0022 18.7C11.6156 18.7 11.3022 18.3866 11.3022 18L10.7022 18C10.7022 18.718 11.2842 19.3 12.0022 19.3L12.0022 18.7Z" fill="white" mask="url(#path-1-inside-1)"/>
</svg>
