<svg width="32" height="32" viewBox="0 0 32 32" fill="none" xmlns="http://www.w3.org/2000/svg">
<path d="M21.3327 22.668H10.666V14.668C10.666 11.3613 12.6793 8.66797 15.9993 8.66797C19.3193 8.66797 21.3327 11.3613 21.3327 14.668V22.668Z" fill="#FFE3BF"/>
<path d="M15.9997 29.333C17.4663 29.333 18.6663 28.133 18.6663 26.6663H13.333C13.333 28.133 14.533 29.333 15.9997 29.333ZM23.9997 21.333V14.6663C23.9997 10.573 21.8263 7.14634 17.9997 6.23967V5.33301C17.9997 4.22634 17.1063 3.33301 15.9997 3.33301C14.893 3.33301 13.9997 4.22634 13.9997 5.33301V6.23967C10.1863 7.14634 7.99967 10.5597 7.99967 14.6663V21.333L5.33301 23.9997V25.333H26.6663V23.9997L23.9997 21.333ZM21.333 22.6663H10.6663V14.6663C10.6663 11.3597 12.6797 8.66634 15.9997 8.66634C19.3197 8.66634 21.333 11.3597 21.333 14.6663V22.6663Z" fill="#E9A454"/>
</svg>
