<svg width="24" height="24" viewBox="0 0 24 24" fill="none" xmlns="http://www.w3.org/2000/svg">
<path d="M18 7.5C17.7348 7.5 17.4804 7.39464 17.2929 7.20711C17.1054 7.01957 17 6.76522 17 6.5V4.5C17 4.23478 17.1054 3.98043 17.2929 3.79289C17.4804 3.60536 17.7348 3.5 18 3.5C18.2652 3.5 18.5196 3.60536 18.7071 3.79289C18.8946 3.98043 19 4.23478 19 4.5V6.5C19 6.76522 18.8946 7.01957 18.7071 7.20711C18.5196 7.39464 18.2652 7.5 18 7.5ZM7 6.5V4.5C7 4.23478 6.89464 3.98043 6.70711 3.79289C6.51957 3.60536 6.26522 3.5 6 3.5C5.73478 3.5 5.48043 3.60536 5.29289 3.79289C5.10536 3.98043 5 4.23478 5 4.5V6.5C5 6.76522 5.10536 7.01957 5.29289 7.20711C5.48043 7.39464 5.73478 7.5 6 7.5C6.26522 7.5 6.51957 7.39464 6.70711 7.20711C6.89464 7.01957 7 6.76522 7 6.5ZM12.71 14.21L13.41 13.5C13.7856 13.1266 13.9978 12.6196 14 12.09V8.5C14 8.23478 13.8946 7.98043 13.7071 7.79289C13.5196 7.60536 13.2652 7.5 13 7.5C12.7348 7.5 12.4804 7.60536 12.2929 7.79289C12.1054 7.98043 12 8.23478 12 8.5V12.09L11.29 12.79C11.1963 12.883 11.1219 12.9936 11.0711 13.1154C11.0203 13.2373 10.9942 13.368 10.9942 13.5C10.9942 13.632 11.0203 13.7627 11.0711 13.8846C11.1219 14.0064 11.1963 14.117 11.29 14.21C11.383 14.3037 11.4936 14.3781 11.6154 14.4289C11.7373 14.4797 11.868 14.5058 12 14.5058C12.132 14.5058 12.2627 14.4797 12.3846 14.4289C12.5064 14.3781 12.617 14.3037 12.71 14.21ZM16.33 19C16.4024 18.8862 16.4509 18.7589 16.4728 18.6258C16.4947 18.4927 16.4895 18.3566 16.4574 18.2256C16.4253 18.0946 16.367 17.9715 16.2861 17.8636C16.2052 17.7557 16.1033 17.6652 15.9865 17.5978C15.8698 17.5303 15.7406 17.4871 15.6067 17.4708C15.4728 17.4546 15.337 17.4655 15.2075 17.5031C15.0779 17.5407 14.9573 17.6041 14.853 17.6895C14.7486 17.7749 14.6625 17.8805 14.6 18C14.337 18.457 13.9581 18.8365 13.5017 19.1005C13.0452 19.3644 12.5273 19.5033 12 19.5033C11.4727 19.5033 10.9548 19.3644 10.4983 19.1005C10.0419 18.8365 9.66304 18.457 9.4 18C9.33748 17.8805 9.25144 17.7749 9.14705 17.6895C9.04265 17.6041 8.92206 17.5407 8.79254 17.5031C8.66301 17.4655 8.52722 17.4546 8.39333 17.4708C8.25945 17.4871 8.13024 17.5303 8.01347 17.5978C7.89671 17.6652 7.7948 17.7557 7.71388 17.8636C7.63297 17.9715 7.57472 18.0946 7.54263 18.2256C7.51054 18.3566 7.50529 18.4927 7.52717 18.6258C7.54906 18.7589 7.59765 18.8862 7.67 19C8.10886 19.76 8.74004 20.3912 9.50011 20.83C10.2602 21.2688 11.1224 21.4998 12 21.4998C12.8776 21.4998 13.7398 21.2688 14.4999 20.83C15.26 20.3912 15.8911 19.76 16.33 19Z" fill="#2D323B"/>
</svg>
