<svg width="24" height="24" viewBox="0 0 24 24" fill="none" xmlns="http://www.w3.org/2000/svg">
<path d="M16.2482 20.9993C16.3952 20.9995 16.5403 20.9674 16.6734 20.9052C16.8065 20.843 16.9242 20.7522 17.0182 20.6393C17.1024 20.5382 17.1659 20.4216 17.2049 20.296C17.244 20.1704 17.2579 20.0383 17.2458 19.9073C17.2337 19.7763 17.1959 19.649 17.1346 19.5327C17.0732 19.4163 16.9895 19.3132 16.8882 19.2293L9.30805 11.9993L16.8882 4.7693C17.0925 4.59956 17.2209 4.35565 17.2453 4.09122C17.2696 3.8268 17.188 3.56352 17.0182 3.3593C16.8485 3.15508 16.6046 3.02666 16.3402 3.00228C16.0757 2.9779 15.8125 3.05956 15.6082 3.2293L7.10805 11.2293C6.99481 11.3231 6.90061 11.4408 6.83805 11.5739C6.77548 11.707 6.74805 11.8522 6.74805 11.9993C6.74805 12.1464 6.77548 12.2916 6.83805 12.4247C6.90061 12.5578 6.99481 12.6755 7.10805 12.7693L15.6082 20.7693C15.7882 20.9184 16.0146 20.9998 16.2482 20.9993Z" fill="#2D323B"/>
</svg>
