<svg width="24" height="24" viewBox="0 0 24 24" fill="none" xmlns="http://www.w3.org/2000/svg">
<path fill-rule="evenodd" clip-rule="evenodd" d="M11.9998 5C11.4475 5 10.9998 5.44772 10.9998 6V15.3568L7.77 11.8598C7.68605 11.7585 7.58295 11.6748 7.4666 11.6135C7.35026 11.5521 7.22295 11.5143 7.09197 11.5023C6.961 11.4902 6.82893 11.5041 6.70332 11.5431C6.57772 11.5822 6.46105 11.6456 6.36 11.7298C6.24712 11.8238 6.15634 11.9416 6.09412 12.0747C6.0319 12.2077 5.99976 12.3529 6 12.4998C5.99955 12.7335 6.08092 12.9599 6.23 13.1398L11.23 18.6398C11.3238 18.7531 11.4415 18.8473 11.5746 18.9098C11.7077 18.9724 11.8529 18.9998 12 18.9998C12.1471 18.9998 12.2923 18.9724 12.4254 18.9098C12.5585 18.8473 12.6762 18.7531 12.77 18.6398L17.77 13.1398C17.9397 12.9356 18.0214 12.6723 17.997 12.4079C17.9726 12.1435 17.8442 11.8995 17.64 11.7298C17.4358 11.5601 17.1725 11.4784 16.9081 11.5028C16.6437 11.5272 16.3997 11.6556 16.23 11.8598L12.9998 15.3573V6C12.9998 5.44772 12.552 5 11.9998 5Z" fill="#2D323B"/>
</svg>
