<svg width="24" height="24" viewBox="0 0 24 24" fill="none" xmlns="http://www.w3.org/2000/svg">
<mask id="mask0" mask-type="alpha" maskUnits="userSpaceOnUse" x="0" y="0" width="24" height="24">
<rect width="24" height="24" fill="#2D323B"/>
</mask>
<g mask="url(#mask0)">
<path fill-rule="evenodd" clip-rule="evenodd" d="M7.72882 10.8111L8.72574 12.5378L15.3827 8.69444L15.6311 8.76191L15.1826 11.7621L15.1168 12.0109L10.539 14.6539L10.5399 14.6541L10.0958 14.9105L10.0965 14.9117L7.26932 16.5439L7.26866 16.5428L2.97479 19.0218L2.72642 18.9544L3.17488 15.9542L3.24064 15.7054L5.46996 14.4183L5.46902 14.4181L5.8986 14.1701L3.54146 10.0874L3.60784 9.83966L16.162 2.59153L16.4112 2.65706L15.9519 5.64466L15.8899 5.88986L7.7952 10.5634L7.72882 10.8111ZM7.87792 17.598L9.70744 20.7668L9.95518 20.8332L20.2495 14.8898L20.32 14.6397L20.803 11.6384L20.5573 11.5708L11.4221 16.845L11.1744 16.7786L10.7051 15.9658L7.87792 17.598Z" fill="#2D323B"/>
</g>
</svg>
