<svg width="24" height="24" viewBox="0 0 24 24" fill="none" xmlns="http://www.w3.org/2000/svg">
<path d="M20 22.022H4C3.4 22.022 3 21.622 3 21.022C3 20.422 3.4 20.022 4 20.022H20C20.6 20.022 21 20.422 21 21.022C21 21.622 20.6 22.022 20 22.022ZM7 18.022V12.022C7 11.422 6.6 11.022 6 11.022C5.4 11.022 5 11.422 5 12.022V18.022C5 18.622 5.4 19.022 6 19.022C6.6 19.022 7 18.622 7 18.022ZM13 18.022V12.022C13 11.422 12.6 11.022 12 11.022C11.4 11.022 11 11.422 11 12.022V18.022C11 18.622 11.4 19.022 12 19.022C12.6 19.022 13 18.622 13 18.022ZM19 18.022V12.022C19 11.422 18.6 11.022 18 11.022C17.4 11.022 17 11.422 17 12.022V18.022C17 18.622 17.4 19.022 18 19.022C18.6 19.022 19 18.622 19 18.022ZM6.3 8.022C7.4 4.922 10.8 3.222 14 4.322C15.7 4.922 17.1 6.322 17.7 8.022H6.3ZM19.8 8.022C18.7 3.722 14.3 1.122 10.1 2.222C7.2 3.022 5 5.222 4.2 8.022H4C3.4 8.022 3 8.422 3 9.022C3 9.622 3.4 10.022 4 10.022H20C20.6 10.022 21 9.622 21 9.022C21 8.422 20.6 8.022 20 8.022H19.8Z" fill="#2D323B"/>
</svg>
