<svg width="24" height="24" viewBox="0 0 24 24" fill="none" xmlns="http://www.w3.org/2000/svg">
<path d="M18.0003 8.99883C18.0005 8.85192 17.9684 8.70676 17.9062 8.57368C17.8439 8.44059 17.7532 8.32285 17.6403 8.22883C17.5392 8.14463 17.4226 8.08119 17.297 8.04214C17.1714 8.0031 17.0393 7.98922 16.9083 8.00129C16.7773 8.01337 16.65 8.05117 16.5337 8.11252C16.4173 8.17387 16.3142 8.25757 16.2303 8.35883L12.0003 13.4388L7.77028 8.35883C7.60054 8.15461 7.35663 8.02619 7.0922 8.00181C6.82777 7.97743 6.56449 8.05909 6.36028 8.22883C6.15606 8.39857 6.02763 8.64248 6.00325 8.90691C5.97888 9.17133 6.06054 9.43461 6.23028 9.63883L11.2303 15.6388C11.3241 15.7521 11.4418 15.8432 11.5749 15.9058C11.708 15.9683 11.8532 16.0008 12.0003 16.0008C12.1473 16.0008 12.2926 15.9683 12.4257 15.9058C12.5588 15.8432 12.6764 15.7521 12.7703 15.6388L17.7703 9.63883C17.9194 9.45892 18.0007 9.23248 18.0003 8.99883Z" fill="#2D323B"/>
</svg>
