<svg width="24" height="24" viewBox="0 0 24 24" fill="none" xmlns="http://www.w3.org/2000/svg">
<path d="M14.7482 17.9993C14.8952 17.9995 15.0403 17.9674 15.1734 17.9052C15.3065 17.843 15.4242 17.7522 15.5182 17.6393C15.6024 17.5382 15.6659 17.4216 15.7049 17.296C15.744 17.1704 15.7579 17.0383 15.7458 16.9073C15.7337 16.7764 15.6959 16.649 15.6346 16.5327C15.5732 16.4163 15.4895 16.3132 15.3882 16.2293L10.808 11.9993L15.3882 7.7693C15.5925 7.59956 15.7209 7.35565 15.7453 7.09122C15.7696 6.8268 15.688 6.56352 15.5182 6.3593C15.3485 6.15508 15.1046 6.02666 14.8402 6.00228C14.5757 5.9779 14.3125 6.05956 14.1082 6.2293L8.60805 11.2293C8.49481 11.3231 8.40061 11.4408 8.33805 11.5739C8.27548 11.707 8.24805 11.8522 8.24805 11.9993C8.24805 12.1464 8.27548 12.2916 8.33805 12.4247C8.40061 12.5578 8.49481 12.6755 8.60805 12.7693L14.1082 17.7693C14.2882 17.9184 14.5146 17.9998 14.7482 17.9993Z" fill="#2D323B"/>
</svg>
