<svg width="24" height="24" viewBox="0 0 24 24" fill="none" xmlns="http://www.w3.org/2000/svg">
<path fill-rule="evenodd" clip-rule="evenodd" d="M16 11.5C16 12.325 16.675 13 17.5 13C18.325 13 19 12.325 19 11.5C19 10.675 18.325 10 17.5 10C16.675 10 16 10.675 16 11.5ZM13.5 11.5C13.5 10.675 12.825 10 12 10C11.175 10 10.5 10.675 10.5 11.5C10.5 12.325 11.175 13 12 13C12.825 13 13.5 12.325 13.5 11.5ZM6.5 10C7.325 10 8 10.675 8 11.5C8 12.325 7.325 13 6.5 13C5.675 13 5 12.325 5 11.5C5 10.675 5.675 10 6.5 10Z" fill="#2D323B"/>
</svg>
