<svg width="24" height="24" viewBox="0 0 24 24" fill="none" xmlns="http://www.w3.org/2000/svg">
<path d="M17 22C16.05 22 13 20.17 13 18V15C12.9995 14.7904 13.0648 14.5858 13.1868 14.4154C13.3089 14.2449 13.4814 14.1171 13.68 14.05L16.68 13.05C16.8876 12.9799 17.1124 12.9799 17.32 13.05L20.32 14.05C20.5186 14.1171 20.6911 14.2449 20.8132 14.4154C20.9352 14.5858 21.0005 14.7904 21 15V18C21 20.15 18 22 17 22ZM15 15.73V18C15 18.66 16.37 19.7 17 19.95C17.63 19.7 19 18.66 19 18V15.73L17 15.06L15 15.73ZM12.33 20C12.33 19.7348 12.2246 19.4804 12.0371 19.2929C11.8496 19.1054 11.5952 19 11.33 19H5V4H15V11.06C15 11.3252 15.1054 11.5796 15.2929 11.7671C15.4804 11.9546 15.7348 12.06 16 12.06C16.2652 12.06 16.5196 11.9546 16.7071 11.7671C16.8946 11.5796 17 11.3252 17 11.06V4C17 3.46957 16.7893 2.96086 16.4142 2.58579C16.0391 2.21071 15.5304 2 15 2H5C4.46957 2 3.96086 2.21071 3.58579 2.58579C3.21071 2.96086 3 3.46957 3 4V19C3 19.5304 3.21071 20.0391 3.58579 20.4142C3.96086 20.7893 4.46957 21 5 21H11.33C11.5952 21 11.8496 20.8946 12.0371 20.7071C12.2246 20.5196 12.33 20.2652 12.33 20ZM11 7C11 6.73478 10.8946 6.48043 10.7071 6.29289C10.5196 6.10536 10.2652 6 10 6H7C6.73478 6 6.48043 6.10536 6.29289 6.29289C6.10536 6.48043 6 6.73478 6 7C6 7.26522 6.10536 7.51957 6.29289 7.70711C6.48043 7.89464 6.73478 8 7 8H10C10.2652 8 10.5196 7.89464 10.7071 7.70711C10.8946 7.51957 11 7.26522 11 7ZM14 12C14 11.7348 13.8946 11.4804 13.7071 11.2929C13.5196 11.1054 13.2652 11 13 11H7C6.73478 11 6.48043 11.1054 6.29289 11.2929C6.10536 11.4804 6 11.7348 6 12C6 12.2652 6.10536 12.5196 6.29289 12.7071C6.48043 12.8946 6.73478 13 7 13H13C13.2652 13 13.5196 12.8946 13.7071 12.7071C13.8946 12.5196 14 12.2652 14 12ZM12 16C12 15.7348 11.8946 15.4804 11.7071 15.2929C11.5196 15.1054 11.2652 15 11 15H7C6.73478 15 6.48043 15.1054 6.29289 15.2929C6.10536 15.4804 6 15.7348 6 16C6 16.2652 6.10536 16.5196 6.29289 16.7071C6.48043 16.8946 6.73478 17 7 17H11C11.2652 17 11.5196 16.8946 11.7071 16.7071C11.8946 16.5196 12 16.2652 12 16Z" fill="#2D323B"/>
</svg>
