<svg width="24" height="24" viewBox="0 0 24 24" fill="none" xmlns="http://www.w3.org/2000/svg">
<path fill-rule="evenodd" clip-rule="evenodd" d="M18.7171 9.28317C18.8734 9.12696 18.8734 8.8737 18.7171 8.71749L12.2828 2.28317C12.1266 2.12696 11.8734 2.12696 11.7171 2.28317L5.28283 8.71749C5.12662 8.8737 5.12662 9.12696 5.28283 9.28317L6.13684 10.1372C6.29317 10.2935 6.54667 10.2934 6.70283 10.1369L11 5.83033V17.6003C11 17.8212 11.1791 18.0003 11.4 18.0003H12.6C12.8209 18.0003 13 17.8212 13 17.6003V5.83033L17.3071 10.1281C17.4634 10.284 17.7164 10.2839 17.8725 10.1278L18.7171 9.28317ZM18.6 22.0003C18.8209 22.0003 19 21.8212 19 21.6003V20.4003C19 20.1794 18.8209 20.0003 18.6 20.0003H5.4C5.17909 20.0003 5 20.1794 5 20.4003V21.6003C5 21.8212 5.17909 22.0003 5.4 22.0003H18.6Z" fill="#2D323B"/>
</svg>
