<svg width="24" height="24" viewBox="0 0 24 24" fill="none" xmlns="http://www.w3.org/2000/svg">
<path fill-rule="evenodd" clip-rule="evenodd" d="M12.0022 19C12.5545 19 13.0022 18.5523 13.0022 18L13.0022 8.64319L16.232 12.1402C16.3159 12.2415 16.419 12.3252 16.5353 12.3865C16.6517 12.4479 16.779 12.4857 16.91 12.4977C17.041 12.5098 17.173 12.4959 17.2986 12.4569C17.4242 12.4178 17.5409 12.3544 17.642 12.2702C17.7548 12.1762 17.8456 12.0584 17.9078 11.9253C17.9701 11.7923 18.0022 11.6471 18.002 11.5002C18.0024 11.2665 17.921 11.0401 17.772 10.8602L12.772 5.36018C12.6781 5.24694 12.5605 5.15275 12.4274 5.09018C12.2943 5.02762 12.149 5.00018 12.002 5.00018C11.8549 5.00018 11.7096 5.02762 11.5765 5.09018C11.4434 5.15275 11.3258 5.24694 11.232 5.36018L6.23195 10.8602C6.06221 11.0644 5.98055 11.3277 6.00493 11.5921C6.02931 11.8565 6.15774 12.1005 6.36195 12.2702C6.56617 12.4399 6.82945 12.5216 7.09388 12.4972C7.3583 12.4728 7.60221 12.3444 7.77195 12.1402L11.0022 8.64266L11.0022 18C11.0022 18.5523 11.4499 19 12.0022 19Z" fill="#2D323B"/>
</svg>
