<svg width="32" height="32" viewBox="0 0 32 32" fill="none" xmlns="http://www.w3.org/2000/svg">
<path d="M21.827 21.5936L11.2916 23.2622L10.0402 15.3607C9.52289 12.0947 11.0901 9.11962 14.3692 8.60025C17.6484 8.08089 20.0582 10.4261 20.5755 13.6921L21.827 21.5936Z" fill="#FFE3BF"/>
<path d="M17.6026 29.0113C19.0512 28.7818 20.0488 27.4089 19.8193 25.9603L14.5516 26.7946C14.7811 28.2432 16.154 29.2407 17.6026 29.0113ZM24.2527 19.8583L23.2098 13.2737C22.5694 9.23075 19.8868 6.18626 15.9654 5.88938L15.8236 4.99387C15.6505 3.90083 14.6284 3.15825 13.5353 3.33137C12.4423 3.50449 11.6997 4.52657 11.8728 5.61961L12.0147 6.51512C8.39012 8.00716 6.76434 11.7205 7.40676 15.7766L8.44966 22.3612L6.23298 25.4122L6.44156 26.7291L27.5122 23.3919L27.3037 22.075L24.2527 19.8583ZM21.8274 21.5924L11.2921 23.261L10.0406 15.3595C9.52332 12.0935 11.0905 9.1184 14.3697 8.59904C17.6488 8.07967 20.0587 10.4249 20.5759 13.6909L21.8274 21.5924Z" fill="#E9A454"/>
</svg>
