<svg width="32" height="32" viewBox="0 0 32 32" fill="none" xmlns="http://www.w3.org/2000/svg">
<path d="M26.6667 29.3633H5.33333C4.53333 29.3633 4 28.83 4 28.03C4 27.23 4.53333 26.6966 5.33333 26.6966H26.6667C27.4667 26.6966 28 27.23 28 28.03C28 28.83 27.4667 29.3633 26.6667 29.3633ZM9.33333 24.03V16.03C9.33333 15.23 8.8 14.6966 8 14.6966C7.2 14.6966 6.66667 15.23 6.66667 16.03V24.03C6.66667 24.83 7.2 25.3633 8 25.3633C8.8 25.3633 9.33333 24.83 9.33333 24.03ZM17.3333 24.03V16.03C17.3333 15.23 16.8 14.6966 16 14.6966C15.2 14.6966 14.6667 15.23 14.6667 16.03V24.03C14.6667 24.83 15.2 25.3633 16 25.3633C16.8 25.3633 17.3333 24.83 17.3333 24.03ZM25.3333 24.03V16.03C25.3333 15.23 24.8 14.6966 24 14.6966C23.2 14.6966 22.6667 15.23 22.6667 16.03V24.03C22.6667 24.83 23.2 25.3633 24 25.3633C24.8 25.3633 25.3333 24.83 25.3333 24.03ZM8.4 10.6966C9.86667 6.56331 14.4 4.29665 18.6667 5.76331C20.9333 6.56331 22.8 8.42998 23.6 10.6966H8.4ZM26.4 10.6966C24.9333 4.96331 19.0667 1.49665 13.4667 2.96331C9.6 4.02998 6.66667 6.96331 5.6 10.6966H5.33333C4.53333 10.6966 4 11.23 4 12.03C4 12.83 4.53333 13.3633 5.33333 13.3633H26.6667C27.4667 13.3633 28 12.83 28 12.03C28 11.23 27.4667 10.6966 26.6667 10.6966H26.4Z" fill="#687D74"/>
<path d="M8.40039 10.6962C9.86706 6.56288 14.4004 4.29621 18.6671 5.76288C20.9337 6.56288 22.8004 8.42954 23.6004 10.6962H8.40039Z" fill="#C7D9D2"/>
</svg>
