<svg width="32" height="32" viewBox="0 0 32 32" fill="none" xmlns="http://www.w3.org/2000/svg">
<path d="M28.0002 17.5L20.5002 16L16.4902 16.91L21.6054 18.508C22.7327 18.8602 23.5002 19.9042 23.5002 21.0852V21.5H28.0002V17.5Z" fill="#F4EAD6"/>
<path d="M11.333 16.0003C10.41 16.0003 9.50778 15.7266 8.74035 15.2139C7.97292 14.7011 7.37478 13.9722 7.02157 13.1195C6.66836 12.2668 6.57595 11.3285 6.75601 10.4232C6.93607 9.51799 7.38053 8.68647 8.03318 8.03383C8.68582 7.38118 9.51734 6.93673 10.4226 6.75666C11.3278 6.5766 12.2661 6.66901 13.1189 7.02222C13.9716 7.37543 14.7004 7.97357 15.2132 8.741C15.726 9.50843 15.9997 10.4107 15.9997 11.3337C15.9997 12.5713 15.508 13.7583 14.6328 14.6335C13.7577 15.5087 12.5707 16.0003 11.333 16.0003ZM11.333 9.33366C10.9374 9.33366 10.5508 9.45096 10.2219 9.67072C9.89297 9.89048 9.63662 10.2028 9.48525 10.5683C9.33387 10.9337 9.29427 11.3359 9.37144 11.7238C9.44861 12.1118 9.63909 12.4682 9.91879 12.7479C10.1985 13.0276 10.5549 13.2181 10.9428 13.2952C11.3308 13.3724 11.7329 13.3328 12.0984 13.1814C12.4638 13.03 12.7762 12.7737 12.9959 12.4448C13.2157 12.1159 13.333 11.7292 13.333 11.3337C13.333 10.8032 13.1223 10.2945 12.7472 9.91945C12.3721 9.54437 11.8634 9.33366 11.333 9.33366ZM18.6663 28.0003H3.99967C3.29243 28.0003 2.61415 27.7194 2.11406 27.2193C1.61396 26.7192 1.33301 26.0409 1.33301 25.3337V22.3203C1.33329 21.7507 1.51596 21.1961 1.85427 20.7379C2.19258 20.2796 2.66874 19.9417 3.21301 19.7737L10.5463 17.507C11.0605 17.3603 11.6055 17.3603 12.1197 17.507L19.453 19.7737C19.9973 19.9417 20.4734 20.2796 20.8117 20.7379C21.15 21.1961 21.3327 21.7507 21.333 22.3203V25.3337C21.333 26.0409 21.0521 26.7192 20.552 27.2193C20.0519 27.7194 19.3736 28.0003 18.6663 28.0003ZM11.333 20.067L3.99967 22.3203V25.3337H18.6663V22.3203L11.333 20.067Z" fill="#6E6459"/>
<path d="M11.3333 9.33301C10.9378 9.33301 10.5511 9.45031 10.2222 9.67007C9.89329 9.88983 9.63695 10.2022 9.48557 10.5676C9.3342 10.9331 9.29459 11.3352 9.37176 11.7232C9.44893 12.1112 9.63941 12.4675 9.91912 12.7472C10.1988 13.0269 10.5552 13.2174 10.9432 13.2946C11.3311 13.3717 11.7332 13.3321 12.0987 13.1808C12.4642 13.0294 12.7765 12.773 12.9963 12.4441C13.216 12.1152 13.3333 11.7286 13.3333 11.333C13.3333 10.8026 13.1226 10.2939 12.7475 9.91879C12.3725 9.54372 11.8638 9.33301 11.3333 9.33301ZM11.3333 20.0663L4 22.3197V25.333H18.6667V22.3197L11.3333 20.0663Z" fill="#D9D1C8"/>
<path d="M30.6662 21.3333V18.32C30.6659 17.7504 30.4833 17.1958 30.145 16.7375C29.8067 16.2793 29.3305 15.9414 28.7862 15.7733L21.4529 13.5067C20.9432 13.3603 20.4026 13.3603 19.8929 13.5067L16.7329 14.4667C16.3959 14.5685 16.1128 14.7995 15.9454 15.1092C15.7781 15.4189 15.74 15.7823 15.8396 16.12C15.8899 16.2884 15.973 16.4451 16.0842 16.5813C16.1953 16.7174 16.3322 16.8302 16.4871 16.9132C16.642 16.9963 16.8118 17.0478 16.9867 17.065C17.1616 17.0822 17.3381 17.0646 17.5062 17.0133L20.6662 16.0667L27.9996 18.32V21.3333H23.9996C23.6459 21.3333 23.3068 21.4738 23.0567 21.7239C22.8067 21.9739 22.6662 22.313 22.6662 22.6667C22.6662 23.0203 22.8067 23.3594 23.0567 23.6095C23.3068 23.8595 23.6459 24 23.9996 24H27.9996C28.7068 24 29.3851 23.719 29.8852 23.219C30.3853 22.7189 30.6662 22.0406 30.6662 21.3333ZM16.6662 8C16.6662 8.79113 16.9008 9.56448 17.3403 10.2223C17.7799 10.8801 18.4046 11.3928 19.1355 11.6955C19.8664 11.9983 20.6707 12.0775 21.4466 11.9231C22.2225 11.7688 22.9352 11.3878 23.4947 10.8284C24.0541 10.269 24.435 9.55629 24.5894 8.78036C24.7437 8.00444 24.6645 7.20017 24.3617 6.46927C24.059 5.73836 23.5463 5.11365 22.8885 4.67412C22.2307 4.2346 21.4574 4 20.6662 4C19.6054 4 18.5879 4.42143 17.8378 5.17157C17.0877 5.92172 16.6662 6.93913 16.6662 8Z" fill="#CCC0A9"/>
<path d="M30.6662 21.3333V18.32C30.6659 17.7504 30.4833 17.1958 30.145 16.7375C29.8067 16.2793 29.3305 15.9414 28.7862 15.7733L21.4529 13.5067C20.9432 13.3603 20.4026 13.3603 19.8929 13.5067L16.7329 14.4667C16.3959 14.5685 16.1128 14.7995 15.9454 15.1092C15.7781 15.4189 15.74 15.7823 15.8396 16.12C15.8899 16.2884 15.973 16.4451 16.0842 16.5813C16.1953 16.7174 16.3322 16.8302 16.4871 16.9132C16.642 16.9963 16.8118 17.0478 16.9867 17.065C17.1616 17.0822 17.3381 17.0646 17.5062 17.0133L20.6662 16.0667L27.9996 18.32V21.3333H23.9996C23.6459 21.3333 23.3068 21.4738 23.0567 21.7239C22.8067 21.9739 22.6662 22.313 22.6662 22.6667C22.6662 23.0203 22.8067 23.3594 23.0567 23.6095C23.3068 23.8595 23.6459 24 23.9996 24H27.9996C28.7068 24 29.3851 23.719 29.8852 23.219C30.3853 22.7189 30.6662 22.0406 30.6662 21.3333ZM16.6662 8C16.6662 8.79113 16.9008 9.56448 17.3403 10.2223C17.7799 10.8801 18.4046 11.3928 19.1355 11.6955C19.8664 11.9983 20.6707 12.0775 21.4466 11.9231C22.2225 11.7688 22.9352 11.3878 23.4947 10.8284C24.0541 10.269 24.435 9.55629 24.5894 8.78036C24.7437 8.00444 24.6645 7.20017 24.3617 6.46927C24.059 5.73836 23.5463 5.11365 22.8885 4.67412C22.2307 4.2346 21.4574 4 20.6662 4C19.6054 4 18.5879 4.42143 17.8378 5.17157C17.0877 5.92172 16.6662 6.93913 16.6662 8Z" fill="#C8B598"/>
</svg>
