<svg width="32" height="32" viewBox="0 0 32 32" fill="none" xmlns="http://www.w3.org/2000/svg">
<path d="M6 11H28.67V14.995C28.67 15.7323 28.0723 16.33 27.335 16.33C26.5977 16.33 26 16.9277 26 17.665V19V20.335C26 21.0723 26.5977 21.67 27.335 21.67C28.0723 21.67 28.67 22.2677 28.67 23.005V26H6V11Z" fill="#D6C3B4"/>
<path d="M5.99967 8.33268H25.9997C26.7069 8.33268 27.3852 8.61363 27.8853 9.11373C28.3854 9.61383 28.6663 10.2921 28.6663 10.9993V12.9993V14.9993C28.6663 15.353 28.5259 15.6921 28.2758 15.9422C28.0258 16.1922 27.6866 16.3327 27.333 16.3327C26.9794 16.3327 26.6402 16.1922 26.3902 15.9422C26.1401 15.6921 25.9997 15.353 25.9997 14.9993V10.9993H5.99967V25.666H25.9997V22.9993C25.9997 22.6457 26.1401 22.3066 26.3902 22.0565C26.6402 21.8065 26.9794 21.666 27.333 21.666C27.6866 21.666 28.0258 21.8065 28.2758 22.0565C28.5259 22.3066 28.6663 22.6457 28.6663 22.9993V25.666C28.6663 26.3733 28.3854 27.0515 27.8853 27.5516C27.3852 28.0517 26.7069 28.3327 25.9997 28.3327H5.99967C5.29243 28.3327 4.61415 28.0517 4.11406 27.5516C3.61396 27.0515 3.33301 26.3733 3.33301 25.666V7.66602C3.33301 6.60515 3.75444 5.58773 4.50458 4.83759C5.25473 4.08744 6.27214 3.66602 7.33301 3.66602H24.6663C25.02 3.66602 25.3591 3.80649 25.6091 4.05654C25.8592 4.30659 25.9997 4.64573 25.9997 4.99935C25.9997 5.35297 25.8592 5.69211 25.6091 5.94216C25.3591 6.19221 25.02 6.33268 24.6663 6.33268H7.33301C6.97939 6.33268 6.64025 6.47316 6.3902 6.72321C6.14015 6.97326 5.99967 7.31239 5.99967 7.66602V8.33268ZM29.9997 18.9993C29.9997 18.6457 29.8592 18.3066 29.6091 18.0565C29.3591 17.8065 29.02 17.666 28.6663 17.666H20.6663C20.3127 17.666 19.9736 17.8065 19.7235 18.0565C19.4735 18.3066 19.333 18.6457 19.333 18.9993C19.333 19.353 19.4735 19.6921 19.7235 19.9422C19.9736 20.1922 20.3127 20.3327 20.6663 20.3327H28.6663C29.02 20.3327 29.3591 20.1922 29.6091 19.9422C29.8592 19.6921 29.9997 19.353 29.9997 18.9993Z" fill="#806C5E"/>
</svg>
